<svg xmlns="http://www.w3.org/2000/svg" width="576" height="157" viewBox="0 0 576 157">
  <g fill="none" fill-rule="evenodd" opacity=".5" transform="translate(0 3)">
    <polyline stroke="#DDD" stroke-width="5" points="337 35 357 35 357 55" transform="matrix(-1 0 0 1 694 0)"/>
    <polyline stroke="#DDD" stroke-width="5" points="34 0 54 0 54 20" transform="matrix(-1 0 0 1 88 0)"/>
    <polyline stroke="#DDD" stroke-width="5" points="433 131 453 131 453 151" transform="matrix(1 0 0 -1 0 282)"/>
    <polyline stroke="#DDD" stroke-width="5" points="104 70 124 70 124 90" transform="matrix(1 0 0 -1 0 160)"/>
    <polyline stroke="#DDD" stroke-width="5" points="153 38 173 38 173 58" transform="rotate(180 163 48)"/>
    <polyline stroke="#DDD" stroke-width="5" points="553 0 573 0 573 20"/>
    <g transform="translate(493 15)">
      <circle cx="32.5" cy="32.5" r="32.5" fill="#B6CEFF"/>
      <rect width="13.929" height="9.286" x="25.536" y="39.464" fill="#FFF" transform="rotate(180 32.5 44.107)"/>
      <polygon fill="#FFF" points="32.5 9.286 55.714 34.833 55.714 48.75 32.5 24.156 9.286 48.75 9.286 34.833"/>
    </g>
    <g transform="translate(44 10)">
      <circle cx="35" cy="35" r="35" fill="#B6CEFF"/>
      <rect width="15" height="10" x="27.5" y="42.5" fill="#FFF" transform="rotate(180 35 47.5)"/>
      <polygon fill="#FFF" points="35 10 60 37.512 60 52.5 35 26.014 10 52.5 10 37.512"/>
    </g>
    <g transform="translate(255 45)">
      <circle cx="24" cy="24" r="24" fill="#B6CEFF"/>
      <rect width="10.286" height="6.857" x="18.857" y="29.143" fill="#FFF" transform="rotate(180 24 32.571)"/>
      <polygon fill="#FFF" points="24 6.857 41.143 25.723 41.143 36 24 17.839 6.857 36 6.857 25.723"/>
    </g>
    <g transform="translate(163)">
      <circle cx="24" cy="24" r="24" fill="#7DA3EF"/>
      <rect width="10.286" height="6.857" x="18.857" y="29.143" fill="#FFF" transform="rotate(180 24 32.571)"/>
      <polygon fill="#FFF" points="24 6.857 41.143 25.723 41.143 36 24 17.839 6.857 36 6.857 25.723"/>
    </g>
    <g transform="translate(347 45)">
      <circle cx="48" cy="48" r="48" fill="#7DA3EF"/>
      <rect width="20.571" height="13.714" x="37.714" y="58.286" fill="#FFF" transform="rotate(180 48 65.143)"/>
      <polygon fill="#FFF" points="48 13.714 82.286 51.445 82.286 72 48 35.677 13.714 72 13.714 51.445"/>
    </g>
    <circle cx="487" cy="100" r="7" fill="#B6CEFF"/>
    <circle cx="128" cy="16" r="7" fill="#7DA3EF"/>
    <circle cx="248" cy="17" r="7" fill="#B6CEFF"/>
    <circle cx="321" cy="80" r="7" fill="#7DA3EF"/>
    <circle cx="462" cy="45" r="13" fill="#7DA3EF"/>
    <circle cx="13" cy="64" r="13" fill="#B6CEFF"/>
    <circle cx="211" cy="74" r="13" fill="#B6CEFF"/>
  </g>
</svg>
