<svg xmlns="http://www.w3.org/2000/svg" width="120" height="216" viewBox="0 0 120 216">
  <g fill="none" fill-rule="evenodd" transform="translate(1.439 1.496)">
    <path fill="#1469EB" stroke="#FFF1F1" stroke-width="2" d="M68.5301948 84.7302063C71.8438673 87.8713086 76.0955166 87.9368132 79.233895 84.6537843 88.2307848 75.2429545 95.2032563 66.6142521 103.572778 57.0084682 105.933097 54.3009441 106.826481 49.4208502 103.583542 46.3748856 100.615844 43.5878202 96.0674251 43.6018569 92.8567764 46.9363538 86.5615676 53.4758979 76.6767547 66.0769873 74.3487269 66.1658864 71.7854359 66.2625837 61.9705073 54.6479916 57.6573513 50.2451456 45.3836931 37.7119292 31.0577807 40.1605622 18.7693511 52.4863393 14.7526172 56.515281 10.4992859 61.9662519 5.00830063 69.2741798 2.54017042 72.5590034.455268571 79.798588.452193237 82.4873965.433741232 96.9452009.359933215 108.675206.419902229 123.13457.438354233 127.440719 2.47315595 130.900043 6.37114186 131.637749 9.80628999 132.288117 13.5983365 128.526558 14.1629544 124.734087 16.763743 107.264898 10.9533896 82.6714898 18.7124574 79.9624061 19.0784222 84.2576373 22.801114 130.648942 22.801114 131.695456 22.8072647 157.917577 22.8164907 177.47735 22.7903504 203.699472 22.787275 206.173051 24.5233011 214.167733 32.3684783 212.803054 35.6836884 212.224429 38.5606634 209.07241 38.8220668 205.811216 38.8989501 204.842683 38.8820358 124.525006 38.8820358 123.500327L43.1894422 123.500327C43.1894422 124.518767 43.2847776 206.190207 43.7322387 207.657822 44.8470473 211.310484 48.5589755 213.699843 52.1002227 213.295898 55.7029765 212.885714 58.8967109 209.588648 59.2872783 205.822133 59.381076 204.931582 59.1412 163.487029 59.4395074 140.342065 59.5886611 128.602702 61.4132469 78.2808668 61.6131437 78.1763714 62.5926376 79.2946287 67.4569032 83.7133251 68.5301948 84.7302063zM39.0955255 35.9723394C48.9061747 35.954911 56.9839093 27.8594074 56.8982078 18.1314413 56.8139588 8.43687964 48.8771233.492422394 39.1579859.373328154 29.4722577.254233913 21.3320625 8.36716594 21.2986535 18.1706552 21.2652444 27.9944777 29.2587301 35.9897678 39.0955255 35.9723394"/>
    <g transform="translate(90.696 8.646)">
      <ellipse cx="13.889" cy="15.001" fill="#FFF" rx="13.529" ry="13.474"/>
      <g fill="#1469EB" opacity=".6">
        <rect width="7.937" height="5.42" x="9.921" y="18.181" transform="rotate(180 13.89 20.891)"/>
        <polygon points="13.889 0 27.779 15.351 27.779 23.714 13.889 8.936 0 23.714 0 15.351"/>
      </g>
    </g>
  </g>
</svg>
