<svg xmlns="http://www.w3.org/2000/svg" width="55" height="117" viewBox="0 0 55 117">
  <g fill="#FFF" fill-rule="evenodd" stroke="#1469EB" transform="translate(.72 1.248)">
    <path d="M34.2650974 42.3651032C35.9219336 43.9356543 38.0477583 43.9684066 39.6169475 42.3268921 44.1153924 37.6214773 47.6016281 33.3071261 51.7863889 28.5042341 52.9665484 27.150472 53.4132407 24.7104251 51.7917708 23.1874428 50.3079221 21.7939101 48.0337126 21.8009285 46.4283882 23.4681769 43.2807838 26.7379489 38.3383774 33.0384936 37.1743634 33.0829432 35.892718 33.1312919 30.9852536 27.3239958 28.8286756 25.1225728 22.6918465 18.8559646 15.5288904 20.0802811 9.38467554 26.2431696 7.37630859 28.2576405 5.24964293 30.9831259 2.50415032 34.6370899 1.27008521 36.2795017.227634285 39.899294.226096618 41.2436983.216870616 48.4726005.179966608 56.337603.209951115 63.567285.219177117 65.7203593 1.23657797 67.4500213 3.18557093 67.8188747 4.903145 68.1440583 6.79916825 66.2632792 7.08147721 64.3670433 8.3818715 55.6324489 5.4766948 41.3357449 9.3562287 39.9812031 9.53921108 42.1288187 11.400557 73.3244708 11.400557 73.8477279 11.4036323 86.9587886 11.4082453 96.7386751 11.3951752 109.849736 11.3936375 111.086525 12.2616505 115.083866 16.1842391 114.401527 17.8418442 114.112215 19.2803317 112.536205 19.4110334 110.905608 19.4494751 110.421342 19.4410179 67.262503 19.4410179 66.7501633L21.5947211 66.7501633C21.5947211 67.2593837 21.6423888 111.095103 21.8661194 111.828911 22.4235237 113.655242 24.2794878 114.849921 26.0501113 114.647949 27.8514883 114.442857 29.4483555 112.794324 29.6436392 110.911067 29.690538 110.465791 29.5706 89.7435146 29.7197537 78.1710325 29.7943305 72.3013511 30.7066235 39.1404334 30.8065718 39.0881857 31.2963188 39.6473144 33.7284516 41.8566626 34.2650974 42.3651032zM19.5477627 17.9861697C24.4530873 17.9774555 28.4919547 13.9297037 28.4491039 9.06572063 28.4069794 4.21843982 24.4385616.246211197 19.578993.186664077 14.7361288.127116957 10.6660313 4.18358297 10.6493267 9.08532761 10.6326222 13.9972388 14.629365 17.9948839 19.5477627 17.9861697"/>
  </g>
</svg>
