<svg xmlns="http://www.w3.org/2000/svg" width="55" height="110" viewBox="0 0 55 110">
  <g fill="#FFF" fill-rule="evenodd" stroke="#666" transform="translate(1 1)">
    <path d="M34.3949953 42.8407131C36.0581125 44.428896 38.1919961 44.462016 39.7671341 42.8020731 44.2826324 38.0438331 47.7820844 33.6810471 51.9827095 28.8242356 53.1673429 27.4552756 53.6157285 24.9878356 51.9881117 23.4477556 50.4986378 22.0385785 48.2158068 22.0456756 46.6043967 23.7316413 43.4448599 27.0381213 38.4837169 33.4093989 37.3152902 33.4543474 36.0287861 33.5032389 31.1027177 27.6307474 28.9379642 25.4046103 22.7778706 19.0676503 15.5877599 20.3057115 9.42025254 26.5377874 7.40427194 28.5748736 5.26954415 31.3309567 2.51364347 35.0259417 1.27490006 36.686792.22849724 40.3472217.226953743 41.7067188.217692766 49.016776.180648855 54.9476217.210747032 62.2584674.22000801 64.4357131 1.2412658 66.1847931 3.19764733 66.5577874 4.92173266 66.8866217 6.82494368 64.9847281 7.10832287 63.0672042 8.4136469 54.2345512 5.49745677 41.7997989 9.39169786 40.4300503 9.57537392 42.601776 11.4437762 66.0578331 11.4437762 66.5869646 11.4468631 79.845216 11.4514936 89.734896 11.4383739 102.993147 11.4368304 104.243822 12.3081341 108.286039 16.2455931 107.596039 17.909482 107.303479 19.3534228 105.709776 19.48462 104.060873 19.5232074 103.57117 19.5147182 62.9614903 19.5147182 62.4433989L21.676586 62.4433989C21.676586 62.958336 21.7244344 104.252496 21.9490131 104.994542 22.5085305 106.841376 24.3715305 108.049467 26.1488665 107.845227 27.9570723 107.637833 29.5599932 105.970793 29.7560173 104.066393 29.8030939 103.616119 29.6827012 82.6612046 29.8324203 70.9588046 29.9072799 65.0232274 30.8230313 39.5798418 30.9233585 39.5270075 31.4149621 40.0924132 33.8563151 42.3265646 34.3949953 42.8407131zM19.6218677 18.1880907C24.5457882 18.1792786 28.5999668 14.0860849 28.5569535 9.16749655 28.5146693 4.26579795 24.5312074.248975276 19.6532163.188759653 14.791993.12854403 10.7064659 4.23054978 10.689698 9.18732365 10.6729301 14.1543782 14.6848245 18.1969027 19.6218677 18.1880907"/>
  </g>
</svg>
