<svg xmlns="http://www.w3.org/2000/svg" width="111" height="111" viewBox="0 0 111 111">
  <defs>
    <linearGradient id="group_32-a" x1="0%" y1="50%" y2="50%">
      <stop offset="0%" stop-color="#26BFFF"/>
      <stop offset="100%" stop-color="#1469EB"/>
    </linearGradient>
  </defs>
  <g fill="none" fill-rule="evenodd" transform="translate(1)">
    <circle cx="54.5" cy="55.5" r="54.5" stroke="url(#group_32-a)"/>
    <text fill="#666" font-family="Roboto-Regular, Roboto" font-size="42">
      <tspan x="46.692" y="68.638">1</tspan>
    </text>
    <path fill="#FFF" d="M15.6597589,48 C28.9145929,48 39.6597589,37.254834 39.6597589,24 C39.6597589,10.745166 28.9145929,0 15.6597589,0 C9.76273235,0 4.36245118,2.12681989 0.184129512,5.65524557 C-0.137349153,13.8596438 0.0129900751,35.5316217 0.248500134,42.3989209 C4.41784524,45.8949352 9.79296997,48 15.6597589,48 Z"/>
    <circle cx="16" cy="24" r="16" fill="#1469EB"/>
    <path fill="#FFF" d="M11.8531198,17.5926811 C12.3496679,16.9167286 12.8187795,16.2204415 13.3035548,15.5357741 C12.1642979,15.9384607 10.8860634,16.702263 10.062973,17.4597545 C10.062973,17.4597545 11.095278,17.7162919 11.506923,17.7800005 C11.6125779,17.7964285 11.7805881,17.6914495 11.8531198,17.5926811 L11.8531198,17.5926811 Z M16.6743346,32.5897511 C16.6743346,32.5897511 17.8474131,30.4185492 18.4593933,29.5876325 C17.7801691,29.5396507 17.2437137,29.501686 16.6743346,29.4615175 L16.6743346,32.5897511 Z M18.5175583,15.6413541 C19.0460323,16.403153 19.5137472,17.0859171 19.9945318,17.7594655 C20.0493047,17.8362965 20.1875839,17.916934 20.2684962,17.9009067 C20.7747217,17.8004354 21.2757593,17.6730181 21.868584,17.5332799 C20.8455574,16.6251315 19.7961919,16.0294158 18.5175583,15.6413541 L18.5175583,15.6413541 Z M18.8197572,18.1275932 C18.1695657,17.3424545 16.6725388,15.3414428 16.6725388,15.3414428 L16.6725388,18.3062978 C17.351763,18.2630241 18.8197572,18.1275932 18.8197572,18.1275932 L18.8197572,18.1275932 Z M15.3774434,32.5897511 L15.3774434,29.4188447 C14.68924,29.4643223 14.0424406,29.5070952 13.2438933,29.5598852 L15.3774434,32.5897511 Z M15.3899145,15.3414428 C14.4524893,16.1897892 13.7220838,17.0462495 13.0489455,18.0818151 C13.9089503,18.1522352 14.64185,18.2123376 15.3899145,18.273542 L15.3899145,15.3414428 Z M9.94345028,30.2595782 C11.0889926,31.3449287 12.3053706,32.0347048 13.7538102,32.4329838 C13.1640784,31.561498 12.6161496,30.7371925 12.044875,29.9297158 C11.9859118,29.8463737 11.7776948,29.8144192 11.6558774,29.8402633 C11.1216169,29.9536566 10.5936418,30.0971012 9.94345028,30.2595782 L9.94345028,30.2595782 Z M22.0763021,30.2963409 C21.6206592,30.1847506 21.2873325,30.0944967 20.9502146,30.0220732 C19.8134519,29.7774562 19.8209345,29.7853697 19.1718404,30.7354896 C18.7681769,31.3264973 18.3355805,31.897571 17.8601835,32.5547915 C19.502174,32.1769473 20.8429634,31.4552168 22.0763021,30.2963409 L22.0763021,30.2963409 Z M9.96639704,23.1897241 C10.3049117,21.7570814 10.6279622,20.3899505 10.9601914,18.9841536 C10.5107342,18.8663527 9.97048755,18.7141933 9.4236562,18.5911836 C9.32658142,18.5693463 9.15926958,18.6358597 9.09711378,18.7173988 C8.09683443,20.030137 7.50939728,21.507556 7.34577688,23.1897241 L9.96639704,23.1897241 Z M16.670743,28.1593974 C17.4455454,28.2366291 18.1688673,28.3147623 18.893586,28.3735625 C18.9813823,28.3806747 19.1246499,28.3074498 19.1628612,28.2314202 C19.747006,27.0684373 20.1723193,25.854167 20.3244663,24.5189905 L16.670743,24.5189905 L16.670743,28.1593974 Z M21.7735046,23.1934304 L24.7157785,23.1934304 C24.5418819,21.5030483 23.9602313,20.0117056 22.9404971,18.6950607 C22.8822323,18.6197323 22.7035469,18.5800646 22.6022818,18.6065097 C21.9782296,18.7694876 21.3604628,18.9561058 20.8264018,19.1100683 C21.1389767,20.4574656 21.4485584,21.7926421 21.7735046,23.1934304 L21.7735046,23.1934304 Z M7.36772596,24.5062688 C7.31794146,25.8454521 8.11209901,28.1467759 8.92790634,29.0581297 C8.99475126,29.1329573 9.12993763,29.2217086 9.20536264,29.2010734 C9.91491648,29.007243 10.6182847,28.7909742 11.2274714,28.6097653 C10.8214134,27.2230008 10.4269286,25.8757037 10.0258591,24.5062688 L7.36772596,24.5062688 Z M20.3666684,23.1721942 C20.3438214,21.8891065 20.0236642,20.6964731 19.503072,19.5531237 C19.465559,19.4706831 19.3320687,19.3737178 19.2497596,19.3792272 C18.3930472,19.4376268 17.5377315,19.51576 16.6856085,19.5879831 L16.6856085,23.2151675 C17.8691626,23.2151675 19.0132084,23.2157685 20.1570547,23.2135647 C20.2194101,23.2134646 20.2816656,23.1897241 20.3666684,23.1721942 L20.3666684,23.1721942 Z M15.3802369,28.141567 L15.3802369,24.5127799 L11.4219202,24.5127799 C11.5709744,25.8495591 11.9970858,27.0619262 12.5795346,28.2243081 C12.6154512,28.2959302 12.7686957,28.3505233 12.8625779,28.3441123 C13.6883621,28.2866143 14.5131486,28.2134896 15.3802369,28.141567 L15.3802369,28.141567 Z M24.7277507,24.5119785 L21.7211261,24.5119785 C21.3135716,25.8945358 20.9158942,27.2438363 20.5143258,28.6063595 C21.2154991,28.7903732 21.996587,29.0050392 22.7844591,29.1907558 C22.8890166,29.2153979 23.0762821,29.1267467 23.1438254,29.0320853 C24.0933226,27.7000141 24.6179055,26.2139804 24.7277507,24.5119785 L24.7277507,24.5119785 Z M15.3941048,19.5750611 C14.4351296,19.4735881 13.5297301,19.3719147 12.6226346,19.289975 C12.5197732,19.2806591 12.3477723,19.3528823 12.3075655,19.4359239 C11.7374881,20.613131 11.411245,21.8525442 11.3718364,23.1814099 L15.3941048,23.1814099 L15.3941048,19.5750611 Z M15.1266253,14.0362174 C15.6561967,13.9849299 16.4294029,13.9790198 17.1577132,14.0789903 C21.4150362,14.6633867 24.5252206,17.3828233 25.6132962,21.2632394 C25.7739236,21.8361162 26.1698051,23.2654532 25.918588,25.288803 C25.4079726,29.4007138 22.9713256,32.1183474 19.0994085,33.5030082 C18.3432627,33.7733692 17.7645054,33.8750426 17.0363946,33.950371 C16.3777228,34.0184871 15.6155909,34.0179863 14.9475408,33.9395525 C10.9442285,33.4697515 7.54621187,30.6550525 6.4470619,26.7547024 C6.28563641,26.1818256 6.11872365,25.6028384 6.05347502,25.0101279 C5.98044445,24.3463962 5.99181807,23.0577992 6.03062803,22.6435929 C6.41403851,18.5475091 9.58817452,15.3531628 13.533222,14.3278145 C14.0911277,14.1828674 14.5518588,14.091712 15.1266253,14.0362174 L15.1266253,14.0362174 Z"/>
  </g>
</svg>
