<svg xmlns="http://www.w3.org/2000/svg" width="111" height="111" viewBox="0 0 111 111">
  <defs>
    <linearGradient id="group_29-a" x1="0%" y1="50%" y2="50%">
      <stop offset="0%" stop-color="#26BFFF"/>
      <stop offset="100%" stop-color="#1469EB"/>
    </linearGradient>
  </defs>
  <g fill="none" fill-rule="evenodd" transform="translate(1)">
    <circle cx="54.5" cy="55.5" r="54.5" stroke="url(#group_29-a)"/>
    <text fill="#666" font-family="Roboto-Regular, Roboto" font-size="42">
      <tspan x="46.692" y="69.546">2</tspan>
    </text>
    <path fill="#FFF" d="M15.6597589,48 C28.9145929,48 39.6597589,37.254834 39.6597589,24 C39.6597589,10.745166 28.9145929,0 15.6597589,0 C9.76273235,0 4.36245118,2.12681989 0.184129512,5.65524557 C-0.137349153,13.8596438 0.0129900751,35.5316217 0.248500134,42.3989209 C4.41784524,45.8949352 9.79296997,48 15.6597589,48 Z"/>
    <circle cx="16" cy="24" r="16" fill="#1469EB"/>
    <path fill="#FEFEFE" d="M9.5834156,11.7619417 C9.17902714,12.1488565 8.780328,12.5302444 8.38170042,12.9117032 C8.13301663,13.149712 7.88925285,13.3930173 7.63428936,13.6242238 C7.41972356,13.8187972 7.18052196,13.9792175 6.88809488,14.0405974 C6.84256249,14.0501631 6.79520522,14.0510842 6.73697028,14.0572311 C6.74564738,13.9330896 6.75271429,13.8193286 6.76164186,13.7056916 C6.81989469,12.9642437 6.87850535,12.2228489 6.93708022,11.4814187 C6.97846191,10.9577321 7.01902063,10.4339392 7.06364058,9.91050067 C7.06664626,9.87519615 7.09380467,9.83489622 7.12157138,9.80968883 C7.96113857,9.04767464 8.80220859,8.28730787 9.64301025,7.52660454 C11.3289969,6.00124758 13.015055,4.47592606 14.7005943,2.95007311 C14.7443734,2.9104286 14.7874905,2.86826867 14.8222705,2.82104246 C14.8960705,2.72079748 14.864493,2.62777992 14.7402585,2.61725765 C14.6374394,2.60852452 14.5265336,2.62430792 14.4279546,2.65594559 C14.339806,2.68423525 14.2628214,2.74777629 14.1822944,2.79794307 C11.2245854,4.64077494 8.26707329,6.4838548 5.30948958,8.32688152 C5.14310403,8.43058078 4.97809608,8.53667147 4.80875852,8.63542845 C4.77360286,8.65594156 4.7173896,8.66393069 4.67869154,8.65229242 C3.36027388,8.25556392 2.04267921,7.85617829 0.725370798,7.45581836 C0.572278199,7.40928301 0.414247705,7.36990422 0.27135293,7.3010489 C-0.0202690606,7.16050399 -0.0756593479,6.92975808 0.0994927557,6.65835795 C0.201453107,6.50039992 0.35170105,6.3966298 0.520108277,6.32653448 C0.928701101,6.1564599 1.34012069,5.99263845 1.75356195,5.83441471 C4.29641626,4.86119343 6.840183,3.89031044 9.38357403,2.9185063 C11.8464022,1.97747183 14.3089979,1.03581736 16.7725775,0.0966783127 C16.8828572,0.0546423809 17.0001142,0.0222784335 17.1169956,0.00693788696 C17.5049065,-0.0439551733 17.8393952,0.188898734 17.954237,0.582084382 C18.0258007,0.82709027 18.0043673,1.07337158 17.9518933,1.31805862 C17.6495188,2.7281489 17.3458384,4.13795575 17.0429272,5.54793975 C16.6638007,7.31258088 16.2848889,9.07729288 15.9060666,10.8420049 C15.6770449,11.9089168 15.4509932,12.9764665 15.2168905,14.0422802 C15.1779777,14.2193697 15.1215498,14.3969197 15.043778,14.5605285 C14.8616126,14.9437942 14.5582363,15.072754 14.1440973,14.9615616 C13.932734,14.9048228 13.7384386,14.8140904 13.5607996,14.6831643 C12.2578934,13.7228036 10.9528939,12.7652063 9.64848487,11.8068119 C9.6295205,11.7928708 9.60971525,11.7800279 9.5834156,11.7619417" transform="translate(6 16)"/>
  </g>
</svg>
