<svg id="Слой_1" data-name="Слой 1" xmlns="http://www.w3.org/2000/svg" viewBox="0 0 23 20"><title>back</title><path d="M12.44,17.25l.46.59a3.46,3.46,0,0,1,.22.31,1.14,1.14,0,0,1-.71,1.75,1.06,1.06,0,0,1-.85-.18,2.93,2.93,0,0,1-.42-.37c-.69-.75-1.37-1.52-2-2.32a1.41,1.41,0,0,1-.27-1,1.71,1.71,0,0,1,.31-1c.24-.3.48-.61.73-.91a19.62,19.62,0,0,1,1.47-1.55,1.25,1.25,0,0,1,.69-.38,1,1,0,0,1,.83.25,1.2,1.2,0,0,1,.47.88.92.92,0,0,1-.12.51,3.11,3.11,0,0,1-.31.43c-.16.2-.33.38-.51.58h8.3V2.46H2.28V14.85H6.07a1.23,1.23,0,0,1,.81.24A1.36,1.36,0,0,1,7,16.89a1.2,1.2,0,0,1-.85.36c-1.5,0-3,0-4.51,0a2.4,2.4,0,0,1-.7-.09,1.18,1.18,0,0,1-.89-1A4,4,0,0,1,0,15.44V1.92a4.08,4.08,0,0,1,.07-.77,1.22,1.22,0,0,1,1.11-1,4.21,4.21,0,0,1,.62,0H21.11a5.12,5.12,0,0,1,.78.06A1.23,1.23,0,0,1,23,1.21a5.81,5.81,0,0,1,.05.72V15.39a3.42,3.42,0,0,1-.08.84,1.24,1.24,0,0,1-1.07,1,4.89,4.89,0,0,1-.66.05H12.44Z"/></svg>