<svg id="Слой_1" data-name="Слой 1" xmlns="http://www.w3.org/2000/svg" viewBox="0 0 57 50"><title>balance-in</title><path d="M28.54,49.36H14.78a4.41,4.41,0,0,1-.89-.09,2.13,2.13,0,0,1-1.77-1.88A5.24,5.24,0,0,1,12,46.5q0-7.57,0-15.15a2.7,2.7,0,0,0-.16-1.09,1.55,1.55,0,0,0-1.47-1c-.46,0-.92,0-1.37,0-1.4,0-2.79,0-4.19,0a5,5,0,0,1-4.81-4.5c0-.44,0-.89,0-1.33Q0,14.57,0,5.67A5.22,5.22,0,0,1,1,2.49a4.91,4.91,0,0,1,3.49-2,8.64,8.64,0,0,1,.88,0H51.48A6.22,6.22,0,0,1,54,.89a4.71,4.71,0,0,1,2.81,3.56A7.38,7.38,0,0,1,57,5.94q0,9,0,18a5.73,5.73,0,0,1-.62,2.76,4.74,4.74,0,0,1-3.54,2.54,8.94,8.94,0,0,1-1.37.12c-1.58,0-3.17,0-4.76,0a1.78,1.78,0,0,0-1.17.35A1.7,1.7,0,0,0,45,31c0,.27,0,.55,0,.82q0,7.32,0,14.66a5,5,0,0,1-.16,1.21,2.23,2.23,0,0,1-1.94,1.65l-.65,0H28.54ZM12.85,28.28h0c0,4.64,0,9.28,0,13.92a6.5,6.5,0,0,0,.05,1,1.49,1.49,0,0,0,1.25,1.28,7,7,0,0,0,1,.07H41.52c.37,0,.74,0,1.11,0a1.57,1.57,0,0,0,1.48-1.42c0-.28,0-.57,0-.85,0-2.32,0-4.63,0-6.95V27c0-3.07,0-6.14,0-9.21,0-1.37,0-2.74,0-4.11a1.58,1.58,0,0,0-1-1.62,2.36,2.36,0,0,0-.91-.16H14.83c-.21,0-.42,0-.63,0a1.48,1.48,0,0,0-1.29,1.23,4.71,4.71,0,0,0-.06.74C12.84,18.72,12.85,23.5,12.85,28.28ZM49,18.62h-.16l-2.26,0a1.47,1.47,0,0,0-1.42.78,2,2,0,0,0-.18.93c0,1.4,0,2.8,0,4.2,0,.8,0,1.6,0,2.39a1.46,1.46,0,0,0,1.16,1.55,3.14,3.14,0,0,0,.61.05h4.4a8.66,8.66,0,0,0,1.35-.07,4.06,4.06,0,0,0,3.11-2.05,4.84,4.84,0,0,0,.6-2.5q0-9,0-18a5.88,5.88,0,0,0-.08-1,4,4,0,0,0-1.62-2.76,4.79,4.79,0,0,0-2.87-.85H5.5c-.25,0-.5,0-.75,0A4.16,4.16,0,0,0,1,4.57a9.2,9.2,0,0,0-.13,2q0,8.72,0,17.43A5.22,5.22,0,0,0,1,25.28a4.11,4.11,0,0,0,3.87,3.19c1.92.05,3.83,0,5.74,0a1.38,1.38,0,0,0,1.29-.76,1.87,1.87,0,0,0,.18-.93c0-2.09,0-4.18,0-6.26,0-.19,0-.38,0-.56a1.37,1.37,0,0,0-1.35-1.37c-.78,0-1.57,0-2.35,0H8V11.11H49ZM28.76,45v0H15a2.83,2.83,0,0,0-1,.16,1.6,1.6,0,0,0-1.06,1.63A1.62,1.62,0,0,0,14,48.4a3.46,3.46,0,0,0,1.06.17c1.32,0,2.63,0,4,0H41.47a6.2,6.2,0,0,0,1.72-.15,1.33,1.33,0,0,0,1-.81,3,3,0,0,0,.18-1,1.51,1.51,0,0,0-1.21-1.56,4.44,4.44,0,0,0-1-.09ZM45,14.84h0c0,.47,0,.94,0,1.41a1.41,1.41,0,0,0,.84,1.41,2,2,0,0,0,1.19.1,1.33,1.33,0,0,0,1.14-1.25,8.33,8.33,0,0,0,0-.86c0-.78,0-1.55,0-2.32a1.34,1.34,0,0,0-.51-1.09,2,2,0,0,0-2.08-.07A1.42,1.42,0,0,0,45,13.41C44.94,13.88,45,14.36,45,14.84ZM12,14.82h0c0-.51,0-1,0-1.54A1.32,1.32,0,0,0,11,12a2.6,2.6,0,0,0-.88,0,1.36,1.36,0,0,0-1.28,1.33c0,.18,0,.36,0,.54,0,.85,0,1.7,0,2.55a1.32,1.32,0,0,0,.71,1.24,1.88,1.88,0,0,0,1.71,0A1.37,1.37,0,0,0,12,16.34C12.05,15.83,12,15.32,12,14.82Z"/><path d="M28.91,21.1V38.93h-.83V21.1l0,0-6.62,6.36-.59-.53,7.68-7.62,7.62,7.59-.52.59L29,21.07Z"/></svg>