<svg id="Слой_1" data-name="Слой 1" xmlns="http://www.w3.org/2000/svg" viewBox="0 0 138 121.54"><title>camera</title><path d="M68.92,121.56q-24.53,0-49,0a21.48,21.48,0,0,1-8.25-1.42,18.19,18.19,0,0,1-9.24-8.56,17.27,17.27,0,0,1-2.24-6.69q-.06-.66-.06-1.32Q0,94.15,0,84.73,0,68.92,0,53.11C0,47.7.08,42.28.08,36.87a17.13,17.13,0,0,1,6.05-13.3,18.44,18.44,0,0,1,7.71-4.35,21.2,21.2,0,0,1,5.32-.67l13.73,0c1.47,0,1.55,0,2.06-1.4,1-2.75,1.94-5.56,3.11-8.25A14.27,14.27,0,0,1,49.63.12a13.88,13.88,0,0,1,2-.11H86.12a14.76,14.76,0,0,1,14.24,9.88c.94,2.53,1.85,5.07,2.77,7.6.35,1,.51,1.09,1.57,1.09l3.56,0c3.67,0,7.35-.1,11,0,7.78.25,13.35,4.05,16.9,10.89a15.91,15.91,0,0,1,1.59,6.42c.15,2.5.19,5,.19,7.52,0,19.57.08,39.15,0,58.72,0,8.08-3.84,14-11,17.71a17.36,17.36,0,0,1-8.09,1.71H68.92Zm0-1.13v0h49.32a20,20,0,0,0,6.73-1,18.2,18.2,0,0,0,11.86-17.1q0-32.2-.07-64.42a21.92,21.92,0,0,0-.69-5.28,17.76,17.76,0,0,0-17.5-12.92l-14.1,0A2.22,2.22,0,0,1,102.12,18c-.87-2.38-1.75-4.75-2.59-7.14A14.52,14.52,0,0,0,94.72,4a13.68,13.68,0,0,0-8.63-2.81H66.93c-5.16,0-10.31,0-15.47,0A13.41,13.41,0,0,0,38.94,9.73c-1,2.75-2.06,5.52-3.08,8.28a2.33,2.33,0,0,1-2.41,1.7c-4.92,0-9.83,0-14.74,0a16.5,16.5,0,0,0-9.57,2.93c-5.18,3.61-8,8.4-8,14.87.06,21.91,0,43.83,0,65.74q0,.52,0,1A15.79,15.79,0,0,0,3.36,111a17.21,17.21,0,0,0,7.76,7.7,19.32,19.32,0,0,0,8.5,1.75Z"/><path d="M102.38,69A33.39,33.39,0,1,1,69,35.62,33.44,33.44,0,0,1,102.38,69ZM69,36.78a32.22,32.22,0,1,0,32.2,32.28A32.28,32.28,0,0,0,69,36.78Z"/><path d="M69,90.57a21.56,21.56,0,1,1,21.54-21.5A21.61,21.61,0,0,1,69,90.57ZM69,48.67C58.75,48,47.65,57.61,48.64,70.5a20.42,20.42,0,1,0,40.7-3.34C88.47,56.92,79.4,48.32,69,48.67Z"/></svg>