<svg id="Слой_1" data-name="Слой 1" xmlns="http://www.w3.org/2000/svg" viewBox="0 0 152.26 90.71"><title>diagram</title><path d="M124.69,76.76l.52,0v2.15l-.49.07v11.3H107.39V79h-3.77V76.79h3.74V24.39h17.33Zm-1.12,0V25.51h-15V89.17h15V79h-2.63V76.78Z"/><path d="M103.06,90.31H85.79V35.2h17.27ZM86.9,89.18H102V36.32h-15V76.79h3.71V79H86.9Z"/><path d="M59.82,90.31H42.56V46H59.82ZM43.68,47.13V76.79H47.4V79H43.67V89.18h15V47.13Z"/><path d="M64.13,56.8H81.46v20l.52,0v2.14l-.49.07v11.3H64.16V79H60.41V76.79h3.72ZM80.34,89.19V79H77.69V76.76h2.65V58h-15V89.19Z"/><path d="M38.76,78.94l-.5.07V90.29H20.93V79H17.16V76.78h3.76V67.61H38.23v9.12l.53.08ZM37.11,89.19V79H34.46V76.76h2.65v-8h-15V89.19Z"/><path d="M-.15,77.86a3.26,3.26,0,1,1,6.51,0,3.24,3.24,0,0,1-3.28,3.24A3.23,3.23,0,0,1-.15,77.86Z"/><path d="M152.26,77.87A3.26,3.26,0,1,1,149,74.62,3.24,3.24,0,0,1,152.26,77.87Z"/><path d="M117.87,5.2l-1.28-1.8L120.17.86l1.27,1.81Z"/><path d="M41.28,34.36l-1.61-1.51,3-3.2,1.62,1.52Z"/><path d="M24.92,48.56l1.6,1.52-3,3.2-1.6-1.53Z"/><path d="M88.35,23.34l3.58-2.52,1.28,1.81c-1.15.8-2.27,1.6-3.4,2.38a.38.38,0,0,1-.34-.1C89.09,24.41,88.74,23.89,88.35,23.34Z"/><path d="M96.69,20.17l-1.28-1.81L98.79,16a.33.33,0,0,1,.32.05c.39.52.76,1.06,1.15,1.61Z"/><path d="M77.8,30.8l1.28,1.81L75.5,35.14l-1.27-1.81Z"/><path d="M110.81,10.19l-1.27-1.81,3.57-2.53,1.28,1.8Z"/><path d="M64.38,28.62l-1.12,1.89L59.48,28.3l1.12-1.91Z"/><path d="M66.93,32.68c.34-.57.66-1.12,1-1.66a.35.35,0,0,1,.34-.09c1.18.67,2.34,1.37,3.55,2.07l-1.12,1.91Z"/><path d="M33.75,39.16l3-3.2,1.61,1.51-3,3.19Z"/><path d="M45.59,26.55l3-3.2,1.6,1.52-3,3.19Z"/><path d="M86.14,27.61l-3.58,2.54-1.27-1.8,3.57-2.53Z"/><path d="M30.83,42.27l1.61,1.5-3,3.19-1.6-1.5Z"/><path d="M56.92,24.23l-1.11,1.9L52,23.92,53.15,22Z"/><path d="M106.05,10.85l1.27,1.79-3.57,2.53-1.27-1.8Z"/><path d="M12.81,79H8.51V76.8h4.3Z"/><path d="M129.55,78.94V76.8h4.31v2.14Z"/><path d="M138.2,76.79h4.3V79h-4.3Z"/><path d="M116.56,79h-4.29V76.81h4.29Z"/><path d="M99.29,76.8v2.14H95V76.8Z"/><path d="M56.06,76.8v2.14H51.75V76.8Z"/><path d="M73.34,79H69V76.8h4.3Z"/><path d="M30.11,79H25.82V76.8h4.29Z"/></svg>