<svg id="Слой_1" data-name="Слой 1" xmlns="http://www.w3.org/2000/svg" viewBox="0 0 56.33 66.68"><title>drop-in</title><path d="M56.33,66.55H0a2.15,2.15,0,0,1,0-.23q0-9.93,0-19.86A1.1,1.1,0,0,1,.16,46l.76-1.47,4.71-9.16c1.07-2.07,2.14-4.13,3.2-6.2A.38.38,0,0,1,9.24,29H47.32c.23,0,.37,0,.33.32a.53.53,0,0,0,.07.3q1.94,3.78,3.89,7.56l3.12,6c.47.91.92,1.84,1.43,2.73a1.51,1.51,0,0,1,.17.79V66.55Zm-1.22-1.2v-18H40.56c-.16,0-.21.06-.26.2-.28.73-.54,1.48-.89,2.18a13.28,13.28,0,0,1-4,5,11.71,11.71,0,0,1-6.65,2.27,12.11,12.11,0,0,1-7.2-1.88,12.72,12.72,0,0,1-4.27-4.74,29.22,29.22,0,0,1-1.18-2.69c-.08-.2-.13-.3-.37-.3H1.22v18ZM10.26,46.13H46.43V30.19H10.26Zm7,1.24A14.45,14.45,0,0,0,19,50.82a10.82,10.82,0,0,0,5.68,4.41,12.21,12.21,0,0,0,5.1.43,10.12,10.12,0,0,0,5.34-2.27,12.82,12.82,0,0,0,3.5-4.68c.2-.43.36-.88.55-1.34ZM9,46.14V31.5L1.43,46.14Zm38.73-14h0v14H54.9Q51.3,39.14,47.71,32.18Z"/><path d="M14.08,10.16h9.37V0h9.86V10.15h9.36l0,.06L28.38,23.62,14.07,10.21Zm10.55,1.19H17L28.38,22,39.76,11.33H32.12V1.21H24.63Z"/></svg>