<svg id="Слой_1" data-name="Слой 1" xmlns="http://www.w3.org/2000/svg" viewBox="0 0 707.05 570.11"><title>email-large</title><path d="M410.35,134.54c-.17,2.26-.32,4.21-.5,6.5h-3.41Q230.21,141,54,141.1c-12.17,0-22.7,4.88-31.66,13-2.86,2.59-5.28,5.66-8,8.65,5.47,4.64,10.64,9.05,15.83,13.43q10.27,8.65,20.58,17.27,10.49,8.79,21,17.59,10.1,8.49,20.15,17c6.92,5.83,13.85,11.62,20.76,17.44q8.57,7.2,17.11,14.44,10.47,8.81,20.94,17.59,10.1,8.49,20.15,17c6.91,5.82,13.86,11.6,20.75,17.45,8.42,7.13,16.79,14.32,25.19,21.48,14.9,12.71,29.93,25.28,47.47,34.31a35.55,35.55,0,0,0,11.62,3.65c6.07.75,11.3-2.46,16.38-5.29,12.47-6.93,23.81-15.5,34.71-24.67q19-16,38.05-32.07c8.93-7.56,17.81-15.18,26.76-22.71,7.85-6.62,15.81-13.13,23.67-19.75S431.14,253.5,439,246.79c1.69-1.44,3.44-2.81,5.15-4.2l4.48,4.31-79,66.54,179.72,146V292.19h6.14v3.29q0,109.86,0,219.73a52.84,52.84,0,0,1-11.59,33.11c-9,11.57-20.94,18.4-35.26,21.15a37,37,0,0,1-6.9.55q-222,0-444,.09c-13.65,0-25.84-3.64-36.53-12.07S3.58,538.8,1.07,525.33a61.24,61.24,0,0,1-1-11.06Q0,352,0,189.79a52.9,52.9,0,0,1,10-31.16,55.51,55.51,0,0,1,28.83-21.18A58.1,58.1,0,0,1,57,134.57q175,0,350,0Zm-222,183L6,465.67c0,16.65,0,33.64,0,50.64a33.47,33.47,0,0,0,.6,6.15c2.27,11.63,7.63,21.48,16.74,29.25s20,12.26,32,12.27q220.22.15,440.43,0a74.09,74.09,0,0,0,12.8-1,48.39,48.39,0,0,0,29.86-17.84c7.76-9.55,11.15-20.7,11-33-.1-12.5-.29-25,.1-37.49.16-5-.74-8.88-5.46-11.22a4.35,4.35,0,0,1-.57-.49q-13.93-11.44-27.88-22.88c-8.61-7-17.27-13.95-25.89-20.94-7.46-6.05-14.9-12.14-22.37-18.19s-15-12.05-22.42-18.12c-8.48-6.9-16.91-13.88-25.39-20.78s-17-13.73-25.52-20.62q-14.67-11.9-29.33-23.84c-6.18,5.15-12.27,10.26-18.4,15.33-10.35,8.54-20.56,17.25-31.13,25.52-8.7,6.8-17.9,13-28.26,17a30,30,0,0,1-11.44,2.39c-6-.21-11.58-2.87-16.88-5.79a196.37,196.37,0,0,1-30.31-20.89c-9.59-7.92-19-16-28.55-24C196.05,323.93,192.21,320.78,188.32,317.56ZM6,457.63,183.49,313.44l-172.18-145c-3.23,6.45-5.23,13-5.24,19.86Q6,321.57,6,454.78Z"/><path d="M597.57,217.9c-7.55,4.77-15.69,7.55-24.07,9.57a80.6,80.6,0,0,1-25.14,2A95.49,95.49,0,0,1,508.9,217.4c-11.27-6.29-20.68-14.54-27.37-25.65a61.53,61.53,0,0,1-8.47-24.17,78.84,78.84,0,0,1-1-12.34c.62-18.64,5.83-35.9,17.38-50.71,9.37-12,21.52-20.69,35.39-27a92.57,92.57,0,0,1,26.52-7.87c19.6-2.53,38,.87,54.23,12.75,13.54,9.9,22.47,23,25.76,39.48,3.43,17.23,1.8,34-7.49,49.33-6,9.92-14.62,16.81-26.24,19.19a21.21,21.21,0,0,1-16.15-2.64c-4.57-2.89-6.21-7.51-7.44-12.39-.33-1.32-.46-2.69-.63-3.7-4.45,3.52-8.81,7.33-13.52,10.62-6.29,4.39-13.31,7.52-21.06,7.63-10.12.14-18.29-4-23.21-13.2A36,36,0,0,1,512,154.51a59.75,59.75,0,0,1,9.51-26.09c6.54-9.74,15.92-15.55,27-18.86,8.76-2.63,17.76-3,26.76-2.42a54.07,54.07,0,0,1,19.31,4.52c-1.74,5.76-3.84,11.38-5.08,17.17-1.66,7.75-2.87,15.62-3.86,23.48a111.8,111.8,0,0,0-.52,14.42,31,31,0,0,0,1,7c1,4.32,4.19,6.09,8.49,5.17,10-2.14,16.46-8.54,21-17.26,3.06-5.91,4.39-12.27,5.07-18.88,1.55-15-2-28.56-11.32-40.46-7.58-9.71-17.61-15.91-29.38-19.19a66,66,0,0,0-12.82-2c-15.74-1.15-30.29,3.1-43.89,10.65-20.19,11.19-33.56,27.66-37.6,50.81a76.41,76.41,0,0,0-1.42,17.23c.82,15,6.43,28,17.9,38.09a76.75,76.75,0,0,0,39.87,18.58,84.18,84.18,0,0,0,18.55.94,66.13,66.13,0,0,0,28.32-8.33c1.67-.95,2.59-.81,3.6,1C593.9,212.75,595.78,215.23,597.57,217.9ZM578.91,119c-3.64,0-7.52-.13-11.38,0a94.73,94.73,0,0,0-11.56,1c-6.64,1.11-13,3.43-18,7.93-11,9.9-16,22.5-13.82,37.24,1.4,9.63,9.45,15,19,11.92a47.65,47.65,0,0,0,24.91-18.9c2.4-3.48,4.83-7.32,5.79-11.35C576,138,577.2,128.79,578.91,119Z"/><path d="M426.52,68.89l15-19.28,8.86,8.06-13.8,17.79Z"/><path d="M681.65,234.56l-15.22,18.92-8.83-8.14,14.2-17.55Z"/><path d="M631.52,34.12l6.48-10,19.43,14.66-8,9Z"/><path d="M706.48,168.05c-3.8-.37-7.33-.58-10.78-1.18-.55-.1-1.15-2-1.11-3,.2-5,.64-10,.91-15.06a45.63,45.63,0,0,0-.19-4.57l11.72-.71c0,4.27.06,8.3,0,12.32S706.67,163.75,706.48,168.05Z"/><path d="M687.48,75.64c-3.45,2-6.46,3.88-9.53,5.6a1.68,1.68,0,0,1-1.58-.39c-4-5.57-7.84-11.19-11.73-16.81a3.66,3.66,0,0,1-.26-.84l9.18-7.58Z"/><path d="M628.44,282.61c-2.09-3.86-3.9-7.22-5.68-10.53l18.82-12.32,7.28,9.52Z"/><path d="M594.15,4.82l22.92,8c-1.69,3.92-3.23,7.48-4.69,10.88-6.8-2.24-13.55-4.44-20.27-6.72a1.64,1.64,0,0,1-.81-1.36C592.14,12.13,593.11,8.68,594.15,4.82Z"/><path d="M466,43l-7.34-9.09c2.38-1.79,4.59-3.59,6.93-5.19,3.82-2.6,7.74-5,11.59-7.6,1-.67,1.76-.75,2.43.45,1.63,2.93,3.32,5.84,5,8.75Z"/><path d="M704.53,120.23l-10.15,2.28c-1.32.3-2-.32-2.31-1.52-1.73-6-3.4-12.08-5.29-18.07-.47-1.5.1-1.94,1.2-2.35l9.7-3.65C700,104.68,702.22,112.38,704.53,120.23Z"/><path d="M690.52,188.26l11.37,3.27c-2.9,7.67-5.69,15.09-8.6,22.8-3.65-1.71-6.82-3.15-9.93-4.72a1.86,1.86,0,0,1-.59-1.7C685.29,201.36,687.91,194.84,690.52,188.26Z"/><path d="M523.24,3.07c.86,3.83,1.67,6.91,2.17,10a2.79,2.79,0,0,1-1.33,2.33c-5.92,1.83-11.93,3.36-17.84,5.23-1.79.56-2.28.06-2.8-1.45-1-2.94-2.18-5.82-3.5-9.29Z"/><path d="M581.38,287.3c.4-.31.92-1,1.59-1.2,6-1.68,12.1-3.25,18.15-4.91,1.25-.34,2-.17,2.4,1.18.84,2.65,1.74,5.28,2.75,7.86.55,1.42,0,2-1.25,2.32-6.63,1.8-13.24,3.66-19.89,5.38-.57.15-1.88-.41-2-.84C582.47,294.06,582,291,581.38,287.3Z"/><path d="M570.45,1l-1.1,11.24H547.23c-.25-4-.48-7.67-.72-11.54C554.64-.73,562.54.4,570.45,1Z"/><path d="M415.36,89.8c3.42,1.52,6.44,2.78,9.36,4.23a2.28,2.28,0,0,1,1,1.93q-2.12,6.14-4.61,12.12a2.26,2.26,0,0,1-2,.81c-3.21-.92-6.36-2-9.82-3.18Z"/><path d="M472.52,531.42H449c0-3.52-.07-6.92.08-10.3a2.23,2.23,0,0,1,1.65-1.46c6.66-.11,13.32,0,20-.08,1.25,0,1.81.37,1.79,1.71C472.48,524.6,472.52,527.92,472.52,531.42Z"/><path d="M427,531.44h-23.3V519.83a16,16,0,0,1,1.91-.23c6.32,0,12.64,0,19,0,1.81,0,2.54.49,2.46,2.39C426.89,525,427,528.09,427,531.44Z"/><path d="M380.94,519.6v11.77h-23.4c0-3.51,0-7,.06-10.58a1.69,1.69,0,0,1,1.19-1.14C366.08,519.58,373.37,519.6,380.94,519.6Z"/><path d="M128.53,531.37c0-3.48-.06-6.79.06-10.1,0-.57.79-1.59,1.22-1.6,7.29-.1,14.58-.07,22-.07v11.77Z"/><path d="M198,531.41H174.54c0-3.52,0-7.06.06-10.6,0-.42.92-1.16,1.42-1.16,6.81-.08,13.63-.09,20.45,0a2.11,2.11,0,0,1,1.44,1.47C198,524.51,198,527.9,198,531.41Z"/><path d="M243.52,531.42H220.06c0-3.56-.06-7.1.08-10.63,0-.43,1.14-1.14,1.76-1.15q10-.12,20,0c.55,0,1.56.79,1.57,1.25C243.58,524.36,243.52,527.84,243.52,531.42Z"/><path d="M266,531.36c0-3.52-.06-6.91.07-10.3a2,2,0,0,1,1.42-1.4q10.22-.15,20.43,0a2.24,2.24,0,0,1,1.5,1.57c.15,3.31.07,6.63.07,10.13Z"/><path d="M312.09,531.37V519.79h22.75v11.58Z"/><path d="M83.14,531.42V519.73h22.7v11.69Z"/></svg>