<svg id="Слой_1" data-name="Слой 1" xmlns="http://www.w3.org/2000/svg" viewBox="0 0 318.75 637.5"><title>lastik</title><path d="M.16,637.5v-3.43q0-106.87,0-213.74Q.09,212.48,0,4.61C0-.88-.29.09,4.51.09q154.88,0,309.74,0A9.12,9.12,0,0,1,317,.14,3.06,3.06,0,0,1,318.6,1.7a5.83,5.83,0,0,1,.08,2.22q0,201.48,0,403c0,39.58-.11,79.16-.09,118.74,0,2.2-.63,3.13-2.75,3.86Q159.45,583,3.1,636.69C2.25,637,1.37,637.17.16,637.5ZM11,11.36V395.65c0,3.38,0,3.38,3.4,3.38q145,0,290,0c3.39,0,3.4,0,3.4-3.39V11.36Zm0,610.9c1.35-.38,2.23-.57,3.08-.86q145.47-49.89,291-99.73c2.12-.72,2.79-1.65,2.78-3.85q-.09-52.37,0-104.74c0-3.24,0-3.25-3.33-3.25H14.21c-3.23,0-3.24,0-3.24,3.33v209.1Z"/></svg>