<svg xmlns="http://www.w3.org/2000/svg" width="32" height="32" viewBox="0 0 32 32">
  <g fill="none" fill-rule="evenodd">
    <rect width="32" height="32" fill="#3D69C7"/>
    <path fill="#FFF" fill-rule="nonzero" d="M17.6677249,31.9792551 C17.6677249,27.8158748 17.6620811,23.8058528 17.6620811,19.6424725 C17.6620811,19.4734584 17.6620811,19.4734584 17.8257496,19.4734584 L21.296649,19.4734584 C21.4885362,19.4734584 21.686067,19.4678246 21.8779541,19.4734584 C21.9738977,19.4734584 22.0134039,19.4452894 22.0190476,19.3495148 C22.0416226,19.1297965 22.075485,18.9100782 22.1037037,18.6903599 C22.1770723,18.1213458 22.2447972,17.5523317 22.3181658,16.9833176 C22.4197531,16.1833176 22.5269841,15.3889514 22.6342152,14.5889514 C22.6567901,14.4086697 22.6511464,14.4086697 22.4705467,14.4086697 L17.8031746,14.4086697 C17.7015873,14.4086697 17.6564374,14.3917683 17.6564374,14.2734584 C17.6620811,13.1410641 17.6564374,12.0086697 17.6677249,10.8762753 C17.6733686,10.5889514 17.7241623,10.3016275 17.7975309,10.0199373 C17.9216931,9.54669789 18.2208113,9.19740211 18.6779541,8.99458521 C19.1181658,8.79740211 19.5809524,8.74669789 20.0550265,8.74669789 L22.6680776,8.74669789 C22.7922399,8.74669789 22.8430335,8.71289507 22.8373898,8.5833176 C22.8261023,8.36359929 22.8373898,8.13824718 22.8373898,7.91852887 L22.8373898,4.34106408 C22.8373898,4.23402183 22.8204586,4.16641619 22.6906526,4.16078239 C22.335097,4.13824718 21.9795414,4.09317676 21.6239859,4.08190915 C20.777425,4.04810634 19.9252205,4.02557112 19.0786596,4.00303591 C18.1925926,3.9805007 17.3178131,4.08190915 16.4712522,4.35796549 C14.5918871,4.9833176 13.361552,6.24528943 12.757672,8.12134577 C12.49806,8.91571197 12.3908289,9.73824718 12.3908289,10.57205 C12.3851852,11.7945852 12.3908289,13.0171204 12.3908289,14.2340218 L12.3908289,14.4030359 L12.2102293,14.4030359 L8.17495591,14.4030359 C8.00564374,14.4030359 8,14.4030359 8,14.5776838 L8,19.287543 C8,19.4734584 8,19.4734584 8.18624339,19.4734584 L12.2102293,19.4734584 C12.3908289,19.4734584 12.3908289,19.4734584 12.3908289,19.6481063 C12.3908289,23.687543 12.3908289,27.7157601 12.3908289,31.7551967 C13.886406,31.9792551 14.8336809,31.9792551 16.1317409,31.9792551 C16.6340337,31.9848889 17.1771667,31.9792551 17.6677249,31.9792551 Z"/>
  </g>
</svg>
