<svg id="Слой_1" data-name="Слой 1" xmlns="http://www.w3.org/2000/svg" viewBox="0 0 122.5 123.6"><title>FAQ</title><path d="M19.25,100.24V70.93c-1-.05-1.93-.06-2.87-.15C9.07,70.1,4,66.27,1,59.66A13,13,0,0,1,0,54.5c0-.73,0-1.47,0-2.2Q0,35.41,0,18.54A17.87,17.87,0,0,1,2.5,9.29,15.86,15.86,0,0,1,6.75,4.9a18.38,18.38,0,0,1,7.06-3.61A24.45,24.45,0,0,1,19.06.8H83.31a17.77,17.77,0,0,1,8.19,2.3,19.71,19.71,0,0,1,10,11.58,12.21,12.21,0,0,1,.64,4q0,16.93,0,33.85a21.32,21.32,0,0,1-.88,6.35,15.38,15.38,0,0,1-5,7.25,18.31,18.31,0,0,1-8.86,4.4,24.78,24.78,0,0,1-3.84.33q-16.6,0-33.2,0a1.08,1.08,0,0,0-.82.31C47.7,73,45.8,74.81,43.91,76.63L25.76,94l-6.12,5.85Zm1.17-2.71,2.31-2.2L35.91,82.7q6.53-6.26,13-12.51a1.56,1.56,0,0,1,1.17-.47q16.65,0,33.3,0a17,17,0,0,0,10.15-3,17.42,17.42,0,0,0,5.31-5.33A17,17,0,0,0,101,52.71q0-17.08,0-34.17a8.13,8.13,0,0,0-.14-1.64A17.49,17.49,0,0,0,94.19,6.18a26.05,26.05,0,0,0-4-2.41A14.21,14.21,0,0,0,83.75,2Q51.22,2,18.67,2a27.67,27.67,0,0,0-4.06.33A12.76,12.76,0,0,0,9.15,4.61a20.94,20.94,0,0,0-4.8,4,15.5,15.5,0,0,0-3.19,9.69q0,18.24.07,36.47a11.39,11.39,0,0,0,.53,3.48,16.41,16.41,0,0,0,8.36,9.63,19.3,19.3,0,0,0,9.74,1.81c.18,0,.36,0,.56,0Z"/><path d="M98.45,121.28l-1.64,1.82-3-3.15,1.51-1.64,1.14,1.15.16,0v-4.07h2.31c0,.56,0,1.06,0,1.56,0,.85-.07,1.71-.08,2.57,0,.28-.09.37-.37.36a9.24,9.24,0,0,0-1.63.07Z"/><path d="M109.16,20.88l2.21,1.81v4.87h-2.21Z"/><path d="M43.52,93l3.36-3.15-.08-.14c.21.19.44.37.63.58a1.14,1.14,0,0,0,1,.49c.08,0,.26.17.26.26,0,.64,0,1.29,0,2Z"/><path d="M66.38,93H61.94V90.77h.48c1.18,0,2.36,0,3.54,0,.32,0,.44.09.43.42C66.37,91.79,66.38,92.4,66.38,93Z"/><path d="M53.1,90.78c1.42,0,2.78,0,4.14,0a.42.42,0,0,1,.3.28c0,.63,0,1.28,0,2H53.1Z"/><path d="M122.49,63.7h-2.23V59.24c.66,0,1.33,0,2,0a.36.36,0,0,1,.22.26C122.49,60.89,122.49,62.27,122.49,63.7Z"/><path d="M51.33,88l-1.42-1.46,3.19-3L54.52,85Z"/><path d="M120.12,41.57h2.18V46h-2.18Z"/><path d="M120.27,68.11h2.23v4.46c-.67,0-1.32,0-2,0-.08,0-.24-.14-.24-.23C120.26,70.94,120.27,69.55,120.27,68.11Z"/><path d="M83.07,105.57l3,3.15-1.49,1.68c-1.09-1.11-2.11-2.17-3.17-3.27Z"/><path d="M87.63,113.58l1.52-1.69,3,3.18-1.51,1.67Z"/><path d="M86.68,77.29v2.2H82.26v-2.2Z"/><path d="M73.42,79.5V77.29h4.41V79.5Z"/><path d="M69,77.3v2.2h-4.4V77.3Z"/><path d="M118.76,80.68l1.42-4,2.2.47c-.4,1.16-.76,2.27-1.18,3.37s-.45,1.09-1.51.57Z"/><path d="M109.2,58.47h2.26c-.1,1.54-.2,3.06-.31,4.64l-2.22-.4Z"/><path d="M118.33,33.56l1.82-1.05A15.11,15.11,0,0,1,121.94,37c-.68.15-1.34.31-2,.44-.07,0-.2-.11-.24-.19C119.24,36,118.79,34.81,118.33,33.56Z"/><path d="M111.37,40.84v4.38h-2.21V40.84Z"/><path d="M111.37,32v4.4h-2.2V32Z"/><path d="M109.16,49.64h2.21V54h-2.21Z"/><path d="M91,79.61c0-.81,0-1.48,0-2.15,0-.08.19-.21.31-.23l3.89-.47.54,2.16Z"/><path d="M97.35,90.8l4-.15.25,2.19L100,93c-.2,0-.45,0-.49.28,0,0-.17.1-.26.1H97.35Z"/><path d="M73.8,96l-1.48,1.71-3.07-3.19,1.57-1.63Z"/><path d="M100.06,77.34l-.91-2,3.63-2.16,1.32,1.71A20.64,20.64,0,0,1,100.06,77.34Z"/><path d="M110.44,90.61,106.07,92l-.59-2.2,1.08-.32c.9-.29,1.8-.59,2.69-.91.25-.09.39-.09.49.19C109.94,89.36,110.18,89.93,110.44,90.61Z"/><path d="M116.63,84.18l1.6,1.34a12.45,12.45,0,0,1-3.71,3.08l-1.08-1.84Z"/><path d="M122.41,54.86h-2.2v-.58c0-1.15,0-2.29,0-3.44,0-.33.08-.47.43-.46.6,0,1.19,0,1.82,0Z"/><path d="M57.65,81.82l-1.51-1.6,1.65-1.68c.24-.26.49-.5.74-.75.59-.6.75-.65,1.64-.46,0,.63.07,1.26.1,1.89a.37.37,0,0,1-.1.25C59.35,80.25,58.51,81,57.65,81.82Z"/><path d="M105.61,70.29l2.12-3.65,2.07.89-2.36,4.11Z"/><path d="M99.33,97.68c0,1.49,0,2.85,0,4.21a.43.43,0,0,1-.29.28c-.64,0-1.28,0-1.94,0a2.39,2.39,0,0,1,0-.31c0-1.24.09-2.48.1-3.72,0-.42.16-.5.55-.48C98.26,97.71,98.82,97.68,99.33,97.68Z"/><path d="M76.94,99.22l3,3.14L78.44,104l-3-3.14Z"/><path d="M114.52,25.52l3,3.24-1.72,1.45-3-3.18Z"/><path d="M96.88,106.48l2.23.1c0,.73,0,1.43,0,2.13s0,1.31,0,2c0,.26-.09.35-.35.34-.62,0-1.25,0-1.85,0Z"/><path d="M71.44,44.5l3.35,2.63-1.72,1.6c-.88-.69-1.77-1.36-2.61-2.08a3.22,3.22,0,0,0-2.67-.93c-4.37.43-7.35-2.39-8.05-6.58a15.11,15.11,0,0,1,.44-7.72,6.85,6.85,0,0,1,5.88-4.94A7,7,0,0,1,74.24,32a15.44,15.44,0,0,1-.28,9.1A7.1,7.1,0,0,1,71.44,44.5Zm.75-8.23a11.79,11.79,0,0,0-.68-4.73,4.59,4.59,0,0,0-5.61-2.81,4.7,4.7,0,0,0-3.43,3.56,15.12,15.12,0,0,0-.41,5.15,8.63,8.63,0,0,0,.78,3.42,4.72,4.72,0,0,0,8.9-.81A12.09,12.09,0,0,0,72.19,36.27Z"/><path d="M57.93,45.53c-.84,0-1.62,0-2.39,0-.12,0-.28-.21-.33-.36-.51-1.37-1-2.75-1.5-4.14a.51.51,0,0,0-.59-.4c-2.33,0-4.66,0-7,0a.51.51,0,0,0-.59.41c-.47,1.37-1,2.73-1.46,4.1a.5.5,0,0,1-.59.42c-.7,0-1.4,0-2.17,0l.84-2.25q3.11-8.11,6.2-16.23c.13-.34.28-.48.62-.42.12,0,.25,0,.37,0,.45,0,1-.12,1.34.09s.37.77.52,1.18L57.75,45C57.8,45.15,57.85,45.31,57.93,45.53ZM49.62,29.82,46.48,38.5h6.3Z"/><path d="M33.25,28.74v6.4H41.1V37.2H33.24v8.3H30.75V26.67H42.38v2.07Z"/></svg>