<svg id="Слой_1" data-name="Слой 1" xmlns="http://www.w3.org/2000/svg" viewBox="0 0 344.97 303"><title>img-holder</title><path d="M171.73,303q-38.82,0-77.63,0c-14.53,0-29.06-.09-43.6-.09-8.2,0-16.14-1.18-23.58-4.82-10.13-4.94-17.14-12.9-22.08-22.87a43.68,43.68,0,0,1-4.69-20c.09-15.15-.09-30.3-.11-45.45q0-38.58,0-77.16c0-13.3.23-26.6.18-39.91C.13,78.48,5.8,67,16.46,57.79,23.16,52,30.69,47.84,39.57,46.6a77.67,77.67,0,0,1,10.1-.8c11.22-.08,22.45,0,33.68,0,2.21,0,2.19,0,3-2.05,2.47-6.65,4.73-13.38,7.46-19.92C99.41,10.29,109.63,2.41,124.2.31A39.11,39.11,0,0,1,129.72,0Q145.86,0,162,0c17.11,0,34.21,0,51.32,0a41,41,0,0,1,15.25,2.49c10.77,4.23,18.09,11.9,22.19,22.66,2.37,6.23,4.6,12.52,6.88,18.79.68,1.87.67,1.87,2.68,1.86,12,0,24.06,0,36.1,0C317.31,45.8,337,61,342,81.11a68.74,68.74,0,0,1,1.83,16.68q0,71.52.11,143c0,5.61.12,11.23-.21,16.83a47.05,47.05,0,0,1-11.43,28.1c-7.23,8.58-16.29,14.23-27.42,16.16a65,65,0,0,1-10.89.89q-61.12.09-122.26,0Zm.2-5.76v0q61.08,0,122.15,0a48.17,48.17,0,0,0,13.78-1.75,41.17,41.17,0,0,0,21.57-15.2,42.8,42.8,0,0,0,8.85-26.61q-.06-23.35-.07-46.71,0-53.07,0-106.12c0-3.72-.15-7.46-.47-11.17C337.21,84,336,78.48,333,73.54c-8.68-14.48-21.37-22.1-38.39-22.12-11,0-22,0-33,.08-.92,0-1.84,0-2.76,0a6.77,6.77,0,0,1-6.29-4.92C250.31,40.26,248,34,245.71,27.73,240.63,13.83,229,5.65,214.24,5.64q-42.8,0-85.59,0a28.31,28.31,0,0,0-6,.57c-11.8,2.56-19.88,9.52-24.15,20.83C96.13,33.5,93.76,40,91.37,46.39c-.87,2.36-2.32,4.18-4.87,4.79a15.57,15.57,0,0,1-3.54.34c-11.35,0-22.69-.12-34,0a53.72,53.72,0,0,0-10.74,1.13C27.43,55,19.28,61.42,12.81,70.06c-4.94,6.58-7,14.19-7,22.37q0,81.67,0,163.33a35.3,35.3,0,0,0,3.12,14.75c3.37,7.47,7.89,14.07,14.59,19,7.58,5.55,16.25,7.62,25.48,7.72,7.22.08,14.45,0,21.68,0Z"/><path d="M171.86,255.47a83.77,83.77,0,0,1-.74-167.53c47.22-.47,85,38.18,84.79,84.1A84,84,0,0,1,171.86,255.47Zm78.42-83.76c-.1-42.72-35-78.51-79-78.12a78.11,78.11,0,0,0,.59,156.22C215.11,249.82,250.3,214.77,250.28,171.71Z"/><path d="M170.91,117.33c28.14-2,56.42,22.72,55.77,55.28a54.71,54.71,0,1,1-109.39-2.26C117.93,139.83,143.86,116.89,170.91,117.33ZM172,123c-26.07-.85-48.2,21.21-49.07,46.6A49.07,49.07,0,1,0,221,173C221.91,145.49,198.49,122.06,172,123Z"/></svg>