<svg xmlns="http://www.w3.org/2000/svg" width="30" height="30" viewBox="0 0 30 30">
  <path fill="#666" d="M500.666667,223.333333 L500.666667,246.666667 L477.333333,246.666667 L477.333333,223.333333 L500.666667,223.333333 L500.666667,223.333333 Z M502.5,220 L475.5,220 C474.666667,220 474,220.666667 474,221.5 L474,248.5 C474,249.166667 474.666667,250 475.5,250 L502.5,250 C503.166667,250 504,249.166667 504,248.5 L504,221.5 C504,220.666667 503.166667,220 502.5,220 L502.5,220 Z M487.333333,226.666667 L497.333333,226.666667 L497.333333,230 L487.333333,230 L487.333333,226.666667 Z M487.333333,233.333333 L497.333333,233.333333 L497.333333,236.666667 L487.333333,236.666667 L487.333333,233.333333 Z M487.333333,240 L497.333333,240 L497.333333,243.333333 L487.333333,243.333333 L487.333333,240 Z M480.666667,226.666667 L484,226.666667 L484,230 L480.666667,230 L480.666667,226.666667 Z M480.666667,233.333333 L484,233.333333 L484,236.666667 L480.666667,236.666667 L480.666667,233.333333 Z M480.666667,240 L484,240 L484,243.333333 L480.666667,243.333333 L480.666667,240 Z" transform="translate(-474 -220)"/>
</svg>
