<svg xmlns="http://www.w3.org/2000/svg" width="20" height="14" viewBox="0 0 20 14">
  <path fill="#1469EB" d="M1.19668783,1.68861306 L1.19668783,1.8076549 C1.1964011,4.77407263 1.19593517,7.74049037 1.19600684,10.7069081 C1.19600684,11.1706811 1.1904873,11.6346292 1.2025658,12.0981221 C1.21034335,12.396462 1.31947995,12.6506513 1.6169265,12.7925212 C1.68011462,12.8226668 1.72000593,12.817415 1.77176071,12.7664721 C2.26998993,12.2755995 2.77130151,11.787703 3.27200379,11.2992463 C4.54598106,10.0564495 5.82013753,8.81379264 7.09407895,7.57099579 C7.11622885,7.54935818 7.13673005,7.52614502 7.14124604,7.52141836 C5.16040762,5.57785017 3.18749012,3.6420197 1.19668783,1.68861306 L1.19668783,1.68861306 Z M18.9279282,1.642922 C16.8998868,3.63267142 14.8910922,5.60347918 12.8690722,7.58731152 C12.8826919,7.59725502 12.9145906,7.61514631 12.9397154,7.63968993 C13.8143852,8.493325 14.6884458,9.34759028 15.5625064,10.2018206 C16.4387174,11.0581516 17.3153944,11.9139224 18.1896701,12.772109 C18.2453673,12.8267633 18.2895955,12.8335907 18.3604536,12.8048105 C18.5882965,12.712273 18.7481843,12.5584289 18.8361029,12.3330547 C18.9073911,12.1502204 18.9278564,11.9596484 18.9277848,11.7658903 C18.9275339,11.1211037 18.9268888,10.4763521 18.9269247,9.8315654 C18.9271397,7.14741689 18.9275698,4.46330339 18.9279282,1.77915488 L18.9279282,1.642922 L18.9279282,1.642922 Z M3.18881625,12.8840434 L16.7590666,12.8840434 C15.2070329,11.3624085 13.6510566,9.83692229 12.0914604,8.3078648 C12.0704574,8.32708656 12.0484509,8.34609824 12.0276989,8.36630034 C11.4612996,8.91858448 10.8949002,9.47090363 10.3287161,10.0234328 C10.1357109,10.2117991 9.94342257,10.2142849 9.75235286,10.0270391 C9.21480578,9.50024394 8.67765295,8.9729936 8.14164705,8.4446929 C8.07111146,8.37519347 8.0080667,8.29844649 7.93943071,8.22274989 C6.34087507,9.79123122 4.76429012,11.33818 3.18881625,12.8840434 L3.18881625,12.8840434 Z M2.12425941,1.10863419 C2.15364924,1.14070546 2.17164155,1.16227304 2.19164096,1.18180991 C2.33729981,1.32420496 2.4833529,1.46617987 2.62929848,1.60829483 C3.89395702,2.83999278 5.15861556,4.07169074 6.4232741,5.30338869 C7.5314139,6.38264307 8.63926697,7.46221255 9.74790855,8.54101176 C9.9449279,8.73273915 10.1356392,8.73154873 10.3312249,8.5408367 C11.5929087,7.31039918 12.8545924,6.07992666 14.1160611,4.84920905 C15.3669207,3.62882006 16.617422,2.40808096 17.8691776,1.18853227 C17.8913276,1.16696469 17.9269896,1.15859675 17.9563077,1.14403163 C17.9461646,1.13223248 17.9360215,1.12043334 17.9258785,1.10863419 L2.12425941,1.10863419 Z M9.96818888,13.929826 C8.34346913,13.929826 6.71874938,13.9303862 5.09399379,13.9296159 C4.09051044,13.9291257 3.08702709,13.9266049 2.08354375,13.9250993 C1.09833944,13.9235938 0.192523502,13.1766412 0.0385853291,12.2244465 C0.0025290306,12.0013481 0.00080865055,11.7713523 0.000952015554,11.5445775 C0.00263655435,9.36222542 0.00998401081,7.1798733 0.0116327083,4.99755619 C0.0123495334,4.02894071 0.00145379307,3.06032523 -1.56982233e-05,2.09167474 C-0.00130598326,1.23621904 0.530004722,0.470149754 1.34205995,0.152273017 C1.59079823,0.0549037901 1.8506473,0.00200019382 2.11960004,0.00196518151 C4.76278478,0.00172009536 7.40600536,0.00228029228 10.0491901,0.00228029228 C12.6028076,0.00224527997 15.1563892,0.00326063688 17.7099708,4.49230484e-06 C18.0849419,-0.000450667689 18.4503435,0.033476258 18.7916956,0.195618253 C19.4412824,0.504146704 19.8415934,1.00545292 19.9926284,1.69565053 C20.0000117,1.7294024 19.9995457,1.76521999 19.9995457,1.80005723 C19.9998325,5.14653356 20.0004417,8.49300988 19.9994741,11.8394862 C19.9991157,13.0108229 19.044233,13.9378438 17.844017,13.9377038 C15.2187171,13.9373536 12.593453,13.9375637 9.96818888,13.9375637 L9.96818888,13.929826 Z"/>
</svg>
