<svg id="Слой_1" data-name="Слой 1" xmlns="http://www.w3.org/2000/svg" viewBox="0 0 124 123.91"><title>operator</title><path d="M103.35,44.76c-.07-1.3-.12-2.55-.21-3.79-.07-1-.18-1.92-.29-2.88a42.09,42.09,0,0,0-1.22-6.29A38.75,38.75,0,0,0,95.3,18.58a36.77,36.77,0,0,0-5-5.54A48.46,48.46,0,0,0,78.72,5.36,41.16,41.16,0,0,0,68.63,2.05,36.94,36.94,0,0,0,60,1.47,39.19,39.19,0,0,0,48.12,4a47.87,47.87,0,0,0-12.9,7.18A38,38,0,0,0,21.8,31.64a65.9,65.9,0,0,0-1.34,6.54c-.24,1.47-.27,3-.38,4.47C20,43.33,20,44,20,44.76h.52c1.79,0,3.58,0,5.37,0a4.82,4.82,0,0,1,1.6.29,2.38,2.38,0,0,1,1.49,2.35c0,.12,0,.24,0,.36q0,15.26,0,30.51a8.25,8.25,0,0,1-.18,1.4,1.42,1.42,0,0,1-1.09,1.21,11,11,0,0,1-2.13.36c-1.22.06-2.44,0-3.74,0l1.24,2c1.79,2.88,3.54,5.78,5.37,8.64a38.32,38.32,0,0,0,6.81,8.31,22.37,22.37,0,0,0,9.49,5.12c2.08.51,4.2.86,6.31,1.27,1.24.24,2.48.45,3.79.69.23-.52.46-1.08.72-1.63a11,11,0,0,1,3.22-4.4,6.53,6.53,0,0,1,4-1.21,7.28,7.28,0,0,1,5.1,2.07A6.54,6.54,0,0,1,69.93,108a7.28,7.28,0,0,1-1.7,4,7.08,7.08,0,0,1-11.66-1.24,4.57,4.57,0,0,0-3.09-2.65,10.76,10.76,0,0,0-1.88-.25,29.29,29.29,0,0,1-13.54-4,27.79,27.79,0,0,1-6-4.83,33.81,33.81,0,0,1-4.22-5.6c-1.14-1.85-2.26-3.72-3.39-5.59a16.17,16.17,0,0,0-9.77-7.21A26.54,26.54,0,0,1,9.26,78.6a14.59,14.59,0,0,1-7.49-9.67A30.5,30.5,0,0,1,1.2,65c-.08-.77-.07-1.54-.1-2.32A15.39,15.39,0,0,1,3,54.74a28.72,28.72,0,0,1,3.38-5.19,12.14,12.14,0,0,1,4.51-3.24,20.89,20.89,0,0,1,5.31-1.44,20.6,20.6,0,0,1,2.08-.19c.34,0,.42-.16.43-.46,0-.77,0-1.54.09-2.31.15-1.7.31-3.4.53-5.08a41.83,41.83,0,0,1,2-8.18,39.83,39.83,0,0,1,6.72-12.08,45.89,45.89,0,0,1,6.1-6.13A42.67,42.67,0,0,1,47.29,2.85a44.19,44.19,0,0,1,7.87-2,44.68,44.68,0,0,1,8.72-.4A40.82,40.82,0,0,1,75.2,2.61,42.54,42.54,0,0,1,93.65,14.74a43.88,43.88,0,0,1,10.43,22.09c.28,1.86.39,3.74.56,5.61,0,.59.08,1.19.09,1.78,0,.28.15.33.38.37,1.28.2,2.57.33,3.83.64a16.27,16.27,0,0,1,8.34,4.61,20.4,20.4,0,0,1,3.45,5.3,20.17,20.17,0,0,1,1.58,4.66,15.23,15.23,0,0,1,.15,4.52,11.26,11.26,0,0,1-.2,1.84c-.37,1.37-.76,2.73-1.25,4.07a17.2,17.2,0,0,1-4.74,7,14.27,14.27,0,0,1-6.71,3.43,30.49,30.49,0,0,1-4.25.54c-2.1.12-4.2.16-6.3.17a15.77,15.77,0,0,1-2.91-.28,2,2,0,0,1-1.56-1.83,5.32,5.32,0,0,1-.1-1c0-3.16-.06-6.32-.07-9.48q0-8,0-15.88c0-1.77,0-3.55.09-5.31.09-1.49.48-2.21,1.51-2.49a7.34,7.34,0,0,1,1.91-.32C99.67,44.74,101.46,44.76,103.35,44.76ZM95.89,46V79.94c.82.06,1.64.15,2.47.16q3.27,0,6.56,0a18.6,18.6,0,0,0,4.38-.63,14.3,14.3,0,0,0,7.15-4.23,18.63,18.63,0,0,0,3.45-5.6,17.33,17.33,0,0,0,1.29-8.47,17.6,17.6,0,0,0-1.7-5.84A16.88,16.88,0,0,0,114,48.62a17.24,17.24,0,0,0-9.52-2.76C101.61,45.79,98.76,46,95.89,46Zm-68.3.13C26,46,24.5,45.88,23,45.85a36.19,36.19,0,0,0-7.64.42,15.22,15.22,0,0,0-9,5.13,16.93,16.93,0,0,0-4,10,19.29,19.29,0,0,0,.23,5,16.91,16.91,0,0,0,3.54,8,14.47,14.47,0,0,0,7.27,4.89,26.26,26.26,0,0,0,3.86.72,18.5,18.5,0,0,0,3.16.17c2.16-.06,4.32-.23,6.48-.33.38,0,.5-.13.5-.52q0-4.6.08-9.2l.09-10.23c0-3.31.07-6.62.09-9.92C27.6,48.65,27.59,47.41,27.59,46.13Zm35.19,67.1a6,6,0,0,0,6-5.8,5.94,5.94,0,0,0-5.69-6.1,6,6,0,0,0-6.4,5.84A6.12,6.12,0,0,0,62.78,113.23Z"/><path d="M64.19,121.15l.23,2.23c-1,0-2,0-2.94,0-.43,0-.86-.1-1.28-.13s-.3-.12-.25-.38c.11-.57.16-1.14.23-1.72Z"/><path d="M64.44,93.08c-.36,0-.68,0-1,0-.9,0-1.8.1-2.71.12a.32.32,0,0,1-.27-.2c-.12-.5-.19-1-.28-1.52-.05-.27,0-.44.33-.44l3.82-.1c.27,0,.34.12.31.36C64.56,91.88,64.5,92.45,64.44,93.08Z"/><path d="M32.91,26.35l1.91,1.06c-.54,1.2-1.06,2.35-1.6,3.5a.4.4,0,0,1-.36.14c-.52-.17-1-.38-1.52-.59-.08,0-.18-.23-.15-.29C31.75,28.91,32.32,27.65,32.91,26.35Z"/><path d="M50.41,115.51l-1.63,1.23a14.72,14.72,0,0,1-2.19-4c.64-.24,1.25-.47,1.87-.68.06,0,.22.11.27.2C49.28,113.32,49.83,114.39,50.41,115.51Z"/><path d="M60.7,10c0,1.09,0,1.06-1.07,1.09-.9,0-1.8.13-2.7.23-.23,0-.32,0-.35-.25-.08-.52-.17-1-.26-1.57,0-.26.1-.35.32-.37l3.72-.26c.24,0,.36.07.35.33S60.7,9.76,60.7,10Z"/><path d="M56.55,120.16c-.21.5-.44,1-.66,1.58-.08.19-.15.36-.41.25a16.75,16.75,0,0,1-3.65-2.17l1.26-1.65Z"/><path d="M36.91,24.1l-1.76-1.28c.89-1.07,1.76-2.13,2.65-3.18a.38.38,0,0,1,.36,0c.42.35.83.73,1.22,1.11a.33.33,0,0,1,0,.32C38.59,22.09,37.76,23.07,36.91,24.1Z"/><path d="M77.18,12.94c-.31.65-.56,1.19-.85,1.72,0,.09-.24.2-.31.17-1.19-.5-2.38-1-3.61-1.55l.73-2Z"/><path d="M72.7,120.33l-3.78,1.87c-.25.12-.36,0-.44-.22-.19-.55-.41-1.1-.61-1.63l3.56-1.83Z"/><path d="M68.63,12.14l-4-.81.27-2.11c.5.07,1,.12,1.5.22.81.15,1.61.34,2.41.52.19,0,.41.08.34.35C69,10.92,68.8,11.52,68.63,12.14Z"/><path d="M48.05,11.75l3.84-1.48c.26-.1.34,0,.4.23.17.56.35,1.12.55,1.74-.32.11-.65.21-1,.34-.85.34-1.69.68-2.53,1.05-.25.11-.36.08-.47-.17C48.63,12.92,48.36,12.4,48.05,11.75Z"/><path d="M76.11,96.81a16.14,16.14,0,0,1,2.4,3.87l-1.87.82c-.71-1.07-1.39-2.08-2.06-3.1a.38.38,0,0,1,0-.36C75.1,97.63,75.58,97.24,76.11,96.81Z"/><path d="M85.66,22.07l1.64-1.43L90,24.14l-1.82,1.22Z"/><path d="M50.22,96.27l1.48,1.38c-.72,1-1.41,2.06-2.12,3.06a.39.39,0,0,1-.35.1c-.57-.28-1.12-.59-1.69-.91A15.44,15.44,0,0,1,50.22,96.27Z"/><path d="M77.51,105.13l2.18-.27c0,.76.12,1.47.11,2.18s-.09,1.31-.12,2c0,.28-.12.42-.41.37-.54-.09-1.08-.17-1.61-.28-.08,0-.18-.18-.17-.27,0-.92.09-1.84.12-2.76A6.27,6.27,0,0,0,77.51,105.13Z"/><path d="M71.7,95.63l-3.55-1.8c.19-.54.39-1.15.62-1.74a.38.38,0,0,1,.35-.12c1.18.58,2.35,1.17,3.5,1.78.08,0,.12.35,0,.46C72.36,94.71,72,95.19,71.7,95.63Z"/><path d="M75.81,117.34,74.25,116l2.17-3.33,1.89.89A15.38,15.38,0,0,1,75.81,117.34Z"/><path d="M57.7,91.7l.6,2c-1.16.55-2.26,1.08-3.37,1.58a.38.38,0,0,1-.37-.08c-.34-.52-.65-1.05-1-1.62A15.92,15.92,0,0,1,57.7,91.7Z"/><path d="M84.34,17.66c-.47.55-.83,1-1.23,1.41-.08.09-.32.17-.39.12-1-.77-2-1.56-3.08-2.37.33-.51.66-1,1-1.54a.44.44,0,0,1,.39,0C82.14,16,83.22,16.83,84.34,17.66Z"/><path d="M40.9,16.49c1.15-.85,2.23-1.65,3.32-2.43a.38.38,0,0,1,.38.07,15.49,15.49,0,0,1,.91,1.37.36.36,0,0,1-.09.35c-.94.72-1.88,1.44-2.84,2.14a.39.39,0,0,1-.39,0C41.77,17.51,41.38,17.05,40.9,16.49Z"/></svg>