<svg id="Слой_1" data-name="Слой 1" xmlns="http://www.w3.org/2000/svg" viewBox="0 0 439.1 440.13"><title>Монтажная область 2</title><path d="M0,440.13c0-.48,0-90.65,0-134.51a4.16,4.16,0,0,1,1.29-3.24Q92.63,209.62,183.91,116.8q18.63-18.93,37.23-37.87c.48-.49.93-1,1.4-1.5l6,6.45L12.06,304l59,60L319.36,111.52c-.55-.57-1-1.06-1.46-1.53q-29.79-29.74-59.58-59.5c-.88-.88-2.36-1.55-1.54-3.3.07-.16-.35-.54-.59-.91C276.59,28.65,298,13,324,4.65,337,.49,350.34-1.13,364,.82a81.41,81.41,0,0,1,33.68,13c12.81,8.48,23.7,18.88,31.52,32.25a72.53,72.53,0,0,1,9.93,39.05c-.33,14.66-4.33,28.41-10.23,41.68C420,146.58,407.94,164.35,394,180.82c-6.95,8.23-14.79,15.71-22.35,23.4Q259.11,318.68,146.5,433.1c-2,2-3.92,4.11-6,6.06a4.29,4.29,0,0,1-2.46,1C94.5,440.18,0,440.13,0,440.13Zm136.64-9.51L385.31,177.88l-59.71-60.2L77.19,370.16ZM391,170.83c.31-.44.44-.66.59-.85,10.2-13,19.51-26.64,26.78-41.56,6.46-13.28,11.16-27,11.86-42a64.07,64.07,0,0,0-10.38-38.76C412.3,36,402.22,26.84,390.39,19.61A71,71,0,0,0,355.3,8.87c-15.26-.54-29.49,3.46-43.17,9.79-14.86,6.87-28.21,16.11-40.88,26.4-1.08.88-2.12,1.8-2.77,2.35ZM125.16,431.43,8.91,313.26c-.06.88-.12,1.3-.12,1.71q0,38.2,0,76.4a4.1,4.1,0,0,0,1.1,2.54C21.59,406,33.31,418,45,430a4.31,4.31,0,0,0,3.39,1.44q37.19-.06,74.36,0Z"/></svg>