<svg id="Слой_1" data-name="Слой 1" xmlns="http://www.w3.org/2000/svg" viewBox="0 0 50 59.25"><title>portmone</title><path d="M38.87,9.6c-.57,0-1.13,0-1.68.07a22.84,22.84,0,0,0-10.55,3.1,13.49,13.49,0,0,0-6.4,8.8,17.94,17.94,0,0,0-.31,5.66,14.17,14.17,0,0,0,2,6.19,14.93,14.93,0,0,0,5.66,5.21,22.71,22.71,0,0,0,7,2.39,27,27,0,0,0,4.57.42h.12v.25q0,6.69,0,13.38a8.13,8.13,0,0,1-.11,1.48,3.22,3.22,0,0,1-2.77,2.61,7,7,0,0,1-1,.07H31.11c-1.94,0-3.88,0-5.83,0l-11.71,0-5,0c-1.44,0-2.87,0-4.31,0a6.43,6.43,0,0,1-1.51-.18A3.2,3.2,0,0,1,.22,56c0-.16,0-.32,0-.48q0-25.77,0-51.54A5.79,5.79,0,0,1,.38,2.5,3.12,3.12,0,0,1,3,.14,7.11,7.11,0,0,1,4.22,0C5.4,0,6.57,0,7.74,0,11.38,0,15,0,18.65,0c1.9,0,3.8,0,5.71,0l4.77,0,5.39,0A8,8,0,0,1,36,.15,3.28,3.28,0,0,1,38.56,2.6a9.12,9.12,0,0,1,.32,2.65c0,1.4,0,2.8,0,4.19A1,1,0,0,1,38.87,9.6Zm-1.1-1.1V8.23l0-2.75c0-.29,0-.59,0-.88a13.83,13.83,0,0,0-.19-1.44,2.22,2.22,0,0,0-1.78-1.9,5,5,0,0,0-1-.11H4.2a5.67,5.67,0,0,0-1,.1,2,2,0,0,0-1.78,1.8,5.29,5.29,0,0,0-.08,1V55.37a6,6,0,0,0,0,.74A2,2,0,0,0,3.06,58a4.4,4.4,0,0,0,1,.12H35.6a3.29,3.29,0,0,0,.82-.1,2,2,0,0,0,1.68-1.9c0-.33.06-.66.06-1q0-6.15,0-12.29v-.26H38a28.87,28.87,0,0,1-3.93-.47,22.61,22.61,0,0,1-8.25-3.19,15,15,0,0,1-6.48-8.57,17.94,17.94,0,0,1-.4-8.11,14.47,14.47,0,0,1,5.79-9.54,21.06,21.06,0,0,1,8.39-3.6A28.46,28.46,0,0,1,37.77,8.5Z"/><path d="M36.91,37.5c-4.62-.15-8.4-1.8-11.1-5.54A11.32,11.32,0,0,1,26.2,18.1a12.73,12.73,0,0,1,8.67-4.88A13.31,13.31,0,0,1,46.31,17a11.34,11.34,0,0,1,3.41,7.32,11.24,11.24,0,0,1-3.82,9.57,13,13,0,0,1-7.19,3.43C38.08,37.44,37.45,37.46,36.91,37.5Zm-.34-23.28-.72,0-.74.06a12.1,12.1,0,0,0-7.94,4.39,10.23,10.23,0,0,0-.61,12.37,12.43,12.43,0,0,0,12.56,5.06A11.82,11.82,0,0,0,45,33.23a10.16,10.16,0,0,0,3.59-9,10.54,10.54,0,0,0-3.91-7.14A12.59,12.59,0,0,0,36.57,14.22Z"/><path d="M32.05,22.36a2.63,2.63,0,0,1,1.62.72l2,1.62c.14.12.22.11.36,0,1.28-1.23,2.55-2.46,3.86-3.66a2.78,2.78,0,0,1,4.51.88,2.21,2.21,0,0,1-.54,2.68c-1.15,1.11-2.31,2.2-3.48,3.29-.93.86-1.88,1.7-2.8,2.56a2.69,2.69,0,0,1-3.66.07c-.88-.73-1.72-1.52-2.57-2.3-.53-.48-1-1-1.54-1.5a2.28,2.28,0,0,1,.09-3.52A3.05,3.05,0,0,1,32.05,22.36Zm3.85,4.05c-1-.86-2-1.63-2.94-2.45a1.62,1.62,0,0,0-2.4.14,1.1,1.1,0,0,0,0,1.75q2,1.91,4,3.74a1.57,1.57,0,0,0,2.29-.06c2-1.84,3.94-3.66,5.91-5.5a4.08,4.08,0,0,0,.54-.63.93.93,0,0,0,0-1,1.65,1.65,0,0,0-2.68-.57c-.25.2-.48.43-.72.65-.83.77-1.67,1.53-2.49,2.31C36.91,25.31,36.42,25.87,35.9,26.41Z"/></svg>