<svg id="Слой_1" data-name="Слой 1" xmlns="http://www.w3.org/2000/svg" viewBox="0 0 174.67 111.92"><title>video-holder</title><path d="M87.08,111.94H17.78a17.44,17.44,0,0,1-5.37-.71,12.5,12.5,0,0,1-8.17-8.12A42,42,0,0,1,2.74,97,141.88,141.88,0,0,1,.79,81.62C.33,76,.06,70.26,0,64.56,0,59.3-.06,54,.06,48.78c.12-5,.38-10,.72-15,.3-4.31.7-8.62,1.23-12.91A96.63,96.63,0,0,1,3.77,10.3,12.75,12.75,0,0,1,15.16.18a27.1,27.1,0,0,1,3-.17H157.26a13.94,13.94,0,0,1,8.37,2.42A13.8,13.8,0,0,1,171,10.61a104.25,104.25,0,0,1,2.15,12.68c.73,6.14,1.12,12.31,1.36,18.49.12,3.28.12,6.56.18,9.84.09,6.06,0,12.12-.33,18.18-.16,3.35-.32,6.7-.59,10a176.84,176.84,0,0,1-2.74,21.4,13,13,0,0,1-10.7,10.38,25.33,25.33,0,0,1-4.08.33q-34.56,0-69.12,0ZM87.44,1.17v0H18.15a22.83,22.83,0,0,0-3.31.24A11.19,11.19,0,0,0,7,6.06a14.31,14.31,0,0,0-2.51,6.33C4,16,3.34,19.58,2.91,23.2s-.74,7.1-1,10.65c-.27,3.81-.44,7.62-.6,11.43-.23,5.66-.27,11.32-.17,17,.11,7,.32,14,1,21A141.66,141.66,0,0,0,4,97.59a26.24,26.24,0,0,0,1.5,5.69A11.67,11.67,0,0,0,12,109.85a16,16,0,0,0,6.06,1H156.67a15.12,15.12,0,0,0,6.77-1.36,11.36,11.36,0,0,0,6.27-8.07c.84-3.82,1.37-7.71,1.87-11.6.47-3.68.76-7.4,1-11.11s.53-7.28.62-10.92q.22-8.58.2-17.17c0-7.24-.27-14.49-.92-21.71a141.38,141.38,0,0,0-1.94-14.48,25,25,0,0,0-1.67-6.12,11.45,11.45,0,0,0-7.52-6.57,17.82,17.82,0,0,0-4.88-.53Z"/><path d="M63.47,55.24c0-4.37,0-8.74,0-13.11a7.17,7.17,0,0,1,6.13-7.33,9.19,9.19,0,0,1,5.85.9Q90.63,42.87,105.78,50a10,10,0,0,1,3.86,3.08,4.81,4.81,0,0,1-.1,6.13,7.69,7.69,0,0,1-2.6,2.11c-3.84,1.9-7.67,3.82-11.54,5.66-5.82,2.78-11.66,5.5-17.51,8.23A24.21,24.21,0,0,1,72.64,77a7.31,7.31,0,0,1-9.07-6,34.86,34.86,0,0,1-.36-6.85c0-1.5.06-3,.08-4.48s0-3,0-4.47ZM71.3,35.77c-.46,0-.93.07-1.38.16-3.08.62-5.18,2.6-5.27,5.89-.08,3-.08,5.94-.1,8.91,0,2.12,0,4.24,0,6.36,0,2.87-.12,5.75-.11,8.63a31.63,31.63,0,0,0,.32,5c.65,3.94,3.71,6,7.62,5.24A23.6,23.6,0,0,0,77.75,74c5.14-2.4,10.28-4.8,15.4-7.24q6.31-3,12.59-6.13a10.24,10.24,0,0,0,2.49-1.72,3.69,3.69,0,0,0,.25-5.44,9.06,9.06,0,0,0-3-2.32c-.83-.42-1.68-.83-2.52-1.23L74.84,36.69A8.2,8.2,0,0,0,71.3,35.77Z"/><path d="M65.53,21.65H44.94c0-.14,0-.28,0-.43,0-3.15,0-6.31,0-9.46a1.31,1.31,0,0,1,1.37-1.5h.56l16.66,0a3.35,3.35,0,0,1,1,.13,1.25,1.25,0,0,1,1.06,1.44c0,3.08,0,6.15,0,9.23Zm-1.14-1.16V20c0-2.6,0-5.2,0-7.8,0-.66,0-.7-.72-.7l-16.84,0c-.24,0-.48,0-.69,0v9Z"/><path d="M77.52,21.67V10.27h2.11l16.3,0a4.6,4.6,0,0,1,.64.05,1.42,1.42,0,0,1,1.35,1.57c0,1.1,0,2.2,0,3.3,0,1.61,0,3.23,0,4.84,0,1.26-.41,1.67-1.65,1.67H77.52Zm19.19-1.19c0-.19,0-.34,0-.49q0-3.84,0-7.66c0-.91,0-.91-.92-.91-2.1,0-4.21,0-6.32,0H78.66v9Z"/><path d="M110.12,21.64V10.27h.5l17.87,0H129a1.44,1.44,0,0,1,1.54,1.62c0,1,0,2.06,0,3.1,0,1.83,0,3.66,0,5.49a1.1,1.1,0,0,1-.93,1.15,4.48,4.48,0,0,1-.63.06H110.51Zm19.17-1.16c0-.19,0-.34,0-.49,0-2.66,0-5.32,0-8,0-.45-.15-.59-.57-.58-.9,0-1.81,0-2.72,0H111.26v9Z"/><path d="M12.31,10.27h.52l17.68,0a5.64,5.64,0,0,1,.82.05A1.48,1.48,0,0,1,32.81,12q0,4.09,0,8.17c0,1.1-.51,1.55-1.61,1.55l-17.54,0c-1.32,0-1.32,0-1.32-1.34v-10Zm1.17,10.2H31.62v-.54l0-7.61c0-.86,0-.89-.86-.9l-2.91,0H13.48Z"/><path d="M98,89.31v11.25c-.53,0-1.06.09-1.59.09H79.7a6.63,6.63,0,0,1-1-.08,1.28,1.28,0,0,1-1.18-1.32c0-3.3,0-6.61,0-10ZM78.63,90.43c0,2.9,0,5.76,0,8.62,0,.14.21.33.37.42a1.23,1.23,0,0,0,.55.06l16.19,0h1.07V90.43Z"/><path d="M142.68,21.68V11c0-.59,0-.6.61-.61h3.08l14.71-.09h.51a1.48,1.48,0,0,1,1.57,1.7q0,4.21,0,8.45c0,.83-.45,1.25-1.35,1.27-1.09,0-2.18,0-3.28,0-1.84,0-3.69,0-5.54,0l-9.22-.07C143.41,21.61,143.08,21.65,142.68,21.68ZM162,20.48V12.35c0-.93,0-.93-.93-.93l-10.8,0h-6.43v9Z"/><path d="M44.92,89.29H65.33c0,.16,0,.32,0,.48,0,3.42,0,6.83,0,10.25,0,.42-.12.55-.54.55-2.63,0-5.26.06-7.89.08-3.2,0-6.4,0-9.6,0h-.69c-1.23,0-1.73-.55-1.73-1.77q0-4,0-8.12Zm1.21,1.14a1.13,1.13,0,0,0,0,.15c0,2.81,0,5.62-.05,8.44a.41.41,0,0,0,.42.48c.17,0,.34,0,.51,0l16.38,0c.27,0,.54,0,.83,0v-9Z"/><path d="M129.52,89.3v.58c0,3.06,0,6.12,0,9.18a1.47,1.47,0,0,1-1.6,1.59l-8.73,0-8.44,0A1.49,1.49,0,0,1,109,99c0-3.06,0-6.12,0-9.18v-.5Zm-19.35,1.13c0,.13,0,.22,0,.31,0,2.74,0,5.48,0,8.21,0,.44.18.55.57.55h16.93c.6,0,.64,0,.64-.62,0-2.51,0-5,0-7.52v-.93Z"/><path d="M161.9,89.3v11.35H141.62V89.3Zm-1.15,1.14h-18V99.5h18Z"/><path d="M32.62,89.3v11.35H12.34V89.3ZM13.48,99.5h18v-9h-18Z"/></svg>