<svg id="Слой_1" data-name="Слой 1" xmlns="http://www.w3.org/2000/svg" viewBox="0 0 92 89"><title>wallet-alt</title><path d="M21.91,13.83c-.87.32-1.75.6-2.6,1a8.86,8.86,0,0,1-3.68.65c-2.79-.06-5.58,0-8.37,0a9.06,9.06,0,0,0-1.88.14,4.35,4.35,0,0,0-3.22,2.68,7.74,7.74,0,0,0,0,6.24,4.4,4.4,0,0,0,3.89,2.81,11.66,11.66,0,0,0,1.18.06H76.36a2.84,2.84,0,0,1,3.1,2.17,4.08,4.08,0,0,1,.15,1c0,2.2,0,4.41,0,6.61,0,3.17,0,6.33,0,9.5a7,7,0,0,1-.07.92.56.56,0,0,1-.56.48,5,5,0,0,1-.55,0H65.88a7.72,7.72,0,0,0-1.18.1,1.26,1.26,0,0,0-1.06,1.06,5.62,5.62,0,0,0-.07.92q0,6.67,0,13.35a3.56,3.56,0,0,0,.07.8A1.4,1.4,0,0,0,65,65.49H88.43c1.51,0,2-.47,2-2V47.71a6.69,6.69,0,0,0-.08-1.18A1.33,1.33,0,0,0,89,45.4a.72.72,0,0,1-.78-.49.94.94,0,0,1,.21-1,.65.65,0,0,1,.4-.14A2.52,2.52,0,0,1,91.09,45a3.86,3.86,0,0,1,.58,2c0,5.62,0,11.25,0,16.88a3.72,3.72,0,0,1-.76,2.27,2.4,2.4,0,0,1-2,1l-20.28,0H65.34a2.77,2.77,0,0,1-2.92-2.53,11,11,0,0,1-.1-1.4q0-6.45,0-12.9a7.21,7.21,0,0,1,.19-1.68,2.61,2.61,0,0,1,2.84-2.21h13c0-.11,0-.19,0-.27,0-5.07,0-10.14,0-15.21,0-1.38-.57-1.93-2-1.93H7.15a6.5,6.5,0,0,1-5-2c-.1-.11-.21-.21-.32-.31l-.11,0c0,.37-.07.74-.1,1.1s0,.45,0,.68q0,26.35,0,52.72a9.8,9.8,0,0,0,.31,2.53,4.73,4.73,0,0,0,4.84,3.63h69.4a8.91,8.91,0,0,0,1-.07,1.3,1.3,0,0,0,1.18-1.16,7,7,0,0,0,.07-1q0-6.41,0-12.81a4.08,4.08,0,0,1,.13-.91A.43.43,0,0,1,79,71a.43.43,0,0,1,.48.34,4.36,4.36,0,0,1,.14.94c0,4.34,0,8.69,0,13a6.65,6.65,0,0,1-.36,2A2.47,2.47,0,0,1,76.76,89h-65c-1.56,0-3.13,0-4.69,0-3.84.12-5.89-2.45-6.51-5.3a11.27,11.27,0,0,1-.26-2.38q0-30.28,0-60.55a7.74,7.74,0,0,1,1.53-4.68A5.55,5.55,0,0,1,6.5,13.78c5.11,0,10.22,0,15.34,0h.06Z"/><path d="M73.2,59.21a2.58,2.58,0,1,1,2.57-2.42A2.56,2.56,0,0,1,73.2,59.21Z"/><path d="M71.45,10.75l2-.53,1.07,4c-.64.17-1.25.34-1.87.48,0,0-.19-.1-.21-.19C72.11,13.28,71.79,12,71.45,10.75Z"/><path d="M66.84,6.39l3.83-1.62.81,1.93L67.65,8.31Z"/><path d="M35,13.21l-.81-1.92L38,9.66l.83,1.92Z"/><path d="M22.93,16.11,23.75,18l-3.82,1.62-.82-1.91Z"/><path d="M58.33,10l3.82-1.62L63,10.29l-3.83,1.62Z"/><path d="M45.59,6.45l.83,1.91L42.6,10l-.82-1.91Z"/><path d="M26.66,14.52l3.82-1.63.82,1.91-3.82,1.63Z"/><path d="M56.89,1.63,60.7,0l.82,1.92L58.86,3.05c-.31.14-.63.26-.94.41s-.25,0-.32-.13C57.37,2.77,57.14,2.21,56.89,1.63Z"/><path d="M12.37,22.87,11.55,21l3.81-1.63c.26.6.52,1.18.76,1.77,0,.05-.1.21-.19.25Z"/><path d="M32.78,20.77l3.83-1.62.81,1.92L33.6,22.68Z"/><path d="M53.15,3.22,54,5.14,50.15,6.77l-.82-1.92Z"/><path d="M42.11,19.09l-.81-1.92,3.82-1.61.81,1.91Z"/><path d="M53.63,12l.82,1.91L50.62,15.5l-.81-1.92Z"/><path d="M73.81,19.69l2-.54.8,3-2,.54Z"/></svg>