<svg id="Слой_1" data-name="Слой 1" xmlns="http://www.w3.org/2000/svg" viewBox="0 0 114.02 87.71"><title>wal</title><path d="M103.52,22H68.27a6.54,6.54,0,0,0-6.74,6.75V55.44c0,1.37,0,2.74,0,4.11A6.53,6.53,0,0,0,67,65.69a11.12,11.12,0,0,0,1.53.09q17.3,0,34.57,0c.45,0,.45,0,.45.45,0,4.94,0,9.89,0,14.83a6.58,6.58,0,0,1-5.13,6.52,7.31,7.31,0,0,1-1.62.17h-90A6.57,6.57,0,0,1,.12,82.38,6.49,6.49,0,0,1,0,81.06V6.71A6.54,6.54,0,0,1,5.64.08,7.07,7.07,0,0,1,6.77,0H96.56a6.6,6.6,0,0,1,6.34,3.8,6.08,6.08,0,0,1,.63,2.81c0,5,0,10.05,0,15.08C103.53,21.77,103.52,21.84,103.52,22Zm-2.23-2.24V6.56A4.34,4.34,0,0,0,97,2.24H6.55a4.24,4.24,0,0,0-.94.11A4.36,4.36,0,0,0,2.22,6.66c0,2.53,0,5.07,0,7.6q0,33.3,0,66.61a5.65,5.65,0,0,0,.25,1.68,4.39,4.39,0,0,0,4.33,3H97.22a4.34,4.34,0,0,0,4.07-4.32V68h-.48Q84.6,68,68.37,68a10.57,10.57,0,0,1-2.57-.31A8.77,8.77,0,0,1,59.29,59q0-15.11,0-30.21a8.83,8.83,0,0,1,8.94-9c10.85,0,21.7,0,32.55,0Z"/><path d="M114,61.45H73.47a6.58,6.58,0,0,1-6.53-4.71,7.46,7.46,0,0,1-.27-2q0-10.86,0-21.72a6.53,6.53,0,0,1,5.62-6.62,7.84,7.84,0,0,1,1.19-.08H114Zm-2.21-32.9H73.41a4.36,4.36,0,0,0-4.53,4.54V54.67a4.36,4.36,0,0,0,4.52,4.54h38.41Z"/><path d="M91.47,43.88a7.26,7.26,0,1,1-7.16-7.25A7.26,7.26,0,0,1,91.47,43.88Zm-2.24,0a5,5,0,1,0-5,5A5,5,0,0,0,89.23,43.88Z"/></svg>