<?xml version="1.0" encoding="utf-8"?>
<svg version="1.1" id="Слой_1" xmlns="http://www.w3.org/2000/svg" xmlns:xlink="http://www.w3.org/1999/xlink" x="0px" y="0px"
	 viewBox="0 0 20 20" style="enable-background:new 0 0 20 20;" xml:space="preserve">
<style type="text/css">
	.st0{fill:#FCFDFD;}
</style>
<g>
	<path class="st0" d="M11.2,9.6c-0.1-0.2-0.3-0.7-0.5-1.1c-0.2,0-0.7,0-1.5,0C9.1,8.9,9,9.2,8.8,9.6C9.9,9.6,10.9,9.6,11.2,9.6z"/>
	<path class="st0" d="M10.1-0.2c-5.5,0-10,4.5-10,10c0,5.5,4.5,10,10,10c5.5,0,10-4.5,10-10C20.1,4.2,15.6-0.2,10.1-0.2z M17.3,8.2
		c-0.1,0.2-0.3,0.2-0.5,0.2c-1.1,0-2.2,0-3.3,0c0.2,0.5,0.5,1,0.5,1.1c0.6,0,1.2,0,1.9,0c0.2,0,0.3,0.1,0.2,0.3
		c-0.3,0.5-0.7,1-1.1,1.4c0,0-0.1,0-0.1,0c0.1,0.1,1.7,3.7,1.7,3.8c0.1,0.4,0,0.5-0.4,0.5c-0.7,0-1.4,0-2.1,0
		c-0.3,0-0.4-0.1-0.5-0.4c-0.5-1.3-1-2.5-1.5-3.7c-1.3,0-2.6,0-3.8,0c-0.6,1.3-1.2,2.6-1.7,3.8c-0.1,0.1-0.1,0.1-0.2,0.1
		c-0.8,0-1.5,0-2.3,0c-0.3,0-0.3-0.1-0.2-0.3c0.6-1.1,1.5-2.9,1.8-3.7c-0.1,0,0,0-0.1,0c-0.5-0.5-0.8-1.1-1.2-1.6
		c-0.1-0.2,0-0.3,0.2-0.3c0.4,0,1.9,0,2,0C6.6,9.3,6.8,8.9,7,8.5c-1.5,0-2.9,0-3.5,0c-0.3,0-0.5-0.1-0.7-0.3C2.6,7.8,2.4,7.4,2.1,7
		C2,6.9,1.9,6.8,2,6.7c0.1-0.1,0.2-0.1,0.3-0.1c1.6,0,6.1,0,5.4,0c0.8-1.6,2.3-5,2.4-5c0.1,0,0.1,0.1,0.2,0.2
		c0.3,0.6,1.2,2.6,2.3,4.9c1.7,0,3.5,0,5.2,0c0.4,0,0.5,0.2,0.3,0.5C17.9,7.5,17.6,7.9,17.3,8.2z"/>
</g>
</svg>
