<?xml version="1.0" encoding="UTF-8"?>
<svg width="100px" height="100px" viewBox="0 0 100 100" version="1.1" xmlns="http://www.w3.org/2000/svg" xmlns:xlink="http://www.w3.org/1999/xlink">
    <g id="mobile" stroke="none" stroke-width="1" fill="none" fill-rule="evenodd">
        <g id="bitcoin-tech">
            <g id="Group">
                <g id="bitcoin2">
                    <g id="bitcoin-copy">
                        <g id="bitcoin">
                            <g id="Group">
                                <circle id="XMLID_252_" fill="#FEB717" cx="50" cy="50" r="48.75"></circle>
                                <g id="XMLID_247_" transform="translate(25.000000, 14.015152)" fill="#FFFFFF">
                                    <path d="M15,0.734848485 L22,0.734848485 L22,11.4848485 L27.5,11.4848485 L27.5,0.734848485 L34.5,0.734848485 L34.5,0.984848485 L34.5,11.2348485 L34.5,11.4848485 L35.5,11.4848485 C38.25,11.7348485 41,12.2348485 43.5,13.2348485 C46,14.2348485 48,15.4848485 49.5,17.4848485 C51.25,19.7348485 51.5,22.4848485 51.5,25.2348485 C51.25,28.4848485 50,31.2348485 47,32.9848485 C46.5,33.2348485 46,33.4848485 45.5,33.9848485 C46,33.9848485 46.25,34.2348485 46.75,34.2348485 C47,34.2348485 47.5,34.4848485 47.75,34.4848485 C51.75,35.7348485 54.25,38.2348485 55.25,42.2348485 C55.75,44.4848485 55.75,46.9848485 55.25,49.2348485 C54.5,53.7348485 52.25,56.9848485 48,58.9848485 C45,60.4848485 41.5,60.9848485 38.25,61.4848485 C37,61.7348485 36,61.7348485 34.75,61.7348485 L34.75,72.7348485 L27.75,72.7348485 L27.75,61.7348485 L22.25,61.7348485 L22.25,72.7348485 L15.25,72.7348485 L15.25,61.7348485 L14.75,61.7348485 L5.25,61.7348485 L1.25,61.7348485 L1.25,61.4848485 C1.5,60.7348485 1.5,60.2348485 1.75,59.4848485 C2,57.7348485 2.5,55.7348485 2.75,53.9848485 L3.5,53.9848485 L8,53.9848485 C9.75,53.9848485 10.5,52.9848485 10.5,51.2348485 C10.5,41.4848485 10.5,31.7348485 10.25,21.9848485 L10.25,21.2348485 C9.75,19.7348485 8.5,18.7348485 6.5,18.7348485 L1,18.7348485 L1,11.4848485 L15,11.4848485 L15.25,11.4848485 C15.25,7.98484848 15,4.48484848 15,0.734848485 L15,0.734848485 Z M22.5,39.4848485 L22.5,54.2348485 L22.75,54.2348485 C26.25,54.2348485 29.5,54.2348485 33,53.7348485 C35.25,53.4848485 37.25,52.9848485 39.25,51.7348485 C42.75,49.7348485 43.5,45.2348485 40.75,42.4848485 C39.5,41.2348485 38.25,40.7348485 36.5,40.2348485 C33.75,39.4848485 30.75,39.2348485 28,39.2348485 C26,39.4848485 24.25,39.4848485 22.5,39.4848485 L22.5,39.4848485 Z M22.5,32.7348485 L22.75,32.7348485 C25.5,32.7348485 28,32.7348485 30.75,32.4848485 C32.5,32.2348485 34.25,31.7348485 35.75,30.9848485 C39,29.2348485 39.75,24.7348485 37.25,22.2348485 C36,20.9848485 34.75,20.4848485 33,19.9848485 C29.5,19.2348485 26,19.2348485 22.5,19.4848485 L22.5,19.4848485 C22.5,23.9848485 22.5,28.2348485 22.5,32.7348485 L22.5,32.7348485 Z" id="XMLID_248_-Copy"></path>
                                </g>
                            </g>
                        </g>
                    </g>
                </g>
                <path d="M49.3939772,74.744 C49.5091192,73.848 49.5954757,72.952 49.5954757,72 C49.5954757,71.048 49.5091192,70.152 49.3939772,69.256 L55.4677157,64.636 C56.01464,64.216 56.1585674,63.46 55.8131415,62.844 L50.0560435,53.156 C49.7106176,52.54 48.9334094,52.316 48.3001286,52.54 L41.1325415,55.34 C39.635696,54.22 38.0237086,53.296 36.2677937,52.596 L35.173945,45.176 C35.0875886,44.504 34.4830933,44 33.763456,44 L22.2492599,44 C21.5296227,44 20.9251274,44.504 20.8387709,45.176 L19.7449223,52.596 C17.9890074,53.296 16.3770199,54.248 14.8801744,55.34 L7.71258737,52.54 C7.05052109,52.288 6.30209835,52.54 5.95667247,53.156 L0.199574421,62.844 C-0.174636952,63.46 -0.00192401085,64.216 0.545000303,64.636 L6.61873874,69.256 C6.50359678,70.152 6.41724031,71.076 6.41724031,72 C6.41724031,72.924 6.50359678,73.848 6.61873874,74.744 L0.545000303,79.364 C-0.00192401085,79.784 -0.145851462,80.54 0.199574421,81.156 L5.95667247,90.844 C6.30209835,91.46 7.07930659,91.684 7.71258737,91.46 L14.8801744,88.66 C16.3770199,89.78 17.9890074,90.704 19.7449223,91.404 L20.8387709,98.824 C20.9251274,99.496 21.5296227,100 22.2492599,100 L33.763456,100 C34.4830933,100 35.0875886,99.496 35.173945,98.824 L36.2677937,91.404 C38.0237086,90.704 39.635696,89.752 41.1325415,88.66 L48.3001286,91.46 C48.9621949,91.712 49.7106176,91.46 50.0560435,90.844 L55.8131415,81.156 C56.1585674,80.54 56.01464,79.784 55.4677157,79.364 L49.3939772,74.744 L49.3939772,74.744 Z M28.006358,81.8 C22.4507584,81.8 17.9314364,77.404 17.9314364,72 C17.9314364,66.596 22.4507584,62.2 28.006358,62.2 C33.5619576,62.2 38.0812796,66.596 38.0812796,72 C38.0812796,77.404 33.5619576,81.8 28.006358,81.8 Z" id="Shape" stroke="#FFFFFF" stroke-width="2" fill="#666666" fill-rule="nonzero"></path>
            </g>
        </g>
    </g>
</svg>
