<?xml version="1.0" encoding="UTF-8"?>
<svg width="35px" height="35px" viewBox="0 0 35 35" version="1.1" xmlns="http://www.w3.org/2000/svg" xmlns:xlink="http://www.w3.org/1999/xlink">
    <!-- Generator: Sketch 47.1 (45422) - http://www.bohemiancoding.com/sketch -->
    <title>bitcoincash-white</title>
    <desc>Created with Sketch.</desc>
    <defs></defs>
    <g id="Page-1" stroke="none" stroke-width="1" fill="none" fill-rule="evenodd">
        <g id="bitcoincash-white" fill="#FFFFFF">
            <g id="bitcoin-copy">
                <path d="M17.5,34.5625 C8.07664146,34.5625 0.4375,26.9233585 0.4375,17.5 C0.4375,8.07664146 8.07664146,0.4375 17.5,0.4375 C26.9233585,0.4375 34.5625,8.07664146 34.5625,17.5 C34.5625,26.9233585 26.9233585,34.5625 17.5,34.5625 Z M14,5.1625 C14,6.475 14.0875,7.7 14.0875,8.925 L14,8.925 L9.1,8.925 L9.1,11.4625 L11.025,11.4625 C11.725,11.4625 12.1625,11.8125 12.3375,12.3375 L12.3375,12.6 C12.425,16.0125 12.425,19.425 12.425,22.8375 C12.425,23.45 12.1625,23.8 11.55,23.8 L9.975,23.8 L9.7125,23.8 C9.625,24.4125 9.45,25.1125 9.3625,25.725 C9.275,25.9875 9.275,26.1625 9.1875,26.425 L9.1875,26.5125 L10.5875,26.5125 L13.9125,26.5125 L14.0875,26.5125 L14.0875,30.3625 L16.5375,30.3625 L16.5375,26.5125 L18.4625,26.5125 L18.4625,30.3625 L20.9125,30.3625 L20.9125,26.5125 C21.35,26.5125 21.7,26.5125 22.1375,26.425 C23.275,26.25 24.5,26.075 25.55,25.55 C27.0375,24.85 27.825,23.7125 28.0875,22.1375 C28.2625,21.35 28.2625,20.475 28.0875,19.6875 C27.7375,18.2875 26.8625,17.4125 25.4625,16.975 C25.375,16.975 25.2,16.8875 25.1125,16.8875 C24.9375,16.8875 24.85,16.8 24.675,16.8 C24.85,16.625 25.025,16.5375 25.2,16.45 C26.25,15.8375 26.6875,14.875 26.775,13.7375 C26.775,12.775 26.6875,11.8125 26.075,11.025 C25.55,10.325 24.85,9.8875 23.975,9.5375 C23.1,9.1875 22.1375,9.0125 21.175,8.925 L20.825,8.925 L20.825,8.8375 L20.825,5.25 L20.825,5.1625 L18.375,5.1625 L18.375,8.925 L16.45,8.925 L16.45,5.1625 L14,5.1625 Z" id="Combined-Shape"></path>
                <path d="M16.625,18.725 L16.625,23.8875 L16.7125,23.8875 C17.9375,23.8875 19.075,23.8875 20.3,23.7125 C21.0875,23.625 21.7875,23.45 22.4875,23.0125 C23.7125,22.3125 23.975,20.7375 23.0125,19.775 C22.575,19.3375 22.1375,19.1625 21.525,18.9875 C20.5625,18.725 19.5125,18.6375 18.55,18.6375 C17.85,18.725 17.2375,18.725 16.625,18.725 L16.625,18.725 Z" id="XMLID_248_-path"></path>
                <path d="M16.625,16.3625 L16.7125,16.3625 C17.675,16.3625 18.55,16.3625 19.5125,16.275 C20.125,16.1875 20.7375,16.0125 21.2625,15.75 C22.4,15.1375 22.6625,13.5625 21.7875,12.6875 C21.35,12.25 20.9125,12.075 20.3,11.9 C19.075,11.6375 17.85,11.6375 16.625,11.725 L16.625,11.725 C16.625,13.3 16.625,14.7875 16.625,16.3625 L16.625,16.3625 Z" id="XMLID_248_-path"></path>
            </g>
        </g>
    </g>
</svg>