<?xml version="1.0" encoding="UTF-8"?>
<svg width="35px" height="35px" viewBox="0 0 35 35" version="1.1" xmlns="http://www.w3.org/2000/svg" xmlns:xlink="http://www.w3.org/1999/xlink">
    <g id="Page-1" stroke="none" stroke-width="1" fill="none" fill-rule="evenodd">
        <g id="bitcoincash">
            <g id="bitcoin-copy">
                <circle id="XMLID_252_" fill="#28CD49" cx="17.5" cy="17.5" r="17.0625"></circle>
                <path d="M14,5.1625 L16.45,5.1625 L16.45,8.925 L18.375,8.925 L18.375,5.1625 L20.825,5.1625 L20.825,5.25 L20.825,8.8375 L20.825,8.925 L21.175,8.925 C22.1375,9.0125 23.1,9.1875 23.975,9.5375 C24.85,9.8875 25.55,10.325 26.075,11.025 C26.6875,11.8125 26.775,12.775 26.775,13.7375 C26.6875,14.875 26.25,15.8375 25.2,16.45 C25.025,16.5375 24.85,16.625 24.675,16.8 C24.85,16.8 24.9375,16.8875 25.1125,16.8875 C25.2,16.8875 25.375,16.975 25.4625,16.975 C26.8625,17.4125 27.7375,18.2875 28.0875,19.6875 C28.2625,20.475 28.2625,21.35 28.0875,22.1375 C27.825,23.7125 27.0375,24.85 25.55,25.55 C24.5,26.075 23.275,26.25 22.1375,26.425 C21.7,26.5125 21.35,26.5125 20.9125,26.5125 L20.9125,30.3625 L18.4625,30.3625 L18.4625,26.5125 L16.5375,26.5125 L16.5375,30.3625 L14.0875,30.3625 L14.0875,26.5125 L13.9125,26.5125 L10.5875,26.5125 L9.1875,26.5125 L9.1875,26.425 C9.275,26.1625 9.275,25.9875 9.3625,25.725 C9.45,25.1125 9.625,24.4125 9.7125,23.8 L9.975,23.8 L11.55,23.8 C12.1625,23.8 12.425,23.45 12.425,22.8375 C12.425,19.425 12.425,16.0125 12.3375,12.6 L12.3375,12.3375 C12.1625,11.8125 11.725,11.4625 11.025,11.4625 L9.1,11.4625 L9.1,8.925 L14,8.925 L14.0875,8.925 C14.0875,7.7 14,6.475 14,5.1625 L14,5.1625 Z M16.625,18.725 L16.625,23.8875 L16.7125,23.8875 C17.9375,23.8875 19.075,23.8875 20.3,23.7125 C21.0875,23.625 21.7875,23.45 22.4875,23.0125 C23.7125,22.3125 23.975,20.7375 23.0125,19.775 C22.575,19.3375 22.1375,19.1625 21.525,18.9875 C20.5625,18.725 19.5125,18.6375 18.55,18.6375 C17.85,18.725 17.2375,18.725 16.625,18.725 L16.625,18.725 Z M16.625,16.3625 L16.7125,16.3625 C17.675,16.3625 18.55,16.3625 19.5125,16.275 C20.125,16.1875 20.7375,16.0125 21.2625,15.75 C22.4,15.1375 22.6625,13.5625 21.7875,12.6875 C21.35,12.25 20.9125,12.075 20.3,11.9 C19.075,11.6375 17.85,11.6375 16.625,11.725 L16.625,11.725 C16.625,13.3 16.625,14.7875 16.625,16.3625 L16.625,16.3625 Z" id="XMLID_248_-Copy" fill="#FFFFFF"></path>
            </g>
        </g>
    </g>
</svg>