<?xml version="1.0" encoding="utf-8"?>
<svg version="1.1" id="Слой_1" xmlns="http://www.w3.org/2000/svg" xmlns:xlink="http://www.w3.org/1999/xlink" x="0px" y="0px"
	 viewBox="0 0 560 560" style="enable-background:new 0 0 560 560;" xml:space="preserve">
<style type="text/css">
	.st0{fill:#FFC536;}
	.st1{opacity:0.8;}
	.st2{opacity:0.15;}
	.st3{fill:#FFFFFF;}
</style>
<ellipse transform="matrix(0.9653 -0.2611 0.2611 0.9653 -63.3864 82.8052)" class="st0" cx="280" cy="280" rx="280" ry="280"/>
<g class="st1">
	<path class="st2" d="M546.7,365.3c-29.7,92.5-106.7,167-208.6,188.6C186.9,586,38.2,489.4,6.1,338.2c-10.6-50-7.2-99.7,7.7-145.1
		L546.7,365.3z"/>
</g>
<path class="st3" d="M286,59.6c13.6,0,27.2,0,40.8,0.1c-0.1,1.4-0.2,2.8-0.2,4.2c0,18.8-0.1,37.5-0.1,56.3c0,6.5,0,6.4,6.6,7.1
	c18.1,2,35.9,5.3,52.6,13.1c15.8,7.4,28.1,18.1,34.5,34.7c4.6,11.9,5.7,24.4,4.8,37c-1.6,21.5-11.6,37.9-30.3,48.9
	c-1.3,0.7-2.5,1.5-4.3,2.4c1.1,0.5,1.6,0.8,2.2,1c7,2.6,14.3,4.7,20.9,8c16.3,8.2,27.9,20.7,32.5,38.9c4.6,18.2,3.5,36.3-1,54.3
	c-4,15.6-11.4,29.2-23.8,39.8c-14,12-30.9,18.3-48.6,21.7c-14.1,2.7-28.5,3.8-42.9,5.3c-3.1,0.3-4,1.3-3.9,4.3
	c0.2,5.4,0,10.8,0,16.2c0,15.8,0.1,31.7,0.1,47.5c-13.6,0-27.2,0-40.8-0.1c0-22,0.1-44,0.1-66.7c-10.4,0-20.5-0.1-30.5,0
	c-2.4,0-1.9,1.9-1.9,3.4c0,21.1-0.1,42.2-0.1,63.3c-13.6,0-27.2,0-40.8-0.1c0-22.5,0.1-44.9,0.1-67.9c-27.5,0-54.4-0.1-81.2-0.1
	c-0.2-0.7-0.3-1-0.3-1.2c2.5-15,5.2-30,7.6-45.1c0.4-2.3,1.7-2.1,3.3-2.1c8.3,0,16.7,0.1,25,0c11.5,0,16.9-5.6,17-17.1
	c0.1-58.4,0.2-116.8,0.3-175.3c0-12.7-7.7-21-20.4-21.7c-6.7-0.4-13.4-0.4-20-0.5c-4.1-0.1-8.1,0-12.2,0c0-14.6,0.1-28.7,0.1-43.3
	c27.3,0,54.3,0.1,81.4,0.1c0-22.5,0.1-44.6,0.1-66.6c13.6,0,27.2,0,40.8,0.1c-0.1,20.8-0.1,41.5-0.2,62.3c0,2.5,0.7,3.3,3.2,3.2
	c7-0.2,14.1-0.3,21.1-0.3c2.6,0,5.3,0,8.2,0C285.9,102.5,286,81.1,286,59.6z M253.8,384.2c12.8,0,25,0.3,37.2,0
	c16-0.5,31.8-2.2,47-7.7c9.7-3.5,18.8-8.2,24.4-17.4c10.8-17.8,5.3-40.7-12.8-51.4c-13.2-7.8-27.8-11.3-42.9-12
	c-16-0.8-32.1-0.7-48.1-0.9c-4.5-0.1-4.5,0-4.5,4.7c-0.1,26.8-0.1,53.7-0.1,80.5C253.8,381.2,253.8,382.5,253.8,384.2z M254.1,213.1
	c0,12.6,0,25.1-0.1,37.7c0,2,0.2,3.2,2.8,3.3c20.5,0.4,41,0.4,61.1-5c10.4-2.8,19.6-7.9,25.8-16.5c9.7-13.4,6.4-35.1-6.3-45.7
	c-10.3-8.6-22.9-11.9-35.8-13c-14.5-1.2-29-0.9-43.6-1.4c-3.2-0.1-3.9,1.1-3.9,4.1C254.3,188.7,254.1,200.9,254.1,213.1z"/>
</svg>
