<?xml version="1.0" encoding="utf-8"?>
<svg version="1.1" id="Слой_1" xmlns="http://www.w3.org/2000/svg" xmlns:xlink="http://www.w3.org/1999/xlink" x="0px" y="0px"
	 viewBox="0 0 560 560" style="enable-background:new 0 0 560 560;" xml:space="preserve">
<style type="text/css">
	.st0{fill:#FFFFFF;}
</style>
<g>
	<path class="st0" d="M349.5,307.6c-13.2-7.8-27.8-11.3-42.9-12c-16-0.8-32.1-0.7-48.1-0.9c-4.5-0.1-4.5,0-4.5,4.7
		c-0.1,26.8-0.1,53.7-0.1,80.5c0,1.3,0,2.5,0,4.2c12.8,0,25,0.3,37.2,0c16-0.5,31.8-2.2,47-7.7c9.7-3.5,18.8-8.2,24.4-17.4
		C373.2,341.2,367.6,318.3,349.5,307.6z"/>
	<path class="st0" d="M256.8,254c20.5,0.4,41,0.4,61.1-5c10.4-2.8,19.6-7.9,25.8-16.5c9.7-13.4,6.4-35.1-6.3-45.7
		c-10.3-8.6-22.9-11.9-35.8-13c-14.5-1.2-29-0.9-43.6-1.4c-3.2-0.1-3.9,1.1-3.9,4.1c0.1,12.2,0,24.4,0,36.6c0,12.6,0,25.1-0.1,37.7
		C254,252.8,254.3,254,256.8,254z"/>
	<path class="st0" d="M550.3,206.9C509.9,57.6,356.2-30.7,206.9,9.7C57.6,50.1-30.7,203.8,9.7,353.1s194.1,237.6,343.4,197.2
		C502.4,509.9,590.7,356.2,550.3,206.9z M445,365.7c-4,15.6-11.4,29.2-23.8,39.8c-14,12-30.9,18.3-48.6,21.7
		c-14.1,2.7-28.5,3.8-42.9,5.3c-3.1,0.3-4,1.3-3.9,4.3c0.2,5.4,0,10.8,0,16.2c0,15.8,0.1,31.7,0.1,47.5c-13.6,0-27.2,0-40.8-0.1
		c0-22,0.1-44,0.1-66.7c-10.4,0-20.5-0.1-30.5,0c-2.4,0-1.9,1.9-1.9,3.4c0,21.1-0.1,42.2-0.1,63.3c-13.6,0-27.2,0-40.8-0.1
		c0-22.5,0.1-44.9,0.1-67.9c-27.5,0-54.4-0.1-81.2-0.1c-0.2-0.7-0.3-1-0.3-1.2c2.5-15,5.2-30,7.6-45.1c0.4-2.3,1.7-2.1,3.3-2.1
		c8.3,0,16.7,0.1,25,0c11.5,0,16.9-5.6,17-17.1c0.1-58.4,0.2-116.8,0.3-175.3c0-12.7-7.7-21-20.4-21.7c-6.7-0.4-13.4-0.4-20-0.5
		c-4.1-0.1-8.1,0-12.2,0c0-14.6,0.1-28.7,0.1-43.3c27.3,0,54.3,0.1,81.4,0.1c0-22.5,0.1-44.6,0.1-66.6c13.6,0,27.2,0,40.8,0.1
		c-0.1,20.8-0.1,41.5-0.2,62.3c0,2.5,0.7,3.3,3.2,3.2c7-0.2,14.1-0.3,21.1-0.3c2.6,0,5.3,0,8.2,0c0-22.2,0.1-43.6,0.1-65.1
		c13.6,0,27.2,0,40.8,0.1c-0.1,1.4-0.2,2.8-0.2,4.2c0,18.8-0.1,37.5-0.1,56.3c0,6.5,0,6.4,6.6,7.1c18.1,2,35.9,5.3,52.6,13.1
		c15.8,7.4,28.1,18.1,34.5,34.7c4.6,11.9,5.7,24.4,4.8,37c-1.6,21.5-11.6,37.9-30.3,48.9c-1.3,0.7-2.5,1.5-4.3,2.4
		c1.1,0.5,1.6,0.8,2.2,1c7,2.6,14.3,4.7,20.9,8c16.3,8.2,27.9,20.7,32.5,38.9C450.6,329.6,449.6,347.7,445,365.7z"/>
	<path class="st0" d="M254.1,213.1c0-12.2,0.1-24.4,0-36.6c0-3,0.7-4.2,3.9-4.1c14.5,0.5,29.1,0.2,43.6,1.4
		c12.9,1.1,25.5,4.3,35.8,13c12.8,10.7,16,32.3,6.3,45.7c-6.3,8.7-15.4,13.8-25.8,16.5c-20.1,5.4-40.6,5.3-61.1,5
		c-2.5,0-2.8-1.3-2.8-3.3C254.1,238.2,254.1,225.7,254.1,213.1z M362.3,359c-5.6,9.2-14.7,13.9-24.4,17.4c-15.1,5.5-31,7.3-47,7.7
		c-12.2,0.4-24.4,0-37.2,0c0-1.7,0-2.9,0-4.2c0-26.8,0.1-53.7,0.1-80.5c0-4.7,0-4.8,4.5-4.7c16,0.2,32.1,0.2,48.1,0.9
		c15.1,0.7,29.8,4.2,42.9,12C367.6,318.3,373.2,341.2,362.3,359z"/>
</g>
</svg>
