<?xml version="1.0" encoding="UTF-8"?>
<svg width="20px" height="20px" viewBox="0 0 20 20" version="1.1" xmlns="http://www.w3.org/2000/svg" xmlns:xlink="http://www.w3.org/1999/xlink">
    <!-- Generator: Sketch 47.1 (45422) - http://www.bohemiancoding.com/sketch -->
    <title>bitcoin-disabled</title>
    <desc>Created with Sketch.</desc>
    <defs></defs>
    <g id="Page-1" stroke="none" stroke-width="1" fill="none" fill-rule="evenodd">
        <g id="bitcoin-disabled" fill-rule="nonzero">
            <g id="29738-200" transform="translate(-2.000000, -2.000000)">
                <circle id="Oval" fill="#C0C0C0" transform="translate(12.000195, 11.999344) rotate(-15.135518) translate(-12.000195, -11.999344) " cx="12.0001953" cy="11.9993442" r="9.767331"></circle>
                <g id="Group" opacity="0.8" transform="translate(2.197674, 8.965116)" fill="#000000">
                    <path d="M19.105814,6.01046512 C18.0697674,9.2372093 15.3837209,11.8360465 11.8290698,12.5895349 C6.55465116,13.7093023 1.36744186,10.3395349 0.247674419,5.06511628 C-0.122093023,3.32093023 -0.00348837209,1.5872093 0.51627907,0.00348837209 L19.105814,6.01046512 Z" id="Shape" opacity="0.15"></path>
                </g>
                <path d="M12.2093023,4.31162791 C12.6837209,4.31162791 13.1581395,4.31162791 13.6325581,4.31511628 C13.6290698,4.36395349 13.6255814,4.4127907 13.6255814,4.46162791 C13.6255814,5.11744186 13.622093,5.76976744 13.622093,6.4255814 C13.622093,6.65232558 13.622093,6.64883721 13.8523256,6.67325581 C14.4837209,6.74302326 15.1046512,6.85813953 15.6872093,7.13023256 C16.2383721,7.38837209 16.6674419,7.76162791 16.8906977,8.34069767 C17.0511628,8.75581395 17.0895349,9.19186047 17.0581395,9.63139535 C17.0023256,10.3813953 16.6534884,10.9534884 16.0011628,11.3372093 C15.955814,11.3616279 15.9139535,11.3895349 15.8511628,11.4209302 C15.8895349,11.4383721 15.9069767,11.4488372 15.927907,11.455814 C16.172093,11.5465116 16.4267442,11.6197674 16.6569767,11.7348837 C17.2255814,12.0209302 17.6302326,12.4569767 17.7906977,13.0918605 C17.9511628,13.7267442 17.9127907,14.3581395 17.755814,14.9860465 C17.6162791,15.5302326 17.3581395,16.0046512 16.9255814,16.3744186 C16.4372093,16.7930233 15.8476744,17.0127907 15.2302326,17.1313953 C14.7383721,17.2255814 14.2360465,17.2639535 13.7337209,17.3162791 C13.6255814,17.3267442 13.594186,17.3616279 13.5976744,17.4662791 C13.6046512,17.6546512 13.5976744,17.8430233 13.5976744,18.0313953 C13.5976744,18.5825581 13.6011628,19.1372093 13.6011628,19.6883721 C13.1267442,19.6883721 12.6523256,19.6883721 12.177907,19.6848837 C12.177907,18.9174419 12.1813953,18.15 12.1813953,17.3581395 C11.8186047,17.3581395 11.4662791,17.3546512 11.1174419,17.3581395 C11.0337209,17.3581395 11.0511628,17.4244186 11.0511628,17.4767442 C11.0511628,18.2127907 11.0476744,18.9488372 11.0476744,19.6848837 C10.5732558,19.6848837 10.0988372,19.6848837 9.6244186,19.6813953 C9.6244186,18.8965116 9.62790698,18.1151163 9.62790698,17.3127907 C8.66860465,17.3127907 7.73023256,17.3093023 6.79534884,17.3093023 C6.78837209,17.2848837 6.78488372,17.2744186 6.78488372,17.2674419 C6.87209302,16.744186 6.96627907,16.2209302 7.05,15.694186 C7.06395349,15.6139535 7.10930233,15.6209302 7.16511628,15.6209302 C7.45465116,15.6209302 7.74767442,15.6244186 8.0372093,15.6209302 C8.43837209,15.6209302 8.62674419,15.4255814 8.63023256,15.0244186 C8.63372093,12.9872093 8.6372093,10.95 8.64069767,8.90930233 C8.64069767,8.46627907 8.37209302,8.17674419 7.92906977,8.15232558 C7.69534884,8.13837209 7.46162791,8.13837209 7.23139535,8.13488372 C7.08837209,8.13139535 6.94883721,8.13488372 6.80581395,8.13488372 C6.80581395,7.6255814 6.80930233,7.13372093 6.80930233,6.6244186 C7.76162791,6.6244186 8.70348837,6.62790698 9.64883721,6.62790698 C9.64883721,5.84302326 9.65232558,5.07209302 9.65232558,4.30465116 C10.1267442,4.30465116 10.6011628,4.30465116 11.0755814,4.30813953 C11.072093,5.03372093 11.072093,5.75581395 11.0686047,6.48139535 C11.0686047,6.56860465 11.0930233,6.59651163 11.1802326,6.59302326 C11.4244186,6.58604651 11.672093,6.58255814 11.9162791,6.58255814 C12.0069767,6.58255814 12.1011628,6.58255814 12.2023256,6.58255814 C12.205814,5.80813953 12.2093023,5.06162791 12.2093023,4.31162791 Z M11.0860465,15.6348837 C11.5325581,15.6348837 11.9581395,15.6453488 12.3837209,15.6348837 C12.9418605,15.6174419 13.4930233,15.5581395 14.0232558,15.3662791 C14.3616279,15.244186 14.6790698,15.0802326 14.8744186,14.7593023 C15.2511628,14.1383721 15.0593023,13.3395349 14.427907,12.9662791 C13.9674419,12.694186 13.4581395,12.572093 12.9313953,12.5476744 C12.3732558,12.5197674 11.8116279,12.5232558 11.2534884,12.5162791 C11.0965116,12.5127907 11.0965116,12.5162791 11.0965116,12.6802326 C11.0930233,13.6151163 11.0930233,14.5534884 11.0930233,15.4883721 C11.0860465,15.5302326 11.0860465,15.5755814 11.0860465,15.6348837 Z M11.0965116,9.66627907 C11.0965116,10.105814 11.0965116,10.5418605 11.0930233,10.9813953 C11.0930233,11.0511628 11.1,11.0930233 11.1906977,11.0965116 C11.905814,11.1104651 12.6209302,11.1104651 13.322093,10.922093 C13.6848837,10.8244186 14.005814,10.6465116 14.222093,10.3465116 C14.5604651,9.87906977 14.4453488,9.12209302 14.0023256,8.75232558 C13.6430233,8.45232558 13.2034884,8.3372093 12.7534884,8.29883721 C12.2476744,8.25697674 11.7418605,8.26744186 11.2325581,8.25 C11.1209302,8.24651163 11.0965116,8.28837209 11.0965116,8.39302326 C11.1034884,8.81511628 11.0965116,9.24069767 11.0965116,9.66627907 Z" id="Shape" fill="#FFFFFF"></path>
            </g>
        </g>
    </g>
</svg>