<?xml version="1.0" encoding="utf-8"?>
<svg version="1.1" id="%u0421%u043B%u043E%u0439_1" xmlns="http://www.w3.org/2000/svg" xmlns:xlink="http://www.w3.org/1999/xlink" x="0px" y="0px"
	 viewBox="0 0 40 40" style="enable-background:new 0 0 40 40;" xml:space="preserve">
<style type="text/css">
	.st0{fill:#808184;}
	.st1{fill:#FFFFFF;}
</style>
<g>
	<circle class="st0" cx="20" cy="20" r="19.5"/>
	<g id="XMLID_203_">
		<path id="XMLID_204_" class="st1" d="M20.1,35.2c-4.3,0-7.8-1.3-10.4-3.9c-2.6-2.6-3.9-6.3-3.9-11C5.7,15.7,7,12,9.6,9.4
			c2.5-2.6,5.9-4,10-4c4.2,0,7.5,1.3,10,3.9c2.5,2.6,3.8,6.3,3.8,11v1.2H11.2c0.2,3.3,1.2,5.7,2.8,7.3c1.7,1.6,3.7,2.4,6.1,2.4
			c1.8,0,3.5-0.5,4.9-1.4c1.5-0.9,2.2-2.2,2.3-3.8h5.4c-0.4,2.9-1.8,5.2-4.1,6.8C26.3,34.4,23.5,35.2,20.1,35.2z M27.8,17.6
			c-0.4-2.7-1.4-4.8-2.9-6.1c-1.5-1.4-3.3-2-5.4-2c-2.1,0-3.9,0.7-5.4,2c-1.5,1.3-2.4,3.4-2.9,6.2H27.8z"/>
	</g>
</g>
</svg>
