<?xml version="1.0" encoding="UTF-8"?>
<svg width="30px" height="30px" viewBox="0 0 30 30" version="1.1" xmlns="http://www.w3.org/2000/svg" xmlns:xlink="http://www.w3.org/1999/xlink">
    <!-- Generator: Sketch 47.1 (45422) - http://www.bohemiancoding.com/sketch -->
    <title>cash-bishkek std white</title>
    <desc>Created with Sketch.</desc>
    <defs></defs>
    <g id="Page-1" stroke="none" stroke-width="1" fill="none" fill-rule="evenodd">
        <g id="cash-bishkek-std-white" fill="#FFFFFF">
            <g id="Group" transform="translate(1.000000, 0.000000)">
                <path d="M4.77587663,11.5449802 C2.33337663,14.2764883 -0.700790037,19.4378308 1.0900433,24.5774303 C2.88087663,29.7171077 13.9992933,30 13.9992933,30 C13.9992933,30 25.1183766,29.7171077 26.90921,24.5774303 C28.7000433,19.4378308 25.66671,14.278047 23.2251266,11.5449802 C20.7832933,8.81191339 18.5808766,7 13.9992933,7 C9.4175433,7 7.21837663,8.81347203 4.77587663,11.5449802 Z M12.2847327,22.5507625 L14.04953,22.5507625 C14.9299877,22.5507625 15.5856651,22.3968575 16.016637,22.0889041 C16.4476835,21.7810224 16.663356,21.2837358 16.6638786,20.5971876 C16.6638786,19.9388242 16.4399196,19.47338 15.9920015,19.2030064 C15.5440834,18.9326328 14.8908695,18.7927844 14.0263876,18.7927844 L12.2884653,18.7927844 L12.2847327,22.5507625 Z M9,24.9991856 L9,11 L18.9475144,11 L18.9475144,13.6642917 L12.2884653,13.6642917 L12.2884653,16.4756036 L14.3003641,16.4756036 C15.0241998,16.4720894 15.746617,16.5394318 16.4563432,16.6764116 C17.0889529,16.79496 17.6922986,17.0283993 18.2338315,17.3641789 C18.7357238,17.6831768 19.149824,18.1139816 19.4409708,18.6198743 C19.7395829,19.1353771 19.8888889,19.7808314 19.8888889,20.5562371 C19.8888889,21.3576044 19.7472721,22.0403516 19.4641132,22.6045503 C19.1982738,23.1498157 18.7948489,23.6225751 18.2905678,23.980085 C17.7633682,24.3435475 17.1678611,24.6056019 16.5369685,24.7516897 C15.8350808,24.9209422 15.1137087,25.0042775 14.3899477,24.999831 L9,24.9991856 Z" id="Combined-Shape"></path>
                <path d="M13.9324833,6.0853337 C12.1324833,6.0853337 11.2709,5.52599148 10.3192333,4.69565014 C9.36748333,3.86530879 8.22081667,3.1007299 7.21506667,2.28195119 C6.94356667,2.06045456 6.76223333,1.76857043 6.69831667,1.45016451 C6.61498333,0.974651366 6.92165,0.697870917 7.79415,0.909611573 C8.82081667,1.16037611 9.67498333,1.01728856 10.36165,0.476012959 C10.8049833,0.123352753 11.2699833,0.129856733 11.8483167,0.403746524 C13.2974833,1.09244566 14.0800667,1.08088303 15.4167333,0.377730607 C16.1783167,-0.0226254467 16.9033167,-0.021180118 17.5374833,0.439879742 C18.19665,0.918283546 18.99415,1.0064486 19.9324833,0.941408805 C20.3549833,0.910334238 21.13415,0.918283546 21.16415,0.997776625 C21.2933167,1.32658891 21.4249833,1.79270742 21.1508167,2.02540534 C19.71915,3.2387588 18.24915,4.45138959 16.5883167,5.54694875 C16.1058167,5.8641984 14.9558167,6.08388837 13.9324833,6.0853337" id="Fill-5"></path>
            </g>
        </g>
    </g>
</svg>