<svg id="Слой_1" data-name="Слой 1" xmlns="http://www.w3.org/2000/svg" viewBox="0 0 397.92 402.46"><defs><style>.cls-1{fill:#e52b00;}.cls-2{fill:#ffce00;}.cls-3{fill:#fff;stroke:#979797;stroke-miterlimit:10;stroke-width:7px;fill-rule:evenodd;}</style></defs><title>Монтажная область 1 копия 13</title><path class="cls-1" d="M198.14,88.18c-21.6,0-31.94-7.74-43.36-19.23s-25.18-22.07-37.25-33.4A20.61,20.61,0,0,1,111.36,24c-1-6.58,2.68-10.41,13.15-7.48,12.32,3.47,22.57,1.49,30.81-6,5.32-4.89,10.9-4.8,17.84-1,17.39,9.53,26.78,9.37,42.82-.36,9.14-5.54,17.84-5.52,25.45.86,7.91,6.62,17.48,7.83,28.74,6.93,5.07-.42,14.42-.31,14.78.79,1.55,4.55,3.13,11-.16,14.21C267.58,48.79,249.94,65.57,230,80.73c-5.79,4.39-19.59,7.43-31.87,7.45"/><path class="cls-1" d="M199,399.13s133.43-3.63,154.91-69.58S339,197.38,309.66,162.31,253.94,104,199,104s-81.38,23.27-110.68,58.31S22.55,263.6,44,329.55,199,399.13,199,399.13"/><path class="cls-2" d="M198.77,378.38a7.06,7.06,0,0,1-3-2.53,17.37,17.37,0,0,1-2.81-8.37c-.53-4.57,0-9.1.41-13.64.35-3.86.83-7.71,1.09-11.58a27.55,27.55,0,0,0-.88-8.85,2.42,2.42,0,0,0-.66-1.19c-.14.74-.29,1.48-.42,2.23-1.14,6.91-3.73,13.35-6.53,19.73q-2.34,5.32-4.59,10.69a19.5,19.5,0,0,0-1.5,11.37,1.47,1.47,0,0,1-.1.46,3.82,3.82,0,0,1-1.69-1.53,12.37,12.37,0,0,1-2.18-6.46,36.62,36.62,0,0,1,1.24-12.06c1.2-4.82,2.51-9.6,3.72-14.41a32.09,32.09,0,0,0,1-9.66,6.66,6.66,0,0,0-.49-2.26,4.83,4.83,0,0,0-.33.69,75.9,75.9,0,0,1-9.06,18.4q-3.66,5.7-7.22,11.45a19.65,19.65,0,0,0-3.24,11,1.88,1.88,0,0,1-.14.38,6,6,0,0,1-.76-.73,9.53,9.53,0,0,1-1.77-4.9,23,23,0,0,1,.73-7.78A77.8,77.8,0,0,1,164,347c1.11-2.52,2.25-5,3.35-7.54a34.9,34.9,0,0,0,3-11.06c0-.52,0-1,0-1.56l-.36-.26a3.29,3.29,0,0,1-.14.54c-3.41,7-8.26,12.89-13.4,18.61-2.69,3-5.32,6-7.91,9.09a19.2,19.2,0,0,0-4.2,8.24c-.14.61-.22,1.22-.35,2-.3-.33-.57-.51-.66-.75a18.75,18.75,0,0,1-1-3.34,15.78,15.78,0,0,1,.95-7.19,50.71,50.71,0,0,1,5.47-10.7c2.11-3.31,4.28-6.58,6.38-9.9a33.62,33.62,0,0,0,4.4-9.84,4.73,4.73,0,0,0,.13-2c-.17.19-.37.36-.52.56A74,74,0,0,1,145.55,336q-5.6,4.59-11.12,9.27a19.12,19.12,0,0,0-6.48,9.61c0,.08-.11.14-.22.27a6,6,0,0,1-.88-2.81,14.29,14.29,0,0,1,1.57-7.46,35.2,35.2,0,0,1,5.37-8.1c3.2-3.73,6.51-7.38,9.76-11.06a35.18,35.18,0,0,0,6.21-9.47,4.79,4.79,0,0,0,.41-1.76,3.25,3.25,0,0,0-.68.46A77,77,0,0,1,133,327.16q-6,3.51-12,7.15a19.62,19.62,0,0,0-6.53,6.38c-.39.64-.72,1.32-1.14,2.1a5.79,5.79,0,0,1-.47-3.55,14.91,14.91,0,0,1,2.49-6.23,39.57,39.57,0,0,1,7.92-8.47c3.42-2.88,6.92-5.65,10.36-8.5a34.47,34.47,0,0,0,7.35-8.08,5.41,5.41,0,0,0,.79-1.88,2.5,2.5,0,0,0-.55.25,78.2,78.2,0,0,1-18.64,9.77c-4.17,1.62-8.32,3.26-12.44,5a19.1,19.1,0,0,0-8.74,6.81c-.06.1-.2.16-.41.32a5.16,5.16,0,0,1,0-2.7,12.47,12.47,0,0,1,2.5-5.19,25.7,25.7,0,0,1,6.57-6c3.64-2.34,7.39-4.52,11.07-6.8,2.84-1.75,5.74-3.43,8.44-5.38a44.73,44.73,0,0,0,4.71-4.44,2.18,2.18,0,0,0,.61-1.2,3.7,3.7,0,0,0-.59.19c-6.69,3.53-13.91,5.46-21.26,7-4,.86-8,1.79-12,2.75A19.69,19.69,0,0,0,93.55,310c-.77.6-1.47,1.3-2.41,2.15a14.32,14.32,0,0,1,.15-1.8,10.88,10.88,0,0,1,2.91-5.11,25.38,25.38,0,0,1,8.21-5.63c3.62-1.63,7.32-3.07,11-4.58,2.84-1.16,5.71-2.25,8.51-3.49a26.62,26.62,0,0,0,6.91-4.48,2.47,2.47,0,0,0,.77-1.12c-.38.1-.76.17-1.13.29a69.69,69.69,0,0,1-17,3.1c-5.26.32-10.53.69-15.79,1.06a21.42,21.42,0,0,0-8.59,2.23c-1,.53-2,1.21-3,1.87a2.51,2.51,0,0,1,.26-1.54,10.2,10.2,0,0,1,3.11-4.2A22.85,22.85,0,0,1,94.07,285,89,89,0,0,1,107,281.53c3.52-.77,7-1.54,10.54-2.44a26.62,26.62,0,0,0,7.29-3.2c.44-.27.84-.6,1.25-.9l-.12-.25c-.38,0-.77.06-1.15.12a67.57,67.57,0,0,1-16.2.49c-6.15-.52-12.3-1.15-18.47-1.57a17.63,17.63,0,0,0-9.81,2.05l-.48.23s-.09,0-.26,0a4.47,4.47,0,0,1,.83-1.93,11.06,11.06,0,0,1,3.91-3.47,24,24,0,0,1,9.52-2.9c5-.49,10-.8,15-1.13A49.81,49.81,0,0,0,119,265.32c1.39-.39,2.74-.89,4.1-1.37a7.88,7.88,0,0,0,1-.54l0-.29c-.51,0-1-.07-1.51-.08a63,63,0,0,1-13.55-1.57c-4.56-1.11-9.09-2.31-13.65-3.4-2.85-.68-5.72-1.32-8.6-1.82a15.69,15.69,0,0,0-8,.82c-.16.05-.34.06-.73.14A6.55,6.55,0,0,1,80,254.67a14.16,14.16,0,0,1,6.47-2.91,39.35,39.35,0,0,1,11.46-.41c4.72.38,9.42,1,14.14,1.4a32.21,32.21,0,0,0,10.76-.71c.45-.11.9-.27,1.65-.5a3.81,3.81,0,0,0-.74-.35,77.26,77.26,0,0,1-20-6.19q-6.07-2.67-12.19-5.23a21,21,0,0,0-11.91-1.59,12.92,12.92,0,0,1,.87-1.06,10.17,10.17,0,0,1,4.64-2.39,24.18,24.18,0,0,1,9.55-.17,131.11,131.11,0,0,1,14.87,3.53,54.63,54.63,0,0,0,11.13,2.16,23.91,23.91,0,0,0,5.47-.29,3.52,3.52,0,0,0-.72-.51c-7.35-2.3-13.92-6.14-20.33-10.31C101.9,227,98.6,225,95.3,223A19.82,19.82,0,0,0,88,220.17c-1.19-.19-2.41-.2-3.82-.32a6.47,6.47,0,0,1,.7-.79,10.49,10.49,0,0,1,6.1-1.92,23.26,23.26,0,0,1,7.08,1,70.62,70.62,0,0,1,10.14,3.78c3.92,1.71,7.82,3.51,11.82,5a49.26,49.26,0,0,0,6.94,1.74,20.88,20.88,0,0,0,2.92.17c-.26-.31-.33-.48-.45-.53-7.48-3.64-13.72-9-19.83-14.49q-3.77-3.39-7.66-6.65a19.16,19.16,0,0,0-9.79-4.61,6.29,6.29,0,0,1-.79-.24,18.77,18.77,0,0,1,1.64-.94,11.83,11.83,0,0,1,7.18-.35,32.71,32.71,0,0,1,10.17,4.33c4.19,2.56,8.31,5.26,12.46,7.9a35,35,0,0,0,10.83,4.82c.47.11.95.17,1.7.3a4.55,4.55,0,0,0-.52-.63,74.65,74.65,0,0,1-14.39-13.85c-3.1-3.76-6.2-7.52-9.37-11.22a19,19,0,0,0-9.72-6.37,4.88,4.88,0,0,1,.8-.54,9.7,9.7,0,0,1,6-.16,24,24,0,0,1,9.3,4.84c3.64,3,7.12,6.11,10.69,9.15,2.31,2,4.58,4,7,5.72a45.87,45.87,0,0,0,5.56,3,10.37,10.37,0,0,0,1.52.52,4.72,4.72,0,0,0-.43-.73c-5.27-5.11-9.28-11.15-12.94-17.45q-3.26-5.62-6.67-11.15a18.6,18.6,0,0,0-8-7.42l-.59-.25a7,7,0,0,1,4.39-.38,15.32,15.32,0,0,1,6,2.69,35,35,0,0,1,6.76,6.21c3,3.5,5.88,7.07,8.8,10.64a41.86,41.86,0,0,0,7.26,7.25,19.15,19.15,0,0,0,3.74,2.28,3.29,3.29,0,0,0-.26-.68c-4.77-6.34-7.87-13.54-10.69-20.89q-1.95-5.06-4-10.05a19.54,19.54,0,0,0-7.4-9.34,7,7,0,0,1,1-.24,9.14,9.14,0,0,1,5.05,1.29,21.73,21.73,0,0,1,6.34,5.62,77.23,77.23,0,0,1,6.66,10.19c1.71,2.92,3.37,5.87,5.14,8.75a30.3,30.3,0,0,0,6.39,7.48c.37.31.78.58,1.43,1.08a6.42,6.42,0,0,0-.21-.78c-3.51-6.6-5.47-13.72-7-21-.87-4-1.79-8-2.72-12a20.85,20.85,0,0,0-3.65-7.94c-.59-.78-1.29-1.49-2-2.34a3.45,3.45,0,0,1,2.12.12,11.74,11.74,0,0,1,5.17,3.33,28.3,28.3,0,0,1,5.43,8.37c1.52,3.46,2.87,7,4.31,10.51,1.18,2.88,2.3,5.78,3.57,8.62a26.12,26.12,0,0,0,4.2,6.45c.21.23.43.46.66.68a3.89,3.89,0,0,0,.58.28c-.14-.57-.21-1-.34-1.38a60.16,60.16,0,0,1-2.55-11.47c-.39-3.54-.62-7.1-.89-10.65-.29-3.92-.49-7.84-.83-11.75a18.24,18.24,0,0,0-3.68-9.87,1.66,1.66,0,0,1-.18-.35s0-.09.05-.32a19.79,19.79,0,0,1,2.13.75,11.28,11.28,0,0,1,4.22,3.72,28,28,0,0,1,4.38,9.84c1.2,4.76,2.23,9.57,3.29,14.37a41.83,41.83,0,0,0,3.18,9.89c.53,1.05,1.14,2.05,1.74,3.06a6.64,6.64,0,0,0,.76.83c-.2-1.69-.36-3.12-.54-4.54a65.83,65.83,0,0,1,0-14.31q.78-8.56,1.48-17.12a18.41,18.41,0,0,0-.85-7.22c-.38-1.14-.9-2.24-1.41-3.51a6.42,6.42,0,0,1,1,.3,10.08,10.08,0,0,1,4.19,4.12,22.23,22.23,0,0,1,2.87,8.54c.47,3.53.79,7.08,1.07,10.63s.34,6.85.6,10.26a31,31,0,0,0,2.15,9.19c.17.42.37.83.56,1.23a2.9,2.9,0,0,0,.36.42,2.37,2.37,0,0,0,.19-.63c-.17-8.08,1.67-15.84,3.73-23.57,1-3.88,2-7.77,2.84-11.7a17.32,17.32,0,0,0-.64-9.74,3.57,3.57,0,0,1-.1-.63,17.29,17.29,0,0,1,1.56,1,10.21,10.21,0,0,1,2.91,4.18,24,24,0,0,1,1.56,8.33,81.93,81.93,0,0,1-.65,11.61c-.47,4.67-1.27,9.32-1,14,.13,2,.54,4,.84,6a7.42,7.42,0,0,0,.41,1.2,3.81,3.81,0,0,0,.38-.83c1-7.09,3.48-13.71,6.33-20.21q2.58-5.9,5.08-11.81a20,20,0,0,0,1.39-11.83,4.74,4.74,0,0,1,.88.48,9.51,9.51,0,0,1,2.62,4.51,23,23,0,0,1,.37,9.53c-.74,5.42-2.33,10.65-3.75,15.92a54,54,0,0,0-1.95,9.67,21.4,21.4,0,0,0,.26,6.44,6.34,6.34,0,0,0,.51-.87,77.44,77.44,0,0,1,9.16-18.5q3.63-5.64,7.15-11.34a19.37,19.37,0,0,0,3.18-11,1.3,1.3,0,0,1,.14-.33,3.89,3.89,0,0,1,1.41,1.74,12.52,12.52,0,0,1,1.21,6.71,37.12,37.12,0,0,1-3.24,12.1c-1.73,4.11-3.6,8.17-5.37,12.27a33.55,33.55,0,0,0-3,11.6,2,2,0,0,0,.22,1.1,3.33,3.33,0,0,0,.43-.56c3.17-6.41,7.56-12,12.29-17.26q4.5-5,8.9-10.2a19.48,19.48,0,0,0,3.87-7.07c.3-1,.45-2,.7-3.16.23.24.5.42.59.65a18,18,0,0,1,1,3.2,15.84,15.84,0,0,1-1,7.58,51,51,0,0,1-5.29,10.34c-2.08,3.28-4.23,6.51-6.31,9.78a34.39,34.39,0,0,0-4.6,10.2c-.12.48-.21,1-.3,1.45a3.23,3.23,0,0,0,0,.56,5.74,5.74,0,0,0,.7-.69,77.06,77.06,0,0,1,14.44-14.76q5.34-4.38,10.6-8.85a19.82,19.82,0,0,0,5.4-7.19c.32-.73.55-1.49.87-2.38a4.46,4.46,0,0,1,.89,2.35,12.59,12.59,0,0,1-.71,6,25,25,0,0,1-4.23,7.52c-3,3.7-6.18,7.29-9.33,10.89a57.34,57.34,0,0,0-6.76,8.61,21.89,21.89,0,0,0-2.46,5.43c.28-.12.46-.14.55-.24,5.61-5.82,12.36-10.06,19.3-14.06,3-1.73,6-3.54,9-5.34a19.61,19.61,0,0,0,8.13-8.8,3.07,3.07,0,0,1,.59,1.91,11.26,11.26,0,0,1-1.22,5.49,22,22,0,0,1-5,6.84c-3.07,2.85-6.28,5.56-9.46,8.3-2.79,2.42-5.67,4.75-8.41,7.23a23.44,23.44,0,0,0-4.43,5.61c-.22.37-.39.77-.69,1.38a3.61,3.61,0,0,0,.7-.25c6.2-4.66,13.22-7.72,20.39-10.49q5.63-2.17,11.18-4.5a19.65,19.65,0,0,0,6.94-4.84c.6-.66,1.12-1.39,1.83-2.28a7,7,0,0,1,0,3.09,14.39,14.39,0,0,1-3.83,6.58,39.74,39.74,0,0,1-8.65,6.69c-3.79,2.29-7.64,4.47-11.45,6.71a34.41,34.41,0,0,0-9.3,7.55c-.29.35-.54.71-.95,1.26a3.74,3.74,0,0,0,.76-.13c6.8-3.62,14.16-5.56,21.64-7.15,3.88-.83,7.75-1.73,11.6-2.67a18.9,18.9,0,0,0,9.57-5.3,2.33,2.33,0,0,1,.43-.25,3.58,3.58,0,0,1-.13,2,12.77,12.77,0,0,1-4.3,6.11,34.31,34.31,0,0,1-9.32,5.43c-4.46,1.84-9,3.55-13.47,5.32a36.2,36.2,0,0,0-9.75,5.49,5.23,5.23,0,0,0-1.36,1.66c.42-.12.85-.21,1.26-.34a64.24,64.24,0,0,1,15-2.89q7.83-.48,15.66-1.06a48.25,48.25,0,0,0,5.37-.63,17.42,17.42,0,0,0,8.29-3.79,4.45,4.45,0,0,1,0,.84,8.79,8.79,0,0,1-2.33,4.06,18.4,18.4,0,0,1-5.53,3.83,51.14,51.14,0,0,1-11.07,3.52c-4.13.93-8.29,1.76-12.42,2.72a31.87,31.87,0,0,0-9.15,3.63c-.49.29-.94.63-1.41.95l.1.33c.46,0,.92,0,1.37-.11a62.49,62.49,0,0,1,14.84-.51c6.16.54,12.31,1.11,18.47,1.61a19.24,19.24,0,0,0,11-2.12,4.14,4.14,0,0,1,.51-.17,5.44,5.44,0,0,1-.2.91,9.33,9.33,0,0,1-3.37,3.81,21.17,21.17,0,0,1-7.21,3,60.12,60.12,0,0,1-10.18,1.33c-3.83.25-7.66.36-11.49.62a33.64,33.64,0,0,0-10.79,2.38,3.49,3.49,0,0,0-1.25.84,5.7,5.7,0,0,0,1,.17c8.78-.09,17.14,2.18,25.52,4.39,3.36.89,6.75,1.68,10.15,2.32a16.39,16.39,0,0,0,8.55-.68,6.22,6.22,0,0,1,.69-.16,4.7,4.7,0,0,1-.33.9,9.27,9.27,0,0,1-3.57,3,19.2,19.2,0,0,1-7.42,1.93,72.33,72.33,0,0,1-12.57-.4c-4.3-.43-8.61-.86-12.93-1.16a25.72,25.72,0,0,0-7.65.8,3.29,3.29,0,0,0-1.48.7,7.85,7.85,0,0,0,.95.26,77.35,77.35,0,0,1,19.19,6q6.51,2.85,13.07,5.58a19.72,19.72,0,0,0,8.45,1.55c.85,0,1.69-.17,2.74-.27a5.7,5.7,0,0,1-.54.91,8.83,8.83,0,0,1-3.78,2.29,21.08,21.08,0,0,1-9.24.67c-5.31-.58-10.41-2.15-15.56-3.51a55.84,55.84,0,0,0-9.9-2.15c-2.06-.16-4.14-.1-6.21-.1a7,7,0,0,0-1.25.28,4.41,4.41,0,0,0,.73.41c6.93,2.15,13.15,5.69,19.2,9.57q5.59,3.58,11.24,7.05a19.56,19.56,0,0,0,8.39,2.86c.8.08,1.61,0,2.62,0a4.57,4.57,0,0,1-.61.75,10,10,0,0,1-5.77,2.05,24.21,24.21,0,0,1-8-1,83.34,83.34,0,0,1-11.1-4.27c-2.93-1.29-5.85-2.62-8.8-3.86a32.31,32.31,0,0,0-9.27-2.39c-.67-.07-1.34,0-2.18,0,.2.22.3.41.46.48,7.22,3.53,13.29,8.63,19.21,14q4.13,3.7,8.38,7.28a19,19,0,0,0,10.4,4.58,6.13,6.13,0,0,1-.73.65,10.53,10.53,0,0,1-6.84,1,25.83,25.83,0,0,1-9-3.22c-2.83-1.59-5.59-3.3-8.35-5s-5.52-3.6-8.33-5.31a29.85,29.85,0,0,0-9.24-3.77c-.36-.08-.74-.1-1.11-.15l-.28.42a3.54,3.54,0,0,1,.64.25c6.26,4.42,11.28,10.08,16.07,16,2.3,2.84,4.67,5.62,7,8.42a20,20,0,0,0,10.21,6.89,5.83,5.83,0,0,1-.85.54,10.15,10.15,0,0,1-6.51,0,24.47,24.47,0,0,1-8.77-4.72c-3.77-3.08-7.43-6.3-11.09-9.52a51.48,51.48,0,0,0-8.09-6.32c-1.32-.77-2.72-1.4-4.1-2.06a13.68,13.68,0,0,0-1.55-.5,11.39,11.39,0,0,0,.73.95,75.78,75.78,0,0,1,12,16c2.42,4.12,4.86,8.24,7.36,12.31a18.74,18.74,0,0,0,8.13,7.51c.07,0,.11.13.3.37a13.19,13.19,0,0,1-1.41.32,11.13,11.13,0,0,1-6.51-1.43,22.56,22.56,0,0,1-6.24-4.71c-2.81-3.05-5.51-6.2-8.21-9.35-1.82-2.12-3.52-4.35-5.35-6.47a30.92,30.92,0,0,0-7.35-6.33c-.31-.19-.63-.36-.95-.53a4.27,4.27,0,0,0-.54-.13,2.42,2.42,0,0,0,.21.63c4.85,6.47,7.93,13.83,10.8,21.3q1.95,5.06,4.06,10a19.5,19.5,0,0,0,5.51,7.59c.48.4,1,.75,1.58,1.2a3.27,3.27,0,0,1-2.3.2,12.85,12.85,0,0,1-6.25-3,29.47,29.47,0,0,1-5.93-6.82c-1.86-2.88-3.59-5.84-5.36-8.78s-3.38-5.76-5.18-8.57a26.89,26.89,0,0,0-5.49-6.12c-.34-.29-.72-.53-1.28-.94a4,4,0,0,0,.16.8c3.66,6.9,5.58,14.35,7.19,21.92q1.22,5.68,2.61,11.34a18.75,18.75,0,0,0,5.35,9.54,1.63,1.63,0,0,1,.22.41,4.59,4.59,0,0,1-2.54-.34,11.69,11.69,0,0,1-4.4-2.83,26,26,0,0,1-5.55-8.27c-1.74-3.92-3.26-7.93-4.89-11.89-1.14-2.75-2.25-5.51-3.49-8.21a25.47,25.47,0,0,0-4-6c-.29-.34-.51-.73-.77-1.1l-.42.26c.08.35.13.71.23,1.05a60.75,60.75,0,0,1,2.55,11.2c.39,3.5.65,7,.91,10.51.32,4.19.51,8.38.88,12.56a18.35,18.35,0,0,0,3.53,9.52c.13.17.23.36.52.85a19,19,0,0,1-2.05-.59,10.52,10.52,0,0,1-3.9-3.07,22.12,22.12,0,0,1-4.23-8.11c-1.13-3.94-2.06-7.94-3-11.92-.76-3.16-1.38-6.35-2.19-9.49a28.33,28.33,0,0,0-3.22-7.58c-.3-.49-.64-.95-1.11-1.65a3.68,3.68,0,0,0,0,1.91,58.69,58.69,0,0,1,.69,11.46c-.2,3.83-.57,7.65-.89,11.47-.29,3.46-.67,6.91-.92,10.38a19.14,19.14,0,0,0,2.39,11.39,3.86,3.86,0,0,1-1-.16,10,10,0,0,1-4.35-4.13,21,21,0,0,1-2.68-7.33c-.47-2.75-.85-5.53-1.07-8.31-.31-3.87-.41-7.75-.64-11.62a35.3,35.3,0,0,0-2.42-11.61c-.15-.37-.33-.74-.51-1.1a1.94,1.94,0,0,0-.3-.38c-.41.44-.25.95-.25,1.39a61.5,61.5,0,0,1-1.7,14.62c-1.08,4.42-2.24,8.82-3.35,13.24-.49,2-1,3.93-1.4,5.92a18.92,18.92,0,0,0,.53,10.41C198.72,377.88,198.71,378,198.77,378.38Zm73.48-120.93a73.2,73.2,0,1,0-73.38,73.2A73.25,73.25,0,0,0,272.25,257.45Z"/><path class="cls-2" d="M199.9,245.4c1.87,2.13,3.79,4.16,5.54,6.33a85,85,0,0,1,18.24,41.07,86.53,86.53,0,0,1,1,14.57,1.77,1.77,0,0,1-1.32,1.87,61.94,61.94,0,0,1-15.77,4.23,60.77,60.77,0,0,1-31-4c-.17-.06-.33-.15-.51-.2a1.61,1.61,0,0,1-1.31-1.88c.18-3.6.13-7.22.49-10.81a82.83,82.83,0,0,1,6.88-25.63,85.49,85.49,0,0,1,16.36-24.38c.28-.3.58-.58.88-.85A3.43,3.43,0,0,1,199.9,245.4Z"/><path class="cls-2" d="M142.4,273.87c-.25-.69-.44-1.19-.61-1.69A60.95,60.95,0,0,1,147.31,222a2,2,0,0,0,.21-.35,1.63,1.63,0,0,1,2.06-1c3.32.64,6.67,1.14,10,1.89a73.53,73.53,0,0,1,13.3,4.48c.33.15.64.32,1.06.53-2.73,2.64-5.51,5.11-8.05,7.81a112,112,0,0,0-7.38,8.63,100.86,100.86,0,0,0-6.33,9.26,110.25,110.25,0,0,0-5.32,10C145.23,266.63,143.94,270.14,142.4,273.87Z"/><path class="cls-2" d="M225.15,227.52c2.39-.94,4.42-1.8,6.49-2.55a86.57,86.57,0,0,1,17.58-4.27c.23,0,.45,0,.67-.08a1.45,1.45,0,0,1,1.75.88c1.36,2.7,2.89,5.32,4.09,8.08a60.68,60.68,0,0,1,1.68,42.71,4.49,4.49,0,0,1-.63,1.23A104.13,104.13,0,0,0,225.15,227.52Z"/><path class="cls-2" d="M235.06,204c-2.1.18-4.2.34-6.3.55a98.17,98.17,0,0,0-27.35,6.76,4.15,4.15,0,0,1-3.45,0,97.47,97.47,0,0,0-27.47-6.79c-2.11-.21-4.22-.37-6.33-.55,2.59-3.76,18.29-10.13,27.6-11.22a60.9,60.9,0,0,1,43.37,10.9Z"/><path class="cls-2" d="M233.13,303.94c-1-25.09-10.45-46.07-28.31-63.4.61-.53,1.14-1,1.7-1.45s1.06-.8,1.65-1.25c.41.34.76.61,1.08.92a91.22,91.22,0,0,1,28,51.77c.51,2.88.74,5.81,1.06,8.72a1.45,1.45,0,0,1-.3,1.1A39,39,0,0,1,233.13,303.94Z"/><path class="cls-2" d="M166.22,304a35.24,35.24,0,0,1-4.87-3.63,1.86,1.86,0,0,1-.28-1.37c.34-3,.61-6,1.14-9a90.55,90.55,0,0,1,22.19-45.47c1.84-2.05,3.85-3.94,5.78-5.89.28-.28.62-.51,1-.84l3.34,2.68c-1.1,1.11-2.14,2.14-3.15,3.2s-2,2.17-3,3.29-1.87,2.19-2.77,3.32-1.82,2.36-2.69,3.57-1.7,2.44-2.5,3.69-1.58,2.53-2.33,3.82-1.44,2.6-2.12,3.92-1.32,2.67-1.93,4-1.15,2.65-1.67,4-1.05,2.79-1.52,4.2-.91,2.83-1.3,4.27-.76,2.88-1.09,4.33-.63,2.91-.89,4.37-.45,2.85-.63,4.28-.33,3-.44,4.44S166.32,302.19,166.22,304Z"/><path class="cls-2" d="M152.73,292.09l-4.09-5.69c-.41-.56-.15-1.14,0-1.69a97.64,97.64,0,0,1,30.92-52.39c.4-.35.83-.69,1.25-1a2.1,2.1,0,0,1,.42-.13l4,2.4c-17.7,15.76-28.43,35.17-32.08,58.45Z"/><path class="cls-2" d="M214.14,233.56l4.07-2.46c.34.25.64.43.9.66a97.44,97.44,0,0,1,31.56,52.72,2.76,2.76,0,0,1-.46,2.53c-1.15,1.49-2.26,3-3.39,4.55a3.9,3.9,0,0,1-.58.46C242.54,268.7,231.85,249.33,214.14,233.56Z"/><path class="cls-2" d="M192.46,215.32c-1.44.81-2.58,1.42-3.71,2.07-.58.34-1.05,0-1.54-.19a95.67,95.67,0,0,0-29.67-6.65c-.3,0-.59-.08-1-.13a8.06,8.06,0,0,1,2.22-2.28,1.68,1.68,0,0,1,1-.15,97.87,97.87,0,0,1,30.92,6.59C191.2,214.77,191.68,215,192.46,215.32Z"/><path class="cls-2" d="M242.87,210.33c-3.64.44-7,.76-10.35,1.26A89.52,89.52,0,0,0,213,216.87a12.38,12.38,0,0,1-1.39.53,1.39,1.39,0,0,1-.9,0c-1.2-.6-2.36-1.27-3.73-2,.5-.27.78-.46,1.08-.59A93.26,93.26,0,0,1,229.67,209c3.21-.45,6.46-.65,9.69-1a2,2,0,0,1,1.81.65C241.67,209.19,242.23,209.7,242.87,210.33Z"/><path class="cls-2" d="M150.93,216.71a14.47,14.47,0,0,0,.83-1.2,2.11,2.11,0,0,1,2.38-1.07c2.81.4,5.64.64,8.43,1.11a86.72,86.72,0,0,1,18.16,5.15c.42.17.82.36,1.24.54a8.13,8.13,0,0,1-2.86,2.32,3.62,3.62,0,0,1-1.28-.33,84.9,84.9,0,0,0-16.4-4.95c-2.83-.54-5.7-.87-8.55-1.29Z"/><path class="cls-2" d="M248.19,216.74c-2.09.27-4.05.5-6,.78a85.12,85.12,0,0,0-20.42,5.63,2.32,2.32,0,0,1-2.81-.37,20.3,20.3,0,0,0-1.82-1.33c.5-.27.81-.48,1.15-.62a84.68,84.68,0,0,1,17.36-5.07c2.89-.5,5.8-.82,8.71-1.2C246.75,214.25,246.89,214.34,248.19,216.74Z"/><path class="cls-2" d="M195.41,220.9c1.5-.8,2.71-1.46,3.94-2.09a.79.79,0,0,1,.64,0c1.23.63,2.44,1.3,3.93,2.1-1.51.83-2.75,1.53-4,2.17a1,1,0,0,1-.75-.1C198,222.37,196.89,221.73,195.41,220.9Z"/><path class="cls-2" d="M205.65,227.06c1.47-.82,2.67-1.51,3.89-2.13a1.06,1.06,0,0,1,.86.11c.91.59,1.77,1.23,2.85,2-1.43,1-2.8,1.66-4.2,2.47Z"/><path class="cls-2" d="M193.66,227.05c-1.3.93-2.34,1.68-3.42,2.47l-4.2-2.45c1.13-.8,2.06-1.5,3-2.12a1.06,1.06,0,0,1,.87,0C191.09,225.59,192.22,226.25,193.66,227.05Z"/><path class="cls-2" d="M196.28,233.48c1.1-.81,2.05-1.54,3-2.2a.93.93,0,0,1,.85.09c.92.63,1.8,1.31,2.87,2.11-1.09,1-2.18,1.72-3.31,2.59A27.23,27.23,0,0,1,196.28,233.48Z"/><path class="cls-3" d="M126,359.05V163.85H259.25V201h-89.2V240.2H197A143,143,0,0,1,225.88,243a67.87,67.87,0,0,1,23.81,9.59,50,50,0,0,1,16.17,17.51q6,10.78,6,27,0,16.76-5.69,28.56a50.41,50.41,0,0,1-15.72,19.18,67.38,67.38,0,0,1-23.49,10.76,115.18,115.18,0,0,1-28.76,3.46Zm44-34.14h23.64q17.69,0,26.35-6.44t8.67-20.8c0-9.18-3-15.67-9-19.44s-14.75-5.72-26.33-5.72H170.05Z"/></svg>