<?xml version="1.0" encoding="UTF-8"?>
<svg width="30px" height="30px" viewBox="0 0 30 30" version="1.1" xmlns="http://www.w3.org/2000/svg" xmlns:xlink="http://www.w3.org/1999/xlink">
    <!-- Generator: Sketch 47.1 (45422) - http://www.bohemiancoding.com/sketch -->
    <title>cash-odessa std</title>
    <desc>Created with Sketch.</desc>
    <defs>
        <path d="M4.27587663,4.72998018 C1.83337663,7.46148833 -1.20079004,12.6228308 0.590043296,17.7624303 C2.38087663,22.9021077 13.4992933,23.185 13.4992933,23.185 C13.4992933,23.185 24.6183766,22.9021077 26.40921,17.7624303 C28.2000433,12.6228308 25.16671,7.46304696 22.7251266,4.72998018 C20.2832933,1.99691339 18.0808766,0.185 13.4992933,0.185 C8.9175433,0.185 6.71837663,1.99847203 4.27587663,4.72998018 Z" id="path-1"></path>
    </defs>
    <g id="Page-1" stroke="none" stroke-width="1" fill="none" fill-rule="evenodd">
        <g id="cash-odessa-std">
            <g id="Page-1" transform="translate(1.500000, 0.000000)">
                <g id="Group-4" transform="translate(0.000000, 6.815000)">
                    <mask id="mask-2" fill="white">
                        <use xlink:href="#path-1"></use>
                    </mask>
                    <g id="Clip-2"></g>
                    <polygon id="Fill-1" fill="#0033D3" mask="url(#mask-2)" points="-3.16666667 10.5 30.1666667 10.5 30.1666667 -8.89833333 -3.16666667 -8.89833333"></polygon>
                    <polygon id="Fill-3" fill="#FFD500" mask="url(#mask-2)" points="-3.16666667 25.0833333 30.1666667 25.0833333 30.1666667 10.5 -3.16666667 10.5"></polygon>
                </g>
                <g id="Group-11" transform="translate(6.166667, 0.065000)">
                    <path d="M7.26581667,6.0203337 C5.46581667,6.0203337 4.60423333,5.46099148 3.65256667,4.63065014 C2.70081667,3.80030879 1.55415,3.0357299 0.5484,2.21695119 C0.2769,1.99545456 0.0955666667,1.70357043 0.03165,1.38516451 C-0.0516833333,0.909651366 0.254983333,0.632870917 1.12748333,0.844611573 C2.15415,1.09537611 3.00831667,0.952288563 3.69498333,0.411012959 C4.13831667,0.0583527534 4.60331667,0.0648567326 5.18165,0.338746524 C6.63081667,1.02744566 7.4134,1.01588303 8.75006667,0.312730607 C9.51165,-0.0876254467 10.23665,-0.086180118 10.8708167,0.374879742 C11.5299833,0.853283546 12.3274833,0.941448597 13.2658167,0.876408805 C13.6883167,0.845334238 14.4674833,0.853283546 14.4974833,0.932776625 C14.62665,1.26158891 14.7583167,1.72770742 14.48415,1.96040534 C13.0524833,3.1737588 11.5824833,4.38638959 9.92165,5.48194875 C9.43915,5.7991984 8.28915,6.01888837 7.26581667,6.0203337" id="Fill-5" fill="#0033D3"></path>
                    <path d="M4.39081667,18.7170561 C4.39081667,20.3284318 4.65473333,21.4859662 5.18248333,22.1895845 C5.71031667,22.8932029 6.4289,23.2450121 7.33831667,23.2450121 C8.27331667,23.2450121 8.99556667,22.9004482 9.50498333,22.2112458 C10.0144,21.5221181 10.2705667,20.2848851 10.2733167,18.4996963 C10.2733167,16.997374 10.00615,15.899819 9.47165,15.2072553 C8.93723333,14.5145423 8.21215,14.1681858 7.29665,14.1681858 C6.42006667,14.1681858 5.71581667,14.5200697 5.18423333,15.2236133 C4.65256667,15.9272317 4.38806667,17.0917126 4.39081667,18.7170561 M0.0408166667,18.6953948 C0.0408166667,16.0905877 0.679733333,14.0626431 1.95748333,12.6115609 C3.23531667,11.1604787 5.01798333,10.434975 7.30581667,10.434975 C9.64806667,10.434975 11.45365,11.1478554 12.7224833,12.5734669 C13.9914,13.9991531 14.6252333,15.9961744 14.62415,18.5646802 C14.62415,20.4295676 14.3464,21.9587798 13.7908167,23.1523914 C13.2353167,24.346003 12.4349833,25.2749735 11.3899833,25.939228 C10.3439,26.6030344 9.0384,26.934975 7.47331667,26.934975 C5.88606667,26.934975 4.57223333,26.6483738 3.53165,26.0751713 C2.49106667,25.5020435 1.65081667,24.5949584 1.01081667,23.3540655 C0.364233333,22.1136953 0.0408166667,20.5608051 0.0408166667,18.6953948" id="Fill-7" fill="#FFFFFF"></path>
                    <path d="M4.39081667,18.7170561 C4.39081667,20.3284318 4.65473333,21.4859662 5.18248333,22.1895845 C5.71031667,22.8932029 6.4289,23.2450121 7.33831667,23.2450121 C8.27331667,23.2450121 8.99556667,22.9004482 9.50498333,22.2112458 C10.0144,21.5221181 10.2705667,20.2848851 10.2733167,18.4996963 C10.2733167,16.997374 10.00615,15.899819 9.47165,15.2072553 C8.93723333,14.5145423 8.21215,14.1681858 7.29665,14.1681858 C6.42006667,14.1681858 5.71581667,14.5200697 5.18423333,15.2236133 C4.65256667,15.9272317 4.38806667,17.0917126 4.39081667,18.7170561 Z M0.0408166667,18.6953948 C0.0408166667,16.0905877 0.679733333,14.0626431 1.95748333,12.6115609 C3.23531667,11.1604787 5.01798333,10.434975 7.30581667,10.434975 C9.64806667,10.434975 11.45365,11.1478554 12.7224833,12.5734669 C13.9914,13.9991531 14.6252333,15.9961744 14.62415,18.5646802 C14.62415,20.4295676 14.3464,21.9587798 13.7908167,23.1523914 C13.2353167,24.346003 12.4349833,25.2749735 11.3899833,25.939228 C10.3439,26.6030344 9.0384,26.934975 7.47331667,26.934975 C5.88606667,26.934975 4.57223333,26.6483738 3.53165,26.0751713 C2.49106667,25.5020435 1.65081667,24.5949584 1.01081667,23.3540655 C0.364233333,22.1136953 0.0408166667,20.5608051 0.0408166667,18.6953948 Z" id="Stroke-9" stroke="#989898" stroke-width="0.5"></path>
                </g>
            </g>
        </g>
    </g>
</svg>