<?xml version="1.0" encoding="UTF-8"?>
<svg width="17px" height="17px" viewBox="0 0 17 17" version="1.1" xmlns="http://www.w3.org/2000/svg" xmlns:xlink="http://www.w3.org/1999/xlink">
    <g id="Page-1" stroke="none" stroke-width="1" fill="none" fill-rule="evenodd">
        <g id="Group" transform="translate(1.400000, 0.000000)">
            <path d="M7.1655,17 C7.1655,17 13.0895,16.839 14.0435,13.911 C14.9975,10.983 13.3815,8.043 12.0805,6.486 C10.7785,4.93 9.6065,3.897 7.1655,3.897 C4.7255,3.897 3.5525,4.93 2.2515,6.486 C0.9505,8.043 -0.6665,10.983 0.2875,13.911 C1.2415,16.839 7.1655,17 7.1655,17" id="Fill-1" fill="#00B549"></path>
            <path d="M7.1294,3.6875 C6.1704,3.6895 5.7114,3.3435 5.2044,2.8335 C4.6934,2.3185 4.0864,1.8535 3.5504,1.3505 C3.4004,1.2095 3.3034,1.0165 3.2764,0.8395 C3.2314,0.5475 3.3954,0.3775 3.8604,0.5075 C4.4074,0.6615 4.8624,0.5735 5.2284,0.2395 C5.4644,0.0225 5.7124,0.0265 6.0204,0.1955 C6.7924,0.6185 7.2094,0.6115 7.9214,0.1795 C8.3274,-0.0665 8.7134,-0.0655 9.0514,0.2175 C9.4024,0.5115 9.8274,0.5655 10.3274,0.5255 C10.5524,0.5065 10.9674,0.5115 10.9834,0.5605 C11.0524,0.7625 11.1224,1.0485 10.9764,1.1915 C10.2124,1.9385 9.4294,2.6835 8.5444,3.3565 C8.2874,3.5515 7.6744,3.6865 7.1294,3.6875" id="Fill-4" fill="#00B549"></path>
        </g>
    </g>
</svg>