<svg id="Слой_1" data-name="Слой 1" xmlns="http://www.w3.org/2000/svg" xmlns:xlink="http://www.w3.org/1999/xlink" viewBox="0 0 397.92 402.46"><defs><style>.cls-1{fill:none;}.cls-2,.cls-6{fill:#fff;stroke-miterlimit:10;}.cls-2{stroke:#000;}.cls-3{clip-path:url(#clip-path);}.cls-4{fill:#0036ce;}.cls-5{fill:#ff0019;}.cls-6{stroke:#979797;stroke-width:7px;fill-rule:evenodd;}</style><clipPath id="clip-path"><path class="cls-1" d="M198.62,398.82s133.43-3.63,154.92-69.58S338.63,197.07,309.33,162s-55.73-58.32-110.71-58.32S117.25,127,87.94,162,22.22,263.29,43.71,329.24s154.91,69.58,154.91,69.58"/></clipPath></defs><title>Монтажная область 1 копия 14</title><path class="cls-2" d="M198.14,87.22c-21.6,0-31.94-7.74-43.36-19.23s-25.18-22.07-37.25-33.4a20.61,20.61,0,0,1-6.17-11.51c-1-6.58,2.68-10.41,13.15-7.48,12.32,3.47,22.57,1.49,30.81-6,5.32-4.88,10.9-4.79,17.84-1,17.39,9.53,26.78,9.37,42.82-.36,9.14-5.54,17.84-5.52,25.45.86,7.91,6.62,17.48,7.84,28.74,6.94,5.07-.43,14.42-.32,14.78.78,1.55,4.55,3.13,11-.16,14.22C267.58,47.83,249.94,64.61,230,79.77c-5.79,4.39-19.59,7.43-31.87,7.45"/><path class="cls-2" d="M199,398.17s133.43-3.63,154.91-69.58S339,196.43,309.66,161.36,253.94,103,199,103s-81.38,23.27-110.68,58.32S22.55,262.64,44,328.59,199,398.17,199,398.17"/><g class="cls-3"><rect class="cls-4" x="-1.38" y="133" width="400" height="133"/><rect class="cls-5" x="-1.38" y="266" width="400" height="133"/></g><path class="cls-6" d="M108,360.35V165.23h48.17L187.59,252c2,5.78,3.89,11.74,5.69,17.79S197,281.94,199,287.92h1.2q3-9,5.54-18.11c1.69-6.05,3.53-12,5.53-17.79l30.83-86.79h47.89V360.35H249.83V288.81c0-4.78.2-10,.6-15.85s.89-11.63,1.49-17.51,1.18-11.67,1.8-17.36,1.2-10.91,1.78-15.71h-1.2l-15.85,46.4L210.62,343.3H186.39l-27.84-74.52L143,222.38h-1.2q.9,7.2,1.8,15.71c.6,5.69,1.2,11.5,1.8,17.36s1.11,11.72,1.49,17.51.6,11.07.6,15.85v71.54Z"/></svg>