<svg id="Слой_1" data-name="Слой 1" xmlns="http://www.w3.org/2000/svg" viewBox="0 0 397.92 402.46"><defs><style>.cls-1{fill:#01a5c7;}.cls-2{fill:#f5e436;}.cls-3{fill:#e8e23b;}.cls-4{fill:#fff;stroke:#979797;stroke-miterlimit:10;stroke-width:7px;fill-rule:evenodd;}</style></defs><title>Монтажная область 1 копия 15</title><path class="cls-1" d="M198.14,87.22c-21.6,0-31.94-7.74-43.36-19.23s-25.18-22.07-37.25-33.4a20.61,20.61,0,0,1-6.17-11.51c-1-6.58,2.68-10.41,13.15-7.48,12.32,3.47,22.57,1.49,30.81-6,5.32-4.88,10.9-4.79,17.84-1,17.39,9.53,26.78,9.37,42.82-.36,9.14-5.54,17.84-5.52,25.45.86,7.91,6.62,17.48,7.84,28.74,6.94,5.07-.43,14.42-.32,14.78.78,1.55,4.55,3.13,11-.16,14.22C267.58,47.83,249.94,64.61,230,79.77c-5.79,4.39-19.59,7.43-31.87,7.45"/><path class="cls-1" d="M199,398.17s133.43-3.63,154.91-69.58S339,196.43,309.66,161.36,253.94,103,199,103s-81.38,23.27-110.68,58.32S22.55,262.64,44,328.59,199,398.17,199,398.17"/><path class="cls-2" d="M166.15,266c-4.77-2.61-8.58-6.36-12.19-10.35a58.52,58.52,0,0,1-12.55-22.34c-1-3.35-2.16-6.78-2-10.41V208.77c-.19-4.65,1.33-9,2.82-13.25a60.18,60.18,0,0,1,36.06-36.45,49.26,49.26,0,0,1,14.61-3.28l11.92,0c4.63,0,9,1.25,13.35,2.69a59.62,59.62,0,0,1,23.75,14.88,61.6,61.6,0,0,1,14.8,24.77,56.2,56.2,0,0,1,2.2,25.18c-2.62,19-12.25,33.7-28.47,43.94a53.86,53.86,0,0,1-19.74,7.58c-1.4.23-2.74.81-4.2.64H192.05a43.68,43.68,0,0,1-13.2-2.95c-2.29-.84-4.72-1.44-6.68-3C170.79,267.21,168.48,266.6,166.15,266Z"/><path class="cls-3" d="M210.19,354.42a43,43,0,0,1-9.78-.08,88.91,88.91,0,0,0-19.5.15,33,33,0,0,1-3.86.17,31.55,31.55,0,0,0-9.64,1.53c-.3.11-.94.1-1,0-1-2.55-2.07-.36-2.94,0-1.13.54-1.59.6-1.72-.87a5.71,5.71,0,0,1,2.94-5.69,3.21,3.21,0,0,0,1.87-2.44c.41-2.23,2.35-3.33,4.39-4.13,4.25-1.69,8.56-3.27,12.71-5.19,5.66-2.61,9.42-7.47,13.4-12,.37-.42.67-.9,1.06-1.29,7.17-7.37,4.81-5.53,14.33-6.8a117.33,117.33,0,0,0,16.28-3.38,95.62,95.62,0,0,0,18.5-7.09,107.32,107.32,0,0,0,37.39-32c6.06-8.22,10.41-17.35,13.94-26.86a73.06,73.06,0,0,0,3.57-13.55,1.91,1.91,0,0,1,2-1.8c1.09-.08,2.14,0,2.53,1.38a13.74,13.74,0,0,1,.71,3.77,52.93,52.93,0,0,1-1.49,12.09,6.76,6.76,0,0,0,0,3c3.18-4.76,4.4-10.6,5.83-16.38.92-3.7,1.75-7.44,3-11.06a1.88,1.88,0,0,1,2.21-1.45c1,.13,2.06.2,2.56,1.54,1.21,3.24.88,6.49.34,9.74-1.37,8.14-4.75,15.58-8.21,23-.39.83-1.5,1.37-1.07,2.67,2.7-1.94,4.36-4.7,6.25-7.27,2.74-3.72,5-7.78,7.94-11.34a4.73,4.73,0,0,1,4.5-1.76c1.66.19,2.4,1,2.29,2.64-.18,2.73-1.76,4.89-3,7.14a133.82,133.82,0,0,1-11,16c-2,2.53-4.15,4.92-6.57,7.77,3.06-1.55,5.05-3.56,7.25-5.4,3.21-2.7,5.95-5.81,9-8.65a34,34,0,0,1,2.66-2.58,2.77,2.77,0,0,1,3.7,0c1.16,1,.75,2,0,3.17-4.83,7.46-11,13.66-17.61,19.55-1.5,1.34-3,2.67-4.54,4-.29.26-.86.37-.65.94s.72.39,1.12.37c2.21-.06,3.93-1.32,5.73-2.4,1.5-.89,3-1.71,4.57-2.54a1.35,1.35,0,0,1,1.6-.05,1.51,1.51,0,0,1,.39,1.74c-.92,3.71-3.43,6.18-6.39,8.24-3.86,2.68-7.81,5.22-11.71,7.84-.64.43-1.24.92-1.84,1.41-.26.21-.65.39-.49.83s.56.41.91.41c1.58,0,3.16-.05,4.73-.07.72,0,1.57-.14,1.78.78s-.46,1.26-1.05,1.66a27.47,27.47,0,0,1-8.6,3.47,59.82,59.82,0,0,0-6.82,2.19c2.9,1.38,5.86.63,8.95,1.61-4.71,3.63-10.37,3.44-15.33,5.33a22.71,22.71,0,0,0,6,1.29c.57,0,1.32.05,1.37.75.07.87-.75.85-1.37,1-3.48.83-7.12.61-10.57,1.64-.27.08-.6,0-.85.11-1,.47-2.69.43-2.74,1.57-.07,1.31,1.5,1.54,2.64,1.9s2.59.45,2.82,1.52-1.39,1.31-2.19,1.86c-9,6.2-18.82,9.45-29.84,8.6-.42,0-.84-.1-1.67-.19a46.91,46.91,0,0,0,19.69-8.4,23.59,23.59,0,0,1,2.4-1.74c1.51-.85,1.92-1.9,1.06-3.47-.77-1.39-.24-2.15,1.31-2.28a16.91,16.91,0,0,0,2.35-.27c2-.45,2.29-1.25,1.21-3-.88-1.39.29-1.82,1.12-2.1a21.6,21.6,0,0,0,4.47-1.85c.71-.44,1.7-.9.61-2.09-.79-.87.11-1.57.71-2.13,1.43-1.3,3.36-1.68,5-2.61.84-.48,2.81-.63.5-2-.78-.47-.45-1,.3-1.6a72.54,72.54,0,0,1,6.77-4.19c.72-.44,1.44-.87,2.14-1.34s1.9-.67,1.68-1.67-1.31-1.15-2.25-1.28c-.4-.06-.94,0-1.13-.41s.34-.91.65-1.23c1.61-1.63,3.55-2.91,4.73-5a4.57,4.57,0,0,0,.53-2.23c.05-1.16-.53-1.56-1.64-1.2s-2,.67-3.06.95c-.43.12-1,.66-1.32,0s.07-.95.5-1.45a16.5,16.5,0,0,0,3.83-7.89c.28-1.68-.23-2.31-2-2.3a18,18,0,0,0-10,3.31c-6.7,4.46-12.52,9.93-16,17.29-1.6,3.42-4.51,4.55-7.34,6.05-7,3.69-14.3,6.75-20.9,11.17a33.6,33.6,0,0,0-8,7.46,5,5,0,0,1-3.19,1.91c-3.58.66-7.15,1.43-10.77,1.77a108,108,0,0,0-20,3.63,20.5,20.5,0,0,0-8.14,5,75.64,75.64,0,0,1-22.48,14.54c-1,.39-1.67.6-1.51,1.83.13,1-.84,1.2-1.22.78-1-1.12-1.56-.42-2.47.1-.67.38-1.48,1.33-2.71.34a28.59,28.59,0,0,1,4.05.87c2.62,1,4.39.22,4.78-2.42.17-1.1.5-1.28,1.54-1.44,2.66-.43,5.26-1.13,7.89-1.71.47-.1,1.06-.35,1.34.21s-.31.89-.67,1.19c-.76.65-1,1.16-.19,2.09s-.36,1.4-.9,1.78-1.45.83-1.2,1.75a1.79,1.79,0,0,0,2,1.27,9.46,9.46,0,0,0,3.15-.27,5,5,0,0,1,3.17-.09c4.34,1.52,8.79.85,13.19,1C207.05,353.17,208.54,353.08,210.19,354.42Z"/><path class="cls-3" d="M92.63,292c3.19,2.64,6,5.08,9.87,5.87,1.26.26,2,.88,1.58,2.23-.57,2.1.36,3.19,2.34,3.67,1.31.32,1.52.8.4,1.82-1.69,1.56-1.29,2.6.76,3.61,1.22.61,2.55.72,3.78,1.32,1.39.69,1.15,1.1.31,1.89-2.37,2.23-2.31,2.18.5,3.75,2.53,1.41,5.43,1.53,8.33,2.62-1.16.79-2.15,1.5-3.18,2.15-1.79,1.13-1.83,1.67.08,2.65,3.83,2,7.78,3.67,11.77,5.27,6.07,2.44,12.27,4.51,18.44,6.68-14.87-1-27.56-8.42-41-14.09l3-1.14c.36-.14,1,0,1-.56s-.57-.81-1-.93c-1.58-.42-3.17-.85-4.78-1.12a17.1,17.1,0,0,1-4.8-1.67c-.4-.2-1.11-.15-.93-.92a1.11,1.11,0,0,1,1.14-.81,7.76,7.76,0,0,0,2.41-.84c.47-.2,1.34,0,1.23-.82s-.77-.9-1.46-1a35.44,35.44,0,0,1-8.13-1.7c-.61-.23-1.39-.24-1.25-1.13s.91-.47,1.4-.67c2.35-.91,5.14-.29,7.48-2.13a10.79,10.79,0,0,0-4.29-1.33c-3.37-.42-6.79-.74-9.82-2.51-.12-.07-.3-.07-.4-.16-.84-.75-2.42-1.34-2-2.53s1.72-.1,2.63-.08a66.77,66.77,0,0,0,9.91,0c-2.64-2.13-5.38-2.85-7.8-4.09-4.74-2.44-9.45-4.88-13.34-8.61A15.07,15.07,0,0,1,74.14,283a1.6,1.6,0,0,1,.08-1.84c.52-.56,1.1-.19,1.74,0,2.75,1,5,2.95,7.62,4.06.19.08.34.29.54.34,1.15.34,2.76,1,3.36,0s-1.19-1.43-1.92-2.06C77.88,277,70.65,270,64.88,261.64c-.78-1.13-1.89-2.32-.26-3.7a3.26,3.26,0,0,1,4.4.54c4.34,4.51,8.54,9.18,13.48,13.09a15,15,0,0,0,4.43,2.94c-3.12-3.94-6-7.5-8.82-11.17-4-5.24-7.81-10.59-10.5-16.63-.73-1.65-2.14-3.48.13-5.11,1.67-1.2,4-.73,5.78,1.31,3.08,3.55,5.31,7.7,8,11.51a73,73,0,0,0,5.91,7.28c.54-1.31-.35-2.19-.77-3a86.1,86.1,0,0,1-8.14-21.45,28.92,28.92,0,0,1-.24-10.5A2.54,2.54,0,0,1,81,224.52a2.16,2.16,0,0,1,2.64,1.72c1.35,4,2.08,8.1,3.21,12.13,1.27,4.56,2.28,9.19,4.88,13.79a7.48,7.48,0,0,0,.06-4.56,42.37,42.37,0,0,1-.52-12.21c.14-1.35.8-2.4,2.22-2.37s2.57.4,2.87,2.22A90.25,90.25,0,0,0,103,256.48a101.62,101.62,0,0,0,31.18,40,103.33,103.33,0,0,0,27.21,15.3,101.43,101.43,0,0,0,33.71,6.79c1.5,0,2.26.11,1.38,2.07s-2,3.48-2.51,5.48c-.19.73-.88,1.35-2.1.4-2.94-2.29-6.44-3.27-10.14-3.86-6.11-1-12.31-.56-18.41-1.59-5.17-.88-9.09-3.71-12.81-7.21s-7.06-7.72-11.77-10.24c-1.83-1-3.9-1.18-5.81-1.9-7.13-2.7-12.25-7.84-16.78-13.72s-8.84-12.22-14.63-17.15c-1.07-.91-2.2-1.73-3.29-2.59s-2.27-1.41-2.79.61c-.25.93-.92.76-1.55.59-.82-.23-1.6-.58-2.43-.78a1.31,1.31,0,0,0-1.47.6c-.46.62.09.88.32,1.27a50.14,50.14,0,0,1,3.9,7.44c1.14,2.94.87,3.53-2.12,3.55-.68,0-1.6-.39-2,.36s.21,1.57.75,2.25A38.84,38.84,0,0,0,96.4,290c1.19,1,.54,1.22-.31,1.45C95.09,291.69,94,291.79,92.63,292Z"/><path class="cls-3" d="M258.66,351.54c-.6,1.54-.39,3.07-.71,4.52-.7,3.26-3.56,4.47-6.42,2.49-3.49-2.41-3.47-2.4-5.48,1.53a11,11,0,0,1-1.65,2.45c-1.26,1.37-2.56,1.16-3.57-.47-1.43-2.31-1.62-2.33-3,.06a11.63,11.63,0,0,1-1.66,2.15c-2.18,2.26-3.74,2.26-5.7-.11-1-1.2-1.78-1.42-2.7.06a9.81,9.81,0,0,1-1.82,2c-2.56,2.34-4,1.65-5.25-1.16-.26-.58.09-1.65-.92-1.69s-1,.92-1.35,1.49c-1.14,1.62-1.88,3.58-4.32,3.92-2.19.3-3-.25-3-2.42,0-1,.7-2.35-.39-2.74s-1.61,1-2.32,1.75a41.13,41.13,0,0,1-3.44,3.29,2.66,2.66,0,0,1-2.77.55c-1-.39-.63-1.44-.66-2.24-.06-1.19.79-3-.2-3.4s-1.64,1.48-2.53,2.27a25.32,25.32,0,0,1-3.13,2.8c-1.86,1.17-2.69.88-3-1.24-.53-3.61-.5-3.55-3.77-1.7-2.19,1.23-4.27,2.81-7,2.78-1.23,0-1.71-.24-1.22-1.63,1.3-3.71,4.12-5.73,7.58-7,6.46-2.41,13.26-1.86,19.95-2.21,5.65-.3,11.35.17,16.92-1.2,2.67-.65,5.27-1.53,7.22-3.59.39-.4,1.29-.85.91-1.52-1.14-2.05.46-2.14,1.66-2.78.88-.47,1.94-1,2-2.35s1-1.67,2-1.71a107.12,107.12,0,0,1,16.31.4,127,127,0,0,0,14.33,1.34c1.11,0,2.72-.63,3.25.86s-.29,3.05-1.24,4.3c-2.31,3-6.08,3.22-9.64,1.86A28.36,28.36,0,0,1,258.66,351.54Z"/><path class="cls-3" d="M249.9,139.83c-2.43,6.48-3.38,12.85-7.15,18.13-1.59,2.23-4.27,3.27-5.92,2.51-2.72-1.24-3.3-4-1.4-7.23,2.06-3.49,5.16-6.05,8.2-8.61C245.47,143.09,247,141.16,249.9,139.83Z"/><path class="cls-3" d="M181.06,305.27c-.51-6-1.54-11.41-1-16.86a10,10,0,0,1,1.38-4.42c1.5-2.39,3-3.25,5.23-2.49s2.52,2.73,2.63,4.62c.15,2.62-1.08,5-2.06,7.31-1.44,3.41-3.21,6.68-4.86,10A17.21,17.21,0,0,1,181.06,305.27Z"/><path class="cls-3" d="M263.37,280a29.34,29.34,0,0,1-5.8-2.72c-3.55-2-7.21-3.88-10.12-6.86a6.66,6.66,0,0,1-2.19-5.29,3.48,3.48,0,0,1,4.65-3.16,9.58,9.58,0,0,1,4.36,3C257.93,269.44,260.44,274.52,263.37,280Z"/><path class="cls-3" d="M216.61,305.1c-3-5.33-5.8-10.36-7.57-15.83a7.72,7.72,0,0,1,.18-5.61,3.41,3.41,0,0,1,3.24-2.37,3.81,3.81,0,0,1,3.79,2.12,11.63,11.63,0,0,1,1.57,5.4A71.45,71.45,0,0,1,216.61,305.1Z"/><path class="cls-3" d="M234.11,131.63c-1.1,6.6-.76,13-3.4,18.8a5.81,5.81,0,0,1-3.83,3.57c-1.32.31-2.79.3-3.68-1a5.63,5.63,0,0,1-.71-5.47c1.78-4.73,5-8.49,8.12-12.38A11.15,11.15,0,0,1,234.11,131.63Z"/><path class="cls-3" d="M115.5,250.19c5-4.09,9.4-8.83,15.63-11a5.46,5.46,0,0,1,5.52,1,3,3,0,0,1,.92,3.48c-.81,2.21-2.61,3.46-4.8,4.29a23.46,23.46,0,0,1-5.36,1.26C123.49,249.68,119.61,250.74,115.5,250.19Z"/><path class="cls-3" d="M199.38,306.19c-1.66-.73-1.42-2.33-1.79-3.51a73.29,73.29,0,0,1-3-12.14,13.74,13.74,0,0,1,1-6.26c.66-2,4.19-2.41,5.92-.68a5.77,5.77,0,0,1,1.71,3.75c.32,4.58-1.09,8.85-2.21,13.18C200.53,302.42,199.93,304.29,199.38,306.19Z"/><path class="cls-3" d="M233.68,299.26c-3-2.23-4.82-5.25-7-8a26,26,0,0,1-4.16-7.22,5.91,5.91,0,0,1,.64-5.66c1.43-2.07,5-1.44,6.67,1a16.46,16.46,0,0,1,2.22,5.89A88.86,88.86,0,0,1,233.68,299.26Z"/><path class="cls-3" d="M148.74,139.91a83.54,83.54,0,0,1,12.8,11.58,7.53,7.53,0,0,1,2,5.85,3.56,3.56,0,0,1-5.22,3c-3.45-1.45-4.47-4.72-5.77-7.65-1.45-3.28-2.42-6.77-3.54-10.19A15.36,15.36,0,0,1,148.74,139.91Z"/><path class="cls-3" d="M135.14,280c-.06-1.91,1.06-3.08,1.75-4.36,2-3.74,4-7.52,6.83-10.77a9.72,9.72,0,0,1,5-2.94,3.16,3.16,0,0,1,3.5,1.45c1.16,1.76.79,3.67-.33,5.35-1.6,2.39-4,3.88-6.35,5.43A99.55,99.55,0,0,1,135.14,280Z"/><path class="cls-3" d="M282.79,181.11c-5,4.2-9.55,8.55-15.48,11a5.19,5.19,0,0,1-6.53-1.75c-1.09-1.8.14-4.18,1.4-5.26a12,12,0,0,1,5.58-2.39,99.45,99.45,0,0,1,14.19-2C282.12,180.75,282.3,180.9,282.79,181.11Z"/><path class="cls-3" d="M258.16,251.3c2.14-.22,3.66,1.13,5.18,2.37,3.86,3.14,6.77,7.16,10.07,10.82.34.37.66.84.42,1.32-.09.18-.68.26-1,.17-5.75-1.92-11.9-2.93-16.78-6.91-2-1.68-2.74-4.42-1.79-6A3.58,3.58,0,0,1,258.16,251.3Z"/><path class="cls-3" d="M274.45,165.54c-3.59,4.24-6.77,8.63-10.94,12.14a8.29,8.29,0,0,1-6.12,2.33c-3.21-.23-4.49-2.44-3.1-5.37,1.24-2.61,3.58-3.9,6-4.88,4-1.61,8.17-3,12.28-4.4A2.05,2.05,0,0,1,274.45,165.54Z"/><path class="cls-3" d="M115.18,180.8c4.41-.16,8.32.7,12.25,1.23a17.2,17.2,0,0,1,6.87,2.09c.29.18.59.36.86.56,2.11,1.59,3.08,3.82,2.36,5.4-.8,1.79-3.1,2.57-5.75,2.07-4.48-.84-7.6-4-11.08-6.53A25.28,25.28,0,0,1,115.18,180.8Z"/><path class="cls-3" d="M282.51,250c-.16.25-.2.36-.23.36-6.49,0-12.92-.5-18.87-3.4a4.69,4.69,0,0,1-2.74-5.7,2.89,2.89,0,0,1,2.39-2.09,8.61,8.61,0,0,1,6,.88C274,242.82,278.23,246.47,282.51,250Z"/><path class="cls-3" d="M164.47,299.85a23.62,23.62,0,0,1,.22-7.5c.59-2.65.62-5.36,1.35-8a11.84,11.84,0,0,1,3.8-6.4,3.42,3.42,0,0,1,3.8-.52,3.9,3.9,0,0,1,2.1,3.17c.38,3.51-1.48,6.07-3.2,8.73A131.79,131.79,0,0,1,164.47,299.85Z"/><path class="cls-3" d="M249.55,290.93c-.5,0-.88.12-1,0-4.61-4-9.88-7.42-13.14-12.82-2-3.25-1.07-6.33,1.95-7.32,1.61-.54,4,.58,5.41,2.72a38.43,38.43,0,0,1,4.33,9.6C247.9,285.62,248.68,288.18,249.55,290.93Z"/><path class="cls-3" d="M275.06,234.87a15.14,15.14,0,0,1-8.74-2.12c-1.57-1-2.4-2.48-1.9-4.32s2.11-2.68,4-2.93c3-.41,5.74.83,8.38,2,3.42,1.51,6.71,3.32,10.07,5,.34.16.69.24.67.68s-.4.56-.73.68a3.32,3.32,0,0,1-.83.18C282.32,234.3,278.69,234.58,275.06,234.87Z"/><path class="cls-3" d="M110.27,232.94c5-2.52,9.64-5.46,14.9-7a7.75,7.75,0,0,1,6.2.24c2.62,1.42,3,4.45.75,6.31a7.53,7.53,0,0,1-3.74,1.74c-5.38.77-10.72-.07-16.07-.23A2.48,2.48,0,0,1,110.27,232.94Z"/><path class="cls-3" d="M123.79,165.55c1.6-.92,2.66.28,3.8.61,4.5,1.32,9.08,2.5,13.08,5.09a7,7,0,0,1,3,3.36c.55,1.59.92,3.37-.79,4.63s-3.81,1-5.63.19a16.21,16.21,0,0,1-4.62-3.61A92.8,92.8,0,0,1,123.79,165.55Z"/><path class="cls-3" d="M135.4,151.45c4.93,2.53,10,4.9,14.21,8.57,1.61,1.39,3,3,3.18,5.27.25,3.27-2.44,5.18-5.44,3.85-2.55-1.12-4-3.27-5.57-5.46-2.46-3.48-4.36-7.26-6.49-10.92A1.07,1.07,0,0,1,135.4,151.45Z"/><path class="cls-3" d="M123.71,265.61c4.36-4.82,7.59-10.64,13.65-13.72,2.1-1.07,5-.74,6.12.67s.64,4-1.1,5.95c-2.27,2.52-5.47,3.33-8.42,4.53-2.79,1.14-5.71,2-8.58,2.9A1.62,1.62,0,0,1,123.71,265.61Z"/><path class="cls-3" d="M148.77,291.4c0-3.11,1.18-5.36,1.92-7.69,1.06-3.34,2.07-6.72,4.1-9.68a9.57,9.57,0,0,1,2.38-2.37,4.37,4.37,0,0,1,5.19-.19c1.23.75,1.59,3.77.89,5.38a19.71,19.71,0,0,1-4.58,5.91A115.8,115.8,0,0,1,148.77,291.4Z"/><path class="cls-3" d="M216.66,126.36c1.51,6.21,1.34,12.14,1.05,18.06a7.22,7.22,0,0,1-1.76,4,3.81,3.81,0,0,1-4.29,1.45c-1.91-.57-2.65-2-2.9-3.8-.34-2.42.48-4.62,1.42-6.77A99.87,99.87,0,0,1,216.66,126.36Z"/><path class="cls-3" d="M203.33,141.1c-.07,2.67.08,5-1.85,6.72a3.67,3.67,0,0,1-6-1.38,9.21,9.21,0,0,1-.85-5c.67-5.07,2.28-9.92,3.56-14.85.11-.41.39-1,1-1,.73,0,.54.72.68,1.14C201.41,131.54,203,136.38,203.33,141.1Z"/><path class="cls-3" d="M262.93,151.7c-2.74,5.54-5.08,11.25-9.58,15.65a7.57,7.57,0,0,1-3.76,2.08,3.46,3.46,0,0,1-4-1.76,5.41,5.41,0,0,1,1.15-5.91c2-2.3,4.56-3.82,7.12-5.39A46.6,46.6,0,0,1,262.93,151.7Z"/><path class="cls-3" d="M108,215.54c6.37-1.79,12-4.3,18.18-4.25a7.27,7.27,0,0,1,4.18,1.18c1.34.9,2.32,2.07,2,3.64a4.61,4.61,0,0,1-3.31,3.46c-2.92,1.08-5.77.52-8.54-.24C116.5,218.25,112.38,217.47,108,215.54Z"/><path class="cls-3" d="M164.77,131.75c3.62,4.93,8,9.07,10.37,14.69a8.42,8.42,0,0,1,.37,5.25c-.64,2.8-4.39,3.28-6.69.94a9.43,9.43,0,0,1-2.23-4.5,63.69,63.69,0,0,1-2.21-15.59C164.38,132.36,164.54,132.19,164.77,131.75Z"/><path class="cls-3" d="M287.82,198.26c-4.93,2.75-9.5,5.36-14.53,7a8.88,8.88,0,0,1-7-.21,3.57,3.57,0,0,1-.54-6.12,7.21,7.21,0,0,1,4.43-1.86c4.87-.22,9.73-.07,14.59.19A7.75,7.75,0,0,1,287.82,198.26Z"/><path class="cls-3" d="M289.63,215.82a80,80,0,0,1-13.1,3.71c-2.46.41-4.84,1-7.38.08-2.19-.78-3.4-2-3.29-4.23a3.92,3.92,0,0,1,3.84-3.73c5-.54,9.77.69,14.47,2.14C285.89,214.32,287.76,214.45,289.63,215.82Z"/><path class="cls-3" d="M180.05,140.07c-.1-4.18.95-7.77.73-11.44a1,1,0,0,1,.5-1.1c.5-.21.76.32,1,.62,1.94,2.51,3,5.53,4.48,8.27a31.06,31.06,0,0,1,2.42,6.75c.73,2.55-.61,6-2.41,6.62-2.91.94-4.93-.6-6-3.86A16.64,16.64,0,0,1,180.05,140.07Z"/><path class="cls-3" d="M110.24,198.28a3,3,0,0,1,2.46-1c5-.31,10-.8,15-.32a9.32,9.32,0,0,1,4.22,1.75c1.75,1.15,1.87,2.83,1.4,4.5s-1.83,2.34-3.52,2.52c-2.87.31-5.42-.67-8-1.74C117.84,202.37,114.08,200.31,110.24,198.28Z"/><path class="cls-3" d="M139.43,208.77V222.9A28.53,28.53,0,0,1,139.43,208.77Z"/><path class="cls-3" d="M192.05,275.44h14.48A30.06,30.06,0,0,1,192.05,275.44Z"/><path class="cls-3" d="M166.15,266c2.33.6,4.64,1.21,6,3.46A13.05,13.05,0,0,1,166.15,266Z"/><path class="cls-3" d="M204.84,155.77l-11.92,0A35.34,35.34,0,0,1,204.84,155.77Z"/><path class="cls-4" d="M103.15,365.12l69.66-222.67h60.46l69.66,222.67H249.66L236,312.2H168l-13.67,52.92Zm80.6-112.69-5.49,20.5h47.5l-5.13-20.5q-4.8-16.73-9.23-35.52t-8.88-36.2h-1.37l-8.36,36.37Q188.52,235.7,183.75,252.43Z"/></svg>