<?xml version="1.0" encoding="UTF-8"?>
<svg width="30px" height="30px" viewBox="0 0 30 30" version="1.1" xmlns="http://www.w3.org/2000/svg" xmlns:xlink="http://www.w3.org/1999/xlink">
    <!-- Generator: Sketch 47.1 (45422) - http://www.bohemiancoding.com/sketch -->
    <title>cash-odessa std white</title>
    <desc>Created with Sketch.</desc>
    <defs></defs>
    <g id="Page-1" stroke="none" stroke-width="1" fill="none" fill-rule="evenodd">
        <g id="cash-odessa-std-white" fill="#FFFFFF">
            <g id="Group" transform="translate(1.000000, 0.000000)">
                <path d="M4.77587663,11.5449802 C7.21837663,8.81347203 9.4175433,7 13.9992933,7 C18.5808766,7 20.7832933,8.81191339 23.2251266,11.5449802 C25.66671,14.278047 28.7000433,19.4378308 26.90921,24.5774303 C25.1183766,29.7171077 13.9992933,30 13.9992933,30 C13.9992933,30 2.88087663,29.7171077 1.0900433,24.5774303 C-0.700790037,19.4378308 2.33337663,14.2764883 4.77587663,11.5449802 Z M11.0574833,18.7820561 C11.0547333,17.1567126 11.3192333,15.9922317 11.8509,15.2886133 C12.3824833,14.5850697 13.0867333,14.2331858 13.9633167,14.2331858 C14.8788167,14.2331858 15.6039,14.5795423 16.1383167,15.2722553 C16.6728167,15.964819 16.9399833,17.062374 16.9399833,18.5646963 C16.9372333,20.3498851 16.6810667,21.5871181 16.17165,22.2762458 C15.6622333,22.9654482 14.9399833,23.3100121 14.0049833,23.3100121 C13.0955667,23.3100121 12.3769833,22.9582029 11.84915,22.2545845 C11.3214,21.5509662 11.0574833,20.3934318 11.0574833,18.7820561 Z M6.70748333,18.7603948 C6.70748333,20.6258051 7.0309,22.1786953 7.67748333,23.4190655 C8.31748333,24.6599584 9.15773333,25.5670435 10.1983167,26.1401713 C11.2389,26.7133738 12.5527333,26.999975 14.1399833,26.999975 C15.7050667,26.999975 17.0105667,26.6680344 18.05665,26.004228 C19.10165,25.3399735 19.9019833,24.411003 20.4574833,23.2173914 C21.0130667,22.0237798 21.2908167,20.4945676 21.2908167,18.6296802 C21.2919,16.0611744 20.6580667,14.0641531 19.38915,12.6384669 C18.1203167,11.2128554 16.3147333,10.499975 13.9724833,10.499975 C11.68465,10.499975 9.90198333,11.2254787 8.62415,12.6765609 C7.3464,14.1276431 6.70748333,16.1555877 6.70748333,18.7603948 Z" id="Combined-Shape"></path>
                <path d="M13.9324833,6.0853337 C12.1324833,6.0853337 11.2709,5.52599148 10.3192333,4.69565014 C9.36748333,3.86530879 8.22081667,3.1007299 7.21506667,2.28195119 C6.94356667,2.06045456 6.76223333,1.76857043 6.69831667,1.45016451 C6.61498333,0.974651366 6.92165,0.697870917 7.79415,0.909611573 C8.82081667,1.16037611 9.67498333,1.01728856 10.36165,0.476012959 C10.8049833,0.123352753 11.2699833,0.129856733 11.8483167,0.403746524 C13.2974833,1.09244566 14.0800667,1.08088303 15.4167333,0.377730607 C16.1783167,-0.0226254467 16.9033167,-0.021180118 17.5374833,0.439879742 C18.19665,0.918283546 18.99415,1.0064486 19.9324833,0.941408805 C20.3549833,0.910334238 21.13415,0.918283546 21.16415,0.997776625 C21.2933167,1.32658891 21.4249833,1.79270742 21.1508167,2.02540534 C19.71915,3.2387588 18.24915,4.45138959 16.5883167,5.54694875 C16.1058167,5.8641984 14.9558167,6.08388837 13.9324833,6.0853337" id="Fill-5"></path>
            </g>
        </g>
    </g>
</svg>