<?xml version="1.0" encoding="UTF-8"?>
<svg width="30px" height="30px" viewBox="0 0 30 30" version="1.1" xmlns="http://www.w3.org/2000/svg" xmlns:xlink="http://www.w3.org/1999/xlink">
    <!-- Generator: Sketch 47.1 (45422) - http://www.bohemiancoding.com/sketch -->
    <title>cash-kz std white</title>
    <desc>Created with Sketch.</desc>
    <defs></defs>
    <g id="Page-1" stroke="none" stroke-width="1" fill="none" fill-rule="evenodd">
        <g id="cash-kz-std-white" fill="#FFFFFF">
            <g id="Group" transform="translate(1.000000, 0.000000)">
                <path d="M4.77587663,11.5449802 C7.21837663,8.81347203 9.4175433,7 13.9992933,7 C18.5808766,7 20.7832933,8.81191339 23.2251266,11.5449802 C25.66671,14.278047 28.7000433,19.4378308 26.90921,24.5774303 C25.1183766,29.7171077 13.9992933,30 13.9992933,30 C13.9992933,30 2.88087663,29.7171077 1.0900433,24.5774303 C-0.700790037,19.4378308 2.33337663,14.2764883 4.77587663,11.5449802 Z M13.2447692,18.9147748 C13.4516969,18.2135457 13.6477575,17.4726433 13.8330163,16.6921933 L14.3770147,14.4054808 L14.4661628,14.4054808 C14.6591651,15.1352546 14.851777,15.8939502 15.0439984,16.6815048 C15.2362198,17.4691223 15.43638,18.2135457 15.6446091,18.9147748 L15.9784263,20.2036835 L12.8875263,20.2036835 L13.2447692,18.9147748 Z M8,26 L11.3303634,26 L12.2198919,22.6727924 L16.6447592,22.6727924 L17.533637,26 L21,26 L16.4671138,12 L12.5328862,12 L8,26 Z" id="Combined-Shape"></path>
                <path d="M13.9324833,6.0853337 C12.1324833,6.0853337 11.2709,5.52599148 10.3192333,4.69565014 C9.36748333,3.86530879 8.22081667,3.1007299 7.21506667,2.28195119 C6.94356667,2.06045456 6.76223333,1.76857043 6.69831667,1.45016451 C6.61498333,0.974651366 6.92165,0.697870917 7.79415,0.909611573 C8.82081667,1.16037611 9.67498333,1.01728856 10.36165,0.476012959 C10.8049833,0.123352753 11.2699833,0.129856733 11.8483167,0.403746524 C13.2974833,1.09244566 14.0800667,1.08088303 15.4167333,0.377730607 C16.1783167,-0.0226254467 16.9033167,-0.021180118 17.5374833,0.439879742 C18.19665,0.918283546 18.99415,1.0064486 19.9324833,0.941408805 C20.3549833,0.910334238 21.13415,0.918283546 21.16415,0.997776625 C21.2933167,1.32658891 21.4249833,1.79270742 21.1508167,2.02540534 C19.71915,3.2387588 18.24915,4.45138959 16.5883167,5.54694875 C16.1058167,5.8641984 14.9558167,6.08388837 13.9324833,6.0853337" id="Fill-5"></path>
            </g>
        </g>
    </g>
</svg>