<?xml version="1.0" encoding="UTF-8"?>
<svg width="30px" height="30px" viewBox="0 0 30 30" version="1.1" xmlns="http://www.w3.org/2000/svg" xmlns:xlink="http://www.w3.org/1999/xlink">
    <!-- Generator: Sketch 47.1 (45422) - http://www.bohemiancoding.com/sketch -->
    <title>cash-moscow std white</title>
    <desc>Created with Sketch.</desc>
    <defs></defs>
    <g id="Page-1" stroke="none" stroke-width="1" fill="none" fill-rule="evenodd">
        <g id="cash-moscow-std-white" fill="#FFFFFF">
            <g id="Group" transform="translate(1.000000, 0.000000)">
                <g id="Group-2" transform="translate(0.000000, 7.000000)">
                    <path d="M4.77587663,4.54498018 C7.21837663,1.81347203 9.4175433,0 13.9992933,0 C18.5808766,0 20.7832933,1.81191339 23.2251266,4.54498018 C25.66671,7.27804696 28.7000433,12.4378308 26.90921,17.5774303 C25.1183766,22.7171077 13.9992933,23 13.9992933,23 C13.9992933,23 2.88087663,22.7171077 1.0900433,17.5774303 C-0.700790037,12.4378308 2.33337663,7.27648833 4.77587663,4.54498018 Z M9,18 L11.3868894,18 L11.3868894,13.2335998 C11.3868894,12.9151958 11.373592,12.5633456 11.3506237,12.177583 C11.3276554,11.7918204 11.2968295,11.401394 11.2605638,11.0110342 C11.224298,10.6205412 11.1880323,10.2335127 11.1517666,9.85434604 C11.1155009,9.47637864 11.0792351,9.12746002 11.0429694,8.80765683 L11.1155009,8.80765683 L12.0553877,11.8991544 L13.7381175,16.8640324 L15.2026485,16.8640324 L16.8847739,11.8991544 L17.8427936,8.80765683 L17.915325,8.80765683 C17.8802681,9.12746002 17.8452113,9.47531263 17.8077367,9.85434604 C17.7702621,10.2335127 17.7352052,10.6192753 17.6989395,11.0110342 C17.6626738,11.4027265 17.6330568,11.7878895 17.6088796,12.177583 C17.5847025,12.5673432 17.5726139,12.9151958 17.5726139,13.2335998 L17.5726139,18 L20,18 L20,5 L17.1053904,5 L15.2419364,10.7824416 C15.1210506,11.1682042 15.0098357,11.5646269 14.9076872,11.9677122 C14.8053574,12.3723965 14.6937194,12.774549 14.5728337,13.174303 L14.5003022,13.174303 C14.3794165,12.7759481 14.2633661,12.3694649 14.1545689,11.9663797 C14.0457717,11.563361 13.9315347,11.166272 13.8106489,10.7811091 L11.9115336,5 L9,5 L9,18 Z" id="Combined-Shape"></path>
                </g>
                <path d="M13.9324833,6.0853337 C12.1324833,6.0853337 11.2709,5.52599148 10.3192333,4.69565014 C9.36748333,3.86530879 8.22081667,3.1007299 7.21506667,2.28195119 C6.94356667,2.06045456 6.76223333,1.76857043 6.69831667,1.45016451 C6.61498333,0.974651366 6.92165,0.697870917 7.79415,0.909611573 C8.82081667,1.16037611 9.67498333,1.01728856 10.36165,0.476012959 C10.8049833,0.123352753 11.2699833,0.129856733 11.8483167,0.403746524 C13.2974833,1.09244566 14.0800667,1.08088303 15.4167333,0.377730607 C16.1783167,-0.0226254467 16.9033167,-0.021180118 17.5374833,0.439879742 C18.19665,0.918283546 18.99415,1.0064486 19.9324833,0.941408805 C20.3549833,0.910334238 21.13415,0.918283546 21.16415,0.997776625 C21.2933167,1.32658891 21.4249833,1.79270742 21.1508167,2.02540534 C19.71915,3.2387588 18.24915,4.45138959 16.5883167,5.54694875 C16.1058167,5.8641984 14.9558167,6.08388837 13.9324833,6.0853337" id="Fill-5"></path>
            </g>
        </g>
    </g>
</svg>