<svg id="Слой_1" data-name="Слой 1" xmlns="http://www.w3.org/2000/svg" xmlns:xlink="http://www.w3.org/1999/xlink" viewBox="0 0 397.92 402.46"><defs><style>.cls-1{fill:none;}.cls-2{clip-path:url(#clip-path);}.cls-3{fill:#0036ce;}.cls-4{fill:#ffd400;}.cls-5{fill:#fff;stroke:#979797;stroke-miterlimit:10;stroke-width:7px;fill-rule:evenodd;}</style><clipPath id="clip-path"><path class="cls-1" d="M198.62,399.34s133.43-3.63,154.92-69.58S338.63,197.6,309.33,162.53s-55.73-58.32-110.71-58.32-81.37,23.27-110.68,58.32S22.22,263.81,43.71,329.76s154.91,69.58,154.91,69.58"/></clipPath></defs><title>Монтажная область 1 копия 12</title><g class="cls-2"><rect class="cls-3" x="-1.38" y="-2.66" width="400" height="203.89"/><rect class="cls-4" x="-1.38" y="201.23" width="400" height="203.89"/></g><path class="cls-3" d="M197.81,88.39c-21.6,0-31.94-7.74-43.36-19.23s-25.18-22.07-37.25-33.4A20.67,20.67,0,0,1,111,24.25c-1-6.58,2.68-10.41,13.15-7.48,12.32,3.47,22.57,1.49,30.81-6,5.32-4.88,10.9-4.79,17.84-1,17.39,9.53,26.78,9.37,42.82-.36,9.14-5.54,17.84-5.52,25.45.86,7.91,6.62,17.48,7.84,28.74,6.94,5.07-.43,14.42-.32,14.78.78,1.55,4.55,3.13,11-.16,14.22C267.25,49,249.61,65.78,229.68,80.94c-5.79,4.39-19.59,7.43-31.87,7.45"/><polygon class="cls-5" points="220.93 164.2 162.96 243.99 161.76 243.99 161.76 164.2 117.83 164.2 117.83 359.05 161.76 359.05 161.76 306.77 184.47 276.87 231.98 359.05 280.09 359.05 210.47 241.9 269.34 164.2 220.93 164.2"/></svg>