<?xml version="1.0" encoding="UTF-8"?>
<svg width="100px" height="100px" viewBox="0 0 100 100" version="1.1" xmlns="http://www.w3.org/2000/svg" xmlns:xlink="http://www.w3.org/1999/xlink">
    <g id="mobile" stroke="none" stroke-width="1" fill="none" fill-rule="evenodd">
        <g id="ripple-tech">
            <g id="Group">
                <path d="M74.4056743,100 C71.9061443,99.155114 69.2559904,98.5823165 66.9339075,97.419079 C56.0580424,91.9710342 52.2829556,80.0795081 57.9323805,69.5723405 C60.9436189,63.9713929 58.4676109,58.173632 52.4133587,56.6500927 C48.3308341,55.6225074 44.3019565,57.1668258 41.8073784,60.9051035 C38.2241822,66.2763048 33.1834426,69.5766532 26.6554475,70.8414339 C14.3385457,73.2278939 2.2180739,65.2302927 0.249647544,53.4391336 C-1.6209765,42.2321417 7.2357041,31.4905232 19.6149187,30.1700702 C28.8314458,29.1867875 36.1480495,32.4259747 41.4178198,39.7021882 C43.9850274,43.2471811 47.4613427,44.7942439 51.4274948,44.0434519 C57.7454419,42.8476735 60.883782,36.7676304 57.7627739,31.416032 C55.0577352,26.7787642 53.9101055,21.9811445 54.9855183,16.7318733 C57.1016798,6.40622885 67.9383415,-1.08640096 79.0527287,0.129372417 C91.0828262,1.44512071 99.5866757,10.3699402 99.2573666,21.33464 C98.9367236,31.9931421 89.8320295,40.6266622 78.3223063,41.2857125 C76.6369702,41.3821589 74.8711638,41.6475825 73.3281982,42.2584096 C69.656691,43.7113784 67.6119211,47.3124356 68.0769979,50.9672049 C68.5556928,54.7329267 71.4876989,57.8043129 75.4171236,58.4457206 C77.5762026,58.7977891 79.8120378,58.7472135 81.9587367,59.1439767 C92.6711853,61.1226959 100.048864,69.522157 99.9997563,79.5584624 C99.9518868,89.3654134 92.3286709,97.7389987 81.737134,99.6326412 C81.3459248,99.7024276 80.9757616,99.8753254 80.5956943,100 L74.4056743,100 Z" id="Fill-1" fill="#3A7EB0"></path>
                <path d="M49.3939772,74.744 C49.5091192,73.848 49.5954757,72.952 49.5954757,72 C49.5954757,71.048 49.5091192,70.152 49.3939772,69.256 L55.4677157,64.636 C56.01464,64.216 56.1585674,63.46 55.8131415,62.844 L50.0560435,53.156 C49.7106176,52.54 48.9334094,52.316 48.3001286,52.54 L41.1325415,55.34 C39.635696,54.22 38.0237086,53.296 36.2677937,52.596 L35.173945,45.176 C35.0875886,44.504 34.4830933,44 33.763456,44 L22.2492599,44 C21.5296227,44 20.9251274,44.504 20.8387709,45.176 L19.7449223,52.596 C17.9890074,53.296 16.3770199,54.248 14.8801744,55.34 L7.71258737,52.54 C7.05052109,52.288 6.30209835,52.54 5.95667247,53.156 L0.199574421,62.844 C-0.174636952,63.46 -0.00192401085,64.216 0.545000303,64.636 L6.61873874,69.256 C6.50359678,70.152 6.41724031,71.076 6.41724031,72 C6.41724031,72.924 6.50359678,73.848 6.61873874,74.744 L0.545000303,79.364 C-0.00192401085,79.784 -0.145851462,80.54 0.199574421,81.156 L5.95667247,90.844 C6.30209835,91.46 7.07930659,91.684 7.71258737,91.46 L14.8801744,88.66 C16.3770199,89.78 17.9890074,90.704 19.7449223,91.404 L20.8387709,98.824 C20.9251274,99.496 21.5296227,100 22.2492599,100 L33.763456,100 C34.4830933,100 35.0875886,99.496 35.173945,98.824 L36.2677937,91.404 C38.0237086,90.704 39.635696,89.752 41.1325415,88.66 L48.3001286,91.46 C48.9621949,91.712 49.7106176,91.46 50.0560435,90.844 L55.8131415,81.156 C56.1585674,80.54 56.01464,79.784 55.4677157,79.364 L49.3939772,74.744 L49.3939772,74.744 Z M28.006358,81.8 C22.4507584,81.8 17.9314364,77.404 17.9314364,72 C17.9314364,66.596 22.4507584,62.2 28.006358,62.2 C33.5619576,62.2 38.0812796,66.596 38.0812796,72 C38.0812796,77.404 33.5619576,81.8 28.006358,81.8 Z" id="Shape-Copy" stroke="#FFFFFF" stroke-width="2" fill="#666666" fill-rule="nonzero"></path>
            </g>
        </g>
    </g>
</svg>
