<?xml version="1.0" encoding="UTF-8"?>
<svg width="35px" height="35px" viewBox="0 0 35 35" version="1.1" xmlns="http://www.w3.org/2000/svg" xmlns:xlink="http://www.w3.org/1999/xlink">
    <!-- Generator: Sketch 47.1 (45422) - http://www.bohemiancoding.com/sketch -->
    <title>eth-grey</title>
    <desc>Created with Sketch.</desc>
    <defs></defs>
    <g id="Page-1" stroke="none" stroke-width="1" fill="none" fill-rule="evenodd">
        <g id="eth-grey">
            <g id="Group" transform="translate(6.000000, 0.000000)">
                <polygon id="Path" fill="#E5E5E5" points="11.5 0 11.5 23.9264275 2.27373675e-13 17.6265668"></polygon>
                <polygon id="Path-Copy-2" fill="#C4C4C4" transform="translate(17.250000, 11.963214) scale(-1, 1) translate(-17.250000, -11.963214) " points="23 0 23 23.9264275 11.5 17.6265668"></polygon>
                <polygon id="Path-Copy" fill="#AEAEAE" opacity="0.7" points="11.5 12.804878 11.5 23.931244 2.27373675e-13 17.6255556"></polygon>
                <polygon id="Path-Copy-3" fill="#AEAEAE" opacity="0.7" transform="translate(17.250000, 18.367493) scale(-1, 1) translate(-17.250000, -18.367493) " points="23 12.804878 23 23.9301074 11.5 17.6282585"></polygon>
                <polygon id="Path-2" fill="#E5E5E5" points="0 19.6250473 11.5 34.679878 11.5 25.9338038"></polygon>
                <polygon id="Path-2-Copy" fill="#C4C4C4" transform="translate(17.250000, 27.152463) scale(-1, 1) translate(-17.250000, -27.152463) " points="11.5 19.6250473 23 34.679878 23 25.9338038"></polygon>
            </g>
        </g>
    </g>
</svg>