<?xml version="1.0" encoding="utf-8"?>
<svg version="1.1" id="%u0421%u043B%u043E%u0439_1" xmlns="http://www.w3.org/2000/svg" xmlns:xlink="http://www.w3.org/1999/xlink" x="0px" y="0px"
	 viewBox="0 0 16.4 13.3" enable-background="new 0 0 16.4 13.3" xml:space="preserve">
<g>
	<g>
		<rect x="0.6" y="0.7" fill="#1469EB" width="15.2" height="11.9"/>
	</g>
	<g>
		<g>
			<path fill="#FFF200" d="M4.2,7.3c0.8,0,0.8-1.3,0-1.3C3.4,6.1,3.4,7.3,4.2,7.3L4.2,7.3z"/>
		</g>
	</g>
	<g>
		<g>
			<path fill="#FFF200" d="M12.2,7.3C13,7.3,13,6,12.2,6C11.4,6,11.4,7.3,12.2,7.3L12.2,7.3z"/>
		</g>
	</g>
	<g>
		<g>
			<path fill="#FFF200" d="M8.2,11.3C9,11.3,9,10,8.2,10C7.4,10,7.4,11.3,8.2,11.3L8.2,11.3z"/>
		</g>
	</g>
	<g>
		<g>
			<path fill="#FFF200" d="M8.2,3.3C9,3.3,9,2,8.2,2C7.4,2,7.4,3.3,8.2,3.3L8.2,3.3z"/>
		</g>
	</g>
	<g>
		<g>
			<path fill="#FFF200" d="M11.1,10.1c0.8,0,0.8-1.3,0-1.3C10.3,8.9,10.2,10.1,11.1,10.1L11.1,10.1z"/>
		</g>
	</g>
	<g>
		<g>
			<path fill="#FFF200" d="M5.4,4.5c0.8,0,0.8-1.3,0-1.3C4.6,3.2,4.6,4.5,5.4,4.5L5.4,4.5z"/>
		</g>
	</g>
	<g>
		<g>
			<path fill="#FFF200" d="M11,4.5c0.8,0,0.8-1.3,0-1.3C10.2,3.2,10.2,4.5,11,4.5L11,4.5z"/>
		</g>
	</g>
	<g>
		<g>
			<path fill="#FFF200" d="M5.4,10.1c0.8,0,0.8-1.3,0-1.3C4.6,8.9,4.6,10.1,5.4,10.1L5.4,10.1z"/>
		</g>
	</g>
</g>
</svg>
