<?xml version="1.0" encoding="UTF-8"?>
<svg width="55px" height="55px" viewBox="0 0 55 55" version="1.1" xmlns="http://www.w3.org/2000/svg" xmlns:xlink="http://www.w3.org/1999/xlink">
    <g id="other" stroke="none" stroke-width="1" fill="none" fill-rule="evenodd">
        <g id="advcash-usd---exmo-usd" transform="translate(-69.000000, -28.000000)">
            <g id="exmo2" transform="translate(69.000000, 28.000000)">
                <g id="exmo-copy">
                    <g id="exmo">
                        <g id="Group">
                            <circle id="XMLID_214_" fill="#008DF7" cx="27.5" cy="27.5" r="26.8125"></circle>
                            <g id="XMLID_207_" transform="translate(2.750000, 16.500000)" fill="#FFFFFF">
                                <polygon id="XMLID_213_" points="21.0375 17.05 19.525 18.5625 21.0375 20.2125 2.6125 20.2125 0.6875 18.5625 2.6125 17.05"></polygon>
                                <polygon id="XMLID_212_" points="26.4 1.1 24.8875 2.75 26.4 4.2625 7.8375 4.2625 6.05 2.75 7.975 1.1"></polygon>
                                <polygon id="XMLID_211_" points="26.125 21.175 25.1625 19.1125 23.1 19.9375 29.425 2.6125 31.4875 1.375 32.45 3.85"></polygon>
                                <polygon id="XMLID_210_" points="41.25 21.0375 40.2875 19.1125 38.225 19.9375 44.55 2.6125 46.75 1.375 47.575 3.7125"></polygon>
                                <polygon id="XMLID_209_" points="35.0625 7.7 36.3 9.2125 38.225 8.9375 34.2375 19.9375 32.3125 20.4875 31.075 18.7"></polygon>
                                <polygon id="XMLID_208_" points="5.3625 12.2375 6.1875 10.5875 5.3625 8.9375 16.775 8.9375 18.0125 10.5875 16.775 12.2375"></polygon>
                            </g>
                        </g>
                    </g>
                </g>
            </g>
        </g>
    </g>
</svg>