<?xml version="1.0" encoding="UTF-8"?>
<svg width="20px" height="20px" viewBox="0 0 20 20" version="1.1" xmlns="http://www.w3.org/2000/svg" xmlns:xlink="http://www.w3.org/1999/xlink">
    <!-- Generator: Sketch 47.1 (45422) - http://www.bohemiancoding.com/sketch -->
    <title>exmo disabled</title>
    <desc>Created with Sketch.</desc>
    <defs></defs>
    <g id="Page-1" stroke="none" stroke-width="1" fill="none" fill-rule="evenodd">
        <g id="exmo-disabled" fill-rule="nonzero">
            <g id="exmo">
                <circle id="XMLID_214_" fill="#BABABA" cx="10" cy="10" r="9.75"></circle>
                <g id="XMLID_207_" transform="translate(1.000000, 6.000000)" fill="#FFFFFF">
                    <polygon id="XMLID_213_" points="7.65 6.2 7.1 6.75 7.65 7.35 0.95 7.35 0.25 6.75 0.95 6.2"></polygon>
                    <polygon id="XMLID_212_" points="9.6 0.4 9.05 1 9.6 1.55 2.85 1.55 2.2 1 2.9 0.4"></polygon>
                    <polygon id="XMLID_211_" points="9.5 7.7 9.15 6.95 8.4 7.25 10.7 0.95 11.45 0.5 11.8 1.4"></polygon>
                    <polygon id="XMLID_210_" points="15 7.65 14.65 6.95 13.9 7.25 16.2 0.95 17 0.5 17.3 1.35"></polygon>
                    <polygon id="XMLID_209_" points="12.75 2.8 13.2 3.35 13.9 3.25 12.45 7.25 11.75 7.45 11.3 6.8"></polygon>
                    <polygon id="XMLID_208_" points="1.95 4.45 2.25 3.85 1.95 3.25 6.1 3.25 6.55 3.85 6.1 4.45"></polygon>
                </g>
            </g>
        </g>
    </g>
</svg>