<?xml version="1.0" encoding="utf-8"?>
<svg version="1.1" id="Слой_1" xmlns="http://www.w3.org/2000/svg" xmlns:xlink="http://www.w3.org/1999/xlink" x="0px" y="0px"
     viewBox="0 0 386.5 386.5" style="enable-background:new 0 0 386.5 386.5;" xml:space="preserve">
<style type="text/css">
    .st0{fill:#FFFFFF;}
</style>
<g>
    <path class="st0" d="M193.2,0C86.5,0,0,86.5,0,193.2s86.5,193.2,193.2,193.2S386.5,300,386.5,193.2S300,0,193.2,0z M72.2,121.6H205
        l-11,11.7l11,11.7H71.8l-13.7-11.7L72.2,121.6z M53.1,178.3h82.7l8.5,11.7l-8.8,11.7H53.1l6.8-11.7L53.1,178.3z M166.8,259.9H33.7
        L20,248.1l14.1-11.7h132.7l-11,11.7L166.8,259.9z M195.8,251.8l-14.8,6.3L226.5,133l15.7-8.9l6.2,17.3l-45.4,124.8L195.8,251.8z
         M247.3,261.3l-8-12.4l28.7-79l8.7,10.5l13.4-2.5l-28.8,79.2L247.3,261.3z M312.2,265.8l-7.3-14.3l-14.8,6.3l45.5-125.1l15.7-8.9
        l6.2,17.3L312.2,265.8z"/>
</g>
</svg>
