<?xml version="1.0" encoding="UTF-8"?>
<svg width="99px" height="99px" viewBox="0 0 99 99" version="1.1" xmlns="http://www.w3.org/2000/svg" xmlns:xlink="http://www.w3.org/1999/xlink">
    <defs>
        <rect id="path-1" x="0" y="0" width="99" height="99" rx="49.5"></rect>
    </defs>
    <g id="Page-1" stroke="none" stroke-width="1" fill="none" fill-rule="evenodd">
        <g id="litecoin-tech">
            <g id="litecoin-copy-7">
                <mask id="mask-2" fill="white">
                    <use xlink:href="#path-1"></use>
                </mask>
                <use id="Mask" fill="#888888" xlink:href="#path-1"></use>
                <g id="Group" mask="url(#mask-2)" fill="#FFFFFF">
                    <g transform="translate(20.000000, 8.000000)">
                        <polygon id="XMLID_200_" points="56.0535707 71.8149351 7.58893281 71.8149351 23.0776315 2.13311688 40.564872 2.13311688 28.073986 58.4145854 59.0513834 58.4145854"></polygon>
                        <polygon id="XMLID_198_" points="46.3890457 34.4853896 0.948616601 43.6103896 3.40485601 34.7255212 49.0909091 25.3603896"></polygon>
                    </g>
                </g>
            </g>
            <g id="bitcoin-tech" transform="translate(0.000000, 43.000000)" stroke="#FFFFFF" stroke-width="2" fill="#666666" fill-rule="nonzero">
                <path d="M49.3939772,30.744 C49.5091192,29.848 49.5954757,28.952 49.5954757,28 C49.5954757,27.048 49.5091192,26.152 49.3939772,25.256 L55.4677157,20.636 C56.01464,20.216 56.1585674,19.46 55.8131415,18.844 L50.0560435,9.156 C49.7106176,8.54 48.9334094,8.316 48.3001286,8.54 L41.1325415,11.34 C39.635696,10.22 38.0237086,9.296 36.2677937,8.596 L35.173945,1.176 C35.0875886,0.504 34.4830933,0 33.763456,0 L22.2492599,0 C21.5296227,0 20.9251274,0.504 20.8387709,1.176 L19.7449223,8.596 C17.9890074,9.296 16.3770199,10.248 14.8801744,11.34 L7.71258737,8.54 C7.05052109,8.288 6.30209835,8.54 5.95667247,9.156 L0.199574421,18.844 C-0.174636952,19.46 -0.00192401085,20.216 0.545000303,20.636 L6.61873874,25.256 C6.50359678,26.152 6.41724031,27.076 6.41724031,28 C6.41724031,28.924 6.50359678,29.848 6.61873874,30.744 L0.545000303,35.364 C-0.00192401085,35.784 -0.145851462,36.54 0.199574421,37.156 L5.95667247,46.844 C6.30209835,47.46 7.07930659,47.684 7.71258737,47.46 L14.8801744,44.66 C16.3770199,45.78 17.9890074,46.704 19.7449223,47.404 L20.8387709,54.824 C20.9251274,55.496 21.5296227,56 22.2492599,56 L33.763456,56 C34.4830933,56 35.0875886,55.496 35.173945,54.824 L36.2677937,47.404 C38.0237086,46.704 39.635696,45.752 41.1325415,44.66 L48.3001286,47.46 C48.9621949,47.712 49.7106176,47.46 50.0560435,46.844 L55.8131415,37.156 C56.1585674,36.54 56.01464,35.784 55.4677157,35.364 L49.3939772,30.744 L49.3939772,30.744 Z M28.006358,37.8 C22.4507584,37.8 17.9314364,33.404 17.9314364,28 C17.9314364,22.596 22.4507584,18.2 28.006358,18.2 C33.5619576,18.2 38.0812796,22.596 38.0812796,28 C38.0812796,33.404 33.5619576,37.8 28.006358,37.8 Z" id="Shape"></path>
            </g>
        </g>
    </g>
</svg>
