<?xml version="1.0" encoding="UTF-8"?>
<svg width="200px" height="200px" viewBox="0 0 200 200" version="1.1" xmlns="http://www.w3.org/2000/svg" xmlns:xlink="http://www.w3.org/1999/xlink">
    <!-- Generator: Sketch 47.1 (45422) - http://www.bohemiancoding.com/sketch -->
    <title>mono-oval white</title>
    <desc>Created with Sketch.</desc>
    <defs></defs>
    <g id="Page-1" stroke="none" stroke-width="1" fill="none" fill-rule="evenodd">
        <g id="mono-oval-white" fill="#FFFFFF">
            <path d="M100,200 C44.771525,200 0,155.228475 0,100 C0,44.771525 44.771525,0 100,0 C155.228475,0 200,44.771525 200,100 C200,155.228475 155.228475,200 100,200 Z M25.3308333,88.2003056 C25.3308333,87.1869722 25.2822222,86.4489167 25.3425,85.71975 C25.4288889,84.6755833 24.9927778,84.3478056 23.9736111,84.37975 C21.9391667,84.4433611 19.9005556,84.4311389 17.8652778,84.3861389 C16.9627778,84.3664167 16.6516667,84.6864167 16.6672222,85.5933611 C16.715,88.3694722 16.6916667,91.1469722 16.6925,93.9239167 C16.6952778,101.097806 16.7205556,108.271694 16.6733333,115.445306 C16.6658333,116.610028 17.0244444,116.97725 18.1697222,116.92475 C19.9708333,116.842528 21.7866667,116.798639 23.5811111,116.936417 C25.0694444,117.050583 25.3458333,116.454472 25.3333333,115.115306 C25.2755556,108.867806 25.2741667,102.618917 25.3580556,96.3716944 C25.3688889,95.5525278 25.7938889,94.5514167 26.3675,93.9714167 C27.2230556,93.1069722 28.3022222,92.35225 29.4252778,91.8841944 C33.6005556,90.1433611 36.6575,92.2089167 36.7272222,96.7061389 C36.7327778,97.0764167 36.7288889,97.4466944 36.7288889,97.8169722 C36.7302778,103.741139 36.755,109.665306 36.7108333,115.589194 C36.7027778,116.63475 37.0275,116.958639 38.0541667,116.922528 C39.9955556,116.854194 41.945,116.83225 43.8838889,116.929194 C45.14,116.992528 45.4425,116.531417 45.4325,115.336972 C45.3811111,109.135583 45.4652778,102.932528 45.3744444,96.7319722 C45.3519444,95.2050278 45.8658333,94.1500278 47.0183333,93.3094722 C47.6141667,92.8750278 48.2194444,92.4303056 48.8788889,92.1100278 C53.3869444,89.9203056 56.7766667,92.0178056 56.7877778,96.9975278 C56.8011111,103.060583 56.8469444,109.124472 56.7552778,115.186139 C56.7327778,116.662528 57.2127778,117.00725 58.5658333,116.926694 C60.3186111,116.82225 62.0847222,116.840028 63.8397222,116.922528 C65.0588889,116.980028 65.5325,116.661694 65.5202778,115.321139 C65.4563889,108.194194 65.5141667,101.066417 65.4761111,93.9391944 C65.4691667,92.6069722 65.3505556,91.2455833 65.0527778,89.9508611 C64.3377778,86.84225 62.3983333,84.7636389 59.2711111,84.0364167 C54.0477778,82.8214167 49.5919444,84.32225 45.8727778,88.1303056 C45.5352778,88.4758611 45.2111111,88.8341944 44.8436111,89.2264167 C41.9144444,82.1030833 31.9791667,81.8230833 25.3308333,88.2003056 Z M80.4862778,100.084389 C80.8579444,98.8332778 81.1368333,97.0660556 81.8918333,95.5332778 C83.3285,92.6149444 85.8565556,91.2321667 89.1246111,91.3527222 C92.3962778,91.4735556 94.7271111,93.0916111 96.0601667,96.0516111 C97.4896111,99.2257778 97.406,102.4405 95.9312778,105.578 C94.4585,108.711611 91.3479444,110.3555 87.8429444,109.960778 C84.4829444,109.581889 81.8954444,107.245778 81.0443333,103.736056 C80.796,102.711889 80.7185,101.646611 80.4862778,100.084389 Z M89.0132222,83.6152222 C79.241,83.4135556 71.9343333,90.3968889 71.6957222,100.166056 C71.4512778,110.173833 78.4540556,117.491611 88.4582222,117.682167 C98.4285,117.871889 105.791,110.948833 105.976278,101.209389 C106.170722,90.9710556 99.2832222,83.8274444 89.0132222,83.6152222 Z M157.722611,100.260194 C158.028167,99.06075 158.235111,97.5274167 158.808167,96.1454722 C160.026778,93.2063056 162.300111,91.5426944 165.5265,91.3610278 C168.713722,91.1813056 171.276222,92.3999167 172.845111,95.1988056 C174.874278,98.8179722 174.862333,102.566861 172.812611,106.176861 C171.062611,109.259083 168.220111,110.37825 164.797611,109.911861 C161.267889,109.431028 159.265944,107.146861 158.314556,103.867417 C158.009,102.814083 157.948444,101.689917 157.722611,100.260194 Z M166.039278,83.6363056 C156.079833,83.6429722 148.954556,90.6888056 148.944556,100.540472 C148.934556,110.611028 156.039,117.714639 166.085667,117.679917 C176.0965,117.645472 183.202056,110.576028 183.216222,100.636028 C183.230389,90.7374167 176.048722,83.6296389 166.039278,83.6363056 Z M112.357222,84.5103889 C112.297778,84.8312222 112.220833,85.054 112.220833,85.2767778 C112.219722,95.4559444 112.232778,105.634833 112.216667,115.813722 C112.215,116.695944 112.590278,116.918167 113.387778,116.905111 C115.376667,116.872611 117.37,116.829278 119.355,116.922333 C120.556667,116.978722 120.813333,116.517056 120.805833,115.407056 C120.762222,109.068444 120.767778,102.729278 120.816389,96.3909444 C120.821667,95.7120556 121.020278,94.8626111 121.453333,94.3878889 C123.783056,91.8345556 126.7075,90.8701111 130.119444,91.5501111 C132.081667,91.9412222 133.360556,93.1262222 133.743333,95.1020556 C133.952778,96.1828889 134.021667,97.3051111 134.027222,98.409 C134.054444,104.099833 134.064444,109.791222 134.02,115.481778 C134.011667,116.556778 134.3025,116.961222 135.423333,116.917056 C137.455833,116.836778 139.494167,116.877056 141.529722,116.900944 C142.246944,116.909556 142.639444,116.749 142.635833,115.907889 C142.605,108.1815 142.701944,100.452889 142.556667,92.7287222 C142.473611,88.3159444 139.910556,85.1131667 135.969167,84.1323333 C131.101667,82.9209444 126.609167,83.8353889 122.587778,86.8765 C122.050556,87.2823333 121.561389,87.7512222 120.802778,88.4031667 L120.802778,84.5103889 L112.357222,84.5103889 Z" id="Combined-Shape"></path>
        </g>
    </g>
</svg>