<?xml version="1.0" encoding="UTF-8"?>
<svg width="200px" height="200px" viewBox="0 0 200 200" version="1.1" xmlns="http://www.w3.org/2000/svg" xmlns:xlink="http://www.w3.org/1999/xlink">
    <defs>
        <linearGradient x1="50%" y1="0%" x2="50%" y2="100%" id="linearGradient-1">
            <stop stop-color="#4E5465" offset="0%"></stop>
            <stop stop-color="#13151B" offset="100%"></stop>
        </linearGradient>
        <polygon id="path-2" points="0.0228513145 0.0919444444 34.3136248 0.0919444444 34.3136248 34.1666667 0.0228513145 34.1666667 0.0228513145 0.0919444444"></polygon>
        <polygon id="path-4" points="34.3272222 0.117134203 34.3272222 34.1608767 0.0556561233 34.1608767 0.0556561233 0.117134203 34.3272222 0.117134203"></polygon>
    </defs>
    <g id="Page-1" stroke="none" stroke-width="1" fill="none" fill-rule="evenodd">
        <g id="mono-oval">
            <g id="Group">
                <circle id="Oval" fill="url(#linearGradient-1)" cx="100" cy="100" r="100"></circle>
                <path d="M25.3308333,88.2003056 C31.9791667,81.8230833 41.9144444,82.1030833 44.8436111,89.2264167 C45.2111111,88.8341944 45.5352778,88.4758611 45.8727778,88.1303056 C49.5919444,84.32225 54.0477778,82.8214167 59.2711111,84.0364167 C62.3983333,84.7636389 64.3377778,86.84225 65.0527778,89.9508611 C65.3505556,91.2455833 65.4691667,92.6069722 65.4761111,93.9391944 C65.5141667,101.066417 65.4563889,108.194194 65.5202778,115.321139 C65.5325,116.661694 65.0588889,116.980028 63.8397222,116.922528 C62.0847222,116.840028 60.3186111,116.82225 58.5658333,116.926694 C57.2127778,117.00725 56.7327778,116.662528 56.7552778,115.186139 C56.8469444,109.124472 56.8011111,103.060583 56.7877778,96.9975278 C56.7766667,92.0178056 53.3869444,89.9203056 48.8788889,92.1100278 C48.2194444,92.4303056 47.6141667,92.8750278 47.0183333,93.3094722 C45.8658333,94.1500278 45.3519444,95.2050278 45.3744444,96.7319722 C45.4652778,102.932528 45.3811111,109.135583 45.4325,115.336972 C45.4425,116.531417 45.14,116.992528 43.8838889,116.929194 C41.945,116.83225 39.9955556,116.854194 38.0541667,116.922528 C37.0275,116.958639 36.7027778,116.63475 36.7108333,115.589194 C36.755,109.665306 36.7302778,103.741139 36.7288889,97.8169722 C36.7288889,97.4466944 36.7327778,97.0764167 36.7272222,96.7061389 C36.6575,92.2089167 33.6005556,90.1433611 29.4252778,91.8841944 C28.3022222,92.35225 27.2230556,93.1069722 26.3675,93.9714167 C25.7938889,94.5514167 25.3688889,95.5525278 25.3580556,96.3716944 C25.2741667,102.618917 25.2755556,108.867806 25.3333333,115.115306 C25.3458333,116.454472 25.0694444,117.050583 23.5811111,116.936417 C21.7866667,116.798639 19.9708333,116.842528 18.1697222,116.92475 C17.0244444,116.97725 16.6658333,116.610028 16.6733333,115.445306 C16.7205556,108.271694 16.6952778,101.097806 16.6925,93.9239167 C16.6916667,91.1469722 16.715,88.3694722 16.6672222,85.5933611 C16.6516667,84.6864167 16.9627778,84.3664167 17.8652778,84.3861389 C19.9005556,84.4311389 21.9391667,84.4433611 23.9736111,84.37975 C24.9927778,84.3478056 25.4288889,84.6755833 25.3425,85.71975 C25.2822222,86.4489167 25.3308333,87.1869722 25.3308333,88.2003056" id="Fill-1" fill="#FFFFFF"></path>
                <g id="Group-5" transform="translate(71.666667, 83.519167)">
                    <mask id="mask-3" fill="white">
                        <use xlink:href="#path-2"></use>
                    </mask>
                    <g id="Clip-4"></g>
                    <path d="M8.81961111,16.5652222 C9.05183333,18.1274444 9.12933333,19.1927222 9.37766667,20.2168889 C10.2287778,23.7266111 12.8162778,26.0627222 16.1762778,26.4416111 C19.6812778,26.8363333 22.7918333,25.1924444 24.2646111,22.0588333 C25.7393333,18.9213333 25.8229444,15.7066111 24.3935,12.5324444 C23.0604444,9.57244444 20.7296111,7.95438889 17.4579444,7.83355556 C14.1898889,7.713 11.6618333,9.09577778 10.2251667,12.0141111 C9.47016667,13.5468889 9.19127778,15.3141111 8.81961111,16.5652222 M17.3465556,0.0960555556 C27.6165556,0.308277778 34.5040556,7.45188889 34.3096111,17.6902222 C34.1243333,27.4296667 26.7618333,34.3527222 16.7915556,34.163 C6.78738889,33.9724444 -0.215388889,26.6546667 0.0290555556,16.6468889 C0.267666667,6.87772222 7.57433333,-0.105611111 17.3465556,0.0960555556" id="Fill-3" fill="#FFFFFF" mask="url(#mask-3)"></path>
                </g>
                <g id="Group-8" transform="translate(148.888889, 83.519167)">
                    <mask id="mask-5" fill="white">
                        <use xlink:href="#path-4"></use>
                    </mask>
                    <g id="Clip-7"></g>
                    <path d="M8.83372222,16.7410278 C9.05955556,18.17075 9.12011111,19.2949167 9.42566667,20.34825 C10.3770556,23.6276944 12.379,25.9118611 15.9087222,26.3926944 C19.3312222,26.8590833 22.1737222,25.7399167 23.9237222,22.6576944 C25.9734444,19.0476944 25.9853889,15.2988056 23.9562222,11.6796389 C22.3873333,8.88075 19.8248333,7.66213889 16.6376111,7.84186111 C13.4112222,8.02352778 11.1378889,9.68713889 9.91927778,12.6263056 C9.34622222,14.00825 9.13927778,15.5415833 8.83372222,16.7410278 M17.1503889,0.117138889 C27.1598333,0.110472222 34.3415,7.21825 34.3273333,17.1168611 C34.3131667,27.0568611 27.2076111,34.1263056 17.1967778,34.16075 C7.15011111,34.1954722 0.0456666667,27.0918611 0.0556666667,17.0213056 C0.0656666667,7.16963889 7.19094444,0.123805556 17.1503889,0.117138889" id="Fill-6" fill="#FFFFFF" mask="url(#mask-5)"></path>
                </g>
                <path d="M112.357222,84.5103889 L120.802778,84.5103889 L120.802778,88.4031667 C121.561389,87.7512222 122.050556,87.2823333 122.587778,86.8765 C126.609167,83.8353889 131.101667,82.9209444 135.969167,84.1323333 C139.910556,85.1131667 142.473611,88.3159444 142.556667,92.7287222 C142.701944,100.452889 142.605,108.1815 142.635833,115.907889 C142.639444,116.749 142.246944,116.909556 141.529722,116.900944 C139.494167,116.877056 137.455833,116.836778 135.423333,116.917056 C134.3025,116.961222 134.011667,116.556778 134.02,115.481778 C134.064444,109.791222 134.054444,104.099833 134.027222,98.409 C134.021667,97.3051111 133.952778,96.1828889 133.743333,95.1020556 C133.360556,93.1262222 132.081667,91.9412222 130.119444,91.5501111 C126.7075,90.8701111 123.783056,91.8345556 121.453333,94.3878889 C121.020278,94.8626111 120.821667,95.7120556 120.816389,96.3909444 C120.767778,102.729278 120.762222,109.068444 120.805833,115.407056 C120.813333,116.517056 120.556667,116.978722 119.355,116.922333 C117.37,116.829278 115.376667,116.872611 113.387778,116.905111 C112.590278,116.918167 112.215,116.695944 112.216667,115.813722 C112.232778,105.634833 112.219722,95.4559444 112.220833,85.2767778 C112.220833,85.054 112.297778,84.8312222 112.357222,84.5103889" id="Fill-9" fill="#FFFFFF"></path>
            </g>
        </g>
    </g>
</svg>