<?xml version="1.0" encoding="UTF-8"?>
<svg width="55px" height="55px" viewBox="0 0 55 55" version="1.1" xmlns="http://www.w3.org/2000/svg" xmlns:xlink="http://www.w3.org/1999/xlink">
    <g id="other" stroke="none" stroke-width="1" fill="none" fill-rule="evenodd">
        <g id="nix-usd---yandex" transform="translate(-4.000000, -17.000000)">
            <g id="nix2" transform="translate(4.000000, 17.000000)">
                <g id="nix-copy">
                    <g id="nix">
                        <g id="Group">
                            <circle id="XMLID_237_" fill="#17B1F9" cx="27.5" cy="27.5" r="26.8125"></circle>
                            <g transform="translate(4.125000, 16.500000)" id="Shape" fill="#FFFFFF">
                                <path d="M19.25,1.2375 L19.25,1.7875 L19.25,20.625 C19.25,20.625 19.25,20.625 19.25,20.7625 C18.7,20.7625 18.2875,20.7625 17.7375,20.4875 C14.1625,17.875 10.5875,15.4 7.0125,12.7875 C5.775,11.825 4.5375,11 3.1625,10.0375 C3.1625,10.0375 3.025,9.9 2.8875,9.9 L2.8875,20.625 L0.6875,20.625 L0.6875,20.35 L0.6875,1.65 L0.6875,1.2375 L1.7875,1.2375 C1.925,1.375 1.925,1.375 2.0625,1.5125 C6.6,4.8125 11.1375,7.975 15.675,11.275 C16.0875,11.55 16.5,11.825 16.9125,12.1 L16.9125,1.2375 C17.7375,1.2375 18.5625,1.2375 19.25,1.2375 L19.25,1.2375 Z"></path>
                                <path d="M45.7875,1.2375 L45.7875,6.875 C45.7875,8.6625 44.825,9.9 43.175,10.45 C42.625,10.5875 42.075,10.725 41.525,10.8625 C41.9375,11 42.35,11 42.7625,11.1375 C44.1375,11.55 45.2375,12.2375 45.65,13.6125 C45.7875,13.8875 45.7875,14.3 45.7875,14.575 L45.7875,20.4875 L41.3875,20.4875 L41.3875,20.2125 L41.3875,14.1625 C41.3875,13.8875 41.3875,13.475 41.25,13.2 C41.1125,12.65 40.7,12.375 40.15,12.2375 C38.225,11.825 36.3,11.6875 34.375,12.2375 C33.6875,12.375 33.4125,12.925 33.275,13.6125 L33.275,14.4375 L33.275,20.4875 L28.7375,20.4875 L28.7375,20.2125 L28.7375,15.2625 C28.7375,12.925 29.975,11.6875 31.9,11.1375 C32.3125,11 32.725,11 33.1375,10.8625 C32.5875,10.725 32.175,10.725 31.7625,10.5875 C30.6625,10.3125 29.5625,9.7625 29.0125,8.6625 C28.6,7.975 28.6,7.2875 28.6,6.6 L28.6,1.375 L33.1375,1.375 L33.1375,1.925 L33.1375,7.8375 C33.1375,8.9375 33.6875,9.625 34.65,9.7625 C36.3,10.175 38.0875,10.175 39.7375,9.7625 C40.7,9.625 41.25,8.9375 41.25,7.975 L41.25,1.5125 C42.7625,1.2375 44.275,1.2375 45.7875,1.2375 L45.7875,1.2375 Z"></path>
                                <path d="M26.2625,1.2375 L26.2625,1.65 L26.2625,20.4875 L26.2625,20.625 L21.725,20.625 L21.725,20.2125 L21.725,1.7875 L21.725,1.375 C23.1,1.2375 24.6125,1.2375 26.2625,1.2375 L26.2625,1.2375 Z"></path>
                            </g>
                        </g>
                    </g>
                </g>
            </g>
        </g>
    </g>
</svg>