<?xml version="1.0" encoding="UTF-8"?>
<svg width="20px" height="20px" viewBox="0 0 20 20" version="1.1" xmlns="http://www.w3.org/2000/svg" xmlns:xlink="http://www.w3.org/1999/xlink">
    <!-- Generator: Sketch 47.1 (45422) - http://www.bohemiancoding.com/sketch -->
    <title>nix-disabled</title>
    <desc>Created with Sketch.</desc>
    <defs></defs>
    <g id="Page-1" stroke="none" stroke-width="1" fill="none" fill-rule="evenodd">
        <g id="nix-disabled" fill-rule="nonzero">
            <g id="nix">
                <circle id="XMLID_237_" fill="#BABABA" cx="10" cy="10" r="9.75"></circle>
                <g id="Group" transform="translate(1.500000, 6.000000)" fill="#FFFFFF">
                    <path d="M7,0.45 C7,0.5 7,0.55 7,0.65 C7,2.95 7,5.2 7,7.5 C7,7.5 7,7.5 7,7.55 C6.8,7.55 6.65,7.55 6.45,7.45 C5.15,6.5 3.85,5.6 2.55,4.65 C2.1,4.3 1.65,4 1.15,3.65 C1.15,3.65 1.1,3.6 1.05,3.6 C1.05,4.9 1.05,6.2 1.05,7.5 C0.8,7.5 0.55,7.5 0.25,7.5 C0.25,7.45 0.25,7.4 0.25,7.4 C0.25,5.15 0.25,2.85 0.25,0.6 C0.25,0.55 0.25,0.5 0.25,0.45 C0.4,0.45 0.5,0.45 0.65,0.45 C0.7,0.5 0.7,0.5 0.75,0.55 C2.4,1.75 4.05,2.9 5.7,4.1 C5.85,4.2 6,4.3 6.15,4.4 C6.15,3.05 6.15,1.75 6.15,0.45 C6.45,0.45 6.75,0.45 7,0.45 Z" id="Shape"></path>
                    <path d="M16.65,0.45 C16.65,1.15 16.65,1.8 16.65,2.5 C16.65,3.15 16.3,3.6 15.7,3.8 C15.5,3.85 15.3,3.9 15.1,3.95 C15.25,4 15.4,4 15.55,4.05 C16.05,4.2 16.45,4.45 16.6,4.95 C16.65,5.05 16.65,5.2 16.65,5.3 C16.65,6 16.65,6.75 16.65,7.45 C16.1,7.45 15.55,7.45 15.05,7.45 C15.05,7.4 15.05,7.4 15.05,7.35 C15.05,6.6 15.05,5.9 15.05,5.15 C15.05,5.05 15.05,4.9 15,4.8 C14.95,4.6 14.8,4.5 14.6,4.45 C13.9,4.3 13.2,4.25 12.5,4.45 C12.25,4.5 12.15,4.7 12.1,4.95 C12.1,5.05 12.1,5.15 12.1,5.25 C12.1,6 12.1,6.7 12.1,7.45 C11.55,7.45 11,7.45 10.45,7.45 C10.45,7.4 10.45,7.4 10.45,7.35 C10.45,6.75 10.45,6.15 10.45,5.55 C10.45,4.7 10.9,4.25 11.6,4.05 C11.75,4 11.9,4 12.05,3.95 C11.85,3.9 11.7,3.9 11.55,3.85 C11.15,3.75 10.75,3.55 10.55,3.15 C10.4,2.9 10.4,2.65 10.4,2.4 C10.4,1.75 10.4,1.1 10.4,0.5 C10.95,0.5 11.5,0.5 12.05,0.5 C12.05,0.55 12.05,0.65 12.05,0.7 C12.05,1.4 12.05,2.1 12.05,2.85 C12.05,3.25 12.25,3.5 12.6,3.55 C13.2,3.7 13.85,3.7 14.45,3.55 C14.8,3.5 15,3.25 15,2.9 C15,2.1 15,1.3 15,0.55 C15.55,0.45 16.1,0.45 16.65,0.45 Z" id="Shape"></path>
                    <path d="M9.55,0.45 C9.55,0.5 9.55,0.55 9.55,0.6 C9.55,2.9 9.55,5.15 9.55,7.45 C9.55,7.45 9.55,7.5 9.55,7.5 C9,7.5 8.45,7.5 7.9,7.5 C7.9,7.45 7.9,7.4 7.9,7.35 C7.9,5.1 7.9,2.9 7.9,0.65 C7.9,0.6 7.9,0.55 7.9,0.5 C8.4,0.45 8.95,0.45 9.55,0.45 Z" id="Shape"></path>
                </g>
            </g>
        </g>
    </g>
</svg>