<?xml version="1.0" encoding="utf-8"?>
<svg version="1.1" id="Слой_1" xmlns="http://www.w3.org/2000/svg" xmlns:xlink="http://www.w3.org/1999/xlink" x="0px" y="0px"
     viewBox="0 0 386.5 386.5" style="enable-background:new 0 0 386.5 386.5;" xml:space="preserve">
<style type="text/css">
    .st0{fill:#FFFFFF;}
</style>
<g>
    <path class="st0" d="M193.2,0C86.7,0,0.3,86.4,0.3,193s86.4,193,193,193s193-86.4,193-193S299.8,0,193.2,0z M163.6,126.7
        c0,45.5,0,90.1,0,135.6c0,0,0,0,0,1c-4,0-6.9,0-10.9-2c-25.7-18.8-51.5-36.6-77.2-55.4c-8.9-6.9-17.8-12.9-27.7-19.8c0,0-1-1-2-1
        c0,25.7,0,51.5,0,77.2c-4.9,0-9.9,0-15.8,0c0-1,0-2,0-2c0-44.5,0-90.1,0-134.6c0-1,0-2,0-3c3,0,4.9,0,7.9,0c1,1,1,1,2,2
        c32.7,23.8,65.3,46.5,98,70.3c3,2,5.9,4,8.9,5.9c0-26.7,0-52.5,0-78.2c5.9,0,11.9,0,16.8,0C163.6,123.7,163.6,124.7,163.6,126.7z
         M214,125.7c0,45.5,0,90.1,0,135.6v1c-10.9,0-21.8,0-32.7,0c0-1,0-2,0-3c0-44.5,0-88.1,0-132.6c0-1,0-2,0-3c9.9-1,20.8-1,32.7-1
        C214,123.7,214,124.7,214,125.7z M332.8,194c9.9,3,17.8,7.9,20.8,17.8c1,2,1,4.9,1,6.9c0,13.9,0,28.7,0,42.6c-10.9,0-21.8,0-31.7,0
        c0-1,0-1,0-2c0-14.8,0-28.7,0-43.5c0-2,0-4.9-1-6.9c-1-4-4-5.9-7.9-6.9c-13.9-3-27.7-4-41.6,0c-4.9,1-6.9,4.9-7.9,9.9
        c0,2,0,4,0,5.9c0,14.8,0,28.7,0,43.5c-10.9,0-21.8,0-32.7,0c0-1,0-1,0-2c0-11.9,0-23.8,0-35.6c0-16.8,8.9-25.7,22.8-29.7
        c3-1,5.9-1,8.9-2c-4-1-6.9-1-9.9-2c-7.9-2-15.8-5.9-19.8-13.9c-3-4.9-3-9.9-3-14.8c0-12.9,0-25.7,0-37.6c10.9,0,21.8,0,32.7,0
        c0,1,0,3,0,4c0,13.9,0,27.7,0,42.6c0,7.9,4,12.9,10.9,13.9c11.9,3,24.7,3,36.6,0c6.9-1,10.9-5.9,10.9-12.9c0-15.8,0-31.7,0-46.5
        c10.9-2,21.8-2,32.7-2c0,13.9,0,26.7,0,40.6c0,12.9-6.9,21.8-18.8,25.7c-4,1-7.9,2-11.9,3C326.8,193,329.8,193,332.8,194z"/>
</g>
</svg>
