<?xml version="1.0" encoding="utf-8"?>
<svg version="1.1" id="%u0421%u043B%u043E%u0439_1" xmlns="http://www.w3.org/2000/svg" xmlns:xlink="http://www.w3.org/1999/xlink" x="0px" y="0px"
	 viewBox="0 0 40 40" style="enable-background:new 0 0 40 40;" xml:space="preserve">
<style type="text/css">
	.st0{fill:#D68D0B;}
	.st1{fill:#FFFFFF;}
</style>
<g>
	<circle id="XMLID_258_" class="st0" cx="20" cy="20" r="19.5"/>
	<g id="XMLID_253_">
		<path id="XMLID_257_" class="st1" d="M36.8,28.2c-1,0.7-2.9,0.6-3.7-0.2c-1.9-1.9-3.7-3.7-5.5-5.6c-0.1-0.1-0.3-0.3-0.6-0.5
			c0,0.4-0.1,0.7-0.1,1c0,1.4,0,2.9,0,4.3c0,1-0.5,1.5-1.5,1.5c-1.1,0-1.7-0.4-1.7-1.5c0-4.8,0-9.6,0-14.4c0-1,0.6-1.5,1.7-1.5
			c1,0,1.5,0.4,1.5,1.5c0,1.2,0,2.3,0,3.5c0,0.2,0,0.5,0.1,1c0.6-0.6,1.1-1,1.6-1.4c1.3-1.3,2.7-2.5,4-3.8c1-1,2.3-0.7,3.5-0.5
			c0.6,0.1,0.6,0.6,0.1,1.1c-2.2,2.1-4.4,4.2-6.6,6.2c-0.2,0.2-0.4,0.3-0.7,0.5c2.8,2.8,5.4,5.5,8,8.2C36.8,27.8,36.8,28,36.8,28.2z
			"/>
		<path id="XMLID_254_" class="st1" d="M1.6,22.4c0.3-2,1.6-2.2,3.2-1.9c0-0.8,0-1.5,0-2.2c-0.8,0-1.7,0-2.7,0
			C2.5,17.6,2.7,17,3,16.5c0.1-0.2,0.6-0.3,0.9-0.2c0.9,0.1,1.3-0.2,1.7-1.1c1.5-4,5.2-5.5,9-5.1c4.8,0.5,7.4,4.2,7.5,8.5
			c0.1,1.7,0,3.4-0.7,4.9c-1.7,4.1-5.2,5.5-8.9,5.1c-3.6-0.4-6-2.3-7.1-5.7c-0.1-0.4-0.4-0.6-0.8-0.6C3.6,22.4,2.6,22.4,1.6,22.4z
			 M8.8,22.4C8.9,22.7,8.9,22.9,9,23c0.9,1.9,2.3,2.9,4.4,2.9c2.2,0.1,3.8-1,4.7-3c1-2.4,1-4.9,0-7.3c-0.8-1.8-2.2-2.8-4.2-2.9
			c-2.1-0.1-3.7,0.8-4.7,2.6c-0.1,0.2-0.2,0.5-0.3,0.9c2,0,3.7,0,5.6,0c-0.2,0.5-0.4,0.8-0.5,1.1c-0.2,0.7-0.6,0.9-1.4,0.8
			c-1.2-0.1-2.4,0-3.5,0c-0.2,0-0.5,0.1-0.6,0.1c-0.1,0.6-0.1,1.1-0.1,1.7c0,0.1,0.6,0.3,0.9,0.3c1,0,2,0,3.1,0
			c-0.3,0.5-0.5,0.9-0.7,1.3c-0.2,0.6-0.6,0.8-1.2,0.7C10,22.3,9.5,22.4,8.8,22.4z"/>
	</g>
</g>
</svg>
