<?xml version="1.0" encoding="UTF-8"?>
<svg width="20px" height="20px" viewBox="0 0 20 20" version="1.1" xmlns="http://www.w3.org/2000/svg" xmlns:xlink="http://www.w3.org/1999/xlink">
    <g id="Page-1" stroke="none" stroke-width="1" fill="none" fill-rule="evenodd">
        <g id="main0-uanvailable" transform="translate(-364.000000, -463.000000)">
            <g id="oshchad" transform="translate(364.000000, 463.000000)">
                <path d="M0.00347208042,18.0041895 C0.0696491505,18.0003419 0.135826221,17.9930589 0.202069934,17.9930589 C6.73400666,17.9925093 13.26601,17.9925093 19.7979468,17.9930589 C19.8641905,17.9930589 19.9303675,18.0003419 19.9965446,18.0041895 C19.9965446,18.6225547 19.9926793,19.2409886 19.9999434,19.8592164 C20.0013429,19.9771181 19.9773513,20.0000663 19.8632575,19.9999289 C15.5258937,19.9960813 11.1884632,19.9966996 6.85109942,19.9966996 C4.61300824,19.9966996 2.37485041,19.9955316 0.136759231,19.9999976 C0.0226654301,20.0002724 -0.00132625698,19.9771181 7.32580938e-05,19.8592164 C0.00733740778,19.2409886 0.00347208042,18.6225547 0.00347208042,18.0041895" id="Fill-3" fill="#AEAEAE"></path>
                <rect id="Rectangle" fill="#AEAEAE" x="0" y="0" width="20" height="18"></rect>
                <text id="ОЩАД" font-family="Roboto-Black, Roboto" font-size="5" font-weight="700" letter-spacing="-0.00416666642" fill="#FFFFFF">
                    <tspan x="2" y="7">ОЩАД</tspan>
                </text>
                <text id="24/7" font-family="Roboto-Black, Roboto" font-size="6" font-weight="700" letter-spacing="-0.00499999989" fill="#FFFFFF">
                    <tspan x="5" y="14">24/7</tspan>
                </text>
            </g>
        </g>
    </g>
</svg>