<?xml version="1.0" encoding="UTF-8"?>
<svg width="20px" height="21px" viewBox="0 0 20 21" version="1.1" xmlns="http://www.w3.org/2000/svg" xmlns:xlink="http://www.w3.org/1999/xlink">
    <g id="Page-1" stroke="none" stroke-width="1" fill="none" fill-rule="evenodd">
        <g id="main0" transform="translate(-54.000000, -475.000000)">
            <g id="oshchad-copy" transform="translate(54.000000, 475.000000)">
                <path d="M0.00345538854,18.0115428 C0.0696324586,18.0076952 0.135809529,18.0004122 0.202053242,18.0004122 C6.73398997,17.9998626 13.2659933,17.9998626 19.7979301,18.0004122 C19.8641738,18.0004122 19.9303508,18.0076952 19.9965279,18.0115428 C19.9965279,18.629908 19.9926626,19.248342 19.9999267,19.8665698 C20.0013263,19.9844714 19.9773346,20.0074196 19.8632408,20.0072822 C15.525877,20.0034346 11.1884465,20.004053 6.85108273,20.004053 C4.61299155,20.004053 2.37483372,20.002885 0.136742539,20.0073509 C0.0226487382,20.0076258 -0.00134294887,19.9844714 5.65662112e-05,19.8665698 C0.0073207159,19.248342 0.00345538854,18.629908 0.00345538854,18.0115428" id="Fill-3" fill="#FFFFFF"></path>
                <path d="M0.00345538854,17.0115428 C0.0696324586,17.0076952 0.135809529,17.0004122 0.202053242,17.0004122 C6.73398997,16.9998626 13.2659933,16.9998626 19.7979301,17.0004122 C19.8641738,17.0004122 19.9303508,17.0076952 19.9965279,17.0115428 C19.9965279,17.629908 19.9926626,18.248342 19.9999267,18.8665698 C20.0013263,18.9844714 19.9773346,19.0074196 19.8632408,19.0072822 C15.525877,19.0034346 11.1884465,19.004053 6.85108273,19.004053 C4.61299155,19.004053 2.37483372,19.002885 0.136742539,19.0073509 C0.0226487382,19.0076258 -0.00134294887,18.9844714 5.65662112e-05,18.8665698 C0.0073207159,18.248342 0.00345538854,17.629908 0.00345538854,17.0115428" id="Fill-3-Copy" fill="#3F51B5"></path>
                <rect id="Rectangle" fill="#FFFFFF" x="0" y="0" width="20" height="18"></rect>
                <text id="ОЩАД" font-family="Roboto-Black, Roboto" font-size="5" font-weight="700" letter-spacing="-0.00416666642" fill="#3F51B5">
                    <tspan x="2" y="7">ОЩАД</tspan>
                </text>
                <text id="24/7" font-family="Roboto-Black, Roboto" font-size="6" font-weight="700" letter-spacing="-0.00499999989" fill="#3F51B5">
                    <tspan x="5" y="14">24/7</tspan>
                </text>
            </g>
        </g>
    </g>
</svg>