 <?xml version="1.0" encoding="UTF-8"?>
<svg width="20px" height="20px" viewBox="0 0 20 20" version="1.1" xmlns="http://www.w3.org/2000/svg" xmlns:xlink="http://www.w3.org/1999/xlink">
    <defs>
        <polygon id="path-1" points="0 0.0354657724 0 19.5311484 19.9650769 19.5311484 19.9650769 0.0354657724"></polygon>
    </defs>
    <g id="Page-1" stroke="none" stroke-width="1" fill="none" fill-rule="evenodd">
        <g id="main0" transform="translate(-54.000000, -511.000000)">
            <g id="Page-1" transform="translate(54.000000, 511.000000)">
                <g id="Group-3" transform="translate(0.000000, 0.006109)">
                    <mask id="mask-2" fill="white">
                        <use xlink:href="#path-1"></use>
                    </mask>
                    <g id="Clip-2"></g>
                    <path d="M1.848,15.4728251 C1.7773617,15.3142904 1.66029787,15.1843875 1.56608511,15.0404803 C1.02310638,14.2110714 0.618765957,13.3221548 0.351659574,12.3732734 C0.223234043,11.9169926 0.127829787,11.453855 0.0687234043,10.9846503 C0.00119148936,10.4487073 -0.00995744681,9.90923205 0.00706382979,9.37017236 C0.0211914894,8.92170394 0.0684255319,8.47477309 0.153574468,8.03378469 C0.264297872,7.46002604 0.416851064,6.89661474 0.63012766,6.34982569 C0.807829787,5.89433438 1.0152766,5.45259798 1.25693617,5.02615405 C1.26680851,5.00874224 1.27114894,4.98837998 1.278,4.96947217 C1.2832766,4.95854303 1.28855319,4.94757235 1.29374468,4.93664321 C1.41634043,4.79498005 1.49689362,4.62651351 1.59970213,4.47217588 C1.6833617,4.34659475 1.78961702,4.23464387 1.84765957,4.09306382 C1.85574468,4.08388003 1.86387234,4.07469623 1.87187234,4.06559555 C1.92123404,4.02960837 1.96140426,3.98713851 1.9732766,3.92517906 C1.9813617,3.91632771 1.98940426,3.90751791 1.99740426,3.89874968 C2.01889362,3.89663034 2.02510638,3.88487009 2.01923404,3.86546361 C2.03289362,3.84871669 2.04655319,3.83196977 2.06012766,3.81530596 C2.09348936,3.81139973 2.10782979,3.79315681 2.10293617,3.76057719 C2.11119149,3.75151806 2.11944681,3.74245893 2.12761702,3.73348291 C2.16370213,3.71985267 2.18944681,3.69832685 2.18834043,3.65652188 C2.19659574,3.64758742 2.20489362,3.63865296 2.21306383,3.62980161 C2.25480851,3.60923157 2.28995745,3.58317618 2.29544681,3.53301853 C2.30212766,3.52308673 2.30876596,3.51311338 2.3153617,3.50322314 C2.36251064,3.48726578 2.39421277,3.45788594 2.40144681,3.40747896 C2.41595745,3.39127226 2.43042553,3.37510712 2.44485106,3.35898353 C2.50855319,3.31879923 2.56587234,3.27292181 2.59268085,3.19990856 C2.62434043,3.14650957 2.67268085,3.10861083 2.71940426,3.06934076 C2.74851064,3.06269185 2.76651064,3.0468176 2.76587234,3.01552621 C2.86217021,2.92148581 2.95846809,2.8274454 3.05468085,2.73344656 C3.08655319,2.73411145 3.10293617,2.71669964 3.10978723,2.68815092 C3.15004255,2.64239816 3.18889362,2.59519096 3.24348936,2.56435668 C3.31812766,2.5383013 3.36514894,2.4822843 3.40634043,2.42003396 C3.42293617,2.40586349 3.43953191,2.39169302 3.45604255,2.37760566 C3.50744681,2.37049964 3.53774468,2.33974847 3.55408511,2.29353861 C3.56425532,2.28705593 3.57446809,2.28053169 3.58459574,2.27409057 C3.63578723,2.26872989 3.66259574,2.23461272 3.68365957,2.19368042 C3.69280851,2.18557707 3.702,2.17751527 3.71106383,2.16949504 C3.75365957,2.17053393 3.77591489,2.14568366 3.78982979,2.1102367 C3.79910638,2.10217491 3.80838298,2.09411311 3.81757447,2.08609288 C3.8507234,2.09078866 3.86961702,2.0770753 3.87365957,2.04432946 C3.89080851,2.0309901 3.90795745,2.01765075 3.92502128,2.00435294 C3.9447234,2.01008762 3.95685106,2.00410361 3.95910638,1.9830349 C3.96812766,1.97518089 3.97719149,1.96728532 3.98612766,1.95951441 C4.04948936,1.9480035 4.09293617,1.90869187 4.12991489,1.86048733 C4.13931915,1.85250865 4.1487234,1.84452997 4.15804255,1.83667596 C4.30587234,1.77820718 4.42357447,1.67261431 4.55548936,1.58954459 C4.71093617,1.49168107 4.87923404,1.4129747 5.02191489,1.29587092 C5.03310638,1.29075958 5.04429787,1.28560668 5.05561702,1.28041223 C5.20689362,1.22983902 5.33778723,1.13987107 5.47923404,1.07047316 C6.09787234,0.766950799 6.74059574,0.52418278 7.40953191,0.353347564 C7.95331915,0.214510188 8.50531915,0.113654662 9.06795745,0.0722652493 C9.32919149,0.0530249903 9.58991489,0.0384389624 9.85174468,0.0354885123 C9.9252766,0.0346573996 9.94995745,0.0564325523 9.94982979,0.129778248 C9.94791489,1.23083635 9.94770213,2.3318529 9.95012766,3.43291101 C9.95029787,3.51319649 9.92076596,3.52890452 9.84493617,3.53127319 C8.76548936,3.56514104 7.75119149,3.82864532 6.81382979,4.35960167 C6.71987234,4.41279288 6.61702128,4.45252007 6.54021277,4.53160044 C6.53085106,4.53920512 6.52144681,4.5468098 6.51208511,4.55437293 C6.49306383,4.54784869 6.48076596,4.55325093 6.47693617,4.57348852 C6.46748936,4.58117631 6.45804255,4.58886411 6.44868085,4.59646879 C6.42910638,4.58778366 6.4172766,4.59418323 6.4127234,4.61442082 C6.4032766,4.62210861 6.39382979,4.62983796 6.38442553,4.6374842 C6.36540426,4.63095996 6.35310638,4.6363622 6.3492766,4.65659979 C6.33982979,4.66441225 6.33038298,4.67222471 6.32102128,4.67995406 C6.26714894,4.68876385 6.22365957,4.71174412 6.202,4.76418733 C6.19170213,4.77042067 6.18140426,4.77661246 6.17119149,4.78272114 C6.10340426,4.80620008 6.04723404,4.84455593 6.00834043,4.90489471 C5.99906383,4.91303961 5.98982979,4.92114296 5.9806383,4.92920476 C5.9272766,4.93252921 5.90025532,4.96689572 5.88106383,5.01040447 C5.85621277,5.03060051 5.8313617,5.05079654 5.80659574,5.07090947 C5.65574468,5.15169363 5.54829787,5.28122254 5.43,5.39757832 C5.37229787,5.45434332 5.29476596,5.49722873 5.26987234,5.58196067 C5.26153191,5.59093669 5.25319149,5.5999127 5.24493617,5.60880561 C5.20395745,5.62920943 5.16795745,5.65401814 5.15953191,5.70280446 C5.13889362,5.72703139 5.11825532,5.75125833 5.09770213,5.77544371 C5.05348936,5.79443463 5.01868085,5.82119646 5.01459574,5.87293323 C5.00621277,5.88190924 4.99787234,5.89084371 4.98957447,5.89969506 C4.8947234,5.98841634 4.80961702,6.08428519 4.75923404,6.20512897 C4.75123404,6.21435432 4.74323404,6.22357967 4.73531915,6.23268036 C4.71468085,6.23642037 4.70897872,6.24834683 4.71574468,6.26708842 C4.70782979,6.27627222 4.69995745,6.28549757 4.69208511,6.29463981 C4.67153191,6.29908626 4.66480851,6.31055562 4.67370213,6.32979588 C4.66587234,6.33902123 4.658,6.34824658 4.65021277,6.35734726 C4.62957447,6.36108727 4.62387234,6.37301374 4.6306383,6.39175533 C4.62268085,6.40106379 4.61468085,6.41037225 4.60676596,6.4195976 C4.52446809,6.49797153 4.48246809,6.60148662 4.42595745,6.69615036 C3.91391489,7.55406644 3.65246809,8.48487111 3.58753191,9.47094477 C3.55970213,9.89319158 3.59080851,10.3143995 3.6573617,10.7317427 C3.75868085,11.3671284 3.95174468,11.9759184 4.24970213,12.5504251 C4.35604255,12.7554606 4.45617021,12.9651088 4.6067234,13.145294 C4.61468085,13.1546025 4.62268085,13.1639525 4.63055319,13.1731778 C4.62382979,13.1917532 4.62940426,13.2037628 4.65012766,13.2075444 C4.658,13.2167282 4.66582979,13.2259535 4.67361702,13.2350957 C4.66476596,13.2542113 4.6712766,13.2657638 4.692,13.2702518 C4.69991489,13.2794772 4.70782979,13.2887025 4.71565957,13.2978448 C4.70893617,13.3164201 4.71451064,13.3284297 4.73523404,13.3322113 C4.74323404,13.3414366 4.75123404,13.350662 4.75914894,13.3597626 C4.80940426,13.4805649 4.89468085,13.5762675 4.98948936,13.665155 C4.99782979,13.674131 5.00621277,13.683107 5.01451064,13.692 C5.0186383,13.7435289 5.05319149,13.770457 5.09757447,13.7894479 C5.11821277,13.8137164 5.13889362,13.8379849 5.15944681,13.8621287 C5.16778723,13.9107488 5.20374468,13.9356406 5.24480851,13.956086 C5.25319149,13.965062 5.26153191,13.974038 5.26978723,13.982931 C5.33055319,14.1061019 5.45,14.1778269 5.54123404,14.274236 C5.58165957,14.3169967 5.61191489,14.3780419 5.68280851,14.3862699 C5.692,14.3944148 5.70119149,14.4025598 5.71029787,14.4106631 C5.73119149,14.4506396 5.75659574,14.4858372 5.80655319,14.4940653 C5.8313617,14.5142197 5.85617021,14.5343742 5.88093617,14.5544456 C5.90042553,14.5975803 5.92770213,14.6316975 5.98080851,14.6355622 C5.99004255,14.6435824 5.99931915,14.6516027 6.00846809,14.6594982 C6.09804255,14.753788 6.19761702,14.8351124 6.32093617,14.8849791 C6.33038298,14.89275 6.33982979,14.9005625 6.34914894,14.9083334 C6.35293617,14.9284879 6.36519149,14.9340148 6.38434043,14.9274074 C6.39378723,14.9351368 6.40323404,14.9428661 6.41259574,14.9505124 C6.41714894,14.9705837 6.42889362,14.9771911 6.44859574,14.9684644 C6.45804255,14.9761522 6.46748936,14.9837984 6.47680851,14.9914031 C6.48059574,15.0115576 6.49285106,15.017126 6.512,15.0105187 C6.52153191,15.0183312 6.53110638,15.0261021 6.54051064,15.0338314 C6.57795745,15.0757195 6.62208511,15.1069693 6.67987234,15.1162362 C6.69119149,15.1212229 6.70251064,15.1262096 6.71370213,15.1311131 C6.71148936,15.1529299 6.72893617,15.1598281 6.74387234,15.1684717 C7.64668085,15.6907429 8.62621277,15.9669632 9.67012766,16.0288811 C10.0593191,16.051986 10.4470213,16.0245177 10.8344255,15.9746094 C11.5286809,15.8851817 12.1877447,15.6880833 12.8131489,15.3839376 C12.9654468,15.3098855 13.1272766,15.2483 13.2545532,15.1311547 C13.2658723,15.126168 13.2771915,15.1212229 13.288383,15.1163193 C13.3465957,15.107842 13.3890638,15.073891 13.4277021,15.0337483 C13.437234,15.0260189 13.446766,15.018248 13.4562553,15.0106018 C13.475234,15.017126 13.4875745,15.0117654 13.4914043,14.9914862 C13.5008511,14.98384 13.5102979,14.9761522 13.5196596,14.9685475 C13.539234,14.9771911 13.5510638,14.9708331 13.5556596,14.9505955 C13.5651064,14.9428661 13.5745532,14.9351368 13.5839149,14.9274905 C13.6029362,14.9340563 13.615234,14.9286541 13.6190638,14.9084165 C13.6285106,14.900604 13.6379574,14.8927916 13.6473191,14.8850207 C13.7708936,14.8337826 13.8731489,14.7543282 13.9617447,14.6568802 C13.9642979,14.6505638 13.968766,14.6460342 13.9750638,14.6433331 C14.0315745,14.636892 14.0652766,14.6027332 14.0873191,14.5545703 C14.1121702,14.5343742 14.1369787,14.5142197 14.1617447,14.4941068 C14.2115319,14.4859619 14.2370213,14.450889 14.2579574,14.4107462 C14.2671489,14.4026013 14.2763404,14.3944148 14.2854468,14.3863531 C14.4421277,14.2845833 14.5685957,14.1529351 14.678766,14.0052463 C14.6928936,13.9893721 14.7070213,13.9734978 14.7210638,13.9577067 C14.7632766,13.9373444 14.7999149,13.9119124 14.8088085,13.8622118 C14.8294894,13.8379849 14.8501277,13.8137164 14.8706809,13.7895726 C14.9197872,13.7680052 14.9550638,13.735384 14.9615745,13.6799488 C14.964383,13.6737155 14.9690638,13.6693521 14.9754894,13.6669003 C15.0775745,13.5819606 15.1530213,13.4777391 15.2074468,13.3584744 C15.2154894,13.3495815 15.2235745,13.3406886 15.2315319,13.3318788 C15.2534894,13.3294686 15.2589362,13.3171681 15.2525957,13.2979279 C15.2605106,13.2887025 15.2684255,13.2794772 15.2762553,13.2703765 C15.2968085,13.26593 15.3035745,13.2544607 15.2946383,13.2351789 C15.3025957,13.2258704 15.3105106,13.2165619 15.318383,13.2073781 C15.3758723,13.1506547 15.4246383,13.0884044 15.4459574,13.0093655 C15.4510638,12.9983117 15.4561277,12.9872579 15.4611915,12.9763288 C15.4782128,12.9789468 15.4870638,12.9677683 15.4942128,12.9558834 C15.7254468,12.5703303 15.9165532,12.1663679 16.0588085,11.7419602 C16.2634468,11.1314248 16.3747234,10.5041841 16.3857447,9.86127685 C16.3869787,9.79000894 16.4151915,9.77475802 16.4808936,9.77484113 C17.611234,9.77617091 18.741617,9.77625402 19.8719574,9.77471646 C19.9399149,9.77463335 19.9657447,9.79374894 19.9650638,9.86306374 C19.962383,10.1428578 19.9513191,10.4216961 19.9244681,10.7007007 C19.8696596,11.2691818 19.764,11.8273986 19.6112766,12.3783848 C19.4554894,12.9402585 19.2434043,13.4809389 18.9884255,14.0059112 C18.8813617,14.2262392 18.7631915,14.4414558 18.6500851,14.6589996 C18.6449787,14.6700534 18.6398723,14.6811072 18.6348511,14.6920363 C18.5710638,14.7340906 18.5524255,14.8039041 18.5224255,14.8668193 C18.5173617,14.8778316 18.5122979,14.8888438 18.507234,14.8997729 C18.4658298,14.9084581 18.4581702,14.9375886 18.4610638,14.9730355 C18.4530638,14.9824686 18.4451064,14.9918602 18.437234,15.0012102 C18.348,15.1087562 18.2624681,15.2187955 18.2060426,15.3473687 C18.1980426,15.356594 18.1900426,15.3658194 18.1821277,15.3749201 C18.1614894,15.3786601 18.1557872,15.3905865 18.1625532,15.4093281 C18.1545106,15.4184704 18.1464681,15.4276542 18.1384681,15.4367133 C18.073617,15.4924809 18.0189362,15.5553962 17.9929787,15.6380919 C17.984766,15.6471926 17.9765106,15.6562933 17.968383,15.6653108 C17.9065957,15.703168 17.8673617,15.758063 17.8431915,15.8242611 C17.8365106,15.8341929 17.8297872,15.8440832 17.8231915,15.8539319 C17.7902979,15.8566745 17.7766383,15.8751252 17.7786383,15.9063335 C17.764383,15.9230804 17.7501277,15.9398689 17.736,15.9565743 C17.6868511,15.9781417 17.6515745,16.0107628 17.6450638,16.066198 C17.6420851,16.0723898 17.6372766,16.0766701 17.630766,16.0789141 C17.5872766,16.098653 17.5552766,16.1284899 17.5430638,16.1754894 C17.536,16.1854627 17.5289787,16.1954361 17.522,16.2053679 C17.3674468,16.329827 17.2391915,16.4782222 17.1174468,16.6325182 C17.0711064,16.6786865 17.024766,16.7248549 16.9784681,16.7709401 C16.886383,16.8072597 16.8320851,16.8835143 16.7742553,16.9560289 C16.7650638,16.9642153 16.7558298,16.9723602 16.7467234,16.980422 C16.626,17.052147 16.5239574,17.1448992 16.4322553,17.2492039 C16.416,17.2630003 16.3997021,17.2767552 16.3835319,17.2904686 C16.3280851,17.3002757 16.2965532,17.3387978 16.2690213,17.3820572 C16.266,17.3875841 16.2617021,17.3918228 16.2561702,17.3946901 C16.1890638,17.4196235 16.130766,17.4557354 16.0937872,17.5185259 C16.083617,17.5252995 16.0734043,17.5320315 16.0633191,17.538722 C16.0326383,17.5366442 16.016,17.5524769 16.0085532,17.5799452 C15.9991915,17.5878407 15.9898723,17.5957779 15.9805957,17.6035903 C15.9475745,17.5986868 15.928766,17.6124001 15.924383,17.6448966 C15.9138723,17.6511715 15.9033617,17.6574049 15.8929362,17.6635967 C15.8442979,17.6783073 15.800383,17.6997085 15.7744255,17.7457937 C15.7650213,17.7536893 15.7555745,17.7615848 15.7462553,17.7693557 C15.5775745,17.8604041 15.4164255,17.9628388 15.2640426,18.078405 C15.2544255,18.0861759 15.2448085,18.0939884 15.2352766,18.1016762 C15.1958723,18.096357 15.1706383,18.1234513 15.1407234,18.1407385 C14.8302553,18.3201341 14.5148511,18.49072 14.186383,18.6368712 C13.4466809,18.9660334 12.6795745,19.2104636 11.8800851,19.3603548 C11.386,19.4529823 10.8881702,19.5111186 10.3866809,19.5252475 C9.8067234,19.5416205 9.22723404,19.5263695 8.65017021,19.4490345 C8.2013617,19.3889035 7.75880851,19.3027587 7.3226383,19.1859042 C6.34382979,18.9237297 5.42723404,18.5253774 4.57468085,17.9856944 C4.43702128,17.8985522 4.31234043,17.7902167 4.15817021,17.7282572 C4.14876596,17.7203617 4.1393617,17.7124661 4.13004255,17.7046536 C4.09319149,17.6564075 4.04970213,17.617179 3.98625532,17.605585 C3.97719149,17.597731 3.96817021,17.5898354 3.95919149,17.5820645 C3.9573617,17.5611205 3.94506383,17.5553858 3.92557447,17.5602478 C3.916,17.5521029 3.90642553,17.543958 3.89693617,17.5358962 C3.88097872,17.5031919 3.86153191,17.4749341 3.81774468,17.4790065 C3.80842553,17.4709447 3.79914894,17.4628829 3.78995745,17.4548627 C3.776,17.4196235 3.75391489,17.3944824 3.71114894,17.3956044 C3.702,17.387501 3.69285106,17.3794392 3.68378723,17.371419 C3.6627234,17.3306945 3.63604255,17.296328 3.58468085,17.2909673 C3.57446809,17.2844846 3.56429787,17.2779604 3.55417021,17.2715608 C3.53787234,17.2254756 3.50761702,17.1946413 3.45621277,17.1873275 C3.45085106,17.1841277 3.44685106,17.1797644 3.44421277,17.1743622 C3.32855319,17.0449579 3.1972766,16.932259 3.05485106,16.8316528 C2.95851064,16.7375709 2.86217021,16.6434889 2.76587234,16.5494901 C2.66297872,16.4104449 2.54753191,16.2822873 2.41497872,16.169256 C2.40931915,16.1665965 2.40485106,16.1626487 2.40165957,16.1574958 C2.39412766,16.1075043 2.36280851,16.0777921 2.31544681,16.0618763 C2.30876596,16.0519029 2.30212766,16.0419296 2.29553191,16.0320809 C2.29004255,15.9820894 2.25510638,15.9558678 2.21319149,15.9353394 C2.20489362,15.9263633 2.1966383,15.9174289 2.18842553,15.908536 C2.18948936,15.8669803 2.164,15.8452467 2.12774468,15.8316165 C2.11944681,15.8225574 2.11119149,15.8134567 2.10302128,15.8044807 C2.10710638,15.7619277 2.07851064,15.7426874 2.04476596,15.7271872 C2.03642553,15.7178372 2.02808511,15.7084456 2.01982979,15.6991787 C2.0247234,15.6802709 2.01902128,15.6681782 1.99748936,15.6663497 C1.98944681,15.6574984 1.9813617,15.6486886 1.9733617,15.6399203 C1.96157447,15.578044 1.9213617,15.5356157 1.87195745,15.4995039 C1.864,15.4906109 1.856,15.481718 1.848,15.4728251" id="Fill-1" fill="#FFFFFF" mask="url(#mask-2)"></path>
                </g>
                <path d="M5.57496596,9.78294863 C5.54981702,7.43563704 7.51334894,5.45168791 10.0003702,5.44931924 C12.454966,5.44703368 14.4547957,7.36262379 14.4499021,9.80796513 C14.4451787,12.1688239 12.4776894,14.1974869 9.85181702,14.1234347 C7.52713617,14.0579015 5.55126383,12.1779245 5.57496596,9.78294863" id="Fill-4" fill="#FFFFFF"></path>
                <path d="M15.6207489,6.7823035 C14.2804085,6.813678 13.0419404,5.71079145 13.0782809,4.24042842 C13.1110043,2.91725544 14.1877277,1.81424422 15.6286213,1.81303911 C17.0671319,1.81179244 18.197217,2.94684306 18.1754298,4.34622906 C18.154366,5.69977921 17.0034298,6.81384423 15.6207489,6.7823035" id="Fill-6" fill="#FFFFFF"></path>
            </g>
        </g>
    </g>
</svg>