<?xml version="1.0" encoding="utf-8"?>
<svg version="1.1" id="Слой_1" xmlns="http://www.w3.org/2000/svg" xmlns:xlink="http://www.w3.org/1999/xlink" x="0px" y="0px"
	 viewBox="0 0 386.5 386.5" style="enable-background:new 0 0 386.5 386.5;" xml:space="preserve">
<style type="text/css">
	.st0{fill:#FFFFFF;}
</style>
<g>
	<path class="st0" d="M234,182.1c-7.5,2.9-22.4,4.4-44.7,4.4h-31v-79.6h27.3c20.4,0,34,0.6,40.7,1.9c9.2,1.7,16.8,5.8,22.8,12.4
		c6,6.6,9,15,9,25.2c0,8.3-2.1,15.6-6.4,21.8C247.5,174.6,241.6,179.1,234,182.1z"/>
	<path class="st0" d="M249.2,121.3c-6-6.6-13.6-10.8-22.8-12.4c-6.8-1.3-20.3-1.9-40.7-1.9h-27.3v79.6h31c22.3,0,37.2-1.5,44.7-4.4
		c7.5-2.9,13.4-7.5,17.7-13.8c4.3-6.2,6.4-13.5,6.4-21.8C258.1,136.3,255.1,127.9,249.2,121.3z"/>
	<path class="st0" d="M281,271.9c-4.4-0.6-8.9-0.5-13.5-0.8c0,4.5,0,8.6,0,12.6c4.4,0,8.7,0.2,13-0.1c3.3-0.2,4.8-2.2,5-5.7
		C285.6,274.5,284.3,272.3,281,271.9z"/>
	<path class="st0" d="M275.5,249.5c-22.3-0.1-40,17.2-40.1,39.3c-0.1,21.4,17.4,39.2,38.6,39.5c22,0.4,40-17.4,40.1-38.8
		C314.3,267.5,297.1,249.7,275.5,249.5z M285.4,314.9c-0.4,0-1-0.6-1.2-1.1c-3.6-6.4-7.1-12.8-10.6-19.2c-0.7-1.3-1.4-1.9-2.9-1.7
		c-1,0.1-2.1,0-3.3,0c0,7.4,0,14.7,0,22c-3.9,0-7.5,0-11.3,0c0-17.5,0-35,0-52.5c0.3-0.1,0.6-0.2,0.9-0.2c7.9,0.1,15.8,0.1,23.8,0.3
		c3.9,0.1,7.6,1,10.9,3.2c2.3,1.5,3.9,3.6,4.7,6.2c1.2,3.8,1.3,7.7,0.3,11.6c-1.1,4-3.8,6.6-7.8,7.8c-1.2,0.4-2.5,0.5-4,0.9
		c4.4,7.6,8.8,15.1,13.3,22.9C293.7,315,289.6,315,285.4,314.9z"/>
	<path class="st0" d="M193.2,0C86.5,0,0,86.5,0,193.2s86.5,193.2,193.2,193.2S386.5,300,386.5,193.2S300,0,193.2,0z M158.3,234.1
		v105.7h-56.6V59.5h90.8c34.4,0,56.9,1.4,67.3,4.2c16.1,4.2,29.5,13.4,40.3,27.4c10.8,14.1,16.3,32.3,16.3,54.6
		c0,17.2-3.1,31.7-9.4,43.4c-6.2,11.7-14.2,20.9-23.8,27.6c-9.6,6.7-19.4,11.1-29.4,13.3c-13.5,2.7-33.1,4-58.7,4H158.3z
		 M282.2,337.6c-24.7,3.9-49-12.2-54.9-36.4c-0.8-3.2-1.1-6.6-1.7-9.9c0-1.4,0-2.9,0-4.3c0.1-0.5,0.2-1.1,0.3-1.6
		c2.3-29,27.8-49.2,56.6-45c22.9,3.3,41,23.8,41.5,47C324.6,312.6,307,333.6,282.2,337.6z"/>
</g>
</svg>
