<?xml version="1.0" encoding="UTF-8"?>
<svg width="20px" height="20px" viewBox="0 0 20 20" version="1.1" xmlns="http://www.w3.org/2000/svg" xmlns:xlink="http://www.w3.org/1999/xlink">
    <g id="Page-1" stroke="none" stroke-width="1" fill="none" fill-rule="evenodd">
        <g id="main0-uanvailable" transform="translate(-364.000000, -284.000000)" fill="#979797">
            <g id="wm-copy" transform="translate(364.000000, 284.000000)">
                <g id="XMLID_260_">
                    <path d="M6.30532544,9.4295858 C7.19053254,10.4189349 8.02366864,11.356213 8.90887574,12.3976331 C8.5964497,12.7621302 8.28402367,13.0745562 7.91952663,13.4390533 C9.16923077,14.8449704 10.3668639,16.1988166 11.616568,17.5526627 C11.7207101,17.6568047 12.1893491,17.6047337 12.3455621,17.4485207 C12.9704142,16.9278107 13.5431953,16.4071006 14.2201183,15.7822485 C14.8449704,16.4591716 15.4177515,17.1360947 16.0426036,17.8130178 C12.9704142,20.5207101 7.6591716,20.9372781 3.75384615,17.7609467 C-0.307692308,14.4804734 -1.03668639,8.49230769 2.08757396,4.22248521 C5.0035503,0.265088757 10.835503,-0.984615385 14.6366864,1.46272189 C14.2721893,2.03550296 14.2721893,2.03550296 12.6579882,0.837869822 C11.9289941,1.46272189 11.2,2.08757396 10.4189349,2.76449704 C10.2106509,2.60828402 10.0544379,2.45207101 9.89822485,2.29585799 C9.06508876,1.35857988 9.06508876,1.35857988 8.12781065,2.19171598 C6.98224852,3.23313609 5.83668639,4.27455621 4.63905325,5.36804734 C5.52426036,6.40946746 6.40946746,7.39881657 7.29467456,8.38816568 C6.98224852,8.75266272 6.66982249,9.06508876 6.30532544,9.4295858 Z" id="XMLID_271_"></path>
                    <path d="M8.38816568,9.4816568 C9.11715976,8.80473373 9.79408284,8.17988166 10.5751479,7.45088757 C11.252071,8.17988166 11.8769231,8.90887574 12.6059172,9.68994083 C11.8769231,10.3668639 11.2,11.043787 10.3668639,11.7207101 C9.68994083,10.939645 9.06508876,10.2627219 8.38816568,9.4816568 Z" id="XMLID_270_"></path>
                    <path d="M6.66982249,5.42011834 C7.39881657,4.74319527 8.12781065,4.1183432 8.90887574,3.38934911 C9.58579882,4.1183432 10.2106509,4.79526627 10.939645,5.62840237 C10.2106509,6.35739645 9.4816568,6.98224852 8.70059172,7.6591716 C8.02366864,6.93017751 7.39881657,6.20118343 6.66982249,5.42011834 Z" id="XMLID_269_"></path>
                    <path d="M14.2721893,13.8035503 C13.5431953,14.4804734 12.8662722,15.1053254 12.0852071,15.8343195 C11.408284,15.1053254 10.7313609,14.3763314 10.0544379,13.5952663 C10.835503,12.9183432 11.512426,12.2934911 12.2934911,11.564497 C13.0224852,12.3455621 13.5952663,13.0224852 14.2721893,13.8035503 Z" id="XMLID_268_"></path>
                    <path d="M12.7100592,2.92071006 C13.1266272,3.38934911 13.5952663,3.91005917 14.1159763,4.48284024 C13.5952663,4.95147929 13.0745562,5.42011834 12.5017751,5.8887574 C10.783432,4.1704142 10.783432,4.06627219 12.7100592,2.92071006 Z" id="XMLID_267_"></path>
                    <path d="M12.7621302,7.86745562 C12.8142012,7.76331361 12.8662722,7.6591716 12.9704142,7.60710059 C13.3869822,7.24260355 13.8035503,6.87810651 14.3242604,6.40946746 C14.5846154,6.66982249 14.7928994,6.93017751 15.0532544,7.19053254 C15.2615385,7.45088757 15.4698225,7.6591716 15.6781065,7.97159763 C14.0118343,9.79408284 14.2201183,9.79408284 12.7621302,7.86745562 Z" id="XMLID_266_"></path>
                    <path d="M17.2402367,16.8757396 C16.7195266,16.3029586 16.3029586,15.8343195 15.7822485,15.2615385 C16.3550296,14.7408284 16.8236686,14.3242604 17.3964497,13.8035503 C17.9171598,14.3242604 18.3857988,14.8449704 18.8544379,15.4177515 C18.2816568,15.8863905 17.8130178,16.3550296 17.2402367,16.8757396 Z" id="XMLID_265_"></path>
                    <path d="M15.0532544,10.835503 C15.3136095,10.6272189 15.5218935,10.4189349 15.8863905,10.1585799 C16.3550296,10.7313609 16.8236686,11.252071 17.3443787,11.7727811 C16.7715976,12.2934911 16.2508876,12.7100592 15.6781065,13.2307692 C15.1573964,12.7100592 14.6887574,12.1893491 14.2201183,11.616568 C14.5325444,11.304142 14.7928994,11.095858 15.0532544,10.835503 Z" id="XMLID_264_"></path>
                    <path d="M14.9491124,3.44142012 C15.3136095,3.12899408 15.6260355,2.86863905 15.9905325,2.50414201 C16.3029586,2.86863905 16.5633136,3.18106509 16.9278107,3.54556213 C16.5633136,3.91005917 16.3029586,4.1704142 15.8863905,4.48284024 C15.5218935,4.1183432 15.2615385,3.80591716 14.9491124,3.44142012 Z" id="XMLID_263_"></path>
                    <path d="M16.4591716,6.98224852 C16.8236686,6.72189349 17.1360947,6.46153846 17.5526627,6.14911243 C17.8130178,6.40946746 18.0733728,6.72189349 18.4378698,7.13846154 C18.1254438,7.39881657 17.8130178,7.7112426 17.4485207,8.07573964 C17.0840237,7.6591716 16.8236686,7.39881657 16.4591716,6.98224852 Z" id="XMLID_262_"></path>
                    <path d="M18.9585799,11.512426 C18.5940828,11.2 18.2816568,10.939645 17.9171598,10.5751479 C18.3337278,10.2106509 18.6461538,9.95029586 19.0106509,9.58579882 C19.3230769,9.89822485 19.635503,10.2106509 20,10.5751479 C19.635503,10.939645 19.3230769,11.2 18.9585799,11.512426 Z" id="XMLID_261_"></path>
                </g>
            </g>
        </g>
    </g>
</svg>