<svg width="20" height="20" viewBox="0 0 20 20" xmlns="http://www.w3.org/2000/svg"><title>wm2 copy 17</title><g fill="#287DD9" fill-rule="evenodd"><path d="M6.305 9.43c.886.99 1.72 1.926 2.604 2.968-.314.364-.626.677-.99 1.04 1.25 1.407 2.447 2.76 3.697 4.115.104.104.572.052.73-.104.623-.522 1.196-1.043 1.873-1.668.625.677 1.198 1.354 1.823 2.03-3.073 2.71-8.384 3.125-12.29-.05-4.06-3.282-4.79-9.27-1.665-13.54 2.916-3.957 8.748-5.207 12.55-2.76-.366.574-.366.574-1.98-.624-.73.625-1.458 1.25-2.24 1.926-.207-.156-.364-.312-.52-.468-.833-.937-.833-.937-1.77-.104-1.146 1.04-2.29 2.083-3.49 3.176.886 1.04 1.77 2.03 2.657 3.02-.313.365-.625.677-.99 1.042z"/><path d="M8.388 9.482c.73-.677 1.406-1.302 2.187-2.03.677.728 1.302 1.457 2.03 2.238-.728.677-1.405 1.354-2.238 2.03-.677-.78-1.302-1.457-1.98-2.238zM6.67 5.42c.73-.677 1.458-1.302 2.24-2.03.676.728 1.3 1.405 2.03 2.238-.73.73-1.458 1.354-2.24 2.03-.676-.728-1.3-1.457-2.03-2.238zM14.272 13.804c-.73.676-1.406 1.3-2.187 2.03-.677-.73-1.354-1.458-2.03-2.24.78-.676 1.457-1.3 2.238-2.03.73.782 1.302 1.458 1.98 2.24zM12.71 2.92c.417.47.885.99 1.406 1.563-.52.468-1.04.937-1.614 1.406-1.72-1.72-1.72-1.824.208-2.97zM12.762 7.867c.052-.104.104-.208.208-.26.417-.364.834-.73 1.354-1.198.26.26.47.52.73.78.208.26.416.47.624.782-1.666 1.822-1.458 1.822-2.916-.105zM17.24 16.876c-.52-.573-.937-1.042-1.458-1.614.573-.52 1.042-.938 1.614-1.458.52.52.99 1.04 1.458 1.614-.572.468-1.04.937-1.614 1.458zM15.053 10.836c.26-.21.47-.417.833-.677.47.57.938 1.092 1.458 1.613-.572.52-1.093.937-1.666 1.458-.52-.52-.99-1.04-1.458-1.613.313-.313.573-.52.833-.78zM14.95 3.44c.364-.31.676-.57 1.04-.936.313.365.573.677.938 1.042-.365.364-.625.624-1.042.937-.364-.365-.624-.677-.937-1.042zM16.46 6.982c.364-.26.676-.52 1.093-.833.26.26.52.572.885.988-.313.26-.625.573-.99.938-.364-.417-.624-.677-.99-1.094zM18.96 11.512c-.366-.312-.678-.572-1.043-.937.417-.364.73-.625 1.094-.99l.99.99c-.364.365-.677.625-1.04.937z"/></g></svg>