<?xml version="1.0" encoding="UTF-8"?>
<svg width="234px" height="234px" viewBox="0 0 234 234" version="1.1" xmlns="http://www.w3.org/2000/svg" xmlns:xlink="http://www.w3.org/1999/xlink">
    <g id="Page-1" stroke="none" stroke-width="1" fill="none" fill-rule="evenodd">
        <g id="Artboard" transform="translate(-3.000000, -3.000000)" fill="#FFFFFF">
            <g id="pm" transform="translate(3.000000, 3.000000)">
                <path d="M117,234 C52.3826843,234 -5.68434189e-14,181.617316 -5.68434189e-14,117 C-5.68434189e-14,52.3826843 52.3826843,-5.68434189e-14 117,-5.68434189e-14 C181.617316,-5.68434189e-14 234,52.3826843 234,117 C234,181.617316 181.617316,234 117,234 Z M157.2,141 C147.6,120.6 138,101.4 129,82.8 C126,75 121.8,71.4 112.8,72.6 C107.4,73.2 102,72.6 96.6,72.6 L96.6,75.6 C98.4,76.2 99.6,77.4 100.8,77.4 C107.4,78.6 110.4,82.8 110.4,89.4 L110.4,153 C110.4,159 107.4,163.8 100.8,164.4 C99,164.4 97.8,165.6 96.6,166.2 C96.6,166.2 97.2,166.8 97.2,167.4 L132,167.4 C130.2,165.6 129.6,164.4 129,164.4 C117.6,160.2 117,159.6 117,147.6 L117,106.2 L117,96.6 L118.8,96.6 C129.6,120 141,143.4 153,168 C165,142.8 175.8,118.8 187.2,95.4 C189,112.8 189,129.6 189,146.4 C189,159 189,159.6 176.4,164.4 C175.8,164.4 175.8,165.6 174,168 C189,168.6 203.4,168.6 217.8,166.8 C217.2,165 216.6,165 215.4,164.4 C204,160.2 203.4,159.6 203.4,147.6 L203.4,94.8 C203.4,81 203.4,81 216,76.2 C216.6,75.6 216.6,75 217.8,73.2 C215.4,72.6 213.6,72 211.8,72 C206.4,71.4 201,71.4 195.6,72 C193.2,72.6 189.6,74.4 188.4,76.8 C183,85.8 178.8,95.4 174.6,105 C169.2,116.4 163.2,128.4 157.2,141 Z M16.2,165.6 C30.6,165.6 44.4,165.6 57.6,166.8 C57.6,166.2 58.2,165.6 58.2,165 C56.4,164.4 54.6,163.8 52.8,162.6 C49.8,160.2 45.6,157.8 45.6,155.4 C44.4,145.8 45,136.2 45,126 C51,126 57,126.6 63,126 C75.6,124.8 85.2,116.4 87.6,105.6 C91.8,88.2 81.6,74.4 62.4,73.2 C48,72 34.2,72.6 19.8,72.6 C18.6,72.6 17.4,73.2 16.2,73.8 C18,76.2 20.4,76.2 22.2,77.4 C24.6,79.2 28.8,82.2 28.8,84.6 C30,95.4 29.4,105.6 29.4,117 C27,115.8 25.2,115.2 23.4,115.2 C21.6,115.2 19.8,115.8 18,115.8 C19.2,117 20.4,119.4 21.6,119.4 C28.8,120.6 30.6,125.4 30,132 C29.4,136.2 29.4,140.4 30,144.6 C30.6,153.6 29.4,161.4 18,162.6 C18,162.6 17.4,163.8 16.2,165.6 Z M45,99 C45,95.4 45,91.8 44.4,87.6 C44.4,78 45.6,77.4 55.2,78 C62.4,78.6 67.8,82.2 70.2,88.8 C73.8,97.2 73.2,105 67.2,112.2 C62.4,117.6 55.2,120 48,118.8 C46.8,118.8 45,116.4 45,114.6 L45,99 Z" id="Combined-Shape"></path>
            </g>
        </g>
    </g>
</svg>