<?xml version="1.0" encoding="UTF-8"?>
<svg width="20px" height="20px" viewBox="0 0 20 20" version="1.1" xmlns="http://www.w3.org/2000/svg" xmlns:xlink="http://www.w3.org/1999/xlink">
    <g id="Page-1" stroke="none" stroke-width="1" fill="none" fill-rule="evenodd">
        <g id="main0" transform="translate(-54.000000, -547.000000)">
            <g id="privat2" transform="translate(54.000000, 547.000000)">
                <g id="privat">
                    <g id="XMLID_286_">
                        <g>
                            <path d="M0.25,9.5 L0.25,0.25 L0.65,0.25 L19.35,0.25 C19.65,0.25 19.75,0.35 19.75,0.65 L19.75,19.35 L19.75,19.75 L10.4,19.75 C10.4,18.95 10.45,15.8 10,14.35 C9.35,12.25 8.25,11.1 6.2,10.25 C4.4,9.5 1.25,9.5 0.25,9.5 L0.25,9.5 Z M15.75,9.95 L15.75,4.55 C15.75,4.15 15.75,4.15 15.35,4.15 L6.1,4.15 L4.5,4.15 C4.25,4.15 4.2,4.25 4.2,4.5 C4.2,4.85 4.25,6.25 4.25,6.25 C4.25,6.25 6.55,6.4 7.75,6.85 C10.85,8 12.1,9.25 13.3,12.3 C13.7,13.25 13.8,13.7 13.9,14.45 C14,15.15 13.95,15.65 14.2,15.65 L15.35,15.65 C15.65,15.65 15.75,15.55 15.7,15.25 C15.75,13.55 15.75,11.75 15.75,9.95 L15.75,9.95 Z" id="XMLID_288_" fill="#FFFFFF"></path>
                            <path d="M7.15,19.75 L0.25,19.75 L0.25,12.85 L0.4,12.85 L6.9,12.85 C6.95,12.85 7,12.85 7.1,12.9 L7.1,13.25 L7.1,19.45 C7.15,19.5 7.15,19.6 7.15,19.75 L7.15,19.75 Z" id="XMLID_287_" fill="#FFFFFF"></path>
                        </g>
                    </g>
                </g>
            </g>
        </g>
    </g>
</svg>