<?xml version="1.0" encoding="UTF-8"?>
<svg width="50px" height="50px" viewBox="0 0 50 50" version="1.1" xmlns="http://www.w3.org/2000/svg" xmlns:xlink="http://www.w3.org/1999/xlink">
    <defs>
        <path d="M45.9892005,18.666 C46.0591081,18.122 46.1115388,17.578 46.1115388,17 C46.1115388,16.422 46.0591081,15.878 45.9892005,15.334 L49.6768274,12.529 C50.0088886,12.274 50.0962731,11.815 49.8865502,11.441 L46.3911693,5.559 C46.1814464,5.185 45.70957,5.049 45.3250781,5.185 L40.9733288,6.885 C40.0645297,6.205 39.0858231,5.644 38.0197319,5.219 L37.3556095,0.714 C37.3031788,0.306 36.9361638,0 36.4992412,0 L29.5084792,0 C29.0715566,0 28.7045416,0.306 28.6521109,0.714 L27.9879885,5.219 C26.9218973,5.644 25.9431907,6.222 25.0343916,6.885 L20.6826423,5.185 C20.2806735,5.032 19.826274,5.185 19.6165511,5.559 L16.1211702,11.441 C15.8939704,11.815 15.9988319,12.274 16.330893,12.529 L20.01852,15.334 C19.9486123,15.878 19.8961816,16.439 19.8961816,17 C19.8961816,17.561 19.9486123,18.122 20.01852,18.666 L16.330893,21.471 C15.9988319,21.726 15.9114473,22.185 16.1211702,22.559 L19.6165511,28.441 C19.826274,28.815 20.2981504,28.951 20.6826423,28.815 L25.0343916,27.115 C25.9431907,27.795 26.9218973,28.356 27.9879885,28.781 L28.6521109,33.286 C28.7045416,33.694 29.0715566,34 29.5084792,34 L36.4992412,34 C36.9361638,34 37.3031788,33.694 37.3556095,33.286 L38.0197319,28.781 C39.0858231,28.356 40.0645297,27.778 40.9733288,27.115 L45.3250781,28.815 C45.7270469,28.968 46.1814464,28.815 46.3911693,28.441 L49.8865502,22.559 C50.0962731,22.185 50.0088886,21.726 49.6768274,21.471 L45.9892005,18.666 L45.9892005,18.666 Z M33.0038602,22.95 C29.6308176,22.95 26.8869435,20.281 26.8869435,17 C26.8869435,13.719 29.6308176,11.05 33.0038602,11.05 C36.3769028,11.05 39.1207769,13.719 39.1207769,17 C39.1207769,20.281 36.3769028,22.95 33.0038602,22.95 Z" id="path-1"></path>
    </defs>
    <g id="Page-1" stroke="none" stroke-width="1" fill="none" fill-rule="evenodd">
        <g id="privat24tech">
            <g id="Group">
                <g id="privat2">
                    <g id="privat">
                        <g id="XMLID_286_">
                            <g>
                                <path d="M0.625,23.75 L0.625,0.625 L1.625,0.625 L48.375,0.625 C49.125,0.625 49.375,0.875 49.375,1.625 L49.375,48.375 L49.375,49.375 L26,49.375 C26,47.375 26.125,39.5 25,35.875 C23.375,30.625 20.625,27.75 15.5,25.625 C11,23.75 3.125,23.75 0.625,23.75 L0.625,23.75 Z M39.375,24.875 L39.375,11.375 C39.375,10.375 39.375,10.375 38.375,10.375 L15.25,10.375 L11.25,10.375 C10.625,10.375 10.5,10.625 10.5,11.25 C10.5,12.125 10.625,15.625 10.625,15.625 C10.625,15.625 16.375,16 19.375,17.125 C27.125,20 30.25,23.125 33.25,30.75 C34.25,33.125 34.5,34.25 34.75,36.125 C35,37.875 34.875,39.125 35.5,39.125 L38.375,39.125 C39.125,39.125 39.375,38.875 39.25,38.125 C39.375,33.875 39.375,29.375 39.375,24.875 L39.375,24.875 Z" id="XMLID_288_" fill="#3FAB36"></path>
                                <path d="M0.625,49.375 L0.625,32.125 L1,32.125 L17.25,32.125 C17.375,32.125 17.5,32.125 17.75,32.25 L17.75,33.125 L17.75,48.625 C17.875,48.75 17.875,49 17.875,49.375 L0.625,49.375 Z" id="XMLID_287_" fill="#333333"></path>
                            </g>
                        </g>
                    </g>
                </g>
                <g id="Shape" fill-rule="nonzero">
                    <use fill="#333333" fill-rule="evenodd" xlink:href="#path-1"></use>
                    <path stroke="#FFFFFF" stroke-width="1" d="M45.4932785,18.6022707 L45.4564367,18.8889623 L49.3741213,21.8689561 C49.504671,21.9692159 49.5402234,22.1543323 49.4504379,22.3144473 L45.9613363,28.1855716 C45.8696141,28.3488179 45.6792296,28.414805 45.5029428,28.3477055 L41.1552631,26.6492749 L40.9000219,26.5495655 L40.6786458,26.7110669 C39.7406915,27.3953366 38.8027453,27.9305831 37.8345762,28.3165462 L37.5670766,28.4231855 L36.8609556,33.2130786 C36.8400595,33.3750101 36.6901472,33.5 36.4992412,33.5 L29.5084792,33.5 C29.3175732,33.5 29.1676609,33.3750101 29.1480329,33.2222707 L28.4826424,28.7080786 L28.4406438,28.4231855 L28.1731442,28.3165462 C27.1686004,27.9160822 26.2266487,27.3826223 25.3339405,26.7146621 L25.1113747,26.5481294 L20.500708,28.3492749 C20.3383645,28.4064189 20.1320403,28.3380005 20.0526635,28.1964473 L16.5510031,22.3035716 C16.4674971,22.1543323 16.5030494,21.9692159 16.6354244,21.867561 L20.321226,19.0639561 L20.5512837,18.8889623 L20.5144419,18.6022707 C20.436238,17.9937117 20.3961816,17.4832918 20.3961816,17 C20.3961816,16.5167082 20.436238,16.0062883 20.5144419,15.3977293 L20.5512837,15.1110377 L16.6335991,12.1310439 C16.4962411,12.0255558 16.4598385,11.8465425 16.5484989,11.7005962 L20.0463841,5.81442839 C20.1381063,5.65118205 20.3284908,5.58519504 20.5047776,5.6522945 L24.8524573,7.35072512 L25.1076986,7.45043449 L25.3290746,7.28893308 C26.2670289,6.60466336 27.2049751,6.06941695 28.1731442,5.68345383 L28.4406438,5.57681445 L29.1467648,0.786921359 C29.1676609,0.624989926 29.3175732,0.5 29.5084792,0.5 L36.4992412,0.5 C36.6901472,0.5 36.8400595,0.624989926 36.8596875,0.77772927 L37.525078,5.29192136 L37.5670766,5.57681445 L37.8345762,5.68345383 C38.83912,6.08391783 39.7810717,6.61737774 40.6737799,7.28533791 L40.8963457,7.45187059 L45.5070124,5.65072512 C45.6693559,5.59358106 45.8756801,5.66199951 45.9550569,5.80355273 L49.4567173,11.6964284 C49.5402234,11.8456677 49.504671,12.0307841 49.372296,12.132439 L45.6864944,14.9360439 L45.4564367,15.1110377 L45.4932785,15.3977293 C45.5729257,16.0175195 45.6115388,16.5057924 45.6115388,17 C45.6115388,17.4942076 45.5729257,17.9824805 45.4932785,18.6022707 Z M33.0038602,23.45 C29.3577237,23.45 26.3869435,20.5602856 26.3869435,17 C26.3869435,13.4397144 29.3577237,10.55 33.0038602,10.55 C36.6499967,10.55 39.6207769,13.4397144 39.6207769,17 C39.6207769,20.5602856 36.6499967,23.45 33.0038602,23.45 Z"></path>
                </g>
            </g>
        </g>
    </g>
</svg>
