<?xml version="1.0" encoding="UTF-8"?>
<svg width="20px" height="20px" viewBox="0 0 20 20" version="1.1" xmlns="http://www.w3.org/2000/svg" xmlns:xlink="http://www.w3.org/1999/xlink">
    <defs>
        <polygon id="path-1" points="19.9944443 0.0288504464 2.77220094e-05 0.0288504464 2.77220093e-05 19.5405415 19.9944443 19.5405415 19.9944443 0.0288504464"></polygon>
    </defs>
    <g id="Page-1" stroke="none" stroke-width="1" fill="none" fill-rule="evenodd">
        <g id="main0-uanvailable" transform="translate(-364.000000, -427.000000)">
            <g id="Page-1-Copy" transform="translate(364.000000, 427.000000)">
                <g id="Group-3" transform="translate(0.000000, 0.073456)">
                    <mask id="mask-2" fill="white">
                        <use xlink:href="#path-1"></use>
                    </mask>
                    <g id="Clip-2"></g>
                    <path d="M4.44044792,11.7206371 C4.45555208,11.7397684 4.47055208,11.7588997 4.48565625,11.7781334 C4.87107292,11.7781334 5.25638542,11.7784403 5.64169792,11.7775195 C5.67773958,11.7774172 5.71263542,11.7637081 5.70888542,11.7194094 C5.70461458,11.6695861 5.66409375,11.6481017 5.62180208,11.6363365 C5.45836458,11.5905032 5.41555208,11.471623 5.41565625,11.3220508 C5.41628125,10.3932096 5.41565625,9.4644708 5.41638542,8.53562965 C5.41648958,8.41132719 5.44315625,8.29878999 5.56898958,8.23300688 C5.62919792,8.20149647 5.75534375,8.21356864 5.70857292,8.09796224 C5.67305208,8.01018322 5.56930208,8.05284505 5.49669792,8.05264044 C4.45555208,8.05018508 3.41440625,8.05090123 2.37326042,8.05100353 C2.32992708,8.05100353 2.28659375,8.05141276 2.24315625,8.05151507 C2.19732292,8.05171968 2.15409375,8.06072266 2.14357292,8.11167132 C2.13305208,8.16221075 2.16367708,8.19372117 2.21096875,8.20303106 C2.45409375,8.25111514 2.45503125,8.43475539 2.45503125,8.61911179 C2.45523958,9.48830822 2.45419792,10.3575047 2.45596875,11.2265988 C2.45628125,11.4139221 2.44940625,11.5905032 2.21555208,11.6494317 C2.18992708,11.655877 2.16117708,11.6939351 2.15534375,11.7216602 C2.14680208,11.7621735 2.18440625,11.778338 2.22159375,11.7784403 C2.60753125,11.7790541 2.99336458,11.7787472 3.37930208,11.7787472 L3.42919792,11.7116341 C3.16461458,11.6223205 3.07669792,11.4492178 3.07909375,11.2051144 C3.08773958,10.3275288 3.08815625,9.44973865 3.07773958,8.57225539 C3.07534375,8.37224609 3.15398958,8.32344587 3.33680208,8.32712891 C3.72701042,8.33510882 4.11794792,8.33868955 4.50784375,8.32569661 C4.71919792,8.31863746 4.79659375,8.38104446 4.79326042,8.5989574 C4.78138542,9.36564267 4.79076042,10.1327372 4.78753125,10.8995247 C4.78617708,11.2108436 4.88544792,11.5611412 4.44044792,11.7206371 L4.44044792,11.7206371 Z M14.2993021,9.48196522 C14.2916979,9.76627511 14.3512812,10.2442513 14.5149271,10.7089276 C14.8637812,11.6987435 16.0787812,12.1121642 16.9698229,11.5406799 C17.4621146,11.2249619 17.6745104,10.7451442 17.7921146,10.2037379 C17.9612812,9.42487816 17.5890937,8.54227958 16.9012812,8.1864574 C16.4472187,7.95156157 15.9669062,7.92301804 15.5102396,8.18686663 C15.0899271,8.42964007 14.9752396,8.83446708 14.9761771,9.28359282 C14.9763854,9.36533575 14.9612812,9.49250279 15.0621146,9.49587891 C15.1709687,9.49945964 15.1422187,9.37106492 15.1532604,9.29249349 C15.1972187,8.97718471 15.2479479,8.6645359 15.5304479,8.45327288 C15.9789896,8.11811663 16.6356562,8.34677176 16.8850312,8.93339751 C17.1418021,9.53700614 17.1741979,10.1575977 16.9802396,10.7835091 C16.8979479,11.0488923 16.7627396,11.2849135 16.4866979,11.4100344 C16.1177396,11.5772033 15.6529479,11.4278358 15.3558646,11.0232134 C14.7621146,10.2144801 14.5675312,9.30395182 14.7334687,8.33244885 C14.8493021,7.65436105 15.2499271,7.11704706 16.1475312,7.16993955 C16.4350312,7.18692243 16.7213854,7.15837891 17.0006562,7.09310733 C17.3014896,7.02292504 17.5459687,6.87406901 17.6419062,6.56039714 C17.6564896,6.51272228 17.6828437,6.45604446 17.6314896,6.4192141 C17.5908646,6.39005673 17.5523229,6.4239202 17.5177396,6.45164528 C17.3590937,6.57881231 17.1704479,6.59119141 16.9762812,6.59047526 C16.6552396,6.58924758 16.3337812,6.58566685 16.0130521,6.59743211 C15.4245104,6.61912109 15.0008646,6.90609096 14.7143021,7.40258464 C14.3779479,7.98542504 14.3129479,8.62555711 14.2993021,9.48196522 L14.2993021,9.48196522 Z M10.2697188,11.7600251 C10.2900313,11.7370061 10.3103438,11.7139872 10.3306563,11.6908659 C9.88419792,11.6158752 9.94346875,11.3075233 9.94346875,11.0266918 C9.94336458,10.5066676 9.94326042,9.98664342 9.94357292,9.46651693 C9.94357292,9.35571894 9.94273958,9.24481864 9.94648958,9.13412295 C9.94826042,9.08399275 9.95201042,9.02557571 10.0140938,9.01002511 C10.0762813,8.9942699 10.1057604,9.04153553 10.1283646,9.08828962 C10.1620104,9.15744885 10.1943021,9.22722191 10.2252396,9.29760882 C10.5584688,10.0550865 10.8896146,10.8135872 11.2271146,11.5692234 C11.2588854,11.6403265 11.2528438,11.7601274 11.3643021,11.7652427 C11.4813854,11.770665 11.4751354,11.6527055 11.5087813,11.5799656 C11.8744063,10.7898521 12.2382604,9.99902251 12.6049271,9.20931827 C12.6344063,9.1457859 12.6460729,9.04174014 12.7529479,9.06782831 C12.8400313,9.08910807 12.8186771,9.17831938 12.8187813,9.24205636 C12.8206563,9.93252325 12.8205521,10.6230924 12.8188854,11.3136616 C12.8185729,11.4498317 12.7728438,11.5647219 12.6329479,11.6222182 C12.5794063,11.6442141 12.4994063,11.6515802 12.5233646,11.7337323 C12.5407604,11.793377 12.6089896,11.7798726 12.6591979,11.7800772 C12.9715938,11.7811003 13.2840938,11.780998 13.5965938,11.7800772 C13.6465938,11.7798726 13.7126354,11.7954232 13.7320104,11.7347554 C13.7509688,11.6756222 13.7031563,11.6447256 13.6479479,11.6290727 C13.4705521,11.5785333 13.4426354,11.443284 13.4428438,11.2875735 C13.4440938,10.3838997 13.4439896,9.480226 13.4429479,8.57655227 C13.4427396,8.41091797 13.4778438,8.27065569 13.6629479,8.21510324 C13.7131563,8.20006417 13.7724271,8.18052362 13.7579479,8.11555897 C13.7404479,8.03749907 13.6666979,8.05151507 13.6079479,8.05120815 C13.4169063,8.05018508 13.2256563,8.05785807 13.0351354,8.0489574 C12.8830521,8.04179594 12.7935729,8.10184989 12.7338854,8.23720145 C12.5961771,8.54944103 12.4499271,8.85809989 12.3071146,9.16829334 C12.1035729,9.61025763 11.8997188,10.0521196 11.6969063,10.4944931 C11.6681563,10.557207 11.6450313,10.6320954 11.5653438,10.6377223 C11.4785729,10.6437584 11.4646146,10.5566955 11.4304479,10.5015523 C11.4036771,10.4582766 11.3871146,10.4088625 11.3657604,10.3623131 C11.0456563,9.66407087 10.7270104,8.96511254 10.4035729,8.26830264 C10.3591979,8.17285063 10.3297188,8.05161737 10.1800313,8.05192429 C9.68523958,8.05315197 9.19044792,8.04865048 8.69576042,8.05397042 C8.56732292,8.05530041 8.51044792,8.12722191 8.61503125,8.23116536 C8.73159375,8.34697638 8.70023958,8.46892578 8.64701042,8.58555525 C8.41992708,9.08256045 8.18523958,9.57608724 7.95305208,10.0708417 C7.92471875,10.1312026 7.90971875,10.2120247 7.82273958,10.2108994 C7.73732292,10.2098763 7.71992708,10.1269057 7.69190625,10.0691025 C7.43878125,9.54662295 7.18711458,9.02342727 6.93971875,8.49828776 C6.89242708,8.39772042 6.85044792,8.28426246 6.99055208,8.21090867 C7.04055208,8.18471819 7.08284375,8.15648158 7.05242708,8.09448382 C7.03013542,8.0488551 6.98065625,8.05223121 6.93836458,8.05212891 C6.63451042,8.05131045 6.33076042,8.05131045 6.02690625,8.05253813 C5.97565625,8.05274275 5.91742708,8.05192429 5.89982292,8.11555897 C5.88273958,8.17694289 5.92430208,8.20732794 5.97315625,8.23351842 C6.14221875,8.3239574 6.23346875,8.47721261 6.31378125,8.64039156 C6.52846875,9.07713821 6.74638542,9.51235026 6.96055208,9.94940383 C7.12211458,10.2789332 7.28638542,10.6075419 7.43680208,10.9420843 C7.53180208,11.1534496 7.39273958,11.3253246 7.27867708,11.4768406 C7.17753125,11.6111691 7.02794792,11.5472275 6.90086458,11.4785798 C6.85534375,11.4539239 6.80565625,11.4167866 6.75888542,11.4554585 C6.71180208,11.4945396 6.74909375,11.5505013 6.75669792,11.5989946 C6.77669792,11.726264 6.84253125,11.7791564 6.98336458,11.7889779 C7.39128125,11.8176237 7.56878125,11.5703488 7.71409375,11.2551423 C8.13576042,10.3405218 8.56211458,9.42784505 8.99378125,8.5176237 C9.08273958,8.32999349 9.23378125,8.18604818 9.46596875,8.23495071 C9.70503125,8.28528553 9.68190625,8.49491164 9.68284375,8.67036737 C9.68690625,9.3864109 9.69128125,10.102659 9.68169792,10.8186003 C9.67721875,11.155598 9.81867708,11.5526497 9.35857292,11.7600251 L10.2697188,11.7600251 Z M10.0179479,0.0297609747 C15.3982604,-0.0240522693 20.0097188,4.37124163 19.9944063,9.79195406 C19.9791979,15.1995712 15.4665938,19.543098 9.99263542,19.5405404 C4.45721875,19.5379827 -0.00455208333,15.0393592 3.125e-05,9.75737444 C0.00451041667,4.475492 4.57878125,-0.045843564 10.0179479,0.0297609747 L10.0179479,0.0297609747 Z" id="Fill-1" fill="#AEAEAE" mask="url(#mask-2)"></path>
                </g>
                <path d="M10.2697604,11.8335221 L9.35861458,11.8335221 C9.81861458,11.6261468 9.67726042,11.2290951 9.68173958,10.8920973 C9.69121875,10.1760538 9.68684375,9.45990792 9.68288542,8.74376209 C9.68184375,8.56840867 9.70496875,8.35878255 9.46601042,8.30844773 C9.23382292,8.2595452 9.08278125,8.40349051 8.99382292,8.59112072 C8.56215625,9.50123977 8.13580208,10.4139165 7.71403125,11.3286393 C7.56871875,11.6437435 7.39132292,11.8910184 6.98340625,11.8624749 C6.84246875,11.8525512 6.77673958,11.799761 6.75673958,11.6724916 C6.74913542,11.6239983 6.71184375,11.5680366 6.75892708,11.5289555 C6.80559375,11.4901814 6.85538542,11.5274209 6.90090625,11.5519745 C7.02798958,11.6207245 7.17746875,11.6846661 7.27861458,11.5503376 C7.39267708,11.3988216 7.53184375,11.2268443 7.43684375,11.015479 C7.28642708,10.6809366 7.12205208,10.3524302 6.96048958,10.0227985 C6.74642708,9.58584728 6.52851042,9.15063523 6.31371875,8.71388858 C6.23351042,8.55060733 6.14215625,8.39745443 5.97319792,8.30691313 C5.92434375,8.28082496 5.88278125,8.25043992 5.89976042,8.18895368 C5.91746875,8.12542132 5.97559375,8.12623977 6.02694792,8.12603516 C6.33069792,8.12470517 6.63455208,8.12480748 6.93830208,8.12562593 C6.98069792,8.12572824 7.03007292,8.12224981 7.05246875,8.16798084 C7.08278125,8.2298763 7.04059375,8.25821522 6.99048958,8.28440569 C6.85048958,8.35775949 6.89236458,8.47121745 6.93976042,8.57168248 C7.18715625,9.09682199 7.43882292,9.62001767 7.69184375,10.1424972 C7.71986458,10.2004027 7.73736458,10.283271 7.82278125,10.2843964 C7.90976042,10.2854195 7.92476042,10.2046996 7.95309375,10.1442364 C8.18528125,9.64958426 8.41996875,9.15595517 8.64694792,8.65905227 C8.70028125,8.54242281 8.73153125,8.42037109 8.61496875,8.30456008 C8.51048958,8.20071894 8.56726042,8.12869513 8.69569792,8.12736514 C9.19038542,8.12214751 9.68528125,8.12654669 10.1799687,8.12542132 C10.3297604,8.1251144 10.3592396,8.24634766 10.4035104,8.34179967 C10.7270521,9.03850725 11.0456979,9.73746559 11.3658021,10.4358101 C11.3871562,10.4823596 11.4037187,10.5316713 11.4304896,10.5750493 C11.4645521,10.6301925 11.4786146,10.7172554 11.5653854,10.711117 C11.6450729,10.7055924 11.6680937,10.6307041 11.6969479,10.5678878 C11.8996562,10.1256166 12.1035104,9.68375465 12.3070521,9.24168806 C12.4498646,8.93159691 12.5962187,8.62293806 12.7339271,8.31059617 C12.7935104,8.17524461 12.8829896,8.11529297 13.0351771,8.12235212 C13.2256979,8.13125279 13.4169479,8.1235798 13.6078854,8.12470517 C13.6667396,8.12501209 13.7403854,8.11099609 13.7578854,8.18905599 C13.7724687,8.25391834 13.7130937,8.2735612 13.6628854,8.28860026 C13.4778854,8.34405041 13.4426771,8.48441499 13.4428854,8.64994699 C13.4440312,9.55362072 13.4440312,10.4572945 13.4428854,11.3609682 C13.4426771,11.5167811 13.4705937,11.6520303 13.6478854,11.7024674 C13.7031979,11.7182227 13.7510104,11.7490169 13.7320521,11.8082524 C13.7125729,11.8688179 13.6466354,11.8533696 13.5966354,11.8534719 C13.2841354,11.8543927 12.9716354,11.854495 12.6591354,11.8535742 C12.6089271,11.8533696 12.5408021,11.8667718 12.5234062,11.8072294 C12.4994479,11.7249749 12.5793437,11.7177111 12.6329896,11.6956129 C12.7727812,11.6381166 12.8186146,11.5232264 12.8189271,11.3870564 C12.8205937,10.6965895 12.8205937,10.0060203 12.8188229,9.31545108 C12.8186146,9.2517141 12.8400729,9.16250279 12.7529896,9.14132533 C12.6460104,9.11523717 12.6344479,9.21928292 12.6049687,9.28281529 C12.2383021,10.0724172 11.8744479,10.8633491 11.5088229,11.6534626 C11.4751771,11.7262026 11.4813229,11.844162 11.3643437,11.8387398 C11.2528854,11.8335221 11.2588229,11.7137212 11.2271562,11.6427204 C10.8896562,10.886982 10.5585104,10.1285835 10.2252812,9.37100353 C10.1943437,9.30061663 10.1619479,9.23084356 10.1284062,9.16168434 C10.1056979,9.11503255 10.0763229,9.06776693 10.0141354,9.08341983 C9.95205208,9.09907273 9.94819792,9.15748977 9.94653125,9.20761998 C9.94278125,9.31831566 9.94361458,9.42921596 9.94351042,9.54001395 C9.94330208,10.0600381 9.94340625,10.5800623 9.94340625,11.1000865 C9.94351042,11.380918 9.88423958,11.6892699 10.3306979,11.7643629 C10.3103854,11.7873819 10.2900729,11.8105032 10.2697604,11.8335221" id="Fill-4" fill="#FDFEFD"></path>
                <path d="M14.2992917,9.55544178 C14.3129375,8.69893136 14.3779375,8.0589016 14.7142917,7.4760612 C15.0008542,6.97946522 15.4245,6.69249535 16.0130417,6.67090867 C16.3337708,6.65914342 16.6552292,6.66272414 16.9762708,6.66384952 C17.1704375,6.66456566 17.3590833,6.65228888 17.5178333,6.52512184 C17.5524167,6.49739676 17.5908542,6.4635333 17.6314792,6.49258836 C17.6828333,6.52952102 17.6564792,6.58609654 17.6418958,6.63377139 C17.5459583,6.94744327 17.3015833,7.0964016 17.0006458,7.16658389 C16.721375,7.23175316 16.4350208,7.26029669 16.1475208,7.24341611 C15.2499167,7.19052362 14.8492917,7.72773531 14.7334583,8.40592541 C14.5675208,9.37732608 14.7621042,10.2879567 15.3558542,11.0965876 C15.6529375,11.5013123 16.1177292,11.6506799 16.4866875,11.4834087 C16.7627292,11.3583901 16.8979375,11.1223689 16.9802292,10.8569857 C17.1741875,10.2310742 17.1417917,9.61038039 16.885125,9.00677176 C16.6356458,8.42024833 15.9789792,8.19159319 15.5305417,8.52674944 C15.2479375,8.73791016 15.1972083,9.05055897 15.15325,9.36586775 C15.1422083,9.44454148 15.1709583,9.5729362 15.0621042,9.56925316 C14.9612708,9.56587705 14.976375,9.43881231 14.9761667,9.35696708 C14.9752292,8.90794364 15.0899167,8.50311663 15.5102292,8.26034319 C15.9668958,7.99649461 16.4472083,8.02503813 16.9012708,8.25993397 C17.5890833,8.61575614 17.9612708,9.49835472 17.7921042,10.2772145 C17.6745,10.8186207 17.4621042,11.2983361 16.9698125,11.6141564 C16.0787708,12.1856408 14.8637708,11.7722201 14.5149167,10.7823019 C14.3512708,10.3177279 14.2916875,9.83975167 14.2992917,9.55544178" id="Fill-6" fill="#FDFEFD"></path>
                <path d="M4.44044792,11.7940932 C4.88544792,11.6345973 4.78617708,11.2842997 4.78753125,10.9729808 C4.79076042,10.2061933 4.78138542,9.43909877 4.79326042,8.6724135 C4.79659375,8.45450056 4.71919792,8.39209356 4.50784375,8.39915272 C4.11794792,8.41214565 3.72701042,8.40856492 3.33680208,8.40058501 C3.15398958,8.39690197 3.07534375,8.44570219 3.07773958,8.6457115 C3.08815625,9.52319475 3.08773958,10.4009849 3.07909375,11.2785705 C3.07669792,11.5226739 3.16461458,11.6957766 3.42919792,11.7850902 L3.37930208,11.8522033 C2.99336458,11.8522033 2.60753125,11.8525102 2.22159375,11.8518964 C2.18440625,11.8517941 2.14680208,11.8356297 2.15534375,11.7951163 C2.16117708,11.7673912 2.18992708,11.7293331 2.21555208,11.7228878 C2.44940625,11.6639593 2.45628125,11.4873782 2.45596875,11.3000549 C2.45419792,10.4309608 2.45523958,9.56176432 2.45503125,8.69256789 C2.45503125,8.5082115 2.45409375,8.32457124 2.21096875,8.27648717 C2.16367708,8.26717727 2.13305208,8.23566685 2.14357292,8.18512742 C2.15409375,8.13417876 2.19732292,8.12517578 2.24315625,8.12497117 C2.28659375,8.12486886 2.32992708,8.12445964 2.37326042,8.12445964 C3.41440625,8.12435733 4.45555208,8.12364118 5.49669792,8.12609654 C5.56930208,8.12630115 5.67305208,8.08363932 5.70857292,8.17141834 C5.75534375,8.28702474 5.62919792,8.27495257 5.56898958,8.30646298 C5.44315625,8.37224609 5.41648958,8.4847833 5.41638542,8.60908575 C5.41565625,9.5379269 5.41628125,10.4666657 5.41565625,11.3955069 C5.41555208,11.5450791 5.45836458,11.6639593 5.62180208,11.7097926 C5.66409375,11.7215578 5.70461458,11.7430422 5.70888542,11.7928655 C5.71263542,11.8371642 5.67773958,11.8508733 5.64169792,11.8509756 C5.25638542,11.8518964 4.87107292,11.8515895 4.48565625,11.8515895 C4.47055208,11.8323558 4.45555208,11.8132245 4.44044792,11.7940932" id="Fill-8" fill="#FDFEFD"></path>
            </g>
        </g>
    </g>
</svg>