<svg width="20" height="20" viewBox="0 0 20 20" xmlns="http://www.w3.org/2000/svg" xmlns:xlink="http://www.w3.org/1999/xlink"><title>Page 1</title><defs><path id="a" d="M19.994.03H0v19.51h19.994V.03z"/></defs><g fill="none" fill-rule="evenodd"><g transform="translate(0 .073)"><mask id="b" fill="#fff"><use xlink:href="#a"/></mask><path d="M4.44 11.72c.016.02.03.04.046.058h1.156c.036 0 .07-.014.067-.06-.005-.048-.046-.07-.088-.082-.164-.045-.206-.164-.206-.314V8.536c0-.125.027-.237.153-.303.06-.032.185-.02.14-.135-.037-.088-.14-.045-.213-.045-1.04-.003-2.083-.002-3.124-.002-.043 0-.086 0-.13.002-.046 0-.09.01-.1.06-.01.05.02.082.068.09.244.05.245.233.245.417v2.607c0 .187-.006.364-.24.422-.025.006-.054.044-.06.072-.008.04.03.056.067.056H3.38l.05-.066c-.265-.09-.353-.263-.35-.507.008-.877.008-1.755-.002-2.633-.003-.2.076-.25.26-.245.39.008.78.012 1.17 0 .21-.008.29.054.285.272-.012.766-.002 1.533-.005 2.3-.002.31.097.66-.348.82zm9.86-2.238c-.008.284.05.762.215 1.227.35.99 1.564 1.402 2.455.83.492-.315.705-.795.822-1.336.17-.78-.203-1.662-.89-2.018-.455-.234-.935-.263-1.392 0-.42.244-.535.648-.534 1.098 0 .08-.015.21.086.212.11.003.08-.125.09-.204.045-.315.096-.627.378-.84.45-.334 1.106-.105 1.355.48.257.605.29 1.226.095 1.852-.082.265-.217.5-.493.626-.37.167-.834.018-1.13-.387-.595-.81-.79-1.72-.624-2.69.116-.68.517-1.216 1.415-1.163.287.017.573-.012.853-.077.3-.07.546-.22.642-.533.014-.047.04-.104-.01-.14-.04-.03-.08.004-.114.032-.16.127-.348.14-.542.138-.32 0-.642-.004-.963.007-.588.022-1.012.31-1.3.806-.335.582-.4 1.223-.414 2.08zm-4.03 2.278l.06-.07c-.446-.074-.387-.382-.387-.663v-1.56c0-.11 0-.222.003-.333.002-.05.006-.108.068-.124.062-.016.092.032.114.078.034.07.066.14.097.21.333.757.665 1.516 1.002 2.27.032.072.026.192.137.197.117.006.11-.112.145-.185.364-.79.728-1.58 1.095-2.37.03-.064.04-.168.148-.142.087.02.066.11.066.174v2.072c0 .136-.047.25-.187.308-.054.022-.134.03-.11.112.018.06.086.046.136.046h.937c.05 0 .116.015.135-.045.02-.06-.03-.09-.084-.106-.177-.05-.205-.187-.205-.342v-2.71c0-.167.035-.307.22-.363.05-.015.11-.034.095-.1-.018-.078-.09-.063-.15-.064-.19 0-.382.008-.573 0-.152-.008-.24.052-.3.187-.14.312-.285.62-.428.93l-.61 1.327c-.03.063-.052.138-.132.144-.086.006-.1-.08-.135-.136-.026-.044-.043-.093-.064-.14-.32-.698-.64-1.397-.962-2.094-.045-.095-.074-.216-.224-.216-.495 0-.99-.003-1.484.002-.13 0-.186.073-.08.177.116.117.084.24.03.356-.226.497-.46.99-.693 1.485-.028.06-.043.142-.13.14-.086 0-.103-.083-.13-.14-.254-.523-.506-1.047-.753-1.572-.048-.1-.09-.214.05-.287.05-.025.093-.054.062-.116-.022-.045-.07-.042-.114-.042h-.91c-.052 0-.11 0-.128.064-.017.06.024.09.073.118.17.09.26.243.34.406.215.437.433.872.648 1.31.162.33.326.658.477.992.095.21-.044.383-.158.535-.102.134-.252.07-.38.002-.045-.026-.094-.063-.14-.025-.048.04-.01.096-.003.144.02.126.086.18.226.19.408.028.586-.22.73-.535.423-.914.85-1.827 1.28-2.737.09-.188.24-.332.473-.283.24.05.216.26.217.435.004.716.008 1.433 0 2.15-.006.336.136.733-.324.94h.91zM10.018.03c5.38-.054 9.992 4.34 9.976 9.762-.015 5.408-4.527 9.75-10 9.75-5.537-.004-10-4.503-9.994-9.785C.005 4.475 4.58-.046 10.018.03z" fill="#F82235" mask="url(#b)"/></g><path d="M10.27 11.834h-.91c.46-.208.317-.605.322-.942.01-.716.005-1.432 0-2.148 0-.176.023-.385-.216-.436-.232-.048-.383.095-.472.283-.432.91-.858 1.824-1.28 2.74-.145.314-.323.56-.73.532-.142-.01-.207-.062-.227-.19-.008-.048-.045-.104.002-.143.046-.04.095-.003.14.022.128.07.277.133.38-.002.113-.15.252-.323.157-.535-.15-.334-.315-.663-.477-.992-.214-.437-.43-.872-.646-1.31-.08-.162-.172-.316-.34-.406-.05-.026-.09-.057-.074-.118.017-.065.076-.064.127-.064h.91c.044 0 .093-.004.115.042.03.062-.01.09-.062.116-.14.074-.098.187-.05.288.247.525.5 1.048.752 1.57.028.058.045.14.13.142.088 0 .103-.08.13-.14.233-.494.468-.988.695-1.485.053-.118.085-.24-.032-.355-.105-.104-.048-.176.08-.178.495-.005.99 0 1.485-.002.15 0 .18.12.224.217.323.697.642 1.395.962 2.094.02.046.038.096.064.14.035.054.05.14.135.135.08-.004.103-.08.132-.142l.61-1.326c.143-.31.29-.62.427-.93.06-.137.15-.197.3-.19.192.01.383.002.574.003.06 0 .132-.014.15.064.014.064-.045.084-.095.1-.185.054-.22.194-.22.36v2.71c0 .157.028.292.205.342.055.016.103.047.084.106-.02.06-.085.045-.135.045h-.938c-.05 0-.12.014-.137-.046-.024-.082.056-.09.11-.11.14-.06.186-.174.186-.31V9.315c0-.063.02-.152-.067-.174-.107-.025-.12.08-.148.143-.367.79-.73 1.58-1.096 2.37-.035.073-.03.19-.146.186-.11-.006-.105-.126-.137-.197-.337-.756-.668-1.514-1.002-2.272-.03-.07-.063-.14-.097-.208-.022-.047-.052-.094-.114-.08-.062.017-.066.075-.067.126-.004.11-.003.22-.003.332v1.56c0 .28-.06.59.387.664l-.06.07M14.3 9.555c.013-.856.078-1.496.414-2.08.287-.496.71-.783 1.3-.804.32-.01.64-.007.962-.006.194 0 .383-.012.542-.14.034-.027.073-.06.113-.03.053.036.026.092.012.14-.096.313-.34.462-.64.533-.28.065-.567.093-.854.076-.898-.052-1.3.485-1.415 1.163-.165.97.03 1.882.623 2.69.297.405.762.555 1.13.387.277-.125.412-.36.494-.626.194-.626.162-1.247-.095-1.85-.25-.587-.906-.815-1.354-.48-.282.21-.333.524-.377.84-.01.078.018.206-.09.202-.102-.004-.087-.13-.087-.213 0-.45.114-.854.534-1.097.457-.264.937-.235 1.39 0 .69.356 1.06 1.238.892 2.017-.118.542-.33 1.02-.822 1.337-.89.572-2.106.158-2.455-.832-.164-.464-.223-.942-.216-1.227M4.44 11.794c.445-.16.346-.51.348-.82.003-.768-.007-1.535.005-2.302.004-.217-.074-.28-.285-.273-.39.012-.78.01-1.17 0-.184-.003-.263.046-.26.246.01.877.01 1.755 0 2.633 0 .243.087.416.35.505l-.05.067H2.223c-.038 0-.075-.016-.067-.057.006-.028.035-.066.06-.072.234-.06.24-.236.24-.423V8.693c0-.185 0-.368-.244-.417-.046-.01-.077-.04-.066-.09.01-.052.053-.06.1-.06l.13-.002c1.04 0 2.082 0 3.123.002.072 0 .176-.042.212.045.045.117-.08.105-.14.136-.127.066-.154.18-.154.303v2.786c0 .15.042.268.206.314.042.012.083.033.087.083.003.044-.032.058-.068.058-.386.002-.77.002-1.156.002-.015-.02-.03-.04-.046-.058" fill="#FDFEFD"/></g></svg>