<svg width="18" height="18" viewBox="0 0 18 18" xmlns="http://www.w3.org/2000/svg" xmlns:xlink="http://www.w3.org/1999/xlink"><title>Group 5</title><defs><path id="a" d="M0 0h18v18H0z"/><path id="c" d="M17.855 10.505V.025H0v10.48h17.855z"/><path id="e" d="M0 0h18v18H0z"/></defs><g fill="none" fill-rule="evenodd"><g><mask id="b" fill="#fff"><use xlink:href="#a"/></mask><g mask="url(#b)"><path d="M13.808 3.772c.585-.967 1.26-1.934 1.8-2.9.315-.573.675-.837 1.35-.705.135.044.315 0 .54 0-.36.616-.72 1.187-1.125 1.758-.81 1.275-1.62 2.55-2.43 3.87-.09.174-.225.262-.405.262h-1.125c-.135 0-.18-.044-.18-.175 0-.88-.045-1.76-.045-2.638 0-.615-.045-1.23-.045-1.846-.135-.703-.315-.703-.9-1.055-.09-.044-.09-.264 0-.264.765 0 1.44.043 2.25.043.225 0 .225.132.225.264v3.385h.09zM16.013 5.97c.675-1.935 1.305-3.78 1.935-5.627.045-.22.135-.264.36-.264h1.035c.27 0 .27.043.225.263-.45 1.275-.855 2.55-1.305 3.824l-.54 1.583c-.045.175-.135.263-.315.263-.495-.044-.945-.044-1.395-.044" fill="#0C0C6F"/><g transform="translate(11 6.497)"><mask id="d" fill="#fff"><use xlink:href="#c"/></mask><path d="M12.213 10.505c-.9 0-2.025-.35-3.015-1.186-.18-.133-.315-.133-.495 0C6.138 11.34 2.448 10.68.738 7.91c-1.89-3.21.045-7.12 3.6-7.78 1.665-.308 3.15.044 4.455 1.143.135.088.225.088.315 0 .63-.528 1.305-.88 2.115-1.055 1.26-.264 2.475-.176 3.645.395 1.17.572 2.025 1.495 2.565 2.682.45 1.01.54 2.11.27 3.208-.405 1.627-1.395 2.814-2.925 3.56-.675.31-1.395.44-2.565.44" fill="#F90" mask="url(#d)"/></g><path d="M19.973 6.497c2.957 0 5.355 2.362 5.355 5.275 0 2.913-2.398 5.274-5.355 5.274-2.958 0-5.355-2.36-5.355-5.274 0-2.913 2.397-5.275 5.355-5.275" fill="#F90717"/><g fill="#FFF"><path d="M12.92 11.78c.088-.246.386-1.103.453-1.28.013-.037.057-.086.088-.087.252-.007.504-.004.774-.004-.048.286-.3 1.734-.373 2.194-.04.253-.265.38-.496.26-.037-.02-.06-.102-.054-.15.048-.338.232-1.355.177-1.36-.058-.003-.392.93-.553 1.374-.05.135-.13.177-.305.154-.146-.02-.108-.128-.11-.21-.008-.33-.016-1.3-.097-1.3-.05 0-.195 1.098-.245 1.315-.03.132-.082.213-.236.196-.056-.006-.114-.002-.17 0-.096 0-.13-.042-.114-.133.085-.48.166-.958.25-1.437.045-.262.096-.523.138-.785.014-.095.06-.127.153-.124.165.004.33.005.496 0 .1-.004.143.036.144.13.004.36.028 1.19.036 1.245h.043M15.227 11.99c-.15-.016-.3-.036-.442.053-.11.07-.152.242-.086.345.054.087.204.11.32.047.137-.073.227-.26.207-.444m-.046.706c-.062.04-.108.07-.154.097-.317.19-.74.09-.833-.218-.137-.455.06-.844.573-.95.135-.03.277-.026.416-.03.086-.004.163-.02.164-.117.002-.1-.06-.142-.163-.16-.154-.027-.602.01-.756.02.024-.127.048-.256.075-.384.004-.016.025-.037.042-.04.312-.073.627-.145.944-.038.243.08.37.254.36.503-.01.228-.126.922-.15 1.14-.013.107-.065.346-.124.355-.112.017-.296.08-.36-.097l-.033-.082M15.995 12.855c-.093-.02-.118-.073-.104-.165.046-.294.042-.292.34-.248.302.045.508.025.53-.128.027-.17-.136-.262-.337-.338-.32-.12-.395-.376-.315-.704.06-.244.277-.412.586-.434.175-.012.375-.02.547.016.133.028.144.028.087.247-.062.238-.068.24-.32.192-.098-.02-.222-.04-.326.042-.083.066-.06.198.052.264.075.044.157.075.232.12.24.14.33.355.296.614-.032.248-.166.413-.427.495-.196.062-.678.062-.838.028M18.313 12.417c-.016.12-.027.22-.044.317-.006.027-.02.06-.042.077-.172.148-.63.076-.725-.125-.045-.095-.067-.217-.05-.32.084-.57.183-1.138.284-1.705.006-.04.057-.097.092-.1.122-.014.248-.015.37-.003.022.002.06.093.05.134-.03.11-.015.167.114.16.09-.003.118.043.106.125-.008.06-.01.12-.015.18-.01.102-.035.18-.172.185-.093.003-.152.064-.167.165-.035.228-.083.454-.12.68-.022.143.036.208.18.22.04.002.08.007.137.012"/></g></g></g><g><mask id="f" fill="#fff"><use xlink:href="#e"/></mask><g fill="#FC8900" mask="url(#f)"><path d="M10.177 18c-1.02-1.485-1.76-2.25-3.52-2.61-1.017-.18-2.73 0-3.75.135-3.194.315-5.694-.225-8.01-2.655C-6.582 11.34-7 9.405-6.767 7.29c.37-3.24 3.01-6.165 6.528-7.02C4.158-.81 8.464 1.665 9.436 5.85c.556 2.385-.046 4.545-1.528 6.435-.37-.495-.648-1.035-1.065-1.485-.416-.45-.972-.72-1.62-.765.602-.225 1.25-.18 1.852 0 .14-.495.14-.945.14-1.485 0-3.195-1.76-6.12-5.094-6.345-2.407-.18-5.138.855-5.833 3.06-1.204 3.69.74 6.615 3.195 7.65.324.135 1.944.585 2.268.63-.046-.405.278-.99.463-1.44.278.99 1.112 1.665 1.99 1.935.696.225 1.437.27 2.13.405 1.853.36 2.78.855 3.75 2.475.094.135.372.81.464.99-.092.045-.324.09-.37.09z"/><path d="M4.806 13.545c-.51-.09-.833-.27-.972-.675-.093-.27.092-.675.51-.63.462.045.74.18.97.54.233.45-.137.81-.508.765zM6.566 12.015c-.88.135-1.39-.675-1.158-1.08.74-.225 1.39.54 1.158 1.08z"/></g></g></g></svg>
