<?xml version="1.0" encoding="UTF-8"?>
<svg width="20px" height="20px" viewBox="0 0 20 20" version="1.1" xmlns="http://www.w3.org/2000/svg" xmlns:xlink="http://www.w3.org/1999/xlink">
    <g id="Page-1" stroke="none" stroke-width="1" fill="none" fill-rule="evenodd">
        <g id="main0" transform="translate(-54.000000, -403.000000)" fill="#FFFFFF">
            <g id="qiwi-copy" transform="translate(54.000000, 403.000000)">
                <g id="qiwi">
                    <g id="XMLID_282_">
                        <path d="M19.4454318,20 C18.2923344,18.35 17.4537181,17.5 15.4620043,17.1 C14.3089068,16.9 12.3696066,17.1 11.2165091,17.25 C7.5999762,17.6 4.76964609,17 2.14897006,14.3 C0.4717374,12.6 1.57146334e-05,10.45 0.262083317,8.1 C0.681391482,4.5 3.66896215,1.25 7.65238972,0.3 C12.6316742,-0.9 17.5061316,1.85 18.6068155,6.5 C19.2357778,9.15 18.554402,11.55 16.8771693,13.65 C16.4578612,13.1 16.1433801,12.5 15.6716584,12 C15.1999367,11.5 14.5709744,11.2 13.8371851,11.15 C14.5185609,10.9 15.2523502,10.95 15.933726,11.15 C16.0909665,10.6 16.0909665,10.1 16.0909665,9.5 C16.0909665,5.95 14.0992527,2.7 10.3254793,2.45 C7.5999762,2.25 4.50757848,3.4 3.72137568,5.85 C2.35862414,9.95 4.559992,13.2 7.33790859,14.35 C7.70480324,14.5 9.53927646,15 9.9061711,15.05 C9.85375758,14.6 10.2206522,13.95 10.4303063,13.45 C10.7447874,14.55 11.6882308,15.3 12.6840877,15.6 C13.4702905,15.85 14.3089068,15.9 15.0951096,16.05 C17.1916505,16.45 18.2399209,17 19.3406048,18.8 C19.4454318,18.95 19.759913,19.7 19.86474,19.9 C19.759913,19.95 19.4978454,20 19.4454318,20 L19.4454318,20 Z" id="XMLID_285_"></path>
                        <path d="M13.3654635,15.05 C12.7889147,14.95 12.4220201,14.75 12.2647795,14.3 C12.1599525,14 12.3696066,13.55 12.8413283,13.6 C13.3654635,13.65 13.6799446,13.8 13.9420122,14.2 C14.2040798,14.7 13.7847716,15.1 13.3654635,15.05 L13.3654635,15.05 Z" id="XMLID_284_"></path>
                        <path d="M15.3571772,13.35 C14.3613204,13.5 13.7847716,12.6 14.0468392,12.15 C14.8854556,11.9 15.6192448,12.75 15.3571772,13.35 L15.3571772,13.35 Z" id="XMLID_283_"></path>
                    </g>
                </g>
            </g>
        </g>
    </g>
</svg>
