<svg width="35" height="35" viewBox="0 0 35 35" xmlns="http://www.w3.org/2000/svg">
  <path d="M26.042 35c-.875-.296-1.802-.496-2.615-.903-3.807-1.907-5.128-6.07-3.15-9.747 1.053-1.96.187-3.99-1.932-4.522-1.43-.36-2.84.18-3.712 1.49-1.255 1.88-3.02 3.034-5.304 3.476-4.312.836-8.554-1.963-9.243-6.09-.654-3.923 2.445-7.682 6.778-8.144 3.226-.345 5.787.79 7.63 3.336.9 1.24 2.116 1.782 3.505 1.52 2.21-.42 3.31-2.547 2.217-4.42-.947-1.623-1.348-3.303-.972-5.14.74-3.614 4.533-6.236 8.423-5.81 4.21.46 7.187 3.583 7.072 7.42-.112 3.732-3.3 6.753-7.327 6.984-.59.034-1.208.127-1.748.34-1.285.51-2 1.77-1.838 3.05.167 1.317 1.194 2.392 2.57 2.616.755.123 1.537.106 2.29.244 3.748.693 6.33 3.633 6.313 7.145-.017 3.433-2.685 6.364-6.392 7.026-.137.026-.266.086-.4.13h-2.166z"
    fill="#8d8d8d" fill-rule="evenodd" />
</svg>