<svg xmlns="http://www.w3.org/2000/svg" width="24" height="24" viewBox="0 0 24 24">
  <g fill="none" fill-rule="evenodd">
    <circle cx="12" cy="12" r="12" fill="#1469EB"/>
    <path fill="#FFF" d="M10.7239324,11.1919453 C12.1258222,11.1919453 13.5067826,11.2619915 14.8785685,11.1727129 C16.316392,11.0790818 17.2158798,9.94983953 17.2159754,8.44425064 C17.216071,6.93775076 16.316392,5.81417696 14.8809577,5.71305532 C13.5510307,5.61932295 12.2119292,5.67125028 10.8768415,5.66224145 C10.8340269,5.662039 10.7911168,5.69766945 10.7239324,5.72722652 L10.7239324,11.1919453 Z M7.99498257,17.7146454 C7.19851724,17.7146454 6.4543277,17.7150503 5.7100426,17.7146454 C5.05176888,17.7142405 5.00704296,17.6673744 5.00427148,16.9744026 C5.00274239,16.6032184 5.00904989,16.2320341 5.00130887,15.8609511 C4.99318557,15.4739761 5.16272355,15.3208259 5.52626496,15.3274054 C6.32167905,15.3419815 7.11737984,15.3318592 7.95436609,15.3318592 L7.95436609,13.867468 C7.18943826,13.867468 6.42986225,13.8697962 5.6703818,13.8666583 C5.04498354,13.8642289 5.00379364,13.8175652 5.00216898,13.1385622 C5.00111773,12.6830593 5.01373274,12.2272527 5.00054432,11.772256 C4.98926728,11.3833577 5.1529756,11.2179596 5.51393667,11.2265635 C5.92774695,11.2362809 6.34203507,11.2282843 6.75603649,11.2280819 C7.15101984,11.2279806 7.54600319,11.2280819 7.99440916,11.2280819 L7.99440916,10.6366367 C7.99479143,8.30871323 8.00281916,5.9807898 7.98886621,3.65296759 C7.9861903,3.2023234 8.13393873,2.99532264 8.5637089,3.00008012 C10.8244701,3.02467727 13.0880984,2.97436951 15.345228,3.08095719 C18.1467141,3.21325547 20.1548885,5.68805328 19.9906068,8.65266852 C19.8136145,11.8461487 17.8268473,13.8145285 14.7127577,13.8636216 C13.5663216,13.8817405 12.4195033,13.8672656 11.2727805,13.8675693 C11.1013312,13.8676705 10.9298818,13.8675693 10.7279462,13.8675693 L10.7279462,15.3061486 C10.8927058,15.3148538 11.0461883,15.329936 11.1997664,15.3300372 C12.9198028,15.3309482 14.6398392,15.3282152 16.3598755,15.3296323 C16.9300354,15.3301384 16.9861339,15.3932003 16.9894788,15.9980069 C16.9912946,16.3521857 16.9913902,16.7064657 16.9894788,17.0607457 C16.9862295,17.6437894 16.9177071,17.7132283 16.3465915,17.7134308 C14.6583794,17.7141393 12.9701672,17.7142405 11.2819551,17.7145442 L10.6966954,17.7145442 C10.6966954,18.4507381 10.7005182,19.1367255 10.6956442,19.8225104 C10.691248,20.4328842 10.6325692,20.4934155 10.0660409,20.4973632 C9.58829551,20.5006023 9.11045454,20.5011084 8.63270913,20.4974644 C8.05299246,20.4929094 7.99737178,20.434605 7.99555598,19.8351632 C7.99335791,19.14786 7.99498257,18.4605567 7.99498257,17.7146454 L7.99498257,17.7146454 Z"/>
  </g>
</svg>
