<?xml version="1.0" encoding="UTF-8"?>
<svg width="35px" height="35px" viewBox="0 0 35 35" version="1.1" xmlns="http://www.w3.org/2000/svg" xmlns:xlink="http://www.w3.org/1999/xlink">
    <!-- Generator: Sketch 47.1 (45422) - http://www.bohemiancoding.com/sketch -->
    <title>sberbank</title>
    <desc>Created with Sketch.</desc>
    <defs>
        <polygon id="path-1" points="7.6722862e-16 17.5593138 7.6722862e-16 0.0162306889 23.5454385 0.0162306889 23.5454385 17.5593138"></polygon>
    </defs>
    <g id="Page-1" stroke="none" stroke-width="1" fill="none" fill-rule="evenodd">
        <g id="sberbank">
            <g id="Group">
                <circle id="Oval-3" fill="#269F34" cx="17.5" cy="17.5" r="17.5"></circle>
                <g id="Page-1" transform="translate(5.727273, 5.090909)">
                    <g id="Group-3" transform="translate(0.000000, 6.867424)">
                        <mask id="mask-2" fill="white">
                            <use xlink:href="#path-1"></use>
                        </mask>
                        <g id="Clip-2"></g>
                        <path d="M3.12113164,13.7667154 C2.59283891,13.0244836 2.02640255,12.3047517 1.56275891,11.5217928 C0.667224364,10.0096214 0.168397091,8.35076623 0.0397043636,6.58575392 C-0.00146654545,6.02238678 0.009768,5.45494694 1.34545455e-05,4.88930976 C-0.000861090909,4.84023713 0.0202625455,4.79083068 0.0416552727,4.69395396 C0.345122545,4.86881276 0.626726182,5.02791491 0.905504364,5.19215799 C2.55590618,6.16433019 4.20543345,7.1378377 5.85563345,8.11054402 C6.22307709,8.32713125 6.58547527,8.55400036 6.96341345,8.74982352 C7.067148,8.8036365 7.245488,8.81204895 7.34343709,8.75643331 C8.18212618,8.28046218 9.01206982,7.78820027 9.84073527,7.2941357 C10.3926407,6.9651154 10.9332444,6.61606545 11.4879753,6.29218609 C12.2978716,5.81928618 13.1178589,5.36434618 13.9300425,4.89545219 C14.6348589,4.4886501 15.337388,4.07757502 16.0342662,3.65675218 C16.1450644,3.58985317 17.3025589,2.90250252 17.7838953,2.63056671 C18.4801007,2.23711772 19.1613044,1.81616135 19.8511189,1.4108281 C20.630608,0.952683354 21.5626181,0.47827009 22.3897363,-0.00437758664 C22.5741308,0.431400721 22.7949664,0.970128244 22.9067531,1.4108281 C23.2988087,2.95644106 23.6013716,4.37621703 23.5351753,5.99407821 C23.4368898,8.39730177 22.7093353,10.5922838 21.3249298,12.54464 C20.9445698,13.0810339 20.5190025,13.5860481 20.0896007,14.0833841 C19.8446607,14.3670039 19.5501407,14.605824 19.2777535,14.8648741 C19.0143135,15.0436053 18.7407153,15.2254077 18.472028,15.4146211 C16.7079353,16.6569932 14.7622735,17.3659759 12.6209153,17.5258792 C10.4332062,17.6891876 8.36800073,17.2526748 6.41312255,16.2508588 C5.51489709,15.7905108 4.70076255,15.2024404 3.94636618,14.5265734 C3.77253345,14.3708763 3.60179527,14.2115739 3.42957709,14.0540741 C3.32806255,13.9613368 3.20219527,13.8806174 3.12113164,13.7667154 Z" id="Fill-1" fill="#FFFFFF" mask="url(#mask-2)"></path>
                    </g>
                    <path d="M21.0934919,4.43033264 C21.3860452,4.74651908 21.642658,5.15095713 21.8573603,5.64797222 C21.1127594,6.07207547 20.6207903,6.33230103 19.9161139,6.73827687 C19.0242873,7.25210429 18.1395103,7.77806013 17.2442946,8.28582334 C16.2604182,8.843926 15.2650863,9.38201025 14.2809388,9.93952605 C13.8433968,10.1874413 13.4279522,10.4736327 12.9902068,10.7212871 C12.3099323,11.1060708 11.6144744,11.4645111 10.9341999,11.8492296 C10.2380641,12.2428814 9.55501057,12.659225 8.86117943,13.0569196 C8.46193505,13.2857293 8.057268,13.5061926 7.64433137,13.7093109 C7.55743302,13.7520864 7.40431026,13.7381322 7.31531062,13.6896838 C6.70363299,13.3565436 6.10083499,13.0072975 5.49519008,12.663333 C4.24756835,11.9547337 2.99953992,11.2467865 1.7523249,10.5374699 C1.37992276,10.3256139 1.01334999,10.10339 0.636609713,9.89935883 C0.490265297,9.82006769 0.468506817,9.72440972 0.507753421,9.58056412 C0.587398946,9.28902575 0.654097836,8.99403142 0.734421196,8.70268867 C0.806813894,8.43977595 0.893576679,8.41656243 1.13827484,8.57507949 C1.40696834,8.74931133 1.67234045,8.92947696 1.94889683,9.09086311 C2.50228072,9.41383104 3.06230738,9.72558344 3.61955492,10.0422263 C4.8481295,10.7404578 6.07528064,11.4411671 7.30799001,12.1320303 C7.39610847,12.1814568 7.55099359,12.2059745 7.63124917,12.1628078 C8.18646321,11.8637054 8.73137417,11.5455628 9.27723409,11.2296372 C9.89806249,10.8702188 10.5129937,10.5006282 11.1368724,10.1464916 C11.9233635,9.70015289 12.7179208,9.26783363 13.5059709,8.82429884 C14.3338098,8.358333 15.1581241,7.88617255 15.9839973,7.41688118 C16.9614795,6.86140852 18.6646444,5.86589234 21.0934919,4.43033264 Z" id="Fill-4" fill="#FFFFFF"></path>
                    <path d="M19.4657432,2.14027695 C19.6944709,2.35129352 19.8892701,2.59197697 20.1117424,2.87022953 C19.833992,3.03048426 19.5227212,3.20908825 19.2123342,3.38943342 C18.3468545,3.89223012 17.4747114,4.3837092 16.6184786,4.90231037 C15.8022255,5.39666909 14.9612231,5.84642703 14.1443582,6.33931244 C13.2781984,6.86199867 12.4109508,7.38307766 11.5387398,7.89538384 C10.5334669,8.48584181 9.52329849,9.06779483 8.51313011,9.64954695 C8.14263758,9.8629074 7.77030924,10.0742588 7.38886988,10.2661225 C7.29966338,10.3109242 7.14633972,10.3146074 7.06209669,10.2662564 C5.65729836,9.45955837 4.25895933,8.6413418 2.85892049,7.82607182 C2.27105512,7.48373076 1.68495756,7.13824219 1.09294463,6.80340156 C0.969469785,6.7335538 0.954851342,6.67046983 1.01658876,6.55119959 C1.15876162,6.2763624 1.30073049,6.00065462 1.42481727,5.71724551 C1.51422775,5.51299272 1.60866969,5.4920317 1.80054524,5.60581055 C2.98395917,6.30689987 4.17444434,6.99566705 5.36261775,7.68851929 C5.9122032,8.00902875 6.46430438,8.32531921 7.00981026,8.65292729 C7.16299794,8.74500846 7.28341312,8.74875868 7.44238018,8.65527117 C8.76708305,7.87576217 10.1148355,7.13409017 11.414721,6.3146012 C11.7841256,6.08161909 12.174608,5.9034169 12.5454405,5.68215421 C13.1826686,5.30197616 13.82656,4.93331662 14.4673918,4.55929963 C15.1390922,4.16726821 15.8102487,3.77423228 16.4820171,3.3823348 C17.2853515,2.91362488 18.0866462,2.44129868 18.8963719,1.98430818 C18.9769433,1.93883682 19.1134048,1.97332541 19.2173657,1.99857239 C19.3056883,2.02006916 19.4133208,2.09192596 19.4657432,2.14027695" id="Fill-6" fill="#FFFFFF"></path>
                    <path d="M2.45265152,4.00394538 C2.74495327,3.64074949 2.99332176,3.31537676 3.26545076,3.01192275 C3.30681166,2.96581325 3.47604612,2.98926895 3.55592478,3.03497751 C4.27402043,3.44602036 4.98487284,3.87016098 5.69890686,4.28868828 C6.21683199,4.59220911 6.73908952,4.88831232 7.2532238,5.19824839 C7.39829158,5.28565598 7.5134387,5.29113566 7.65958958,5.20199061 C8.39806105,4.75152079 9.13842795,4.30405811 9.88454883,3.86688654 C10.5298737,3.48872177 11.1867064,3.13093874 11.8328436,2.7541773 C12.213418,2.53231707 12.5776783,2.28158828 12.958862,2.06073044 C13.5782601,1.7018782 14.207203,1.36006643 14.8287673,1.00515689 C15.3834502,0.688471459 15.9296036,0.356215718 16.4894312,0.0496209195 C16.5916488,-0.00631191535 16.7612894,-0.0174049268 16.8663502,0.0289050547 C17.2764391,0.209600856 17.6731924,0.421771406 18.1496212,0.659469248 C17.6676415,0.940670406 17.2596511,1.16654016 16.8639132,1.41259117 C16.3623023,1.72439835 15.8780209,2.06534139 15.3719422,2.36892904 C15.0677264,2.5513623 14.7297313,2.67452146 14.4184076,2.84566123 C13.9704778,3.09197955 13.5329729,3.35754357 13.0910679,3.61515537 C11.8898417,4.31548525 10.686314,5.01187243 9.48881097,5.71888485 C9.11121505,5.94181429 8.75643194,6.20450482 8.37910679,6.4278352 C8.10386387,6.59068863 7.81210367,6.72647778 7.520005,6.85658678 C7.45833596,6.88411883 7.35239519,6.85484932 7.28544604,6.81736029 C6.60532661,6.43638885 5.92534256,6.05501646 5.25294022,5.660279 C4.69629425,5.33343612 4.15251009,4.98393943 3.59803032,4.65315385 C3.23613935,4.43724108 2.86524512,4.23703227 2.45265152,4.00394538" id="Fill-8" fill="#FFFFFF"></path>
                </g>
            </g>
        </g>
    </g>
</svg>