<?xml version="1.0" encoding="UTF-8"?>
<svg width="35px" height="35px" viewBox="0 0 35 35" version="1.1" xmlns="http://www.w3.org/2000/svg" xmlns:xlink="http://www.w3.org/1999/xlink">
    <!-- Generator: Sketch 47.1 (45422) - http://www.bohemiancoding.com/sketch -->
    <title>sberbank white</title>
    <desc>Created with Sketch.</desc>
    <defs></defs>
    <g id="Page-1" stroke="none" stroke-width="1" fill="none" fill-rule="evenodd">
        <g id="sberbank-white" fill="#FFFFFF">
            <path d="M17.5,35 C7.83501688,35 0,27.1649831 0,17.5 C0,7.83501688 7.83501688,0 17.5,0 C27.1649831,0 35,7.83501688 35,17.5 C35,27.1649831 27.1649831,35 17.5,35 Z M8.84840436,25.7250488 C8.929468,25.8389507 9.05533527,25.9196702 9.15684982,26.0124074 C9.329068,26.1699072 9.49980618,26.3292096 9.67363891,26.4849067 C10.4280353,27.1607737 11.2421698,27.7488441 12.1403953,28.2091921 C14.0952735,29.2110082 16.1604789,29.6475209 18.348188,29.4842125 C20.4895462,29.3243092 22.435208,28.6153265 24.1993007,27.3729544 C24.467988,27.1837411 24.7415862,27.0019386 25.0050262,26.8232074 C25.2774135,26.5641574 25.5719335,26.3253372 25.8168735,26.0417175 C26.2462753,25.5443814 26.6718425,25.0393673 27.0522025,24.5029734 C28.436608,22.5506171 29.1641625,20.3556351 29.262448,17.9524115 C29.3286444,16.3345504 29.0260815,14.9147744 28.6340258,13.3691614 C28.5222392,12.9284616 28.3014035,12.3897341 28.117009,11.9539557 C27.2898908,12.4366034 26.3578807,12.9110167 25.5783916,13.3691614 C24.8885771,13.7744947 24.2073735,14.195451 23.511168,14.5889 C23.0298316,14.8608359 21.8723371,15.5481865 21.7615389,15.6150855 C21.0646607,16.0359084 20.3621316,16.4469834 19.6573153,16.8537855 C18.8451316,17.3226795 18.0251444,17.7776195 17.215248,18.2505194 C16.6605171,18.5743988 16.1199135,18.9234487 15.568008,19.252469 C14.7393425,19.7465336 13.9093989,20.2387955 13.0707098,20.7147666 C12.9727607,20.7703823 12.7944207,20.7619698 12.6906862,20.7081569 C12.312748,20.5123337 11.9503498,20.2854646 11.5829062,20.0688774 C9.93270618,19.096171 8.28317891,18.1226635 6.63277709,17.1504913 C6.35399891,16.9862482 6.07239527,16.8271461 5.768928,16.6522873 C5.74753527,16.749164 5.72641164,16.7985705 5.72728618,16.8476431 C5.73704073,17.4132803 5.72580618,17.9807201 5.76697709,18.5440873 C5.89566982,20.3090996 6.39449709,21.9679548 7.29003164,23.4801262 C7.75367527,24.263085 8.32011164,24.9828169 8.84840436,25.7250488 Z M26.8207646,9.52124173 C24.3919171,10.9568014 22.6887523,11.9523176 21.7112701,12.5077903 C20.8853968,12.9770816 20.0610826,13.4492421 19.2332436,13.9152079 C18.4451935,14.3587427 17.6506362,14.791062 16.8641451,15.2374007 C16.2402664,15.5915373 15.6253352,15.9611279 15.0045068,16.3205463 C14.4586469,16.6364719 13.9137359,16.9546145 13.3585219,17.2537168 C13.2782663,17.2968836 13.1233812,17.2723659 13.0352627,17.2229394 C11.8025534,16.5320762 10.5754022,15.8313669 9.34682764,15.1331354 C8.7895801,14.8164925 8.22955344,14.5047401 7.67616956,14.1817722 C7.39961318,14.0203861 7.13424107,13.8402204 6.86554757,13.6659886 C6.62084941,13.5074715 6.53408662,13.530685 6.46169392,13.7935978 C6.38137056,14.0849405 6.31467167,14.3799348 6.23502615,14.6714732 C6.19577954,14.8153188 6.21753802,14.9109768 6.36388244,14.9902679 C6.74062272,15.1942991 7.10719548,15.416523 7.47959762,15.628379 C8.72681265,16.3376956 9.97484108,17.0456428 11.2224628,17.7542421 C11.8281077,18.0982066 12.4309057,18.4474527 13.0425834,18.7805929 C13.131583,18.8290413 13.2847057,18.8429955 13.3716041,18.80022 C13.7845407,18.5971017 14.1892078,18.3766384 14.5884522,18.1478287 C15.2822833,17.7501341 15.9653369,17.3337905 16.6614727,16.9401387 C17.3417471,16.5554202 18.0372051,16.1969799 18.7174795,15.8121962 C19.1552249,15.5645418 19.5706695,15.2783504 20.0082115,15.0304351 C20.9923591,14.4729193 21.9876909,13.9348351 22.9715673,13.3767324 C23.866783,12.8689692 24.7515601,12.3430134 25.6433866,11.829186 C26.3480631,11.4232101 26.8400321,11.1629846 27.584633,10.7388813 C27.3699307,10.2418662 27.1133179,9.83742817 26.8207646,9.52124173 Z M25.193016,7.23118604 C25.1405936,7.18283505 25.032961,7.11097825 24.9446384,7.08948148 C24.8406775,7.0642345 24.704216,7.02974592 24.6236446,7.07521727 C23.8139189,7.53220777 23.0126243,8.00453397 22.2092899,8.47324389 C21.5375214,8.86514137 20.8663649,9.2581773 20.1946645,9.65020872 C19.5538328,10.0242257 18.9099414,10.3928852 18.2727132,10.7730633 C17.9018808,10.994326 17.5113984,11.1725282 17.1419937,11.4055103 C15.8421082,12.2249993 14.4943558,12.9666713 13.1696529,13.7461803 C13.0106858,13.8396678 12.8902707,13.8359176 12.737083,13.7438364 C12.1915771,13.4162283 11.6394759,13.0999378 11.0898905,12.7794284 C9.90171706,12.0865761 8.71123189,11.397809 7.52781797,10.6967196 C7.33594241,10.5829408 7.24150048,10.6039018 7.15209,10.8081546 C7.02800322,11.0915637 6.88603435,11.3672715 6.74386149,11.6421087 C6.68212407,11.7613789 6.69674251,11.8244629 6.82021736,11.8943106 C7.41223029,12.2291513 7.99832785,12.5746399 8.58619322,12.9169809 C9.98623206,13.7322509 11.3845711,14.5504675 12.7893694,15.3571655 C12.8736124,15.4055165 13.0269361,15.4018333 13.1161426,15.3570316 C13.497582,15.1651679 13.8699103,14.9538165 14.2404028,14.740456 C15.2505712,14.1587039 16.2607396,13.5767509 17.2660125,12.9862929 C18.1382236,12.4739868 19.0054712,11.9529078 19.8716309,11.4302215 C20.6884959,10.9373361 21.5294983,10.4875782 22.3457513,9.99321946 C23.2019841,9.47461829 24.0741272,8.98313921 24.939607,8.48034251 C25.2499939,8.29999735 25.5612647,8.12139335 25.8390152,7.96113862 C25.6165429,7.68288606 25.4217436,7.44220261 25.193016,7.23118604 Z M8.17992424,9.09485447 C8.59251785,9.32794136 8.96341208,9.52815017 9.32530304,9.74406294 C9.87978282,10.0748485 10.423567,10.4243452 10.9802129,10.7511881 C11.6526153,11.1459256 12.3325993,11.5272979 13.0127188,11.9082694 C13.0796679,11.9457584 13.1856087,11.9750279 13.2472777,11.9474959 C13.5393764,11.8173869 13.8311366,11.6815977 14.1063795,11.5187443 C14.4837047,11.2954139 14.8384878,11.0327234 15.2160837,10.8097939 C16.4135867,10.1027815 17.6171145,9.40639434 18.8183406,8.70606446 C19.2602457,8.44845266 19.6977506,8.18288864 20.1456803,7.93657032 C20.457004,7.76543055 20.7949991,7.64227139 21.099215,7.45983813 C21.6052937,7.15625048 22.089575,6.81530744 22.5911859,6.50350026 C22.9869238,6.25744925 23.3949142,6.0315795 23.8768939,5.75037834 C23.4004651,5.5126805 23.0037118,5.30050995 22.5936229,5.11981415 C22.4885622,5.07350416 22.3189215,5.08459718 22.2167039,5.14053001 C21.6568763,5.44712481 21.1107229,5.77938055 20.55604,6.09606598 C19.9344757,6.45097552 19.3055328,6.79278729 18.6861347,7.15163953 C18.304951,7.37249737 17.9406908,7.62322616 17.5601163,7.84508639 C16.9139792,8.22184783 16.2571464,8.57963086 15.6118216,8.95779563 C14.8657007,9.3949672 14.1253338,9.84242988 13.3868623,10.2928997 C13.2407114,10.3820447 13.1255643,10.3765651 12.9804965,10.2891575 C12.4663623,9.97922142 11.9441047,9.6831182 11.4261796,9.37959737 C10.7121456,8.96107008 10.0012932,8.53692945 9.28319751,8.1258866 C9.20331885,8.08017805 9.03408439,8.05672234 8.99272349,8.10283185 C8.72059448,8.40628585 8.472226,8.73165858 8.17992424,9.09485447 Z" id="Combined-Shape"></path>
        </g>
    </g>
</svg>