<?xml version="1.0" encoding="UTF-8"?>
<svg width="35px" height="35px" viewBox="0 0 35 35" version="1.1" xmlns="http://www.w3.org/2000/svg" xmlns:xlink="http://www.w3.org/1999/xlink">
    <g id="Page-1" stroke="none" stroke-width="1" fill="none" fill-rule="evenodd">
        <g id="tether-grey">
            <circle id="Oval" fill="#AEAEAE" cx="17.5" cy="17.5" r="17.0625"></circle>
            <g id="tether2" transform="translate(5.000000, 7.000000)" fill="#FFFFFF">
                <g id="Page-1">
                    <path d="M22.1701675,11.374825 C20.3657425,12.359025 14.7643425,12.59335 14.7643425,12.59335 L14.7629425,12.5937 L14.7629425,12.59335 L10.2356925,12.59335 C10.2356925,12.59335 4.6341175,12.359025 2.8298675,11.374825 C1.0254425,10.390625 1.6487925,9.8329 3.7811675,9.20955 C5.9135425,8.5862 10.2356925,8.3566 10.2356925,8.3566 L10.2356925,11.6865 L14.7629425,11.6865 L14.7629425,8.356075 L14.7643425,8.3566 C14.7643425,8.3566 19.0863175,8.5862 21.2186925,9.20955 C23.3512425,9.8329 23.9745925,10.390625 22.1701675,11.374825 M24.3354425,10.357725 C23.5152175,8.159725 14.7643425,8.02865 14.7643425,8.02865 L14.7629425,8.028825 L14.7629425,5.141675 L21.5784925,5.141675 L21.5784925,0.614425 L14.7629425,0.614425 L10.2356925,0.614425 L3.4203175,0.614425 L3.4203175,5.141675 L10.2356925,5.141675 L10.2356925,8.02865 C10.2356925,8.02865 1.4848175,8.159725 0.6645925,10.357725 C-0.1554575,12.5559 7.3077675,13.2447 10.2356925,13.2447 L10.2356925,22.664425 L14.7629425,22.664425 L14.7629425,13.2433 C14.7629425,13.243825 14.7643425,13.244175 14.7643425,13.2447 C17.6922675,13.2447 25.1554925,12.5559 24.3354425,10.357725" id="Fill-4"></path>
                </g>
            </g>
        </g>
    </g>
</svg>