<?xml version="1.0" encoding="UTF-8"?>
<svg width="35px" height="35px" viewBox="0 0 35 35" version="1.1" xmlns="http://www.w3.org/2000/svg" xmlns:xlink="http://www.w3.org/1999/xlink">
    <!-- Generator: Sketch 47.1 (45422) - http://www.bohemiancoding.com/sketch -->
    <title>tether-white</title>
    <desc>Created with Sketch.</desc>
    <defs></defs>
    <g id="Page-1" stroke="none" stroke-width="1" fill="none" fill-rule="evenodd">
        <g id="tether-white" fill="#FFFFFF">
            <g id="Group">
                <path d="M17.5,34.5625 C8.07664146,34.5625 0.4375,26.9233585 0.4375,17.5 C0.4375,8.07664146 8.07664146,0.4375 17.5,0.4375 C26.9233585,0.4375 34.5625,8.07664146 34.5625,17.5 C34.5625,26.9233585 26.9233585,34.5625 17.5,34.5625 Z M29.3354425,17.357725 C28.5152175,15.159725 19.7643425,15.02865 19.7643425,15.02865 L19.7629425,15.028825 L19.7629425,12.141675 L26.5784925,12.141675 L26.5784925,7.614425 L19.7629425,7.614425 L15.2356925,7.614425 L8.4203175,7.614425 L8.4203175,12.141675 L15.2356925,12.141675 L15.2356925,15.02865 C15.2356925,15.02865 6.4848175,15.159725 5.6645925,17.357725 C4.8445425,19.5559 12.3077675,20.2447 15.2356925,20.2447 L15.2356925,29.664425 L19.7629425,29.664425 L19.7629425,20.2433 C19.7629425,20.243825 19.7643425,20.244175 19.7643425,20.2447 C22.6922675,20.2447 30.1554925,19.5559 29.3354425,17.357725 Z" id="Combined-Shape"></path>
                <path d="M27.1701675,18.2187498 C25.3657425,19.2029498 19.7643425,19.4372748 19.7643425,19.4372748 L19.7629425,19.4376248 L19.7629425,19.4372748 L15.2356925,19.4372748 C15.2356925,19.4372748 9.6341175,19.2029498 7.8298675,18.2187498 C6.0254425,17.2345498 6.6487925,16.6768248 8.7811675,16.0534748 C10.9135425,15.4301248 15.2356925,15.2005248 15.2356925,15.2005248 L15.2356925,18.5304248 L19.7629425,18.5304248 L19.7629425,15.1999998 L19.7643425,15.2005248 C19.7643425,15.2005248 24.0863175,15.4301248 26.2186925,16.0534748 C28.3512425,16.6768248 28.9745925,17.2345498 27.1701675,18.2187498" id="Path"></path>
            </g>
        </g>
    </g>
</svg>