<svg xmlns="http://www.w3.org/2000/svg" width="24" height="24" viewBox="0 0 24 24">
  <g fill="none" fill-rule="evenodd">
    <circle cx="12" cy="12" r="12" fill="#1469EB"/>
    <path fill="#FFF" d="M16.8447758,9.03395745 C17.1274462,9.05824338 17.999877,9.05824338 17.999877,9.05824338 L17.999877,11.3227279 L14.8518528,11.3114778 L13.6001271,12.7213118 L17.9696599,12.7213118 L17.9696599,15.0636541 L16.6379995,15.0636541 C15.0282363,15.0638327 13.4175947,15.0916901 11.8088856,15.049904 C11.1952326,15.0341896 10.9766857,15.3336566 10.8682906,15.8545541 C10.6334054,16.984207 11.2175441,18.0495737 12.3863484,18.1235029 C13.5848428,18.1992179 14.8177707,18.0018947 16.0116974,17.7867142 C16.5768625,17.684749 17.3004918,17.5608193 17.3004918,17.5608193 C17.3004918,17.5608193 17.2989106,18.2286824 17.3018972,18.8211877 C17.3034783,19.1781552 17.3022486,19.5353012 17.3020729,19.8922687 C17.3017215,21.4263895 17.2330303,21.6369271 15.7530953,21.8055001 C14.2559435,21.9758587 12.704155,22.0992527 11.224747,21.8894294 C8.38644798,21.4869258 6.78634726,19.4304789 6.74014321,16.5104528 C6.73311598,16.067056 6.74857589,15.4440147 6.83641629,14.9827606 C6.55058363,14.964189 6,14.9529389 6,14.9529389 L6,12.7750623 C6.81972661,12.7804195 7.91983978,12.7579193 7.91983978,12.7579193 L9.28136598,11.3368352 C8.4658557,11.3368352 6.89562072,11.3425495 6.03091982,11.3425495 L6.03091982,9.00735007 C7.47466463,9.00735007 8.93053142,8.92217074 10.3714653,9.03395745 C11.5430806,9.12485112 12.2454524,8.55377459 12.8499701,7.69894553 C13.4439468,6.85875946 13.1876286,5.94982277 12.1767612,5.82107162 C11.191192,5.69553479 10.1501075,5.82535738 9.15786237,5.99357316 C8.42878706,6.1171457 7.51717939,6.24375397 7.51717939,6.24375397 C7.51717939,6.24375397 7.49925994,5.56535506 7.49925994,4.58695346 C7.49925994,2.56175681 7.67757596,2.30621881 9.66962054,2.10246699 C10.7370571,1.9931803 11.8371703,1.94960849 12.8975796,2.08264539 C15.9224516,2.46229164 17.6372719,4.79659819 17.2620177,7.87662569 C17.2226652,8.19841428 17.0209836,8.70431165 16.8447758,9.03395745"/>
  </g>
</svg>
