<svg xmlns="http://www.w3.org/2000/svg" xmlns:xlink="http://www.w3.org/1999/xlink" width="24" height="24" viewBox="0 0 24 24">
  <defs>
    <polygon id="group_2_1-a" points="0 17.973 0 0 11.963 0 11.963 17.973"/>
  </defs>
  <g fill="none" fill-rule="evenodd">
    <circle cx="12" cy="12" r="12" fill="#1469EB"/>
    <g transform="translate(6 3)">
      <mask id="group_2_1-b" fill="#fff">
        <use xlink:href="#group_2_1-a"/>
      </mask>
      <path fill="#FFF" d="M4.58637391,6.94397282 L4.58637391,4.21753874 C4.17718137,4.27179432 3.79101988,4.35529533 3.43992671,4.54358337 C2.83713168,4.86688966 2.64956646,5.68656511 3.04560373,6.23722637 C3.08771553,6.29575375 3.14063478,6.35267465 3.20104472,6.39177809 C3.61899503,6.66225274 4.08319379,6.82275578 4.58637391,6.94397282 M7.37510683,10.3916848 L7.37510683,13.6976239 C7.50818758,13.6665895 7.62356646,13.6445367 7.73607578,13.6127355 C8.40863478,13.4226219 8.9204236,13.0429424 9.13910683,12.3732548 C9.30222484,11.8735996 9.25795155,11.3736888 8.82569068,11.0158065 C8.41787702,10.6781513 7.89330559,10.5541229 7.37510683,10.3916848 M-1.11801242e-05,11.7126219 L2.73960373,11.7126219 C2.83333043,12.7915996 3.80715652,13.6380377 4.58119379,13.6840053 C4.58663478,13.6446462 4.59699503,13.6045205 4.5971441,13.5643582 C4.60139255,12.3721959 4.60254783,11.1799972 4.61041118,9.98783489 C4.61149193,9.8190073 4.55719379,9.74675172 4.38021242,9.69220406 C3.63062236,9.46105193 2.86321863,9.26111684 2.14988944,8.94628114 C0.173690683,8.07417566 -0.538408696,5.68740487 0.602522981,3.88375375 C0.866522981,3.46639473 1.25287081,3.16550629 1.66769068,2.9053643 C2.49215031,2.38829331 3.38410062,2.03607018 4.35807578,1.89827708 C4.39485839,1.89305598 4.43126832,1.88509655 4.46782733,1.87808641 C4.5037528,1.87122231 4.53960373,1.86395659 4.59651056,1.85271116 L4.59651056,2.55578093e-05 L7.35852298,2.55578093e-05 C7.35852298,0.062240568 7.35870932,0.126536714 7.35848571,0.190869371 C7.35673416,0.689757809 7.36202609,1.1888288 7.34928075,1.68746166 C7.3448087,1.86329939 7.39713168,1.94081258 7.58029938,1.97641095 C8.36447329,2.12895456 9.10769068,2.39676389 9.79832422,2.79396876 C10.4310447,3.15783895 10.9925106,3.60320203 11.4091565,4.20479635 C11.7276783,4.66469087 11.8640385,5.18508438 11.9232186,5.72895456 C11.9428211,5.90910061 11.9494547,6.09063408 11.9630944,6.28702759 L9.21837391,6.28702759 C9.06479627,4.9838714 8.2095913,4.24375375 7.36873416,4.23155903 C7.36538012,4.3011858 7.35908199,4.37176187 7.35900745,4.44230142 C7.35837391,5.43409047 7.36198882,6.42587951 7.35490807,7.41763205 C7.35382733,7.56663408 7.41054783,7.60800122 7.54810062,7.63918174 C8.09145466,7.76222434 8.64241118,7.86723043 9.17029938,8.03875984 C11.0686845,8.6555428 12.1496161,10.2479769 11.9258646,12.2609465 C11.7288335,14.0335631 10.6919888,15.1912953 8.98895776,15.7671128 C8.47113168,15.9422203 7.92144224,16.0268897 7.35800124,16.1596442 L7.35800124,17.9732264 L4.60277143,17.9732264 L4.60277143,16.1418998 C3.16977764,16.0163744 1.84467205,15.7263663 0.978771429,14.458772 C0.410299379,13.6265367 0.0232807453,12.7476767 -1.11801242e-05,11.7126219" mask="url(#group_2_1-b)"/>
    </g>
  </g>
</svg>
