<svg width="20" height="20" viewBox="0 0 20 20" xmlns="http://www.w3.org/2000/svg" xmlns:xlink="http://www.w3.org/1999/xlink"><title>Page 1</title><defs><path id="a" d="M19.838 12.256V.03H0v12.226h19.838z"/></defs><g fill="none" fill-rule="evenodd"><path d="M17.77 2.246h-.1c-.35.667-.7 1.334-1.05 2.052-.05.102-.1.205.1.205h1.05c.1 0 .2-.05.15-.154-.05-.72-.1-1.386-.15-2.104m-4.05 4.718c1.2-2.256 2.4-4.41 3.6-6.615.05-.155.15-.206.3-.206h1.55c.2 0 .25.102.25.256.05.718.1 1.436.1 2.103.05 1.282.1 2.564.15 3.897 0 .667 0 .616-.6.616-.35 0-.8.05-1-.103-.25-.205-.05-.667-.1-1.026 0-.205-.05-.256-.3-.256h-1.55c-.15 0-.25.052-.3.206 0 0 0 .05-.05.05-.2.36-.25.925-.6 1.027-.35.205-.9.05-1.45.05M3.12 4.4c.65-1.128 1.4-2.256 2-3.384.35-.667.75-.975 1.5-.82.15.05.35 0 .6 0-.4.717-.8 1.384-1.25 2.05-.9 1.488-1.8 2.975-2.7 4.513-.1.204-.25.307-.45.307H1.57c-.15 0-.2-.05-.2-.205 0-1.026-.05-2.05-.05-3.077 0-.718-.05-1.436-.05-2.154C1.12.81.92.81.27.4.17.35.17.093.27.093c.85 0 1.6.05 2.5.05.25 0 .25.155.25.31V4.4h.1zM11.07 7.067c-.85 0-1.5-.154-2.15-.564-.2-.103-.25-.205-.1-.41.15-.206.2-.565.45-.718.25-.154.5.153.75.256.5.155 1 .257 1.55.104.3-.103.55-.206.6-.513.05-.307-.1-.563-.35-.717-.4-.257-.75-.462-1.05-.718-1.1-.923-1.05-2.41.15-3.23.4-.31.9-.41 1.4-.514.6-.1 1.15 0 1.75.155 0 0 .05 0 .05.05.9.36.95.77.25 1.386-.15.104-.2 0-.3-.05-.35-.205-.65-.36-1.05-.41-.45-.103-.85.102-1.05.46-.15.31-.05.668.3.975.15.154.35.257.55.41.7.462 1.15 1.078 1.05 1.95-.15 1.025-.8 1.743-1.7 2-.4.102-.8.153-1.1.102M5.57 6.964C6.32 4.708 7.02 2.554 7.72.4c.05-.256.15-.307.4-.307h1.15c.3 0 .3.05.25.307-.5 1.487-.95 2.975-1.45 4.462l-.6 1.846c-.05.205-.15.308-.35.308-.55-.052-1.05-.052-1.55-.052" fill="#0C0C6F"/><g transform="translate(0 7.58)"><mask id="b" fill="#fff"><use xlink:href="#a"/></mask><path d="M13.57 12.256c-1 0-2.25-.41-3.35-1.384-.2-.154-.35-.154-.55 0-2.85 2.36-6.95 1.59-8.85-1.64-2.1-3.745.05-8.31 4-9.078 1.85-.36 3.5.05 4.95 1.333.15.103.25.103.35 0 .7-.615 1.45-1.025 2.35-1.23 1.4-.308 2.75-.206 4.05.46 1.3.668 2.25 1.745 2.85 3.13.5 1.18.6 2.46.3 3.743-.45 1.897-1.55 3.282-3.25 4.154-.75.36-1.55.512-2.85.512" fill="#F90" mask="url(#b)"/></g><path d="M9.97 13.58c0 .154.15.205.25.256.2.103.4.257.5.513.05.255.05.512-.1.768-.1.103-.25.154-.4.257h-.65c-.45 0-.45 0-.4-.462.05-.154.1-.154.25-.154.15.05.35.05.5.05.1-.05.2-.05.2-.205 0-.153-.1-.205-.25-.256-.55-.31-.7-.616-.45-1.232.35-.41.8-.36 1.25-.307.05 0 .1 0 .1.103.05.154-.1.462-.25.513-.1 0-.25.05-.35 0-.1-.05-.2 0-.2.154" fill="#FCFCFA"/><path d="M9.12 15.016c0-.052.05-.154-.05-.205-.05-.41 0-.82.2-1.18.05-.05.05-.102.1-.102-.05.206-.1.41-.1.667-.05.923.55 1.436 1.45 1.23h.1c0 .103 0 .206-.1.206-.45 0-.9.104-1.3-.153-.15-.205-.2-.36-.3-.46" fill="#111156"/><path d="M10.22 12.4c-.15.564-.35 1.077-.5 1.64h-.1v-1.69c.1.358 0 .666.05 1.127.1-.36.2-.615.3-.872.05-.153.15-.205.25-.205M10.07 14.76c.05-.41-.25-.308-.45-.308.1-.257.35-.206.55-.257.1 0 .1.05.1.154-.05.153-.05.307-.2.41" fill="#111156"/><path d="M9.97 7.58c3.286 0 5.95 2.755 5.95 6.154 0 3.398-2.664 6.153-5.95 6.153s-5.95-2.755-5.95-6.153c0-3.4 2.664-6.154 5.95-6.154" fill="#FA0717"/><g fill="#FFF"><path d="M2.132 13.744c.1-.288.43-1.287.505-1.495.014-.043.063-.1.097-.102.28-.008.56-.004.86-.004-.054.335-.333 2.024-.415 2.56-.046.296-.297.445-.553.304-.04-.022-.07-.12-.06-.175.053-.394.257-1.58.197-1.586-.066-.004-.436 1.085-.615 1.602-.056.157-.145.206-.34.18-.16-.023-.12-.15-.12-.246-.01-.386-.02-1.515-.11-1.515-.056 0-.215 1.28-.272 1.532-.034.153-.09.248-.26.228-.064-.007-.128-.002-.19 0-.107 0-.144-.05-.126-.155l.277-1.677c.05-.305.106-.61.152-.916.016-.11.065-.147.17-.144.184.005.37.006.553 0 .11-.004.158.042.16.152.003.42.03 1.39.04 1.452.015 0 .03 0 .047.002M17.406 14.08c.003.16.04.31.21.365.16.05.36-.017.46-.148.2-.26.212-.562.15-.866-.033-.16-.306-.242-.453-.18-.314.133-.368.79-.367.83m.698.787c-.174.057-.325.123-.483.155-.425.088-.703-.327-.75-.65-.074-.504.012-.975.336-1.387.446-.546 1.093-.203 1.196-.07.038-.213.087-.408.105-.606.012-.14.068-.173.194-.173.406-.002.418-.004.36.395-.095.635-.357 2.187-.378 2.33-.018.12-.08.176-.2.168-.057-.004-.115-.005-.172 0-.128.012-.22-.018-.206-.163M4.696 13.99c-.167-.02-.334-.044-.49.06-.12.08-.17.283-.096.403.06.1.228.127.356.055.153-.086.253-.303.23-.518m-.05.822l-.173.114c-.352.22-.822.104-.925-.255-.152-.53.065-.984.637-1.11.15-.032.308-.028.462-.034.096-.003.18-.02.182-.136 0-.116-.066-.165-.183-.186-.17-.032-.668.012-.84.023.027-.147.054-.298.084-.448.005-.02.03-.043.047-.048.347-.084.697-.168 1.05-.044.27.095.41.297.4.587-.01.268-.14 1.077-.168 1.332-.014.124-.072.404-.137.414-.126.02-.33.093-.4-.112l-.037-.096M14.79 13.99c-.167-.02-.335-.044-.49.06-.122.08-.17.283-.097.403.062.1.23.127.357.055.153-.086.253-.303.23-.518m-.05.822l-.174.114c-.352.22-.822.104-.924-.255-.153-.53.065-.984.636-1.11.15-.032.308-.028.463-.034.096-.003.18-.02.183-.136 0-.116-.066-.165-.182-.186-.17-.032-.668.012-.84.023.028-.147.054-.298.085-.448.003-.02.027-.043.046-.048.348-.084.698-.168 1.05-.044.27.095.41.297.4.587-.01.268-.14 1.077-.167 1.332-.014.124-.072.404-.137.414-.125.02-.33.093-.4-.112l-.037-.096M9.507 13.57c.153-.004.208-.064.147-.205-.038-.09-.127-.187-.214-.216-.14-.05-.27.03-.352.155-.042.063-.136.238.06.255.077.007.297.014.36.01m.562.837c-.02.18-.022.33-.078.463-.03.07-.162.136-.25.138-.253.007-.514.01-.76-.038-.34-.066-.53-.32-.588-.657-.084-.497-.023-.972.324-1.362.298-.334.708-.413 1.08-.232.31.15.43.514.398.96-.024.362-.007.38-.413.368-.224-.006-.448 0-.672 0-.17.003-.212.075-.135.232.087.175.285.254.57.238.17-.01.333-.037.525-.11M13.4 14.34c-.032.192-.045.367-.094.53-.016.056-.118.106-.188.12-.468.103-.892.053-1.173-.383-.112-.173-.182-.395-.204-.602-.062-.605.052-1.17.507-1.608.414-.4.93-.382 1.386-.216.036.014.08.094.072.132-.032.16-.082.314-.128.47-.002.005-.24-.087-.558-.073-.184.007-.297.1-.392.182-.303.264-.36.855-.236 1.21.092.26.34.393.61.342.123-.023.242-.063.397-.104M5.55 14.998c-.103-.023-.13-.085-.115-.193.05-.343.046-.34.377-.29.335.053.563.03.59-.148.028-.2-.154-.306-.376-.395-.358-.142-.44-.44-.35-.822.066-.284.307-.48.65-.505.195-.015.418-.025.608.018.147.033.16.033.096.29-.07.275-.075.277-.356.22-.108-.02-.246-.045-.36.05-.095.077-.07.23.055.308.082.052.174.09.257.14.267.163.366.416.33.718-.037.288-.185.48-.475.577-.22.072-.754.072-.932.033M8.126 14.487c-.018.14-.03.255-.05.37-.004.03-.022.068-.045.09-.19.17-.7.087-.804-.148-.05-.112-.075-.254-.058-.374.096-.665.206-1.327.317-1.99.008-.045.064-.112.103-.117.137-.017.276-.018.413-.004.025.003.066.11.054.156-.032.126-.015.195.128.187.1-.006.13.05.118.144-.01.07-.01.14-.017.21-.01.12-.04.21-.19.216-.105.004-.17.074-.186.193-.04.266-.092.53-.133.795-.025.165.04.24.2.254.045.003.09.01.152.015M11.166 12.924c.173-.096.27-.318.52-.264-.07.214-.14.415-.21.615-.004.016-.017.036-.03.04-.35.088-.337.402-.394.665-.06.284-.102.574-.15.86-.023.13-.088.194-.224.19-.362-.008-.415.06-.335-.382.108-.584.17-1.178.258-1.766.012-.074.05-.197.09-.203.138-.022.284-.012.422.013.027.005.033.132.054.23M16.447 12.924c.173-.096.27-.318.522-.264l-.212.615c-.005.016-.018.036-.032.04-.348.088-.336.402-.393.665-.06.284-.102.574-.15.86-.023.13-.088.194-.224.19-.363-.008-.416.06-.335-.382.107-.584.17-1.178.257-1.766.01-.074.05-.197.09-.203.137-.022.283-.012.42.013.028.005.034.132.055.23"/></g></g></svg>