<?xml version="1.0" encoding="UTF-8"?>
<svg width="100px" height="100px" viewBox="0 0 100 100" version="1.1" xmlns="http://www.w3.org/2000/svg" xmlns:xlink="http://www.w3.org/1999/xlink">
    <defs>
        <polygon id="path-1" points="0 61.397138 0 2.27637635 39.6107895 2.27637635 39.6107895 61.397138"></polygon>
        <polygon id="path-3" points="22.5155263 7.69230769 2.60236842 7.69230769 2.60236842 0.402865901 22.5155263 0.402865901 22.5155263 7.69230769"></polygon>
    </defs>
    <g id="agregator" stroke="none" stroke-width="1" fill="none" fill-rule="evenodd">
        <g id="Artboard-4">
            <g id="Group">
                <g id="Page-1">
                    <polygon id="Fill-1" fill="#F90717" points="1.97631579 78.5987179 97.0789474 78.5987179 97.0789474 59.2012821 1.97631579 59.2012821"></polygon>
                    <g id="Group-46" transform="translate(0.000000, 1.421795)">
                        <path d="M88.5765789,12.2333333 C88.4371053,12.2153846 88.3002632,12.1974359 88.1607895,12.1820513 C86.3686842,15.4666667 84.5686842,18.7487179 82.7871053,22.0358974 C82.5213158,22.525641 82.1792105,23.0769231 83.2660526,23.0538462 C85.0397368,23.0128205 86.8160526,23.0282051 88.5871053,23.0410256 C89.195,23.0461538 89.5213158,22.9179487 89.4555263,22.2128205 C89.1397368,18.8871795 88.8660526,15.5589744 88.5765789,12.2333333 M68.4160526,35.0410256 C74.5265789,24.1666667 80.4634211,13.6076923 86.3871053,3.04102564 C86.7423684,2.40769231 87.0765789,1.99230769 87.9528947,2.01538462 C90.5607895,2.08205128 93.1765789,2.09487179 95.7844737,2.01025641 C96.7923684,1.97692308 96.9239474,2.41538462 96.9634211,3.17435897 C97.1371053,6.60512821 97.3607895,10.0307692 97.5213158,13.4615385 C97.8160526,19.7051282 98.1160526,25.9512821 98.3371053,32.1974359 C98.4528947,35.4179487 98.3660526,35.1307692 95.3397368,35.2512821 C93.5660526,35.3205128 91.3634211,35.6205128 90.2292105,34.774359 C89.0160526,33.8692308 89.8792105,31.5589744 89.8502632,29.8666667 C89.8344737,28.7974359 89.495,28.5051282 88.4239474,28.5333333 C85.8792105,28.6025641 83.3292105,28.5871795 80.7844737,28.5410256 C79.9607895,28.525641 79.4423684,28.7435897 79.2397368,29.5358974 C79.2081579,29.6512821 79.1397368,29.7589744 79.0765789,29.8666667 C78.0897368,31.5666667 77.8239474,34.2794872 76.1897368,34.8461538 C73.9555263,35.6230769 71.2134211,35.0410256 68.4160526,35.0410256" id="Fill-2" fill="#0C0C6F"></path>
                        <path d="M15.3781579,22.58 C18.7123684,17.1030769 22.2728947,11.7389744 25.2886842,6.10564103 C26.9965789,2.92102564 28.9939474,1.30820513 32.7360526,2.01589744 C33.5939474,2.1774359 34.5123684,2.03897436 35.7334211,2.03897436 C33.615,5.42871795 31.6071053,8.65179487 29.5886842,11.8671795 C25.0413158,19.105641 20.4676316,26.3261538 15.9571053,33.5851282 C15.3781579,34.5210256 14.7465789,35.0748718 13.6018421,35.0646154 C11.4992105,35.0441026 9.39657895,35.0338462 7.29657895,35.08 C6.44131579,35.1005128 6.24921053,34.7723077 6.23342105,33.9979487 C6.13868421,29.0261538 5.99921053,24.054359 5.85973684,19.0825641 C5.765,15.6441026 5.67552632,12.205641 5.54394737,8.76717949 C5.40973684,5.29025641 4.49657895,5.15435897 1.15184211,3.08512821 C0.607105263,2.74923077 0.678157895,1.70051282 1.215,1.70820513 C5.47289474,1.76974359 9.34394737,1.94666667 13.5992105,1.95948718 C14.9044737,1.96205128 14.8307895,2.60564103 14.8307895,3.45179487 C14.8176316,9.7825641 14.8228947,16.1133333 14.8228947,22.4441026 L15.3781579,22.58 Z" id="Fill-4" fill="#0C0C6F"></path>
                        <path d="M55.0728947,35.5669231 C50.915,35.6233333 47.465,34.7951282 44.2860526,32.9258974 C43.3281579,32.3617949 43.1334211,31.8310256 43.8123684,30.8797436 C44.5965789,29.7771795 44.9123684,28.1079487 45.9465789,27.4925641 C47.0728947,26.8233333 48.3281579,28.3387179 49.6386842,28.664359 C52.1807895,29.2976923 54.6834211,29.8592308 57.3018421,29.1130769 C58.6965789,28.715641 59.9755263,28.2182051 60.265,26.6310256 C60.5518421,25.0541026 59.7334211,23.9489744 58.5255263,23.0489744 C56.915,21.8489744 55.2307895,20.7361538 53.665,19.4848718 C48.215,15.1284615 48.5202632,7.85410256 54.3439474,3.87974359 C56.465,2.43358974 58.8360526,1.82846154 61.4676316,1.37461538 C64.5781579,0.836153846 67.3255263,1.30794872 70.1860526,2.04128205 C70.3097368,2.07205128 70.4228947,2.12589744 70.5413158,2.17461538 C74.9281579,3.95410256 75.2228947,5.85410256 71.6728947,8.95666667 C70.9834211,9.55410256 70.6728947,9.06179487 70.2281579,8.80282051 C68.5913158,7.84641026 66.9044737,7.04384615 64.9834211,6.71307692 C62.7860526,6.33615385 60.7228947,7.1925641 59.715,9.04128205 C58.9202632,10.5002564 59.4413158,12.2720513 61.2123684,13.7387179 C62.0755263,14.4541026 63.0281579,15.0746154 63.9913158,15.664359 C67.5992105,17.8746154 69.7965789,20.8694872 69.2413158,25.1464103 C68.5886842,30.1797436 65.3465789,33.69 60.6465789,34.864359 C58.6623684,35.3592308 56.6702632,35.6848718 55.0728947,35.5669231" id="Fill-6" fill="#0C0C6F"></path>
                        <path d="M27.5878947,35.07 C31.2273684,24.2469231 34.78,13.7597436 38.2510526,3.24948718 C38.6247368,2.11871795 39.0457895,1.64435897 40.3194737,1.71871795 C42.2247368,1.83153846 44.1457895,1.82384615 46.0510526,1.72128205 C47.4826316,1.64179487 47.6142105,2.07769231 47.2010526,3.28538462 C44.7510526,10.4469231 42.3668421,17.6289744 39.9642105,24.8033333 C38.9694737,27.7725641 37.9510526,30.7366667 37.0168421,33.7238462 C36.7168421,34.6802564 36.3194737,35.1417949 35.1773684,35.0982051 C32.7194737,35.0058974 30.2536842,35.07 27.5878947,35.07" id="Fill-8" fill="#0C0C6F"></path>
                        <path d="M90.1044737,72.4784615 C91.5071053,71.6579487 92.015,68.2579487 90.8992105,67.1502564 C90.1465789,66.4015385 89.1360526,66.5682051 88.5334211,67.54 C87.3360526,68.5553846 86.8623684,71.2528205 87.665,72.4887179 C88.3097368,73.4784615 89.2597368,73.4758974 90.1044737,72.4784615 M89.3334211,76.1938462 C89.2334211,76.2092308 89.1386842,76.2220513 89.0413158,76.2374359 C85.7518421,76.0861538 84.4255263,75.0758974 84.0755263,72.4323077 C83.9097368,71.1861538 83.9492105,69.9553846 84.2597368,68.7169231 C84.3571053,68.34 84.9176316,67.7246154 83.8886842,67.514359 C83.0781579,67.3528205 82.7123684,67.4912821 82.715,68.3323077 C81.6623684,69.9989744 81.7097368,71.9425641 81.3307895,73.7835897 C81.1623684,74.5989744 81.5176316,75.7502564 80.2255263,76.0502564 C79.9623684,76.0220513 79.6992105,75.9707692 79.4360526,75.965641 C77.7571053,75.9374359 77.7992105,75.9476923 78.0597368,74.2194872 C78.5439474,71.014359 78.9702632,67.7989744 79.4202632,64.5887179 C79.8781579,63.1169231 81.0860526,63.9989744 81.9307895,63.8502564 C82.8044737,63.6938462 82.2807895,64.6579487 82.6781579,65.114359 C83.0860526,64.5938462 83.5202632,64.1066667 84.1202632,63.814359 C84.415,63.6707692 84.7439474,63.5041026 84.9939474,63.6989744 C85.3281579,63.9630769 85.1939474,64.3758974 84.9860526,64.6682051 C84.6097368,65.2041026 84.6597368,65.8117949 84.4044737,66.7476923 C86.6518421,64.7246154 88.4702632,62.2092308 91.5834211,64.5579487 C91.8939474,64.9989744 92.2307895,65.4989744 92.3939474,64.4912821 C92.5334211,63.6271795 92.6176316,62.7528205 92.7281579,61.8835897 C93.0834211,61.0989744 95.0834211,60.4964103 95.7702632,60.9810256 C96.1334211,61.2348718 96.0097368,61.6374359 95.9676316,61.965641 C95.765,63.465641 95.5439474,64.9605128 95.2965789,66.4528205 C94.8176316,69.3502564 94.2781579,72.2374359 93.8492105,75.14 C93.7386842,75.8887179 93.4044737,76.0117949 92.8044737,75.965641 C92.0571053,75.7374359 90.9018421,76.5682051 90.6071053,75.0605128 C90.1623684,75.4528205 89.7492105,75.8246154 89.3334211,76.1938462" id="Fill-10" fill="#FFFFFF"></path>
                        <path d="M5.98,71.9728205 C5.56947368,72.8907692 5.59315789,73.9087179 5.33263158,74.86 C5.23,75.2471795 5.33,75.7830769 4.69578947,75.8292308 C4.29315789,75.8138462 3.88526316,75.7446154 3.49315789,75.7958974 C2.48263158,75.9317949 2.11947368,75.6317949 2.40368421,74.5702564 C2.66684211,73.5830769 2.81684211,72.56 2.94842105,71.5420513 C3.38,68.2317949 4.21947368,64.9830769 4.47210526,61.6471795 C4.71421053,61.0907692 5.04842105,60.7574359 5.74315789,60.8112821 C6.62473684,60.8830769 7.51684211,60.8138462 8.40368421,60.8189744 C8.79578947,60.8215385 9.23526316,60.7676923 9.33263158,61.3241026 L9.33263158,69.4548718 C9.46684211,69.4625641 9.59842105,69.4702564 9.72736842,69.4779487 C10.5773684,66.8651282 11.4247368,64.2471795 12.2721053,61.634359 C12.4957895,61.085641 12.8405263,60.8010256 13.4931579,60.8420513 C14.4273684,60.9010256 15.3747368,60.9215385 16.3089474,60.8446154 C17.4510526,60.7497436 17.4905263,61.2676923 17.3431579,62.1984615 C16.8931579,65.06 16.2352632,67.8882051 16.0142105,70.7830769 C15.6352632,72.3369231 15.2694737,73.8907692 15.4694737,75.5087179 C15.13,75.6112821 14.7852632,75.7138462 14.4431579,75.8138462 C14.0405263,75.8035897 13.6273684,75.7369231 13.2326316,75.7958974 C12.0984211,75.9702564 11.8536842,75.4984615 12.0852632,74.4625641 C12.3668421,73.1958974 12.5589474,71.9087179 12.7536842,70.6241026 C12.9905263,69.0907692 13.1905263,67.5497436 13.4036842,66.0164103 C13.3063158,65.9984615 13.2063158,65.9830769 13.1063158,65.9651282 C12.6115789,67.434359 12.1168421,68.9035897 11.6221053,70.3728205 C11.0826316,71.8138462 10.5589474,73.2625641 10.0036842,74.6958974 C9.82210526,75.1651282 9.78526316,75.7882051 9.06421053,75.8189744 C7.60631579,76.0651282 7.31157895,75.3651282 7.36157895,74.034359 C7.46157895,71.3189744 7.39315789,68.6010256 7.39315789,65.8830769 L6.91684211,65.86 C6.62473684,67.9010256 6.00894737,69.885641 5.98,71.9728205" id="Fill-12" fill="#FFFFFF"></path>
                        <path d="M20.4742105,70.9210256 L20.3873684,70.8851282 L20.4373684,70.9723077 C20.3584211,71.1133333 20.2768421,71.254359 20.1952632,71.3979487 C19.1452632,71.7184615 19.59,72.4979487 19.8794737,72.9517949 C20.3663158,73.7133333 21.1057895,73.6723077 21.7821053,73.0697436 C22.7636842,72.4851282 23.3557895,71.4005128 22.8557895,70.5697436 C22.5136842,70.0030769 21.2136842,70.2415385 20.4742105,70.9210256 M21.4531579,76.0364103 C21.0926316,75.9928205 20.7584211,76.0210256 20.5294737,76.3569231 C20.3715789,75.8517949 19.9505263,76.0287179 19.6347368,76.0466667 C18.2584211,76.1210256 17.3768421,75.4107692 16.7347368,74.2953846 C16.0926316,73.1825641 16.4505263,72.0210256 16.6031579,70.8697436 C17.7821053,69.1646154 19.2794737,68.0287179 21.4821053,68.1235897 C21.8689474,68.1389744 22.1794737,67.9825641 22.1531579,67.5082051 C22.4242105,67.8979487 22.7768421,68.2005128 23.2610526,68.0389744 C23.5978947,67.9261538 23.5768421,67.5184615 23.5505263,67.2261538 C23.5084211,66.7364103 23.2268421,66.4082051 22.7163158,66.3312821 C22.4057895,66.2825641 22.1005263,66.2261538 21.79,66.2030769 C20.5952632,66.1158974 19.44,66.4723077 18.2952632,66.5851282 L18.2952632,64.6979487 C18.5794737,63.6620513 19.5742105,63.8158974 20.2847368,63.6107692 C21.6742105,63.2158974 23.0978947,63.205641 24.5057895,63.6825641 C26.3847368,64.3158974 26.59,65.8158974 26.5321053,67.4569231 C26.44,70.0979487 25.7742105,72.6620513 25.4636842,75.2697436 C25.3768421,75.9953846 24.8215789,75.7184615 24.4373684,75.8158974 C23.7505263,75.6825641 22.7136842,76.2569231 22.6926316,74.6338462 C22.2268421,75.2876923 21.5768421,75.3876923 21.4531579,76.0364103" id="Fill-14" fill="#FFFFFF"></path>
                        <path d="M47.1510526,68.3294872 C47.5010526,68.275641 48.0273684,68.6166667 48.1247368,67.9884615 C48.2142105,67.3987179 48.1484211,66.775641 47.5457895,66.4602564 C46.4668421,65.8935897 45.6642105,66.3141026 45.0642105,67.2782051 C44.4142105,68.1166667 44.6747368,68.4423077 45.6721053,68.375641 C46.1642105,68.3423077 46.6589474,68.3448718 47.1510526,68.3294872 M49.7747368,75.7679487 C49.5273684,75.7987179 49.2826316,75.8320513 49.0352632,75.8628205 C48.8642105,75.9038462 48.6905263,75.95 48.5168421,75.9833333 C43.8984211,76.9551282 40.9642105,74.5961538 41.2721053,70.1217949 C41.3431579,69.0653846 41.5773684,68.0166667 41.7352632,66.9653846 C42.9984211,65.2038462 44.2984211,63.5038462 46.7642105,63.475641 C49.3115789,63.4474359 50.9668421,65.0320513 51.0931579,67.5653846 C51.1273684,68.2679487 50.8878947,68.9858974 51.1984211,69.6730769 C51.0510526,70.6448718 50.5326316,70.9423077 49.5326316,70.8551282 C48.1510526,70.7397436 46.7510526,70.8653846 45.3615789,70.8192308 C44.2957895,70.7807692 44.0378947,71.1525641 44.5694737,72.0705128 C44.6405263,72.7730769 45.1589474,72.9961538 45.7326316,73.1935897 C46.9905263,73.6269231 48.2089474,73.4089744 49.4273684,73.0423077 C49.7457895,72.9012821 50.0457895,72.6705128 50.4957895,72.8551282 C50.23,73.8192308 50.3115789,74.8628205 49.7747368,75.7679487" id="Fill-16" fill="#FFFFFF"></path>
                        <path d="M58.9676316,64 C59.7044737,63.2102564 60.4228947,62.4358974 61.3597368,61.8282051 C63.2860526,60.5820513 65.2992105,60.6820513 67.3597368,61.1846154 C67.7834211,61.2871795 68.5860526,61.3461538 68.3834211,62.1307692 C68.1544737,63.0153846 68.7728947,64.2666667 67.3597368,64.6846154 C65.4886842,63.5641026 63.6307895,63.7820513 62.6886842,65.2333333 C60.8860526,67.0846154 60.6386842,69.2717949 61.4123684,71.6102564 C61.8281579,72.8615385 63.5439474,73.6282051 64.8465789,73.2410256 C65.3518421,73.0948718 65.8281579,72.8487179 66.3176316,72.6461538 C66.4597368,72.6794872 66.7676316,72.5692308 66.6676316,72.8435897 C66.3413158,73.7384615 66.5018421,74.6666667 66.3939474,75.5717949 C66.2939474,76.0666667 65.6544737,75.9974359 65.4939474,76.4307692 C65.3307895,75.8923077 65.0044737,76.2692308 64.7465789,76.3051282 C60.6728947,76.8487179 58.0992105,74.7435897 57.8176316,70.6641026 C57.6571053,68.3435897 58.0439474,66.125641 58.9676316,64" id="Fill-18" fill="#FFFFFF"></path>
                        <path d="M30.8926316,67.3753846 C30.8347368,68.2317949 31.5715789,68.3574359 32.0978947,68.6112821 C33.1794737,69.1369231 34.0715789,69.8189744 34.5110526,70.9779487 C34.8084211,72.3164103 34.64,73.5779487 33.9189474,74.7548718 C33.3821053,75.3728205 32.5978947,75.6164103 31.9478947,76.0676923 C30.8347368,76.0984615 29.7163158,76.1753846 28.6031579,76.1523077 C26.4057895,76.1035897 26.4057895,76.0830769 26.6031579,73.9317949 C26.7321053,73.2574359 27.1347368,73.0933333 27.7531579,73.3035897 C28.6110526,73.5907692 29.4926316,73.5574359 30.3768421,73.46 C30.7847368,73.1830769 31.4689474,73.2394872 31.4821053,72.485641 C31.4952632,71.6753846 30.8610526,71.4805128 30.3189474,71.1907692 C27.5005263,69.7010256 26.9347368,68.1010256 28.19,65.1779487 C29.9478947,63.2394872 32.2268421,63.4369231 34.5031579,63.6574359 C34.7478947,63.6830769 35.0136842,63.7471795 35.1136842,64.0728205 C35.3294737,64.7625641 34.5715789,66.3651282 33.8742105,66.6471795 C33.3084211,66.6548718 32.6952632,66.8061538 32.1873684,66.6369231 C31.3689474,66.36 31.0584211,66.6651282 30.8926316,67.3753846" id="Fill-20" fill="#FFFFFF"></path>
                        <path d="M40.3076316,74.4241026 C39.9813158,75.1087179 40.1786842,76.1497436 39.0339474,76.2702564 C38.6760526,76.2958974 38.3207895,76.3471795 37.9628947,76.3548718 C36.0313158,76.3984615 35.1444737,75.5394872 35.1523684,73.6241026 C35.155,73.1779487 35.1944737,72.7266667 35.2681579,72.285641 C35.7813158,69.1984615 36.305,66.1112821 36.8286842,63.0266667 C36.7313158,61.9548718 37.4892105,62.0497436 38.1471053,62.1112821 C39.0102632,62.1907692 40.5628947,61.5010256 39.8628947,63.5164103 C39.8023684,63.6882051 39.8576316,63.86 40.0523684,63.9548718 C40.4497368,64.1471795 41.2655263,63.7035897 41.2497368,64.385641 C41.2313158,65.2317949 41.3681579,66.2010256 40.6523684,66.9164103 C39.8707895,66.8420513 39.0497368,66.7138462 39.2392105,67.9574359 C38.9865789,69.2548718 38.6576316,70.5446154 38.4971053,71.8574359 C38.3207895,73.2676923 38.5523684,73.4266667 40.0497368,73.3266667 C40.6392105,73.5753846 40.1997368,74.0625641 40.3076316,74.4241026" id="Fill-22" fill="#FFFFFF"></path>
                        <path d="M55.8168421,68.9830769 C54.9194737,70.9189744 54.83,73.0317949 54.4668421,75.085641 C54.3431579,75.7805128 54.2957895,76.4907692 53.3984211,76.6369231 C53.1036842,76.5753846 52.7957895,76.4241026 52.5168421,76.4651282 C51.3010526,76.6446154 51.0536842,76.2266667 51.2668421,75.0241026 C51.8536842,71.6958974 52.2878947,68.3394872 52.7852632,64.9933333 C53.3168421,63.6010256 54.4589474,64.4882051 55.3036842,64.3728205 C56.23,64.2446154 55.5247368,65.2189744 55.9878947,65.5830769 C56.7247368,64.8189744 57.5089474,63.9984615 58.7747368,64.3266667 C58.6115789,64.5292308 58.3852632,64.7061538 58.2957895,64.9394872 C57.7905263,66.2420513 57.7063158,67.7984615 56.0721053,68.3958974 C55.9326316,68.4446154 55.8984211,68.7805128 55.8168421,68.9830769" id="Fill-24" fill="#FFFFFF"></path>
                        <polygon id="Fill-26" fill="#FF9900" points="62.4678947 70.6230769 62.4705263 70.6692308 62.4310526 70.674359 62.3810526 70.5871795"></polygon>
                        <path d="M96.8210526,56.3902564 C93.9815789,49.6415385 89.2552632,44.6338462 82.6657895,41.2979487 C76.1236842,37.9851282 69.3131579,37.4466667 62.3184211,39.0287179 C61.3026316,39.2569231 60.3157895,39.554359 59.3473684,39.8902564 C69.8815789,43.5620513 77.6236842,52.8928205 78.9842105,64.2723077 C79.1157895,64.1851282 79.2657895,64.1261538 79.4868421,64.1261538 C79.9421053,62.6517949 81.15,63.5364103 81.9947368,63.3876923 C82.8684211,63.2312821 82.3473684,64.1953846 82.7421053,64.6517949 C83.1526316,64.1312821 83.5868421,63.6441026 84.1842105,63.3517949 C84.4815789,63.2082051 84.8105263,63.0415385 85.0578947,63.2364103 C85.3947368,63.4979487 85.2605263,63.9133333 85.0526316,64.205641 C84.6736842,64.7441026 84.7263158,65.3492308 84.4710526,66.2825641 C86.7184211,64.2594872 88.5368421,61.7466667 91.65,64.0953846 C91.7605263,63.3774359 91.9184211,62.6620513 91.9684211,61.9389744 C92.0105263,61.3107692 92.4236842,61.4364103 92.7921053,61.4210256 C93.15,60.6338462 95.15,60.0338462 95.8342105,60.5158974 C96.2,60.7723077 96.0763158,61.1748718 96.0315789,61.5030769 C95.8315789,63.0030769 95.6105263,64.4979487 95.3631579,65.9902564 C94.8842105,68.8876923 94.3447368,71.7748718 93.9157895,74.6774359 C93.8052632,75.4261538 93.4710526,75.5492308 92.8710526,75.5030769 C92.8921053,75.8928205 92.9842105,76.4928205 92.4947368,76.4697436 C91.6210526,76.4287179 90.6289474,76.9876923 89.8763158,76.1415385 C89.7289474,75.9748718 89.6394737,75.7774359 89.3973684,75.7312821 C89.3,75.7466667 89.2026316,75.7594872 89.1052632,75.7748718 C87.7289474,77.4517949 84.7184211,76.7415385 83.6552632,74.4979487 C82.7631579,72.6158974 82.9210526,70.6876923 83.45,68.7671795 C83.6421053,68.08 83.7473684,67.6210256 82.7815789,67.8697436 C81.7263158,69.5364103 81.7763158,71.48 81.3947368,73.3210256 C81.2289474,74.1364103 81.5815789,75.2876923 80.2921053,75.5851282 C80.2868421,76.2261538 80.0394737,76.5158974 79.3236842,76.5466667 C78.6763158,76.5774359 78.2105263,76.5902564 77.8578947,76.5620513 C75.0578947,85.5082051 68.2026316,92.5774359 59.3578947,95.6620513 C62.3078947,96.7748718 65.2157895,97.3210256 67.7710526,97.3671795 C74.0789474,97.3517949 78.2289474,96.4517949 82.0789474,94.5569231 C90.6026316,90.3671795 96.0921053,83.68 98.3236842,74.3851282 C99.8078947,68.2082051 99.2605263,62.1953846 96.8210526,56.3902564" id="Fill-28" fill="#FF9900"></path>
                        <g id="Group-32" transform="translate(0.000000, 35.897436)">
                            <mask id="mask-2" fill="white">
                                <use xlink:href="#path-1"></use>
                            </mask>
                            <g id="Clip-31"></g>
                            <path d="M21.2002632,40.3948718 C19.2871053,41.325641 17.6502632,40.7512821 16.1686842,39.3230769 C15.8265789,39.425641 15.4871053,39.525641 15.145,39.6282051 C15.2923684,40.425641 14.9976316,40.7282051 14.1555263,40.7564103 C11.3581579,40.8435897 11.0318421,40.5461538 11.9160526,37.7205128 C12.2897368,36.5205128 12.2502632,35.3692308 12.3186842,34.1871795 C11.7818421,35.6307692 11.2581579,37.0769231 10.7028947,38.5128205 C10.5213158,38.9769231 10.4844737,39.6025641 9.76342105,39.6333333 C9.96605263,41.1589744 8.81868421,40.6358974 8.08710526,40.7333333 C7.19763158,40.8538462 6.98447368,40.4282051 6.945,39.5846154 C6.88447368,38.3179487 7.24763158,37.0153846 6.67921053,35.7871795 C6.27131579,36.7076923 6.28973684,37.7205128 6.03447368,38.674359 C5.92921053,39.0615385 6.03184211,39.5974359 5.395,39.6435897 C5.05289474,40.6923077 4.11342105,41.0435897 2.60289474,40.7384615 C1.63973684,40.5435897 2.05815789,39.8102564 2.11078947,39.3538462 C2.33447368,37.3846154 2.58973684,35.4205128 3.01868421,33.4794872 C3.32394737,32.1076923 3.63184211,30.7051282 3.66605263,29.3102564 C3.69763158,28.1307692 4.195,27.0871795 4.27131579,25.9435897 C4.31078947,25.3641026 4.76078947,25.4179487 5.17394737,25.4589744 C5.41342105,24.9051282 5.745,24.5717949 6.44236842,24.6282051 C7.32394737,24.6974359 8.21605263,24.6307692 9.10289474,24.6358974 C9.495,24.6358974 9.93447368,24.5820513 10.0344737,25.1384615 C10.5081579,26.7769231 9.90815789,28.4820513 10.3713158,30.5307692 C10.9160526,28.8820513 11.4002632,27.6025641 11.7502632,26.2846154 C11.9397368,25.5615385 12.2792105,25.3102564 12.9739474,25.4461538 C13.195,24.9 13.5397368,24.6153846 14.1923684,24.6538462 C15.1265789,24.7153846 16.0765789,24.7358974 17.0081579,24.6589744 C18.1528947,24.5641026 18.1897368,25.0820513 18.045,26.0128205 C17.5923684,28.874359 16.9344737,31.7025641 16.7160526,34.5974359 C16.9002632,34.6 17.0844737,34.6025641 17.2713158,34.6051282 C17.9765789,33.5564103 18.8581579,32.874359 19.8634211,32.4384615 C19.8581579,32.2487179 19.8055263,32.0717949 19.8055263,31.8820513 C19.8055263,31.6076923 19.8792105,31.3589744 19.8871053,31.0846154 C19.4686842,31.1282051 19.0555263,31.2102564 18.6502632,31.4564103 C18.1686842,31.7487179 17.6265789,31.5230769 17.7502632,30.8153846 C17.8976316,29.9846154 17.6160526,28.8230769 19.045,28.7948718 C19.1555263,28.1230769 19.4686842,27.7102564 20.2107895,27.5615385 C20.2213158,27.5589744 20.2318421,27.5589744 20.2423684,27.5564103 C21.8607895,16.6076923 29.4213158,7.67692308 39.6107895,4.05128205 C34.7502632,2.28974359 29.5739474,1.76410256 24.0476316,2.81538462 C4.29763158,6.57692308 -6.43131579,28.8179487 4.15289474,46.8512821 C11.6397368,59.6025641 26.4739474,64.2717949 39.445,59.6589744 C30.6713158,56.4794872 23.9107895,49.3512821 21.2002632,40.3948718" id="Fill-30" fill="#FF9900" mask="url(#mask-2)"></path>
                        </g>
                        <path d="M50.555,45.0746154 C53.1576316,42.7284615 56.1234211,41.015641 59.3471053,39.8925641 C56.2707895,38.8207692 53.0155263,38.1233333 49.5707895,38.1233333 C46.0602632,38.1233333 42.7392105,38.8361538 39.6102632,39.9489744 C42.7918421,41.1028205 45.8655263,42.6874359 48.7181579,45.0592308 C49.4207895,45.6412821 49.9260526,45.6412821 50.555,45.0746154" id="Fill-33" fill="#F90717"></path>
                        <g id="Group-37" transform="translate(36.842105, 89.743590)">
                            <mask id="mask-4" fill="white">
                                <use xlink:href="#path-3"></use>
                            </mask>
                            <g id="Clip-36"></g>
                            <path d="M11.4628947,1.04923077 C8.71289474,3.24410256 5.69447368,4.71333333 2.60236842,5.81076923 C5.77605263,6.96461538 9.15763158,7.69282051 12.7286842,7.69282051 C16.1786842,7.69282051 19.4339474,6.99282051 22.5155263,5.91846154 C19.6813158,4.84923077 16.805,3.25948718 14.1576316,1.01846154 C13.1655263,0.177435897 12.5155263,0.208205128 11.4628947,1.04923077" id="Fill-35" fill="#F90717" mask="url(#mask-4)"></path>
                        </g>
                        <path d="M78.6323684,64.8964103 C78.1639474,68.0271795 77.6113158,71.1451282 77.1534211,74.2733333 C76.8955263,76.0374359 76.8771053,76.4887179 77.8586842,76.5630769 C78.735,73.7707692 79.3402632,70.8579487 79.3402632,67.7784615 C79.3402632,66.5784615 79.1244737,65.4374359 78.985,64.2733333 C78.8060526,64.3912821 78.6823684,64.5733333 78.6323684,64.8964103" id="Fill-38" fill="#F90717"></path>
                        <path d="M22.02,66.9571795 C21.3121053,67.0110256 20.5936842,66.9110256 19.8857895,66.9828205 C19.8805263,67.2546154 19.8068421,67.5058974 19.8068421,67.7776923 C19.8068421,67.97 19.8594737,68.1469231 19.8621053,68.3366667 C20.8410526,67.9135897 21.9357895,67.7238462 23.1015789,67.6776923 C22.9726316,67.0905128 22.5726316,66.9135897 22.02,66.9571795" id="Fill-40" fill="#F90717"></path>
                        <path d="M77.8589474,76.5625641 C76.8773684,76.4882051 76.8957895,76.0369231 77.1536842,74.2728205 C77.6115789,71.1446154 78.1642105,68.0266667 78.6326316,64.8958974 C78.68,64.5728205 78.8063158,64.3907692 78.9852632,64.2728205 C77.6221053,52.8933333 69.88,43.56 59.3457895,39.8907692 C56.1247368,41.0164103 53.1589474,42.7292308 50.5563158,45.0753846 C49.9273684,45.6394872 49.4194737,45.6420513 48.7194737,45.06 C45.8642105,42.6882051 42.7931579,41.1035897 39.6115789,39.9497436 C29.4194737,43.5753846 21.8615789,52.5035897 20.2431579,63.4548718 C21.2431579,63.2548718 22.23,63.0830769 23.2589474,63.0882051 C25.2115789,63.0933333 26.6194737,63.8420513 27.2510526,65.7753846 C27.6721053,65.3830769 27.8957895,64.7266667 28.6247368,64.7394872 C30.38,62.8010256 32.6615789,62.9958974 34.9378947,63.2189744 C35.18,63.2420513 35.4484211,63.3087179 35.5484211,63.6317949 C35.7615789,64.3266667 35.0063158,65.9292308 34.3089474,66.2087179 C34.3852632,66.9087179 33.9247368,66.9805128 33.4036842,66.9728205 C32.7115789,66.9625641 32.0194737,66.9471795 31.3247368,66.9369231 C31.2668421,67.7907692 32.0063158,67.9164103 32.5326316,68.1728205 C33.6142105,68.6984615 34.5036842,69.3779487 34.9457895,70.5369231 C35.2457895,68.7215385 35.5142105,66.8984615 35.8694737,65.0907692 C35.98,64.5215385 36.0694737,63.9574359 36.0589474,63.3830769 C36.0457895,62.5676923 36.4010526,62.2394872 37.2036842,62.4061538 C37.1063158,61.3369231 37.8642105,61.4317949 38.5221053,61.4933333 C39.3852632,61.5728205 40.9378947,60.8830769 40.2378947,62.8984615 C40.18,63.0702564 40.2326316,63.2420513 40.4273684,63.3369231 C40.8273684,63.5292308 41.6405263,63.085641 41.6247368,63.7676923 C41.6063158,64.6138462 41.7457895,65.5830769 41.0273684,66.2984615 C41.0405263,67.3035897 40.5142105,67.5728205 39.6168421,67.3369231 C39.3615789,68.6369231 39.0326316,69.9266667 38.8721053,71.2394872 C38.6984211,72.6497436 38.9273684,72.8087179 40.4247368,72.7087179 C40.2957895,70.7241026 40.3273684,68.7651282 41.3747368,66.9702564 C41.5089474,66.7420513 41.5694737,66.4574359 41.9326316,66.5830769 C43.1957895,64.8266667 44.4957895,63.1266667 46.9615789,63.0984615 C49.5089474,63.0676923 51.1642105,64.6523077 51.2905263,67.185641 C51.3247368,67.8882051 51.0878947,68.6061538 51.3957895,69.2933333 C51.5642105,67.9241026 51.73,66.5523077 51.9010526,65.1805128 C51.9852632,64.4958974 52.2247368,63.9574359 53.0668421,64.0420513 C53.5984211,62.6497436 54.7405263,63.5369231 55.5878947,63.4215385 C56.5142105,63.2958974 55.8063158,64.2676923 56.2694737,64.634359 C57.0063158,63.8702564 57.7905263,63.0471795 59.0563158,63.3753846 C59.2563158,63.3779487 59.4589474,63.3805128 59.6589474,63.3830769 C60.3984211,62.5984615 61.1142105,61.8215385 62.0510526,61.2164103 C63.9773684,59.9651282 65.9905263,60.0651282 68.0510526,60.5702564 C68.4747368,60.6728205 69.2773684,60.7292308 69.0747368,61.5164103 C68.8457895,62.4010256 69.4642105,63.6548718 68.0510526,64.0676923 C67.9168421,64.7728205 67.5694737,64.96 66.8457895,64.7369231 C65.7194737,64.385641 64.5484211,64.234359 63.38,64.6215385 C61.5773684,66.4676923 61.33,68.6548718 62.1036842,70.9933333 C62.5194737,72.2471795 64.2352632,73.0112821 65.5378947,72.6292308 C66.0431579,72.4779487 66.5194737,72.234359 67.0089474,72.0317949 C67.18,71.46 67.1905263,70.7882051 67.9273684,70.5728205 C69.1063158,68.8676923 70.6036842,67.7317949 72.8063158,67.8266667 C73.1957895,67.8420513 73.5036842,67.685641 73.4773684,67.2112821 C72.1668421,66.5420513 70.8221053,66.7830769 69.5063158,67.1394872 C68.7194737,67.3523077 68.3405263,67.1933333 68.5931579,66.3728205 C68.8115789,65.6702564 68.5326316,64.6625641 69.6221053,64.4010256 C69.9063158,63.3651282 70.9010526,63.5164103 71.6089474,63.3138462 C72.9984211,62.9189744 74.4221053,62.9087179 75.83,63.3830769 C77.7089474,64.0164103 77.9168421,65.5164103 77.8589474,67.16 C77.7642105,69.7984615 77.0984211,72.3625641 76.7878947,74.9728205 C76.7010526,75.6958974 76.1484211,75.4215385 75.7642105,75.5189744 C75.7589474,75.9292308 75.9721053,76.5369231 75.2721053,76.4958974 C74.4010526,76.4420513 73.2878947,77.0241026 72.7773684,75.7394872 C72.4168421,75.6933333 72.0826316,75.7241026 71.8536842,76.06 C70.2984211,77.1882051 68.48,76.7676923 67.0852632,74.9574359 C66.9852632,75.4497436 66.3457895,75.3805128 66.1852632,75.8112821 C64.5721053,77.1292308 62.7221053,76.8189744 61.0142105,76.2882051 C58.8589474,75.6164103 57.8142105,73.86 57.5668421,71.66 C57.48,70.9112821 57.3905263,70.1266667 57.5142105,69.3933333 C57.73,68.134359 57.2694737,67.7625641 56.0984211,68.0317949 C55.2036842,69.9676923 55.1115789,72.0830769 54.7484211,74.134359 C54.6247368,74.8317949 54.5773684,75.5394872 53.68,75.685641 C53.88,76.3471795 53.4984211,76.5702564 52.9457895,76.6164103 C52.5536842,76.6523077 52.1484211,76.5830769 51.7615789,76.6420513 C50.7457895,76.7958974 50.1010526,76.4753846 49.9694737,75.3907692 C49.7247368,75.4215385 49.48,75.4523077 49.2352632,75.4830769 C49.2668421,75.9317949 49.3221053,76.5394872 48.7668421,76.56 C46.5457895,76.634359 44.2721053,77.1523077 42.2010526,75.7497436 C41.4536842,75.2394872 41.1010526,74.5215385 40.6826316,73.8061538 C40.3589474,74.4882051 40.5536842,75.5317949 39.4115789,75.6523077 C39.5747368,76.0266667 39.5352632,76.3471795 39.1405263,76.5523077 C37.1852632,77.5651282 34.7826316,76.4394872 34.3510526,74.3164103 C33.8168421,74.9317949 33.03,75.1779487 32.3826316,75.6292308 C32.4221053,76.2574359 31.9273684,76.5446154 31.4957895,76.5728205 C29.8221053,76.6702564 28.1457895,76.8728205 26.4694737,76.4189744 C25.8773684,76.2574359 25.7589474,76.0138462 25.8221053,75.5138462 C25.6878947,75.5215385 25.5536842,75.5266667 25.4194737,75.534359 C25.5536842,76.3471795 25.2115789,76.734359 24.3852632,76.6292308 C23.6142105,76.5292308 22.7563158,76.9266667 22.0905263,76.2189744 C21.9089474,76.0266667 21.6826316,76.0753846 21.4747368,76.1907692 C21.38,76.2446154 21.2931579,76.2471795 21.2010526,76.2933333 C23.9115789,85.2497436 30.6721053,92.3779487 39.4431579,95.5548718 C42.5352632,94.4574359 45.5563158,92.9882051 48.3063158,90.7933333 C49.3589474,89.9523077 50.0089474,89.9215385 50.9984211,90.7625641 C53.6484211,93.0035897 56.5247368,94.5933333 59.3563158,95.6625641 C68.2010526,92.5779487 75.0589474,85.5087179 77.8589474,76.5625641" id="Fill-42" fill="#F90717"></path>
                        <path d="M70.9986842,71.6046154 C70.7592105,72.2661538 70.7197368,72.945641 71.3671053,73.3584615 C72.025,73.7764103 72.7013158,73.6046154 73.2644737,73.0558974 C73.9065789,72.6097436 74.0697368,71.8994872 74.2618421,71.2097436 C74.3723684,70.8123077 74.3460526,70.4764103 73.8092105,70.4841026 C72.7328947,70.5020513 71.6144737,70.4251282 70.9986842,71.6046154 M76.4118421,75.9148718 C76.2776316,75.92 76.1434211,75.9276923 76.0092105,75.9302564 C75.3039474,75.6405128 74.0171053,76.6148718 73.9802632,74.8815385 C73.6171053,75.145641 73.3513158,75.3815385 73.0460526,75.545641 C71.8092105,76.2251282 70.5118421,76.4764103 69.2276316,75.745641 C67.9881579,75.0405128 67.7328947,73.8251282 67.7907895,72.5071795 C67.8144737,71.9738462 67.8381579,71.4379487 67.8618421,70.9046154 C69.2539474,68.8302564 71.3355263,68.1712821 73.6907895,68.0789744 C74.0828947,68.0687179 74.6302632,68.3635897 74.6223684,67.5866667 C74.6197368,67.0276923 74.5486842,66.5507692 73.8618421,66.4097436 C72.4039474,66.1020513 70.9934211,66.5097436 69.5592105,66.7071795 C69.4013158,66.1225641 69.5618421,65.6071795 69.6328947,65.0917949 C69.7460526,64.4174359 70.0592105,64.0071795 70.8013158,63.8584615 C71.8118421,63.6533333 72.8092105,63.4841026 73.8486842,63.4866667 C75.8013158,63.494359 77.2092105,64.2405128 77.8407895,66.1764103 C77.9144737,67.4148718 77.7434211,68.6379487 77.5986842,69.8584615 C77.3302632,71.1148718 76.9592105,72.3584615 77.0118421,73.6661538 C76.525,74.3379487 77.1171053,75.2969231 76.4118421,75.9148718" id="Fill-44" fill="#FFFFFF"></path>
                    </g>
                </g>
                <path d="M44.1017654,76.2961538 C44.2045707,75.4961538 44.2816747,74.6961538 44.2816747,73.8461538 C44.2816747,72.9961538 44.2045707,72.1961538 44.1017654,71.3961538 L49.5247461,67.2711538 C50.0130714,66.8961538 50.1415781,66.2211538 49.8331621,65.6711538 L44.692896,57.0211538 C44.38448,56.4711538 43.6905441,56.2711538 43.1251148,56.4711538 L36.7254835,58.9711538 C35.3890143,57.9711538 33.9497398,57.1461538 32.3819586,56.5211538 L31.4053081,49.8961538 C31.3282041,49.2961538 30.7884761,48.8461538 30.1459429,48.8461538 L19.8654107,48.8461538 C19.2228774,48.8461538 18.6831495,49.2961538 18.6060455,49.8961538 L17.6293949,56.5211538 C16.0616137,57.1461538 14.6223392,57.9961538 13.28587,58.9711538 L6.88623872,56.4711538 C6.29510812,56.2461538 5.62687353,56.4711538 5.31845756,57.0211538 L0.178191447,65.6711538 C-0.15592585,66.2211538 -0.00171786683,66.8961538 0.486607414,67.2711538 L5.90958816,71.3961538 C5.80678284,72.1961538 5.72967885,73.0211538 5.72967885,73.8461538 C5.72967885,74.6711538 5.80678284,75.4961538 5.90958816,76.2961538 L0.486607414,80.4211538 C-0.00171786683,80.7961538 -0.13022452,81.4711538 0.178191447,82.0211538 L5.31845756,90.6711538 C5.62687353,91.2211538 6.32080945,91.4211538 6.88623872,91.2211538 L13.28587,88.7211538 C14.6223392,89.7211538 16.0616137,90.5461538 17.6293949,91.1711538 L18.6060455,97.7961538 C18.6831495,98.3961538 19.2228774,98.8461538 19.8654107,98.8461538 L30.1459429,98.8461538 C30.7884761,98.8461538 31.3282041,98.3961538 31.4053081,97.7961538 L32.3819586,91.1711538 C33.9497398,90.5461538 35.3890143,89.6961538 36.7254835,88.7211538 L43.1251148,91.2211538 C43.7162454,91.4461538 44.38448,91.2211538 44.692896,90.6711538 L49.8331621,82.0211538 C50.1415781,81.4711538 50.0130714,80.7961538 49.5247461,80.4211538 L44.1017654,76.2961538 Z M25.0056768,82.5961538 C20.04532,82.5961538 16.0102111,78.6711538 16.0102111,73.8461538 C16.0102111,69.0211538 20.04532,65.0961538 25.0056768,65.0961538 C29.9660336,65.0961538 34.0011425,69.0211538 34.0011425,73.8461538 C34.0011425,78.6711538 29.9660336,82.5961538 25.0056768,82.5961538 Z" id="Shape-Copy" stroke="#FFFFFF" stroke-width="2" fill="#666666" fill-rule="nonzero"></path>
            </g>
        </g>
    </g>
</svg>
