<?xml version="1.0" encoding="UTF-8"?>
<svg width="20px" height="20px" viewBox="0 0 20 20" version="1.1" xmlns="http://www.w3.org/2000/svg" xmlns:xlink="http://www.w3.org/1999/xlink">
    <defs>
        <polygon id="path-1" points="19.8385 12.2564103 19.8385 0.029478583 -4.49945946e-06 0.029478583 -4.49945946e-06 12.2564103 19.8385 12.2564103"></polygon>
    </defs>
    <g id="Page-1" stroke="none" stroke-width="1" fill="none" fill-rule="evenodd">
        <g id="main0-uanvailable" transform="translate(-364.000000, -571.000000)">
            <g id="Page-1-Copy-4" transform="translate(364.000000, 571.000000)">
                <path d="M17.7698,2.24641026 L17.6698,2.24641026 C17.3198,2.91307692 16.9698,3.57974359 16.6198,4.29769231 C16.5698,4.40025641 16.5198,4.50282051 16.7198,4.50282051 L17.7698,4.50282051 C17.8698,4.50282051 17.9698,4.45153846 17.9198,4.34897436 C17.8698,3.63102564 17.8198,2.96435897 17.7698,2.24641026 M13.7198,6.96435897 C14.9198,4.70794872 16.1198,2.55410256 17.3198,0.348974359 C17.3698,0.195128205 17.4698,0.143846154 17.6198,0.143846154 L19.1698,0.143846154 C19.3698,0.143846154 19.4198,0.246410256 19.4198,0.40025641 C19.4698,1.11820513 19.5198,1.83615385 19.5198,2.50282051 C19.5698,3.78487179 19.6198,5.06692308 19.6698,6.40025641 C19.6698,7.06692308 19.6698,7.01564103 19.0698,7.01564103 C18.7198,7.01564103 18.2698,7.06692308 18.0698,6.91307692 C17.8198,6.70794872 18.0198,6.24641026 17.9698,5.8874359 C17.9698,5.68230769 17.9198,5.63102564 17.6698,5.63102564 L16.1198,5.63102564 C15.9698,5.63102564 15.8698,5.68230769 15.8198,5.83615385 C15.8198,5.83615385 15.8198,5.8874359 15.7698,5.8874359 C15.5698,6.24641026 15.5198,6.81051282 15.1698,6.91307692 C14.8198,7.11820513 14.2698,6.96435897 13.7198,6.96435897" id="Fill-1" fill="#AEAEAE"></path>
                <path d="M3.1198,4.40025641 C3.7698,3.27205128 4.5198,2.14384615 5.1198,1.01564103 C5.4698,0.348974359 5.8698,0.0412820513 6.6198,0.195128205 C6.7698,0.246410256 6.9698,0.195128205 7.2198,0.195128205 C6.8198,0.913076923 6.4198,1.57974359 5.9698,2.24641026 C5.0698,3.73358974 4.1698,5.22076923 3.2698,6.75923077 C3.1698,6.96435897 3.0198,7.06692308 2.8198,7.06692308 L1.5698,7.06692308 C1.4198,7.06692308 1.3698,7.01564103 1.3698,6.86179487 C1.3698,5.83615385 1.3198,4.81051282 1.3198,3.78487179 C1.3198,3.06692308 1.2698,2.34897436 1.2698,1.63102564 C1.1198,0.810512821 0.9198,0.810512821 0.2698,0.40025641 C0.1698,0.348974359 0.1698,0.0925641026 0.2698,0.0925641026 C1.1198,0.0925641026 1.8698,0.143846154 2.7698,0.143846154 C3.0198,0.143846154 3.0198,0.297692308 3.0198,0.451538462 L3.0198,4.40025641 L3.1198,4.40025641 Z" id="Fill-3" fill="#AEAEAE"></path>
                <path d="M11.0698,7.06692308 C10.2198,7.06692308 9.5698,6.91307692 8.9198,6.50282051 C8.7198,6.40025641 8.6698,6.29769231 8.8198,6.0925641 C8.9698,5.8874359 9.0198,5.52846154 9.2698,5.37461538 C9.5198,5.22076923 9.7698,5.52846154 10.0198,5.63102564 C10.5198,5.78487179 11.0198,5.8874359 11.5698,5.73358974 C11.8698,5.63102564 12.1198,5.52846154 12.1698,5.22076923 C12.2198,4.91307692 12.0698,4.65666667 11.8198,4.50282051 C11.4198,4.24641026 11.0698,4.04128205 10.7698,3.78487179 C9.6698,2.86179487 9.7198,1.37461538 10.9198,0.554102564 C11.3198,0.246410256 11.8198,0.143846154 12.3198,0.0412820513 C12.9198,-0.0612820513 13.4698,0.0412820513 14.0698,0.195128205 C14.0698,0.195128205 14.1198,0.195128205 14.1198,0.246410256 C15.0198,0.605384615 15.0698,1.01564103 14.3698,1.63102564 C14.2198,1.73358974 14.1698,1.63102564 14.0698,1.57974359 C13.7198,1.37461538 13.4198,1.22076923 13.0198,1.16948718 C12.5698,1.06692308 12.1698,1.27205128 11.9698,1.63102564 C11.8198,1.93871795 11.9198,2.29769231 12.2698,2.60538462 C12.4198,2.75923077 12.6198,2.86179487 12.8198,3.01564103 C13.5198,3.47717949 13.9698,4.0925641 13.8698,4.96435897 C13.7198,5.99 13.0698,6.70794872 12.1698,6.96435897 C11.7698,7.06692308 11.3698,7.11820513 11.0698,7.06692308" id="Fill-5" fill="#AEAEAE"></path>
                <path d="M5.5698,6.96435897 C6.3198,4.70794872 7.0198,2.55410256 7.7198,0.40025641 C7.7698,0.143846154 7.8698,0.0925641026 8.1198,0.0925641026 L9.2698,0.0925641026 C9.5698,0.0925641026 9.5698,0.143846154 9.5198,0.40025641 C9.0198,1.8874359 8.5698,3.37461538 8.0698,4.86179487 C7.8698,5.47717949 7.6698,6.0925641 7.4698,6.70794872 C7.4198,6.91307692 7.3198,7.01564103 7.1198,7.01564103 C6.5698,6.96435897 6.0698,6.96435897 5.5698,6.96435897" id="Fill-7" fill="#AEAEAE"></path>
                <g id="Group-11" transform="translate(0.000000, 7.579744)">
                    <mask id="mask-2" fill="white">
                        <use xlink:href="#path-1"></use>
                    </mask>
                    <g id="Clip-10"></g>
                    <path d="M13.5698,12.2564103 C12.5698,12.2564103 11.3198,11.8461538 10.2198,10.8717949 C10.0198,10.7179487 9.8698,10.7179487 9.6698,10.8717949 C6.8198,13.2307692 2.7198,12.4615385 0.8198,9.23076923 C-1.2802,5.48717949 0.8698,0.923076923 4.8198,0.153846154 C6.6698,-0.205128205 8.3198,0.205128205 9.7698,1.48717949 C9.9198,1.58974359 10.0198,1.58974359 10.1198,1.48717949 C10.8198,0.871794872 11.5698,0.461538462 12.4698,0.256410256 C13.8698,-0.0512820513 15.2198,0.0512820513 16.5198,0.717948718 C17.8198,1.38461538 18.7698,2.46153846 19.3698,3.84615385 C19.8698,5.02564103 19.9698,6.30769231 19.6698,7.58974359 C19.2198,9.48717949 18.1198,10.8717949 16.4198,11.7435897 C15.6698,12.1025641 14.8698,12.2564103 13.5698,12.2564103" id="Fill-9" fill="#AEAEAE" mask="url(#mask-2)"></path>
                </g>
                <path d="M9.9698,13.5797436 C9.9698,13.7335897 10.1198,13.7848718 10.2198,13.8361538 C10.4198,13.9387179 10.6198,14.0925641 10.7198,14.3489744 C10.7698,14.6053846 10.7698,14.8617949 10.6198,15.1182051 C10.5198,15.2207692 10.3698,15.2720513 10.2198,15.3746154 L9.5698,15.3746154 C9.1198,15.3746154 9.1198,15.3746154 9.1698,14.9130769 C9.2198,14.7592308 9.2698,14.7592308 9.4198,14.7592308 C9.5698,14.8105128 9.7698,14.8105128 9.9198,14.8105128 C10.0198,14.7592308 10.1198,14.7592308 10.1198,14.6053846 C10.1198,14.4515385 10.0198,14.4002564 9.8698,14.3489744 C9.3198,14.0412821 9.1698,13.7335897 9.4198,13.1182051 C9.7698,12.7079487 10.2198,12.7592308 10.6698,12.8105128 C10.7198,12.8105128 10.7698,12.8105128 10.7698,12.9130769 C10.8198,13.0669231 10.6698,13.3746154 10.5198,13.4258974 C10.4198,13.4258974 10.2698,13.4771795 10.1698,13.4258974 C10.0698,13.3746154 9.9698,13.4258974 9.9698,13.5797436" id="Fill-12" fill="#FCFCFA"></path>
                <path d="M9.1198,15.015641 C9.1198,14.964359 9.1698,14.8617949 9.0698,14.8105128 C9.0198,14.4002564 9.0698,13.99 9.2698,13.6310256 C9.3198,13.5797436 9.3198,13.5284615 9.3698,13.5284615 C9.3198,13.7335897 9.2698,13.9387179 9.2698,14.1951282 C9.2198,15.1182051 9.8198,15.6310256 10.7198,15.4258974 L10.8198,15.4258974 C10.8198,15.5284615 10.8198,15.6310256 10.7198,15.6310256 C10.2698,15.6310256 9.8198,15.7335897 9.4198,15.4771795 C9.2698,15.2720513 9.2198,15.1182051 9.1198,15.015641" id="Fill-14" fill="#111156"></path>
                <path d="M10.2198,12.4002564 C10.0698,12.964359 9.8698,13.4771795 9.7198,14.0412821 L9.6198,14.0412821 L9.6198,12.3489744 C9.7198,12.7079487 9.6198,13.015641 9.6698,13.4771795 C9.7698,13.1182051 9.8698,12.8617949 9.9698,12.6053846 C10.0198,12.4515385 10.1198,12.4002564 10.2198,12.4002564" id="Fill-16" fill="#111156"></path>
                <path d="M10.0698,14.7592308 C10.1198,14.3489744 9.8198,14.4515385 9.6198,14.4515385 C9.7198,14.1951282 9.9698,14.2464103 10.1698,14.1951282 C10.2698,14.1951282 10.2698,14.2464103 10.2698,14.3489744 C10.2198,14.5028205 10.2198,14.6566667 10.0698,14.7592308" id="Fill-18" fill="#111156"></path>
                <path d="M15.9198,13.7335897 C15.9198,17.1320513 13.2558,19.8874359 9.9698,19.8874359 C6.6838,19.8874359 4.0198,17.1320513 4.0198,13.7335897 C4.0198,10.3351282 6.6838,7.57974359 9.9698,7.57974359 C13.2558,7.57974359 15.9198,10.3351282 15.9198,13.7335897 Z" id="Fill-20" fill="#AEAEAE"></path>
                <g id="Page-1" transform="translate(0.727273, 12.000000)" fill="#FFFFFF">
                    <path d="M1.40489923,1.74432645 C1.50329459,1.45581818 1.83466252,0.456892562 1.90937394,0.248677686 C1.92421956,0.207161157 1.97255412,0.149347107 2.0068026,0.148363636 C2.28617636,0.140214876 2.56582632,0.143797521 2.86605299,0.143797521 C2.81267782,0.478528926 2.53378741,2.16785124 2.4519639,2.70454545 C2.40687466,2.99979752 2.15567305,3.14949587 1.89956893,3.00822727 C1.85876075,2.98574793 1.83121005,2.88915702 1.83887453,2.83267769 C1.89252589,2.43914876 2.09663584,1.25160744 2.03649383,1.24732231 C1.97110408,1.24268595 1.60099945,2.33244215 1.42195443,2.84897521 C1.36712922,3.00717355 1.27736504,3.05564463 1.08250771,3.02873967 C0.921622679,3.00661157 0.964226141,2.88009504 0.961878462,2.78392562 C0.952418698,2.39812397 0.943994675,1.26902893 0.853401899,1.26902893 C0.797126661,1.26902893 0.637622613,2.54866529 0.581071178,2.80169835 C0.546822689,2.95504959 0.490271254,3.05002479 0.319650256,3.03035537 C0.257160575,3.02311983 0.193220857,3.0277562 0.129971632,3.02902066 C0.023842748,3.03119835 -0.013512962,2.98139256 0.00423272648,2.87510744 C0.0977946251,2.31628512 0.1885255,1.75704132 0.281327855,1.19807851 C0.332010094,0.89285124 0.388837727,0.58853719 0.434410312,0.282466942 C0.450844063,0.17203719 0.500214363,0.134595041 0.605307507,0.13768595 C0.789185984,0.143024793 0.973478757,0.143657025 1.15728818,0.137545455 C1.26811243,0.133892562 1.31561839,0.180466942 1.31672318,0.289702479 C1.32114234,0.710628099 1.34855494,1.67871488 1.35690992,1.74179752 C1.37292937,1.7426405 1.38887978,1.74348347 1.40489923,1.74432645" id="Fill-1"></path>
                    <path d="M16.6782336,2.08030124 C16.6820313,2.24116901 16.7186965,2.39072686 16.8874532,2.44495826 C17.0477168,2.49645 17.2500314,2.42767727 17.3495316,2.29715661 C17.5486699,2.03597479 17.5606845,1.73517314 17.498402,1.4305781 C17.4658107,1.2708343 17.1927204,1.18780124 17.0455072,1.2501814 C16.731954,1.3830905 16.6772669,2.03941694 16.6782336,2.08030124 M17.3765989,2.8669376 C17.2023874,2.92418967 17.0513764,2.99008223 16.8937367,3.02246653 C16.4678401,3.10992521 16.1899164,2.69497066 16.1423414,2.37063595 C16.0686657,1.86815248 16.1544941,1.39706983 16.4786809,0.985065702 C16.9246708,0.439169008 17.5720086,0.781627686 17.674616,0.915379752 C17.7132146,0.701966529 17.7620325,0.506817769 17.7796401,0.308859091 C17.792069,0.168925207 17.8474466,0.137032645 17.9735307,0.136611157 C18.3785743,0.135416942 18.390727,0.133028512 18.3316208,0.532107025 C18.2375755,1.16658636 17.9755332,2.7192062 17.9544041,2.86342521 C17.9370727,2.98144174 17.8742377,3.03827231 17.7545752,3.02984256 C17.6974023,3.02576818 17.6393318,3.02471446 17.5824351,3.03012355 C17.4545557,3.0422062 17.3630652,3.01192934 17.3765989,2.8669376" id="Fill-3"></path>
                    <path d="M3.96915813,1.98989917 C3.8019896,1.96924628 3.63440677,1.94627521 3.47842424,2.05052314 C3.3572426,2.13144876 3.30959853,2.33263884 3.38272181,2.45297355 C3.44417575,2.55391983 3.61079189,2.57963058 3.73880942,2.50783719 C3.89216808,2.42178347 3.99201347,2.2050686 3.96915813,1.98989917 M3.91847589,2.8116595 C3.84804553,2.85816364 3.79757044,2.89300661 3.74564531,2.9255314 C3.39376971,3.14596942 2.92375064,3.0295686 2.82100518,2.67116364 C2.66861321,2.13945702 2.88611873,1.68600661 3.45770943,1.56082479 C3.60733942,1.52808926 3.76539343,1.53209339 3.91985688,1.52640331 C4.01549026,1.52296116 4.10021383,1.50582066 4.10200912,1.39047355 C4.10373535,1.27414298 4.03634317,1.22489917 3.91999497,1.20361405 C3.74916683,1.17242397 3.25159706,1.2155562 3.08000937,1.22721736 C3.10714577,1.07962645 3.13345358,0.929085124 3.1639734,0.779457025 C3.16777112,0.760771074 3.19159315,0.736676033 3.21016743,0.732109917 C3.55700243,0.647882645 3.90708274,0.564357851 4.25937264,0.688345455 C4.52935568,0.783390909 4.67063069,0.984580992 4.65909945,1.27547769 C4.6485349,1.54298182 4.51968877,2.35230826 4.49199997,2.60716777 C4.47846629,2.73101488 4.42060292,3.0106719 4.35548936,3.0207876 C4.2300957,3.04024628 4.02640006,3.1126719 3.95465776,2.90775868 C3.94726948,2.8865438 3.9389145,2.86568017 3.91847589,2.8116595" id="Fill-6"></path>
                    <path d="M14.0626088,1.98989917 C13.8954403,1.96924628 13.7278575,1.94627521 13.571875,2.05052314 C13.4506933,2.13144876 13.4030492,2.33263884 13.4761725,2.45297355 C13.5376265,2.55391983 13.7042426,2.57963058 13.8322601,2.50783719 C13.9856188,2.42178347 14.0854642,2.2050686 14.0626088,1.98989917 M14.0119266,2.8116595 C13.9414962,2.85816364 13.8910212,2.89300661 13.839096,2.9255314 C13.4872204,3.14596942 13.0172014,3.0295686 12.9144559,2.67116364 C12.7620639,2.13945702 12.9795695,1.68600661 13.5511602,1.56082479 C13.7007901,1.52808926 13.8588442,1.53209339 14.0133076,1.52640331 C14.108941,1.52296116 14.1936646,1.50582066 14.1954598,1.39047355 C14.1971861,1.27414298 14.1297939,1.22489917 14.0134457,1.20361405 C13.8426175,1.17242397 13.3450478,1.2155562 13.1734601,1.22721736 C13.2005965,1.07962645 13.2269043,0.929085124 13.2574241,0.779457025 C13.2612218,0.760771074 13.2850439,0.736676033 13.3036182,0.732109917 C13.6504531,0.647882645 14.0005335,0.564357851 14.3528234,0.688345455 C14.6228064,0.783390909 14.7640814,0.984580992 14.7525502,1.27547769 C14.7419856,1.54298182 14.6131395,2.35230826 14.5854507,2.60716777 C14.571917,2.73101488 14.5140536,3.0106719 14.4489401,3.0207876 C14.3235464,3.04024628 14.1198508,3.1126719 14.0481085,2.90775868 C14.0407202,2.8865438 14.0323652,2.86568017 14.0119266,2.8116595" id="Fill-8"></path>
                    <path d="M8.78010405,1.57140413 C8.93297936,1.56585455 8.98773551,1.50621405 8.92676492,1.36487521 C8.88837346,1.27573058 8.79978312,1.1781562 8.71264281,1.14858182 C8.57254164,1.10116446 8.44259072,1.18089587 8.36111246,1.30467273 C8.31919949,1.36831736 8.22439471,1.54267273 8.41952823,1.55967273 C8.49817547,1.56655702 8.71733817,1.57365207 8.78010405,1.57140413 M9.34285643,2.40665207 C9.32262496,2.58690826 9.32096778,2.73653636 9.26462349,2.86986694 C9.23437987,2.94137934 9.10304796,3.00558595 9.01549336,3.00804463 C8.76152977,3.01535041 8.50121364,3.01830083 8.25332639,2.97011074 C7.91332729,2.90393719 7.72378676,2.64893719 7.66689008,2.31280083 C7.58285699,1.81614793 7.64355139,1.3411314 7.99066258,0.95132562 C8.28916302,0.615961983 8.69834959,0.537354545 9.07045666,0.717680992 C9.38214552,0.868784298 9.4994604,1.23189587 9.46894058,1.67902397 C9.44428996,2.04023884 9.4615523,2.05780083 9.05609439,2.04649091 C8.83209823,2.0401686 8.60782587,2.04529669 8.38369161,2.04740413 C8.21134438,2.04894959 8.17046715,2.12053223 8.24807864,2.27753636 C8.3347356,2.45273471 8.53228585,2.53197438 8.81676927,2.5161686 C8.98649262,2.50675537 9.15083013,2.47928843 9.34285643,2.40665207" id="Fill-10"></path>
                    <path d="M12.6713538,2.33992355 C12.6407649,2.5319814 12.6273693,2.70703926 12.5786895,2.87127893 C12.5623248,2.92642355 12.4608222,2.97559711 12.390599,2.99091116 C11.9229276,3.09284091 11.4985502,3.04338636 11.2173121,2.6068657 C11.1060045,2.43398554 11.0354361,2.21221281 11.0137546,2.00540289 C10.9503672,1.40049793 11.0649892,0.834650826 11.5194722,0.396584711 C11.9333541,-0.00235330579 12.4502577,0.014927686 12.9054311,0.181204545 C12.9418202,0.194481405 12.984976,0.273650826 12.9772425,0.312427686 C12.9455488,0.471188017 12.8960404,0.626295455 12.8493631,0.781613636 C12.8477749,0.786882231 12.6098308,0.694576446 12.2921346,0.708977273 C12.1084633,0.717266529 11.9953604,0.809080579 11.9003485,0.891832645 C11.5974979,1.15575413 11.5396346,1.74653926 11.6648211,2.10248554 C11.7563115,2.36268388 12.0038535,2.4946095 12.2747342,2.44424174 C12.3972278,2.4214814 12.5165451,2.38129959 12.6713538,2.33992355" id="Fill-12"></path>
                    <path d="M4.82226311,2.99785165 C4.71937955,2.97530207 4.6916217,2.91271116 4.70736496,2.80523182 C4.75756385,2.46214091 4.75328279,2.46466983 5.08478883,2.51616157 C5.41967828,2.56814504 5.64802455,2.54440124 5.67391806,2.36660372 C5.7027807,2.1684343 5.52118085,2.06074421 5.29842758,1.97223182 C4.94116613,1.83026074 4.85948073,1.53283099 4.94876156,1.15033099 C5.01497991,0.866248347 5.25603127,0.670256612 5.59920664,0.644686364 C5.79330443,0.630215289 6.01626485,0.620310331 6.20691016,0.663091322 C6.35364008,0.696037603 6.36655231,0.696037603 6.30268164,0.951669835 C6.23356322,1.22795496 6.22755593,1.23013264 5.94707738,1.1739343 C5.83860082,1.15222769 5.70105447,1.12834339 5.58546582,1.22289711 C5.49169677,1.29960785 5.5163474,1.45387231 5.64139581,1.53086405 C5.7246003,1.58207479 5.81629787,1.61902521 5.89970951,1.66995496 C6.16693058,1.83335165 6.26574023,2.08568223 6.22859167,2.38788884 C6.19310029,2.67611612 6.04429889,2.86929793 5.75436058,2.96483512 C5.53581932,3.0369095 5.00068669,3.0369095 4.82226311,2.99785165" id="Fill-15"></path>
                    <path d="M7.39864708,2.48705785 C7.38069424,2.6265 7.36826536,2.7419876 7.34948393,2.85649174 C7.34423618,2.88831405 7.32676668,2.92463223 7.303428,2.94570661 C7.11292078,3.1177438 6.60402691,3.03386777 6.49838137,2.79945041 C6.44825153,2.68831818 6.4238771,2.54613636 6.44113944,2.4258719 C6.53635853,1.76118595 6.64642323,1.09853719 6.75773081,0.436380165 C6.76539529,0.390859504 6.82146338,0.323842975 6.86102867,0.319206612 C6.99726308,0.303119835 7.13688091,0.30227686 7.27325342,0.316115702 C7.29762785,0.31857438 7.33850508,0.425421488 7.32662859,0.47227686 C7.29472778,0.598371901 7.31129963,0.666652893 7.45506042,0.659417355 C7.55504391,0.654429752 7.58604708,0.709012397 7.57320389,0.803847107 C7.56374413,0.873252066 7.56153455,0.943640496 7.55566535,1.01353719 C7.54565319,1.1337314 7.5168596,1.22533471 7.36550338,1.23032231 C7.26110073,1.23376446 7.19653957,1.30429339 7.17934628,1.42308264 C7.14102387,1.68876033 7.08771776,1.95219008 7.04690958,2.21751653 C7.02149941,2.38266942 7.08647487,2.45853719 7.24701466,2.47160331 C7.29162055,2.4752562 7.3360193,2.48059504 7.39864708,2.48705785" id="Fill-17"></path>
                    <path d="M10.4390566,0.923683058 C10.6118872,0.827794628 10.7089706,0.606092149 10.9601722,0.66046405 C10.8873252,0.874228512 10.8193115,1.07499711 10.7499169,1.27520372 C10.7446001,1.29051777 10.7312736,1.31103017 10.7180161,1.31440207 C10.3693168,1.40298471 10.3812623,1.71685248 10.3245728,1.97972025 C10.2632569,2.26436488 10.2223107,2.55350537 10.1735618,2.84088967 C10.1518112,2.9691624 10.0863524,3.03372025 9.95094663,3.03048884 C9.58885172,3.02184835 9.53526941,3.08900537 9.61619527,2.64819959 C9.72356704,2.06359628 9.78591863,1.47042273 9.87347323,0.881885537 C9.88445208,0.808054959 9.92318878,0.684769835 9.96282312,0.67879876 C10.1007147,0.658005372 10.246616,0.667699587 10.3846457,0.693129339 C10.4117821,0.698116942 10.4173061,0.824773967 10.4390566,0.923683058" id="Fill-19"></path>
                    <path d="M15.7201666,0.923683058 C15.8929972,0.827794628 15.9900806,0.606092149 16.2412822,0.66046405 C16.1684352,0.874228512 16.1004215,1.07499711 16.0310269,1.27520372 C16.0257101,1.29051777 16.0123836,1.31103017 15.9991261,1.31440207 C15.6504268,1.40298471 15.6623723,1.71685248 15.6056828,1.97972025 C15.5443669,2.26436488 15.5034207,2.55350537 15.4546718,2.84088967 C15.4329212,2.9691624 15.3674624,3.03372025 15.2320566,3.03048884 C14.8699617,3.02184835 14.8163794,3.08900537 14.8973053,2.64819959 C15.004677,2.06359628 15.0670286,1.47042273 15.1545832,0.881885537 C15.1655621,0.808054959 15.2042988,0.684769835 15.2439331,0.67879876 C15.3818247,0.658005372 15.527726,0.667699587 15.6657557,0.693129339 C15.6928921,0.698116942 15.6984161,0.824773967 15.7201666,0.923683058" id="Fill-21"></path>
                </g>
            </g>
        </g>
    </g>
</svg>