<?xml version="1.0" encoding="utf-8"?>
<!-- Generator: Adobe Illustrator 22.0.0, SVG Export Plug-In . SVG Version: 6.00 Build 0)  -->
<svg version="1.1" id="Слой_1" xmlns="http://www.w3.org/2000/svg" xmlns:xlink="http://www.w3.org/1999/xlink" x="0px" y="0px"
	 viewBox="0 0 19.6 20" style="enable-background:new 0 0 19.6 20;" xml:space="preserve">
<style type="text/css">
	.st0{fill:#FFFFFF;}
	.st1{opacity:0.5;}
</style>
<g>
	<g id="XMLID_1_">
		<path id="XMLID_5_" class="st0" d="M13.4,7c1.2-2.2,2.4-4.5,3.6-6.6C17.1,0.3,17.2,0,17.4,0c0.5,0,1,0,1.5,0
			c0.2,0,0.2,0.2,0.2,0.4c0,0.7,0.1,1.4,0.1,2.1c0.1,1.3,0.1,2.5,0.2,3.8c0,0.7,0,0.7-0.6,0.7c-0.3,0-0.8,0-1-0.2
			c-0.2-0.2-0.1-0.7-0.1-1c0-0.2-0.1-0.3-0.3-0.3c-0.5,0-1,0-1.5,0c-0.2,0-0.3,0-0.3,0.2c0,0-0.3,1-0.6,1.1C14.6,7,14,7,13.4,7z
			 M17.5,2.2C17.4,2.2,17.4,2.2,17.5,2.2c-0.4,0.7-0.8,1.3-1.1,2c-0.1,0.1-0.1,0.2,0.1,0.2c0.3,0,0.7,0,1,0c0.1,0,0.2,0,0.2-0.2
			C17.6,3.6,17.5,2.9,17.5,2.2z"/>
		<path id="XMLID_4_" class="st0" d="M3,4.3C3.7,3.2,4.4,2.1,5,1c0.3-0.6,0.4-1,1-1c0.2,0,0.9,0,1.1,0C6.7,0.7,6.2,1.5,5.8,2.2
			C4.9,3.6,4,5.1,3.1,6.6C3,6.8,2.9,7,2.6,7C2.2,7,1.8,7,1.4,7C1.2,7,1.2,6.8,1.2,6.7c0-1,0-2-0.1-3c0-0.7,0-1.4-0.1-2.1
			c0-0.7-0.2-0.7-0.9-1.2C0,0.2,0.1,0,0.2,0c1,0,1.6,0,2.5,0c0.3,0,0.2,0.2,0.2,0.4c0,1.3,0,2.6,0,3.8C3,4.3,3,4.3,3,4.3z"/>
		<path id="XMLID_3_" class="st0" d="M10.9,7C10,7,9.4,6.8,8.7,6.4C8.5,6.3,8.5,6.2,8.6,6c0.1-0.2,0.2-0.6,0.4-0.7
			c0.2-0.1,0.6,0.1,0.9,0.2c0.5,0.2,0.9,0.3,1.5,0.1c0.3-0.1,0.5-0.3,0.6-0.6c0.1-0.3-0.1-0.7-0.3-0.9c-0.3-0.2-0.7-0.5-1.1-0.9
			c-0.8-0.7-0.7-2.2,0.3-2.8c0.7-0.5,2.2-0.6,3.2-0.3c0.9,0.2,0.9,0.7,0.2,1.4c-0.1,0.1-0.2,0-0.3,0c-0.3-0.2-0.7-0.4-1-0.4
			c-0.4-0.1-1.2,0.1-1.4,0.6c-0.2,0.8,0.8,1.1,1.2,1.5c0.7,0.7,0.9,1.3,0.8,1.9C13.3,6,12.9,6.6,12,6.8C11.6,6.9,11.2,7,10.9,7z"/>
		<path id="XMLID_2_" class="st0" d="M5.4,7c0.7-2.2,1.4-4.3,2.1-6.4C7.6,0.3,7.6,0,7.9,0c0.4,0,0.9,0,1.2,0c0.3,0,0.2,0.3,0.1,0.5
			C8.8,2,8.3,3.4,7.8,4.9C7.6,5.5,7.4,6.1,7.3,6.7C7.2,6.9,7.1,7,6.9,7C6.4,7,5.9,7,5.4,7z"/>
	</g>
	<g class="st1">
		<path class="st0" d="M4.3,15.1c0.1-0.1,0.2-0.3,0.2-0.4c0-0.1,0-0.1-0.1-0.1c-0.1,0-0.3,0-0.4,0c0,0.2,0,0.4,0.1,0.6
			C4.1,15.2,4.2,15.1,4.3,15.1z"/>
		<path class="st0" d="M4.6,14.1c0.1,0,0.1-0.1,0.1-0.2c0-0.1-0.1-0.2-0.3-0.2c-0.1,0-0.2,0-0.3,0c0,0.1,0,0.2,0,0.4
			c0.1,0,0.2,0,0.3,0C4.3,14.1,4.5,14.1,4.6,14.1z"/>
		<g>
			<path class="st0" d="M4.2,15.7C4.2,15.7,4.2,15.7,4.2,15.7c-0.1-0.1-0.3-0.1-0.4-0.1c-0.3,0-0.4-0.1-0.5-0.3
				c-0.1-0.2-0.1-0.5,0-0.7c0.1-0.3,0.4-0.5,0.7-0.5c0-0.1,0-0.3,0-0.4c-0.1,0-0.2,0-0.4,0.1c0-0.1,0-0.2,0-0.4
				c0-0.1,0.2-0.2,0.4-0.2c0,0,0,0,0,0c0,0,0,0,0,0c0.3-2.2,1.8-4,3.8-4.7c-1-0.4-2-0.5-3.1-0.3c-3.9,0.8-6,5.3-3.9,8.9
				c1.5,2.6,4.4,3.5,7,2.6C6.1,19,4.7,17.5,4.2,15.7z M3,15.7c-0.2,0-0.3,0-0.4,0c-0.2,0-0.2-0.1-0.2-0.3c0.1-0.3,0.1-0.5,0.1-0.8
				c0-0.3,0.1-0.6,0.1-0.9c0,0,0,0-0.1,0c-0.1,0.3-0.5,1.5-0.6,1.8c0,0.1-0.1,0.2-0.2,0.2c-0.4,0-0.3-0.1-0.3-0.4c0-0.5,0-1.1,0-1.6
				c0,0-0.1,0-0.1,0c-0.1,0.4-0.3,1.6-0.3,1.8c0,0.1,0,0.2-0.1,0.2c-0.5,0-0.5,0-0.4-0.3c0-0.3,0.2-1.6,0.4-2.6
				c0-0.1,0.1-0.2,0.3-0.2c0.2,0,0.3,0,0.5,0c0.1,0,0.2,0,0.2,0.1c0,0.5,0,1.1,0,1.6c0,0,0.1,0,0.1,0c0.2-0.5,0.3-1.1,0.5-1.6
				c0-0.1,0.1-0.2,0.2-0.2c0.2,0,0.4,0,0.6,0c0.2,0,0.2,0.1,0.2,0.3c-0.1,0.6-0.2,1.2-0.3,1.7C3.1,14.9,3.1,15.3,3,15.7z"/>
		</g>
		<path class="st0" d="M3.8,14.8c-0.1,0.1,0,0.3,0.1,0.4c0.1,0,0.1,0.1,0.2,0C4,15,4,14.7,4,14.6C3.9,14.6,3.8,14.6,3.8,14.8z"/>
	</g>
	<g>
		<path class="st0" d="M14.6,14.7c0,0.1-0.1,0.3-0.2,0.4c-0.1,0.1-0.3,0.1-0.4,0c-0.1-0.1-0.2-0.2-0.1-0.4c0.1-0.2,0.3-0.2,0.6-0.2
			C14.6,14.6,14.6,14.6,14.6,14.7z"/>
		<path class="st0" d="M4.4,14.7c0-0.1,0-0.1-0.1-0.1c-0.1,0-0.3,0-0.4,0c0,0.2,0,0.4,0.1,0.6c0.1,0,0.1,0,0.2-0.1
			C4.4,15,4.4,14.8,4.4,14.7z"/>
		<path class="st0" d="M15.4,15.4c0.1-0.4,0.1-1,0.2-1.5c0-0.2,0-0.4,0-0.6c-0.2-2.3-1.8-4.2-3.8-4.9c0,0,0,0,0,0c0,0,0,0,0,0
			c0,0,0,0,0,0C11.1,8.1,10.4,8,9.8,8c-0.7,0-1.4,0.1-2,0.3c0,0,0,0,0,0c0,0,0,0,0,0c0,0,0,0,0,0c-2,0.7-3.5,2.5-3.8,4.7
			c0,0.1,0,0.1,0,0.1c0.3-0.1,0.6-0.1,0.8,0c0.4,0.1,0.4,0.4,0.4,0.8c0,0.5-0.1,1.1-0.2,1.6c0,0.1-0.1,0.1-0.2,0.1
			c-0.1,0-0.4,0-0.3-0.3c-0.1,0.1-0.1,0.1-0.2,0.3c0,0-0.1,0-0.1,0c0,0,0,0,0,0c0.5,1.8,1.8,3.2,3.5,3.9c0,0,0,0,0,0
			C8.4,19.8,9,20,9.8,20c0.7,0,1.3-0.1,1.9-0.4c0,0,0.1,0,0.1,0c0,0,0,0,0,0c1.7-0.6,3-2,3.6-3.8c0,0,0-0.1,0-0.1
			C15.4,15.6,15.4,15.5,15.4,15.4z M6.7,15.4c-0.2,0.2-0.4,0.3-1,0.3c-0.4,0-0.4,0-0.4-0.4c0-0.1,0.1-0.2,0.2-0.2
			c0.1,0,0.7,0.1,0.7-0.2c0-0.2-0.1-0.2-0.2-0.3c-0.6-0.3-0.7-0.7-0.4-1.1c0.3-0.4,0.8-0.4,1.2-0.3c0,0,0.1,0,0.1,0.1
			c0,0.1-0.1,0.5-0.2,0.5c-0.1,0-0.2,0-0.3,0c-0.2,0-0.4,0.2,0,0.4c0.2,0.1,0.4,0.2,0.5,0.5C6.9,14.9,6.9,15.2,6.7,15.4z M8,13.8
			c-0.2,0-0.3,0-0.3,0.2c0,0.3-0.1,0.5-0.1,0.8c0,0.3,0,0.3,0.3,0.3C8,15.1,8,15.3,8,15.4c0,0.2,0,0.3-0.2,0.3c-0.1,0-0.3,0-0.3,0
			c-0.4,0-0.5-0.2-0.5-0.6c0-0.3,0.2-1.4,0.3-2.1c0-0.2,0.1-0.2,0.3-0.2c0.3,0,0.4,0,0.3,0.3c0,0,0,0.1,0,0.1c0.1,0,0.2-0.1,0.2,0.1
			C8.1,13.5,8.1,13.7,8,13.8z M9.8,14.6c-0.3,0-0.5,0-0.8,0c-0.2,0-0.3,0.1-0.2,0.3c0,0.1,0.2,0.2,0.3,0.2c0.3,0.1,0.5,0.1,0.7,0
			c0.1,0,0.2-0.1,0.3,0c0,0.1,0,0.3-0.2,0.5c-0.1,0-0.2,0.1-0.6,0.1c-0.7,0-1.2-0.3-1.1-1.2c0-0.2,0-0.5,0.1-0.7
			c0.2-0.4,0.5-0.7,0.9-0.7c0.5,0,0.7,0.3,0.9,0.8c0,0.2,0,0.4,0,0.5C10.1,14.6,10,14.6,9.8,14.6z M11.1,14.1c0,0-0.1,0-0.1,0.2
			c-0.1,0.5-0.1,0.7-0.2,1.2c0,0.1,0,0.2-0.2,0.2c-0.1,0-0.2,0-0.3,0c-0.2,0-0.2,0-0.2-0.3c0.1-0.5,0.2-1.3,0.3-1.9
			c0.1-0.3,0-0.3,0.5-0.3c0.2,0,0,0.3,0.1,0.5c0.1-0.2,0.3-0.3,0.5-0.3c-0.1,0.1-0.1,0.3-0.1,0.3C11.3,14,11.3,14,11.1,14.1z
			 M12.3,13.4c-0.3,0.4-0.4,0.8-0.2,1.2c0.1,0.3,0.3,0.5,0.6,0.5c0.1,0,0.3-0.1,0.4-0.1c0,0,0.1,0,0.1,0c0,0.1,0,0.4-0.1,0.5
			c0,0.1-0.4,0.1-0.5,0.1c-0.8,0-1.1-0.3-1.2-1.1c0-0.5,0-1,0.3-1.3c0.1-0.2,0.3-0.4,0.6-0.5c0.4-0.1,0.6-0.2,1.1-0.1
			c0.1,0,0.3,0.1,0.3,0.2c0,0.2-0.1,0.3-0.3,0.5C12.9,13.1,12.5,13.1,12.3,13.4z M12.3,14.6L12.3,14.6L12.3,14.6L12.3,14.6
			L12.3,14.6z M15.3,14.5c0,0.3-0.1,0.8-0.3,1.2c-0.2,0-0.5,0-0.5-0.2c-0.1,0.1-0.2,0.2-0.4,0.2c-0.6,0-0.8-0.2-0.9-0.6
			c0-0.1,0-0.4,0.1-0.6c0.3-0.4,0.6-0.4,1-0.4c0.1,0,0.2,0,0.2-0.1c0-0.1,0-0.2-0.2-0.2c-0.3-0.1-0.6,0-0.8,0.1c0-0.1,0-0.2,0-0.3
			c0-0.1,0.1-0.2,0.2-0.2c0.2-0.1,0.4-0.1,0.6-0.1c0.4,0,0.6,0.1,0.7,0.5C15.4,13.8,15.4,14.2,15.3,14.5z"/>
		<path class="st0" d="M14.5,14.6c-0.3,0-0.5,0-0.6,0.2c-0.1,0.1,0,0.3,0.1,0.4c0.1,0.1,0.3,0.1,0.4,0c0.1-0.1,0.2-0.3,0.2-0.4
			C14.6,14.6,14.6,14.6,14.5,14.6z"/>
		<path class="st0" d="M8.8,13.9C8.7,14,8.8,14.1,9,14.1c0.1,0,0.2,0,0.3,0c0.1,0,0.3,0,0.3-0.1c0-0.1,0-0.2-0.2-0.3
			C9.2,13.6,9,13.7,8.8,13.9z"/>
		<path class="st0" d="M4,13.7C4,13.7,4,13.7,4,13.7C4,13.7,4,13.7,4,13.7z"/>
		<path class="st0" d="M4.6,14.1c0.1,0,0.1-0.1,0.1-0.2c0-0.1-0.1-0.2-0.3-0.2c-0.1,0-0.2,0-0.3,0c0,0.1,0,0.3,0,0.4
			c0.1,0,0.2,0,0.3,0C4.3,14.1,4.5,14.1,4.6,14.1z"/>
		<polygon class="st0" points="12.3,14.6 12.3,14.6 12.3,14.6 12.3,14.6 		"/>
	</g>
	<g class="st1">
		<path class="st0" d="M17.4,13.9c-0.3,0.2-0.3,0.9-0.1,1.1c0.2,0.2,0.5,0.2,0.6-0.1c0.2-0.3,0.3-0.8,0.1-1
			C17.8,13.7,17.6,13.7,17.4,13.9z"/>
		<path class="st0" d="M19.1,11.7c-0.6-1.4-1.5-2.4-2.8-3.1c-1.3-0.7-2.6-0.8-4-0.5c-0.2,0-0.4,0.1-0.6,0.2c2.1,0.7,3.6,2.6,3.9,4.9
			c0,0.2,0,0.4,0,0.5c0-0.1,0-0.3,0.1-0.4c0.1-0.3,0-0.3,0.5-0.3c0.2,0,0,0.3,0.1,0.5c0.1-0.2,0.4-0.3,0.6-0.3
			c-0.1,0.1-0.1,0.2-0.2,0.3c-0.1,0.3-0.1,0.4-0.3,0.5c0,0-0.1,0-0.1,0.2c-0.1,0.5-0.1,0.7-0.2,1.2c0,0.1,0,0.2-0.2,0.2
			c-0.1,0-0.2,0-0.3,0c-0.1,0-0.2,0-0.2,0c0,0.1,0,0.1-0.1,0.2c-0.6,1.8-1.9,3.2-3.6,3.9c0.6,0.2,1.2,0.3,1.7,0.3
			c1.2,0,2.1-0.2,2.8-0.6c1.7-0.8,2.8-2.2,3.2-4.1C19.7,14.1,19.6,12.9,19.1,11.7z M18.9,12.8c0,0.3-0.3,1.8-0.4,2.7
			c0,0.2-0.1,0.2-0.3,0.2c-0.2,0-0.4,0-0.4-0.2c-0.1,0-0.1,0.1-0.2,0.2c-0.1,0-0.2,0-0.2,0c-0.6,0-0.8-0.3-0.9-0.8
			c0-0.3,0.1-0.9,0.2-1.2c0.2-0.3,0.4-0.5,0.9-0.5c0.3,0,0.5,0.4,0.5,0.2c0-0.2,0.1-0.5,0.1-0.7c0.1-0.2,0.1-0.3,0.5-0.2
			C19,12.5,18.9,12.8,18.9,12.8z"/>
	</g>
</g>
</svg>
