<?xml version="1.0" encoding="UTF-8"?>
<svg width="35px" height="35px" viewBox="0 0 35 35" version="1.1" xmlns="http://www.w3.org/2000/svg" xmlns:xlink="http://www.w3.org/1999/xlink">
    <!-- Generator: Sketch 47.1 (45422) - http://www.bohemiancoding.com/sketch -->
    <title>w1</title>
    <desc>Created with Sketch.</desc>
    <defs></defs>
    <g id="Page-1" stroke="none" stroke-width="1" fill="none" fill-rule="evenodd">
        <g id="w1">
            <g id="Group">
                <g>
                    <g>
                        <circle id="XMLID_236_" fill="#000000" cx="17.5" cy="17.5" r="17.0625"></circle>
                        <path d="M25.2,17.9375 C25.2,18.025 25.1125,18.025 25.1125,18.1125 C23.1,20.475 21.0875,22.925 19.075,25.2875 C18.375,26.1625 17.2375,26.25 16.45,25.55 C15.925,25.025 15.6625,24.4125 15.6625,23.625 L15.6625,16.975 L15.6625,16.8 C15.6625,16.8 15.6625,16.8 15.575,16.8 C15.4875,16.8875 15.4875,16.975 15.4,16.975 C13.0375,19.775 10.7625,22.4875 8.4,25.2875 C7.7,26.075 6.825,26.25 5.95,25.8125 C5.25,25.375 4.9875,24.675 4.9,23.8 L4.9,23.5375 L4.9,11.6375 C4.9,10.85 5.075,10.2375 5.6,9.7125 C6.7375,8.4 8.3125,8.925 8.75,10.5 C8.8375,10.85 8.925,11.1125 8.925,11.4625 L8.925,18.025 L8.925,18.2875 C9.0125,18.2 9.1,18.1125 9.1,18.1125 C11.375,15.4 13.7375,12.6 16.0125,9.8875 C16.3625,9.45 16.7125,9.1 17.2375,9.0125 C18.1125,8.8375 19.075,9.45 19.3375,10.5875 C19.425,10.85 19.425,11.2 19.425,11.4625 L19.425,18.025 L19.425,18.2875 C19.5125,18.2 19.5125,18.1125 19.6,18.1125 C20.475,17.15 21.2625,16.1 22.1375,15.1375 C22.225,15.05 22.225,15.05 22.3125,14.9625 C22.4,15.05 22.3125,15.1375 22.225,15.1375 C21.9625,15.925 21.9625,16.8 22.4,17.5 C22.8375,18.2 23.5375,18.4625 24.2375,18.2875 C24.675,18.2875 24.9375,18.025 25.2,17.9375 L25.2,17.9375 Z" id="XMLID_235_" fill="#FDFDFD"></path>
                        <path d="M25.2,17.9375 C24.9375,18.1125 24.675,18.2875 24.325,18.375 C23.5375,18.55 22.925,18.2875 22.4875,17.5875 C22.05,16.8875 22.05,16.0125 22.3125,15.225 C22.3125,15.1375 22.4,15.1375 22.4,15.05 L22.4,15.05 C22.4875,15.05 22.4,15.05 22.4875,14.9625 C22.575,14.7875 22.75,14.6125 22.8375,14.4375 C24.15,12.8625 25.4625,11.375 26.775,9.8 C27.5625,8.8375 28.9625,8.8375 29.6625,9.8 C29.925,10.2375 30.1,10.675 30.1,11.2 L30.1,23.625 C30.1,24.5875 29.75,25.4625 28.9625,25.9 C27.9125,26.5125 26.6,25.725 26.3375,24.325 C26.25,24.0625 26.25,23.8875 26.25,23.625 L26.25,17.15 L26.25,16.8875 C25.9875,17.2375 25.725,17.5 25.4625,17.7625 C25.2875,17.85 25.2,17.85 25.2,17.9375 L25.2,17.9375 L25.2,17.9375 Z" id="XMLID_234_" fill="#E6244C"></path>
                    </g>
                </g>
            </g>
        </g>
    </g>
</svg>