<?xml version="1.0" encoding="UTF-8"?>
<svg width="35px" height="35px" viewBox="0 0 35 35" version="1.1" xmlns="http://www.w3.org/2000/svg" xmlns:xlink="http://www.w3.org/1999/xlink">
    <!-- Generator: Sketch 47.1 (45422) - http://www.bohemiancoding.com/sketch -->
    <title>w1 white</title>
    <desc>Created with Sketch.</desc>
    <defs></defs>
    <g id="Page-1" stroke="none" stroke-width="1" fill="none" fill-rule="evenodd">
        <g id="w1-white" fill="#FFFFFF">
            <g id="w1">
                <path d="M24.8200717,18.4563813 C25.0264375,18.2401462 26.0152402,17.200513 26.25,16.8875 L26.25,17.15 L26.25,23.625 C26.25,23.8875 26.25,24.0625 26.3375,24.325 C26.6,25.725 27.9125,26.5125 28.9625,25.9 C29.75,25.4625 30.1,24.5875 30.1,23.625 L30.1,11.2 C30.1,10.675 29.925,10.2375 29.6625,9.8 C28.9625,8.8375 27.5625,8.8375 26.775,9.8 C25.4625,11.375 23.0993042,13.9525116 21.7868042,15.5275116 C21.7853861,15.5303479 21.7838688,15.5337401 21.7822578,15.5376726 C21.045024,16.3861339 20.3550929,17.2818978 19.6,18.1125 C19.5125,18.1125 19.5125,18.2 19.425,18.2875 L19.425,18.025 L19.425,11.4625 C19.425,11.2 19.425,10.85 19.3375,10.5875 C19.075,9.45 18.1125,8.8375 17.2375,9.0125 C16.7125,9.1 16.3625,9.45 16.0125,9.8875 C13.7375,12.6 11.375,15.4 9.1,18.1125 C9.1,18.1125 9.0125,18.2 8.925,18.2875 L8.925,18.025 L8.925,11.4625 C8.925,11.1125 8.8375,10.85 8.75,10.5 C8.3125,8.925 6.7375,8.4 5.6,9.7125 C5.075,10.2375 4.9,10.85 4.9,11.6375 L4.9,23.5375 L4.9,23.8 C4.9875,24.675 5.25,25.375 5.95,25.8125 C6.825,26.25 7.7,26.075 8.4,25.2875 C10.7625,22.4875 13.0375,19.775 15.4,16.975 C15.4875,16.975 15.4875,16.8875 15.575,16.8 C15.6625,16.8 15.6625,16.8 15.6625,16.8 L15.6625,16.975 L15.6625,23.625 C15.6625,24.4125 15.925,25.025 16.45,25.55 C17.2375,26.25 18.375,26.1625 19.075,25.2875 C20.9900239,23.0394285 22.9050478,20.7121278 24.8200717,18.4563813 Z M17.5,34.5625 C8.07664146,34.5625 0.4375,26.9233585 0.4375,17.5 C0.4375,8.07664146 8.07664146,0.4375 17.5,0.4375 C26.9233585,0.4375 34.5625,8.07664146 34.5625,17.5 C34.5625,26.9233585 26.9233585,34.5625 17.5,34.5625 Z" id="Combined-Shape"></path>
            </g>
        </g>
    </g>
</svg>