<?xml version="1.0" encoding="UTF-8"?>
<svg width="140px" height="140px" viewBox="0 0 140 140" version="1.1" xmlns="http://www.w3.org/2000/svg" xmlns:xlink="http://www.w3.org/1999/xlink">
    <defs>
        <linearGradient x1="80.247638%" y1="100%" x2="80.2476397%" y2="0%" id="linearGradient-1">
            <stop stop-color="#616B87" offset="0%"></stop>
            <stop stop-color="#8A98CA" offset="100%"></stop>
        </linearGradient>
    </defs>
    <g id="Page-1" stroke="none" stroke-width="1" fill="none" fill-rule="evenodd">
        <g id="Artboard">
            <circle id="Oval" fill="url(#linearGradient-1)" cx="70" cy="70" r="70"></circle>
            <g id="wex-blue" transform="translate(7.000000, 53.000000)" fill-rule="nonzero" fill="#FFFFFF">
                <polygon id="Path" points="0 0 7.79734454 34 18.8575679 34 25.7444976 13.4134336 31.4511838 34 42.9468028 34 51 0 40.1628153 0 36.8103608 19.7915717 31.4511838 0 20.0990918 0 14.758946 19.7915717 10.7346151 0"></polygon>
                <polygon id="Path-2" points="55 0 55 34 86 34 86 25.665861 67.0949804 25.665861 67.0949804 19.3611541 84.0892978 19.3611541 84.0892978 12.1607565 67.0949804 12.1607565 67.0949804 7.3224051 85.4644471 7.3224051 85.4644471 0"></polygon>
                <polygon id="Path-2-Copy" points="88.7564043 0 100.021581 16.3038424 88 33.8867481 100.821757 34 107.160834 24.1299566 113.441549 33.8867481 127 34 114.750858 16.3038424 126.321668 0 113.441549 0 107.292533 10.3007477 100.821757 0"></polygon>
            </g>
        </g>
    </g>
</svg>