<?xml version="1.0" encoding="UTF-8"?>
<svg width="20px" height="20px" viewBox="0 0 20 20" version="1.1" xmlns="http://www.w3.org/2000/svg" xmlns:xlink="http://www.w3.org/1999/xlink">
    <g id="Page-1" stroke="none" stroke-width="1" fill="none" fill-rule="evenodd">
        <g id="Artboard-2-Copy" fill-rule="nonzero" fill="#FFFFFF">
            <path d="M10,20 C4.4771525,20 0,15.5228475 0,10 C0,4.4771525 4.4771525,0 10,0 C15.5228475,0 20,4.4771525 20,10 C20,15.5228475 15.5228475,20 10,20 Z M1,7.57142857 L2.11390636,12.4285714 L3.69393827,12.4285714 L4.67778537,9.48763337 L5.49302626,12.4285714 L7.13525754,12.4285714 L8.28571429,7.57142857 L6.73754504,7.57142857 L6.25862297,10.398796 L5.49302626,7.57142857 L3.87129883,7.57142857 L3.10842086,10.398796 L2.53351644,7.57142857 L1,7.57142857 Z M8.85714286,7.57142857 L8.85714286,12.4285714 L13.2857143,12.4285714 L13.2857143,11.2379801 L10.5849972,11.2379801 L10.5849972,10.3373077 L13.0127568,10.3373077 L13.0127568,9.3086795 L10.5849972,9.3086795 L10.5849972,8.61748644 L13.2092067,8.61748644 L13.2092067,7.57142857 L8.85714286,7.57142857 Z M13.6794863,7.57142857 L15.2887973,9.90054891 L13.5714286,12.4123926 L15.4031081,12.4285714 L16.3086906,11.0185652 L17.2059356,12.4123926 L19.1428571,12.4285714 L17.3929797,9.90054891 L19.0459526,7.57142857 L17.2059356,7.57142857 L16.3275047,9.04296396 L15.4031081,7.57142857 L13.6794863,7.57142857 Z" id="Combined-Shape"></path>
        </g>
    </g>
</svg>