<svg width="176" height="62" viewBox="0 0 176 62" xmlns="http://www.w3.org/2000/svg">
  <g fill="none" fill-rule="evenodd">
    <path fill="#FFF" d="M0 0h176v62H0z" />
    <path fill="#066BA9" d="M0 0h176v22H0z" />
    <path d="M40.32 14.72c-.65.554-1.276.945-1.88 1.173-.6.227-1.247.34-1.937.34-1.14 0-2.015-.277-2.627-.834-.612-.557-.918-1.268-.918-2.134 0-.508.116-.972.347-1.392.23-.42.534-.757.908-1.01.374-.255.796-.447 1.265-.577.345-.09.865-.18 1.562-.264 1.42-.17 2.464-.37 3.135-.605.006-.24.01-.394.01-.46 0-.715-.166-1.22-.498-1.513-.45-.397-1.117-.595-2.002-.595-.827 0-1.438.144-1.83.434-.395.29-.687.803-.876 1.538l-1.72-.234c.157-.736.414-1.33.772-1.782.358-.453.876-.8 1.553-1.045.677-.243 1.462-.365 2.353-.365.886 0 1.605.104 2.16.312.552.208.96.47 1.22.786.26.316.442.715.546 1.196.06.3.088.84.088 1.62v2.344c0 1.634.038 2.668.112 3.1.075.434.223.85.445 1.246h-1.837c-.182-.365-.3-.79-.352-1.28zm-.145-3.925c-.638.26-1.595.482-2.87.664-.724.103-1.235.22-1.534.35-.3.13-.53.32-.693.572-.163.25-.244.53-.244.835 0 .47.177.86.532 1.172.355.31.874.467 1.558.467.677 0 1.28-.148 1.806-.444.527-.296.914-.7 1.162-1.216.188-.397.283-.983.283-1.758v-.645zM44.29 5.63h8.428v1.454h-3.34V16H47.63V7.084h-3.34V5.63zm10.16 0h8.428v1.454h-3.34V16H57.79V7.084h-3.34V5.63zm17.983 7.03l1.816.225c-.287 1.06-.818 1.885-1.593 2.47-.775.586-1.764.88-2.97.88-1.515 0-2.718-.468-3.607-1.402-.89-.934-1.333-2.244-1.333-3.93 0-1.745.45-3.1 1.348-4.063.898-.964 2.064-1.445 3.496-1.445 1.388 0 2.52.472 3.4 1.416.878.945 1.318 2.273 1.318 3.985 0 .104-.004.26-.01.47h-7.735c.066 1.138.388 2.01.967 2.616.58.606 1.302.91 2.168.91.645 0 1.195-.17 1.65-.51.456-.337.818-.878 1.085-1.62zM66.66 9.818h5.792c-.078-.872-.3-1.526-.664-1.963-.56-.677-1.286-1.015-2.178-1.015-.807 0-1.486.27-2.036.81s-.854 1.263-.913 2.168zM84.225 12.2l1.728.226c-.19 1.19-.672 2.124-1.45 2.798-.778.673-1.733 1.01-2.866 1.01-1.42 0-2.56-.463-3.423-1.39-.863-.93-1.294-2.26-1.294-3.99 0-1.12.184-2.1.556-2.94.37-.84.935-1.47 1.694-1.89.758-.42 1.584-.63 2.476-.63 1.126 0 2.047.285 2.763.855.715.57 1.174 1.378 1.376 2.426l-1.71.263c-.162-.697-.45-1.22-.863-1.573-.414-.35-.913-.527-1.5-.527-.885 0-1.604.317-2.157.952-.554.635-.83 1.64-.83 3.013 0 1.393.267 2.405.8 3.037.534.63 1.23.947 2.09.947.69 0 1.266-.213 1.73-.636.46-.423.754-1.074.878-1.953zm3.285-6.57h8.427v1.454h-3.34V16H90.85V7.084h-3.34V5.63zm10.227 5.184c0-1.92.534-3.343 1.602-4.267.89-.768 1.978-1.152 3.26-1.152 1.426 0 2.592.467 3.497 1.4.905.935 1.357 2.226 1.357 3.873 0 1.335-.2 2.384-.6 3.15-.4.764-.984 1.358-1.75 1.782-.764.423-1.598.634-2.503.634-1.45 0-2.625-.465-3.52-1.396-.895-.93-1.343-2.272-1.343-4.024zm1.807 0c0 1.33.29 2.323.87 2.984.58.66 1.308.99 2.187.99.873 0 1.6-.33 2.178-.995.58-.664.87-1.676.87-3.037 0-1.283-.292-2.254-.875-2.915-.582-.66-1.307-.99-2.172-.99-.878 0-1.607.328-2.187.986-.58.657-.87 1.65-.87 2.978zm10.98-5.185h4.053c.996 0 1.737.082 2.222.248.484.166.9.47 1.25.913.347.444.52.974.52 1.593 0 .495-.1.926-.306 1.294-.205.368-.513.675-.923.923.49.162.894.467 1.217.913.322.446.483.975.483 1.587-.065.983-.417 1.712-1.055 2.187-.638.475-1.565.713-2.783.713h-4.678V5.63zm1.758 4.364h1.875c.75 0 1.263-.04 1.543-.117.28-.078.53-.236.752-.474.222-.237.332-.522.332-.854 0-.548-.194-.93-.58-1.144-.388-.215-1.05-.322-1.988-.322h-1.934v2.91zm0 4.56h2.315c.996 0 1.68-.115 2.05-.346.372-.23.567-.63.586-1.196 0-.332-.107-.64-.322-.923-.214-.284-.494-.463-.84-.538-.344-.075-.897-.113-1.66-.113h-2.128v3.115zm16.4.167c-.65.554-1.277.945-1.88 1.173-.6.227-1.248.34-1.938.34-1.14 0-2.015-.277-2.627-.834-.612-.557-.918-1.268-.918-2.134 0-.508.115-.972.346-1.392.23-.42.534-.757.908-1.01.375-.255.796-.447 1.265-.577.344-.09.865-.18 1.56-.264 1.42-.17 2.466-.37 3.136-.605.007-.24.01-.394.01-.46 0-.715-.166-1.22-.498-1.513-.45-.397-1.117-.595-2.002-.595-.827 0-1.437.144-1.83.434-.395.29-.686.803-.875 1.538l-1.718-.234c.156-.736.413-1.33.772-1.782.358-.453.875-.8 1.552-1.045.677-.243 1.462-.365 2.354-.365.885 0 1.605.104 2.158.312.553.208.96.47 1.22.786.26.316.443.715.548 1.196.058.3.087.84.087 1.62v2.344c0 1.634.038 2.668.113 3.1.075.434.223.85.444 1.246h-1.836c-.182-.365-.3-.79-.35-1.28zm-.146-3.925c-.638.26-1.595.482-2.87.664-.724.103-1.235.22-1.534.35-.3.13-.53.32-.694.572-.162.25-.244.53-.244.835 0 .47.178.86.533 1.172.354.31.874.467 1.557.467.677 0 1.28-.148 1.807-.444.528-.296.916-.7 1.163-1.216.19-.397.283-.983.283-1.758v-.645zm5.512-5.166h1.758v4.315h4.873V5.63h1.757V16h-1.758v-4.6h-4.874V16h-1.758V5.63z" fill="#FFF" />
    <path d="M12.852 50l-4.56-17.18h2.333l2.613 11.262c.282 1.18.524 2.352.727 3.516.437-1.836.695-2.895.773-3.176l3.27-11.602h2.742l2.46 8.696c.618 2.156 1.063 4.183 1.337 6.082.22-1.086.504-2.332.855-3.74l2.696-11.038h2.285L25.673 50H23.48l-3.62-13.09c-.305-1.094-.485-1.765-.54-2.015-.18.79-.347 1.46-.504 2.015L15.172 50h-2.32zm27.902-4.008l2.18.27c-.344 1.273-.98 2.26-1.91 2.965-.93.703-2.118 1.054-3.563 1.054-1.82 0-3.263-.56-4.33-1.68-1.066-1.12-1.6-2.694-1.6-4.717 0-2.094.54-3.72 1.618-4.875 1.08-1.156 2.477-1.735 4.196-1.735 1.664 0 3.023.567 4.078 1.7 1.055 1.132 1.582 2.726 1.582 4.78 0 .126-.004.313-.012.563h-9.28c.077 1.368.464 2.414 1.16 3.14.694.728 1.562 1.09 2.6 1.09.774 0 1.434-.202 1.98-.608.548-.407.982-1.055 1.302-1.946zm-6.926-3.41h6.95c-.094-1.047-.36-1.832-.798-2.355-.67-.813-1.542-1.22-2.613-1.22-.97 0-1.783.325-2.443.973-.66.65-1.026 1.516-1.096 2.602zM47.528 50H45.57V32.82h2.11v6.13c.89-1.118 2.027-1.677 3.41-1.677.765 0 1.49.155 2.174.463.683.31 1.246.743 1.687 1.3.443.56.788 1.234 1.038 2.023.25.788.375 1.63.375 2.53 0 2.133-.527 3.78-1.582 4.945-1.053 1.164-2.32 1.746-3.796 1.746-1.468 0-2.62-.612-3.457-1.84V50zm-.024-6.316c0 1.492.203 2.57.61 3.234.663 1.086 1.562 1.63 2.695 1.63.92 0 1.717-.402 2.39-1.202.67-.8 1.007-1.994 1.007-3.58 0-1.625-.322-2.825-.967-3.598-.644-.773-1.424-1.16-2.338-1.16-.922 0-1.718.4-2.39 1.2-.672.802-1.008 1.96-1.008 3.476zM59.13 50V32.82h3.42l4.067 12.164c.375 1.133.65 1.98.82 2.543.196-.625.5-1.543.915-2.754l4.113-11.953h3.058V50h-2.19V35.62L68.34 50h-2.05l-4.97-14.625V50h-2.19zm19.007-6.223c0-2.304.64-4.01 1.922-5.12 1.07-.923 2.374-1.384 3.913-1.384 1.71 0 3.11.56 4.195 1.682 1.086 1.12 1.63 2.67 1.63 4.647 0 1.6-.24 2.86-.722 3.78-.48.917-1.18 1.63-2.097 2.138-.92.507-1.92.76-3.007.76-1.743 0-3.15-.557-4.225-1.675-1.074-1.117-1.61-2.726-1.61-4.828zm2.168 0c0 1.594.347 2.787 1.043 3.58.695.793 1.57 1.19 2.625 1.19 1.047 0 1.918-.4 2.613-1.195.695-.797 1.043-2.012 1.043-3.645 0-1.54-.35-2.705-1.05-3.498-.7-.794-1.568-1.19-2.607-1.19-1.055 0-1.93.394-2.625 1.183-.696.79-1.043 1.98-1.043 3.574zM92.27 50V37.555h1.898v1.77c.914-1.368 2.234-2.052 3.96-2.052.75 0 1.44.135 2.07.405.628.27 1.1.623 1.41 1.06.314.438.533.957.658 1.56.078.39.117 1.073.117 2.05V50h-2.11v-7.57c0-.86-.082-1.502-.246-1.928-.164-.426-.455-.766-.873-1.02-.418-.253-.908-.38-1.47-.38-.9 0-1.674.285-2.327.855-.652.57-.978 1.652-.978 3.246V50h-2.11zm21.867-4.008l2.18.27c-.344 1.273-.98 2.26-1.91 2.965-.93.703-2.118 1.054-3.563 1.054-1.82 0-3.264-.56-4.33-1.68-1.067-1.12-1.6-2.694-1.6-4.717 0-2.094.54-3.72 1.617-4.875 1.08-1.156 2.478-1.735 4.197-1.735 1.664 0 3.023.567 4.078 1.7 1.054 1.132 1.582 2.726 1.582 4.78 0 .126-.004.313-.012.563h-9.28c.077 1.368.464 2.414 1.16 3.14.694.728 1.56 1.09 2.6 1.09.774 0 1.434-.202 1.98-.608.548-.407.98-1.055 1.302-1.946zm-6.926-3.41h6.95c-.094-1.047-.36-1.832-.797-2.355-.672-.813-1.543-1.22-2.613-1.22-.97 0-1.783.325-2.443.973-.66.65-1.026 1.516-1.096 2.602zm11.66 12.21l-.233-1.98c.46.126.863.188 1.207.188.47 0 .843-.078 1.125-.234.28-.157.51-.375.69-.657.133-.212.348-.735.645-1.57.04-.118.1-.29.187-.517l-4.722-12.468h2.273l2.59 7.207c.336.914.637 1.875.902 2.883.242-.97.53-1.915.867-2.836l2.66-7.255h2.11l-4.734 12.656c-.508 1.368-.903 2.31-1.184 2.825-.375.695-.805 1.205-1.29 1.53-.484.324-1.062.486-1.734.486-.406 0-.86-.085-1.36-.257z" fill="#066BA9" />
    <g fill="#066BA9">
      <path d="M146.09 41.087c1.415 1.583 2.748 3.083 4.164 4.75-.5.582-1 1.082-1.583 1.665 2 2.25 3.917 4.416 5.917 6.582.166.167.916.084 1.166-.166 1-.834 1.916-1.667 3-2.666 1 1.083 1.915 2.166 2.915 3.25-4.915 4.33-13.413 4.998-19.662-.084-6.498-5.25-7.665-14.83-2.666-21.662 4.666-6.332 13.997-8.33 20.08-4.416-.584.917-.584.917-3.167-1-1.167 1-2.333 2-3.583 3.083-.333-.25-.583-.5-.833-.75-1.333-1.5-1.333-1.5-2.833-.166-1.832 1.666-3.665 3.332-5.582 5.082 1.417 1.665 2.833 3.248 4.25 4.83-.5.584-1 1.084-1.583 1.667z" />
      <path d="M149.42 41.17c1.167-1.082 2.25-2.082 3.5-3.25 1.083 1.168 2.083 2.334 3.25 3.584-1.167 1.083-2.25 2.166-3.583 3.25-1.083-1.25-2.083-2.334-3.166-3.583zM146.672 34.672c1.166-1.083 2.332-2.083 3.582-3.25 1.083 1.167 2.083 2.25 3.25 3.583-1.167 1.167-2.333 2.167-3.583 3.25-1.082-1.167-2.082-2.333-3.248-3.583zM158.836 48.086c-1.167 1.083-2.25 2.083-3.5 3.25-1.083-1.167-2.166-2.334-3.25-3.584 1.25-1.083 2.334-2.082 3.584-3.25 1.166 1.25 2.082 2.334 3.166 3.584zM156.336 30.673c.667.75 1.416 1.583 2.25 2.5-.834.75-1.667 1.5-2.583 2.25-2.75-2.75-2.75-2.917.333-4.75zM156.42 38.588c.083-.167.166-.333.333-.417.666-.582 1.333-1.165 2.166-1.915.415.417.75.833 1.165 1.25.333.416.667.75 1 1.25-2.666 2.916-2.333 2.916-4.666-.167zM163.584 53c-.833-.915-1.5-1.665-2.332-2.582.916-.833 1.666-1.5 2.582-2.332.833.833 1.583 1.666 2.333 2.582-.916.75-1.666 1.5-2.583 2.333zM160.085 43.337c.417-.333.75-.667 1.333-1.083.75.916 1.5 1.75 2.333 2.582-.915.834-1.75 1.5-2.665 2.333-.833-.834-1.583-1.667-2.333-2.583.5-.5.917-.834 1.333-1.25zM159.92 31.506c.582-.5 1.082-.916 1.665-1.5.5.584.916 1.084 1.5 1.667-.584.583-1 1-1.667 1.5-.583-.584-1-1.084-1.5-1.667zM162.335 37.172c.583-.417 1.083-.834 1.75-1.333.416.415.832.915 1.416 1.582-.5.416-1 .916-1.582 1.5-.584-.667-1-1.084-1.583-1.75zM166.334 44.42c-.583-.5-1.083-.917-1.667-1.5.667-.583 1.167-1 1.75-1.583L168 42.92c-.583.583-1.083 1-1.666 1.5z" />
    </g>
  </g>
</svg>
