<svg width="18" height="17" viewBox="0 0 18 17" xmlns="http://www.w3.org/2000/svg" xmlns:xlink="http://www.w3.org/1999/xlink"><title>Group 6</title><defs><path id="a" d="M0 0h18v18H0z"/><path id="c" d="M17.855 10.505V.025H0v10.48h17.855z"/><path id="e" d="M0 0h18v18H0z"/></defs><g fill="none" fill-rule="evenodd"><g transform="translate(0 -1)"><mask id="b" fill="#fff"><use xlink:href="#a"/></mask><g mask="url(#b)"><path d="M4.993 2.925h-.09c-.315.572-.63 1.143-.945 1.76-.045.087-.09.175.09.175h.945c.09 0 .18-.044.135-.132-.045-.616-.09-1.187-.135-1.803M1.348 6.97c1.08-1.935 2.16-3.78 3.24-5.67.045-.133.135-.177.27-.177h1.395c.18 0 .225.088.225.22.045.615.09 1.23.09 1.802.045 1.1.09 2.198.135 3.34 0 .572 0 .528-.54.528-.315 0-.72.044-.9-.088-.225-.175-.045-.57-.09-.88 0-.174-.045-.218-.27-.218H3.508c-.135 0-.225.044-.27.175 0 0 0 .044-.045.044-.18.308-.225.792-.54.88-.315.175-.81.043-1.305.043M-1.037 7.057c-.765 0-1.35-.132-1.935-.483-.18-.088-.225-.176-.09-.352s.18-.483.405-.615c.225-.132.45.132.675.22.45.13.9.22 1.395.088.27-.088.495-.176.54-.44.045-.264-.09-.484-.315-.615-.36-.22-.675-.396-.945-.616-.99-.79-.945-2.066.135-2.77.36-.263.81-.35 1.26-.44.54-.087 1.035 0 1.575.133 0 0 .045 0 .045.044.81.31.855.66.225 1.188-.135.088-.18 0-.27-.044-.315-.176-.585-.308-.945-.352-.405-.087-.765.088-.945.396-.135.264-.045.57.27.835.135.132.315.22.495.352.63.395 1.035.923.945 1.67-.135.88-.72 1.495-1.53 1.714-.36.087-.72.13-.99.087" fill="#0C0C6F"/><g transform="translate(-11 7.497)"><mask id="d" fill="#fff"><use xlink:href="#c"/></mask><path d="M12.213 10.505c-.9 0-2.025-.35-3.015-1.186-.18-.133-.315-.133-.495 0C6.138 11.34 2.448 10.68.738 7.91c-1.89-3.21.045-7.12 3.6-7.78 1.665-.308 3.15.044 4.455 1.143.135.088.225.088.315 0 .63-.528 1.305-.88 2.115-1.055 1.26-.264 2.475-.176 3.645.395 1.17.572 2.025 1.495 2.565 2.682.45 1.01.54 2.11.27 3.208-.405 1.627-1.395 2.814-2.925 3.56-.675.31-1.395.44-2.565.44" fill="#F90" mask="url(#d)"/></g><path d="M-2.027 7.497c2.957 0 5.355 2.362 5.355 5.275 0 2.913-2.398 5.274-5.355 5.274-2.958 0-5.355-2.36-5.355-5.274 0-2.913 2.397-5.275 5.355-5.275" fill="#F90717"/><g fill="#FFF"><path d="M4.665 13.07c.003.137.036.265.188.31.144.046.327-.013.416-.125.178-.224.19-.482.133-.743-.03-.137-.275-.208-.407-.155-.283.114-.332.677-.33.712m.627.673c-.156.05-.292.106-.434.133-.384.075-.635-.28-.677-.558-.067-.43.01-.835.302-1.188.402-.468.984-.174 1.077-.06.034-.183.078-.35.094-.52.01-.12.06-.147.175-.147.365 0 .376-.003.323.34-.085.543-.32 1.873-.34 1.997-.015.1-.072.15-.18.143-.05-.004-.103-.005-.154 0-.116.01-.2-.016-.187-.14M2.31 12.99c-.15-.016-.3-.036-.44.053-.11.07-.153.242-.087.345.055.087.205.11.32.047.14-.073.228-.26.208-.444m-.045.706l-.155.097c-.317.19-.74.09-.832-.218-.138-.455.058-.844.573-.95.135-.03.278-.026.417-.03.086-.004.162-.02.163-.117.002-.1-.06-.142-.163-.16-.154-.027-.602.01-.756.02l.076-.384c.004-.016.025-.037.042-.04.312-.073.627-.145.944-.038.243.08.37.254.36.503-.01.228-.126.922-.15 1.14-.013.107-.065.346-.123.355-.114.017-.298.08-.362-.097l-.033-.082M1.06 13.29c-.03.166-.04.316-.085.457-.014.047-.106.09-.17.102-.42.087-.802.044-1.055-.33-.1-.148-.164-.338-.183-.515-.057-.52.046-1.004.455-1.38.373-.34.838-.326 1.247-.184.032.012.07.08.064.114-.028.136-.073.27-.115.402-.002.004-.217-.075-.503-.063-.165.008-.267.086-.352.157-.273.226-.325.733-.212 1.038.082.223.305.336.55.293.11-.02.216-.053.356-.09M3.803 12.077c.155-.082.243-.272.47-.225l-.19.527c-.005.012-.017.03-.03.032-.313.076-.302.345-.353.57-.056.245-.092.492-.136.74-.02.11-.08.164-.2.16-.326-.006-.375.05-.302-.326.097-.5.153-1.01.232-1.514.01-.064.044-.17.08-.174.124-.018.255-.01.38.012.024.004.03.113.05.197"/></g></g></g><g transform="translate(0 -1)"><mask id="f" fill="#fff"><use xlink:href="#e"/></mask><path d="M5.284 7.676c0 .66.514 1.038 1.234.896.72-.14 1.13-.566 1.336-1.132.257-.66-.257-1.37-.925-1.322-.824.048-1.595.755-1.646 1.558M9.26 18H2.373C.932 18-.096 16.962.007 15.782c.05-.424 0-.85 0-1.274v-7.03c0-.897.463-1.605 1.337-2.076.822-.425 1.696-.85 2.52-1.274 1.9-.944 3.803-1.888 5.654-2.88.77-.376 1.49-.754 2.262-1.084.976-.425 1.902 0 2.005.99 0 .142.05.284.05.378v8.4c0 1.132-.616 2.075-1.9 2.453-.927.283-1.852.566-2.777.896-1.954.71-3.96 1.417-5.912 2.125-.206.094-.36.236-.514.424-.155.235.05.47.41.47.566-.046 1.132-.093 1.646-.187.874-.19 1.8-.33 2.673-.567.927-.236 1.852-.52 2.777-.707 1.183-.285 2.365-.568 3.548-.85.565-.142.976-.473 1.285-.897.308-.378.514-.802.514-1.32v-4.91c0-.565.05-.612.668-.612.463 0 .874-.046 1.234.237.36.236.514.566.514.944v9.25c0 .754-.617 1.32-1.696 1.32H9.26" transform="translate(9)" mask="url(#f)" fill="#EC8E00"/></g></g></svg>
