<?xml version="1.0" encoding="UTF-8"?>
<svg width="20px" height="20px" viewBox="0 0 20 20" version="1.1" xmlns="http://www.w3.org/2000/svg" xmlns:xlink="http://www.w3.org/1999/xlink">
    <g id="Page-1" stroke="none" stroke-width="1" fill="none" fill-rule="evenodd">
        <g id="main0" transform="translate(-54.000000, -331.000000)" fill="#FFFFFF">
            <g id="yandex2" transform="translate(54.000000, 331.000000)">
                <g id="yandex">
                    <g id="XMLID_238_">
                        <g>
                            <path d="M10.2545249,19.8308824 L2.82692308,19.8308824 C1.27488688,19.8308824 0.166289593,18.6985294 0.277149321,17.4117647 C0.332579186,16.9485294 0.277149321,16.4852941 0.277149321,16.0220588 L0.277149321,8.35294118 C0.277149321,7.375 0.7760181,6.60294118 1.71832579,6.08823529 C2.60520362,5.625 3.54751131,5.16176471 4.43438914,4.69852941 C6.48529412,3.66911765 8.5361991,2.63970588 10.5316742,1.55882353 C11.3631222,1.14705882 12.1391403,0.735294118 12.9705882,0.375 C14.0237557,-0.0882352941 15.0214932,0.375 15.1323529,1.45588235 C15.1323529,1.61029412 15.1877828,1.76470588 15.1877828,1.86764706 L15.1877828,11.0294118 C15.1877828,12.2647059 14.5226244,13.2941176 13.1368778,13.7058824 C12.1391403,14.0147059 11.1414027,14.3235294 10.1436652,14.6838235 C8.03733032,15.4558824 5.87556561,16.2279412 3.76923077,17 C3.54751131,17.1029412 3.38122172,17.2573529 3.21493213,17.4632353 C3.04864253,17.7205882 3.27036199,17.9779412 3.65837104,17.9779412 C4.26809955,17.9264706 4.87782805,17.875 5.4321267,17.7720588 C6.37443439,17.5661765 7.37217195,17.4117647 8.31447964,17.1544118 C9.31221719,16.8970588 10.3099548,16.5882353 11.3076923,16.3823529 C12.5825792,16.0735294 13.8574661,15.7647059 15.1323529,15.4558824 C15.7420814,15.3014706 16.1855204,14.9411765 16.5180995,14.4779412 C16.8506787,14.0661765 17.0723982,13.6029412 17.0723982,13.0367647 L17.0723982,7.68382353 C17.0723982,7.06617647 17.1278281,7.01470588 17.7929864,7.01470588 C18.2918552,7.01470588 18.7352941,6.96323529 19.1233032,7.27205882 C19.5113122,7.52941176 19.6776018,7.88970588 19.6776018,8.30147059 L19.6776018,18.3897059 C19.6776018,19.2132353 19.0124434,19.8308824 17.8484163,19.8308824 L10.5316742,19.8308824 C10.4208145,19.8308824 10.3653846,19.8308824 10.2545249,19.8308824 L10.2545249,19.8308824 L10.2545249,19.8308824 Z M9.20135747,7.47794118 C9.20135747,8.19852941 9.75565611,8.61029412 10.5316742,8.45588235 C11.3076923,8.30147059 11.7511312,7.83823529 11.9728507,7.22058824 C12.25,6.5 11.6957014,5.72794118 10.9751131,5.77941176 C10.0882353,5.83088235 9.25678733,6.60294118 9.20135747,7.47794118 L9.20135747,7.47794118 Z" id="XMLID_23_"></path>
                        </g>
                    </g>
                </g>
            </g>
        </g>
    </g>
</svg>
